<svg width="50" height="50" viewBox="0 0 50 50" fill="none" xmlns="http://www.w3.org/2000/svg">
<mask id="mask0_53_1244" style="mask-type:alpha" maskUnits="userSpaceOnUse" x="0" y="0" width="50" height="50">
<circle cx="24.918" cy="24.918" r="24.918" fill="#D9D9D9"/>
</mask>
<g mask="url(#mask0_53_1244)">
<path d="M38.5784 45.4902C38.464 45.5719 38.3333 45.6536 38.2189 45.7353C38.0882 45.817 37.9738 45.8987 37.8431 45.9641C37.7287 46.0294 37.6307 46.0948 37.5163 46.1602C37.5 46.1765 37.4836 46.1765 37.4673 46.1928C37.0915 46.4216 36.6993 46.634 36.3072 46.8301C36.1928 46.8955 36.0621 46.9608 35.9477 47.0098C35.9477 47.0098 35.9313 47.0262 35.915 47.0262C35.7843 47.0915 35.6536 47.1569 35.5228 47.2223C35.2614 47.353 34.9836 47.4674 34.7222 47.5817C34.5915 47.6471 34.4444 47.6961 34.3137 47.7451C34.183 47.7942 34.0359 47.8595 33.9052 47.9085C33.7745 47.9576 33.6274 48.0229 33.4967 48.0719C33.4967 48.0719 33.4967 48.0719 33.4804 48.0719C33.3496 48.1209 33.2026 48.17 33.0719 48.219C32.7777 48.317 32.4673 48.4151 32.1732 48.5131C32.0751 48.5458 31.9607 48.5785 31.8627 48.6111C31.5522 48.7092 31.2418 48.7909 30.9313 48.8562C30.817 48.8889 30.7026 48.9053 30.5719 48.9379C30.2777 49.0033 29.9673 49.0687 29.6732 49.134C29.6078 49.1504 29.5588 49.1504 29.4934 49.1667C29.3954 49.183 29.281 49.1994 29.183 49.2157C29.0359 49.2321 28.9052 49.2647 28.7581 49.2811C28.6928 49.2974 28.6274 49.2974 28.5621 49.3138C28.4804 49.3301 28.3823 49.3464 28.2843 49.3464C28.0228 49.3791 27.7451 49.4118 27.4836 49.4445C27.4019 49.4608 27.3039 49.4608 27.2222 49.4772H27.2058C27.0915 49.4935 26.9771 49.4935 26.8627 49.5098C26.7483 49.5262 26.634 49.5262 26.5196 49.5262C26.4542 49.5262 26.3725 49.5425 26.3072 49.5425C26.1764 49.5425 26.0621 49.5589 25.9477 49.5589C25.7843 49.5589 25.6372 49.5752 25.4738 49.5752C25.3104 49.5752 25.1634 49.5752 25 49.5752C24.8856 49.5752 24.7712 49.5752 24.6568 49.5752C17.7614 49.4772 11.5686 46.5523 7.14049 41.9118C7.14049 41.9118 7.14049 41.8955 7.12415 41.8955C6.63395 41.4543 7.05879 39.1013 9.03591 37.6144C11.5196 35.7353 17.4673 34.5589 17.4673 34.5589C17.4673 34.5589 19.7712 34.183 28.317 35.9641C33.317 37.0098 37.1241 38.5294 39.2483 42.6471C39.6895 43.4968 40.1307 44.804 38.5784 45.4902Z" fill="white"/>
<path d="M28.3661 35.7843C31.5033 36.4216 34.853 37.1079 37.4347 39.183C38.3007 39.8856 38.8726 40.9151 39.3465 41.9118C39.5752 42.402 39.804 42.9085 39.9837 43.4477C40.0818 43.8072 40.2288 44.2157 40.1471 44.6405C40.1308 44.7549 40.0327 44.902 39.951 44.9837C39.5752 45.3595 39.1667 45.5883 38.7582 45.8824C36.3563 47.549 33.5948 48.7255 30.7354 49.3464C24.3628 50.7353 17.4674 49.6569 11.8628 46.3072C10.0001 45.1798 8.28438 43.8072 6.81379 42.1896C6.65039 41.9935 6.65039 41.6667 6.65039 41.4543C6.66673 40.9641 6.79745 40.4902 6.96085 40.049C7.353 39.036 7.85954 38.0229 8.72555 37.3203C9.34647 36.8954 10.0164 36.536 10.7027 36.2418C12.8595 35.3268 15.1308 34.6896 17.4674 34.4281C17.6635 34.4118 17.6961 34.6896 17.5001 34.7222C15.2615 35.1798 13.0393 35.866 10.9641 36.7974C10.2125 37.1732 9.41183 37.5 8.80725 38.0883C8.23536 38.7092 7.82686 39.4771 7.50006 40.2615C7.28765 40.7353 7.14059 41.4869 7.20595 41.8628C8.23536 43.0883 9.44451 44.1667 10.7517 45.0981C17.9086 50.0981 28.7746 50.4249 36.389 46.2582C37.0752 45.8824 37.7452 45.4575 38.3824 45.0164C38.6929 44.8039 39.0197 44.6242 39.2648 44.3791C39.2811 44.3628 39.2648 44.3791 39.2648 44.3954C39.2648 44.4118 39.2484 44.4281 39.2484 44.4281C39.2648 44.232 39.1994 43.9706 39.1177 43.7092C38.8236 42.7615 38.3497 41.7647 37.8432 40.8987C37.0425 39.6079 35.6863 38.7909 34.3138 38.1373C33.3661 37.6961 32.3693 37.353 31.3563 37.0262C30.3432 36.6994 29.3138 36.4216 28.2844 36.1765C28.0229 36.1111 28.1046 35.7353 28.3661 35.7843Z" fill="black"/>
<path d="M44.0032 55.6209H2.67969C2.67969 55.6209 3.16988 48.4967 5.65354 43.0882C6.5359 41.1765 7.22217 38.3987 8.83982 37.1405C10.7026 35.7026 14.379 34.8039 15.6862 34.5425C16.6503 34.3464 16.781 34.5261 17.4509 34.3464C17.4509 34.4281 17.4673 34.4935 17.4673 34.5752C17.4673 34.5752 19.232 39.8203 23.8235 41.683C27.5653 43.2026 29.7875 42.1895 30.1307 40.5065C30.3431 39.4281 29.6732 37.6634 29.33 37.0915C29.1339 36.9281 29.0032 36.683 28.9379 36.4379L28.8071 35.8987C29.1176 35.8333 29.4117 35.7516 29.7058 35.6536C29.8039 35.6209 29.8856 35.5882 29.9836 35.5556C32.3529 36.2255 35.2287 37.4346 37.745 39.3464C39.1176 40.3922 40.2614 43.0882 41.6666 47.6471C43.3169 52.8922 44.0032 55.6209 44.0032 55.6209Z" fill="black"/>
<path d="M31.4707 39.6569C31.4217 39.1993 31.34 38.7908 31.2583 38.4314C30.9151 36.8301 29.8857 35.4248 29.8857 35.4248C29.8857 35.4248 27.304 33.6438 23.3171 33.1699C19.3302 32.6961 17.3857 33.1699 17.3857 33.1699C17.0916 33.268 16.7321 33.464 16.4053 33.6438C15.8171 33.9869 15.3432 34.4771 15.0491 35.0817C15.0491 35.098 15.0328 35.098 15.0328 35.1144C14.6079 36.3399 16.7975 40.866 22.4347 43.3987C28.2517 46.0131 31.8629 42.9575 31.4707 39.6569Z" fill="black"/>
<path d="M10.7844 65.1471C10.572 60.3595 10.4739 55.3105 10.4086 50.5066C10.3759 48.6438 10.2942 46.7648 10.7517 44.9347C11.4543 41.8791 13.5785 39.0197 16.6177 38.0229L16.5034 38.1373C16.8465 37.2713 17.2223 36.3072 18.0556 35.8007C18.0883 35.7844 18.1047 35.8334 18.0883 35.8497C17.5164 36.2419 17.206 36.9118 16.9445 37.5491C16.8465 37.7615 16.7975 38.0229 16.6994 38.219C15.5556 38.6438 14.5426 39.3791 13.7092 40.2452C12.8759 41.1275 12.206 42.1733 11.7648 43.3007C11.1929 44.7223 10.9478 46.2419 10.8988 47.7615C10.8661 53.4968 11.0295 59.5589 10.7844 65.1471Z" fill="white"/>
<path d="M18.0554 65.147C17.7286 62.1569 17.5325 59.085 17.4998 56.0784C17.4671 53.317 17.5488 50.4738 17.8756 47.7287C18.0554 46.1274 18.6273 42.4673 19.8201 41.4052L19.9508 41.3072C20.0325 41.2745 20.0488 41.2418 20.1632 41.2255L19.9998 41.3889C20.0815 40.768 20.3103 40.1797 20.6371 39.6569C20.7515 39.4935 20.8658 39.3301 20.9966 39.1667C21.0129 39.1503 21.0619 39.1667 21.0292 39.1993C20.9149 39.3627 20.8005 39.5261 20.7188 39.7059C20.441 40.2287 20.2449 40.8006 20.1959 41.3889C20.1959 41.4052 20.1796 41.4052 20.1796 41.4216C20.0815 41.4542 19.9671 41.5359 19.8854 41.634C19.6403 41.8954 19.477 42.2712 19.3299 42.598C19.1011 43.1699 18.9377 43.7908 18.807 44.4118C18.4802 45.9967 18.3005 47.6634 18.1698 49.281C17.99 51.9935 17.9247 54.8693 17.9247 57.5817L17.941 59.1013C17.941 61.1111 18.039 63.1372 18.0881 65.147C18.1044 65.1634 18.0554 65.1797 18.0554 65.147Z" fill="white"/>
<path d="M24.771 65.1471C24.7874 60.1634 24.5749 55.1634 24.5586 50.1797C24.5423 47.9248 24.5423 45.6046 24.5913 43.3497C24.7383 42.7614 24.8527 42.1405 24.9017 41.5196C24.9181 41.3235 24.9181 41.1111 24.9017 40.8987C24.9017 40.866 24.9508 40.866 24.9508 40.8987C25.0815 41.7157 24.9834 42.549 24.82 43.366C24.8854 45.147 24.9508 46.9935 24.9834 48.8072C25.0978 52.8922 25.1305 56.9771 25.0325 61.0621C25.0161 61.8464 24.9671 63.0065 24.9181 63.7908C24.8854 64.2484 24.8364 64.6895 24.8037 65.1471C24.8037 65.1634 24.7874 65.1634 24.771 65.1634V65.1471Z" fill="white"/>
<path d="M32.4182 65.147C32.2712 61.3725 32.1731 57.4183 31.8463 53.6601C31.6502 51.2745 31.3398 48.9216 30.8823 46.585C30.6045 45.1797 30.245 43.7582 29.6731 42.4346C29.5751 41.683 29.33 40.866 28.7417 40.3431C28.7254 40.3268 28.7254 40.3104 28.7417 40.3104C28.7581 40.2941 28.7581 40.2941 28.7744 40.3104C28.9378 40.4248 29.0849 40.5719 29.2156 40.7353C29.5751 41.2091 29.8038 41.8627 29.8855 42.4019C30.5555 43.6928 30.9313 45.098 31.2744 46.5033C31.4868 47.4183 31.6829 48.415 31.83 49.3301C32.0424 50.6372 32.2385 52.3039 32.3365 53.6274C32.4182 54.4281 32.4672 55.6863 32.5163 56.5033C32.5816 58.4314 32.598 60.3431 32.5653 62.2712L32.4836 65.147C32.4836 65.1634 32.4672 65.1634 32.4509 65.1634C32.4346 65.1634 32.4182 65.147 32.4182 65.147Z" fill="white"/>
<path d="M38.5618 65.1307C38.9703 60.6536 38.8069 56.1111 38.1696 51.6667C38.0062 50.5065 37.7611 49.2974 37.4997 48.1536C37.1892 47.0262 36.8134 45.8824 36.3069 44.8366C35.9474 44.036 35.4735 43.268 34.9997 42.5327C34.3461 41.6013 33.5128 40.6373 32.6141 39.9347C32.1565 39.5588 31.6663 39.1994 31.1435 38.9379C30.882 38.5948 30.7186 38.2516 30.3428 37.9248C30.0487 37.6471 29.6892 37.4183 29.2807 37.402C29.2644 37.402 29.248 37.3856 29.248 37.3693C29.248 37.353 29.2644 37.353 29.2644 37.353C29.4768 37.3366 29.6892 37.402 29.8853 37.4837C30.4572 37.7614 30.882 38.268 31.2252 38.7909C33.4964 39.853 35.2938 42.0098 36.4866 44.232C36.9605 45.1798 37.3853 46.1601 37.6794 47.1732L37.9409 48.0392C38.7252 51.2745 39.0356 54.6079 39.0846 57.9248C39.101 60.3431 38.9703 62.7614 38.5945 65.1471C38.5945 65.1634 38.5781 65.1634 38.5618 65.1634C38.5618 65.1634 38.5618 65.1471 38.5618 65.1307Z" fill="white"/>
<path d="M31.2089 46.3399C33.4965 46.4216 35.1959 45.6863 35.4573 43.2189C35.4737 43.0229 35.6207 42.8758 35.8005 42.8431C36.7972 42.598 37.4671 41.7157 37.6632 40.7189C37.7122 40.5555 37.7286 40.3431 37.7612 40.1797C37.7776 40 37.7939 39.8039 37.8103 39.6078C37.8103 39.5915 37.8266 39.5915 37.8429 39.5915C37.8593 39.5915 37.8593 39.6078 37.8593 39.6078C37.892 39.951 37.9246 40.4085 37.892 40.7516C37.8266 41.9118 37.0586 43.0065 35.8985 43.317L35.9312 43.2843C35.8005 45.098 34.6893 46.4216 32.8266 46.5359C32.2874 46.585 31.7318 46.5359 31.1926 46.4052C31.1763 46.4052 31.1763 46.3889 31.1763 46.3725C31.1763 46.3399 31.1926 46.3399 31.2089 46.3399Z" fill="white"/>
<path d="M8.38225 38.8072C8.56199 39.7385 9.10121 40.6536 9.9182 41.1438C9.98356 41.1928 10.1306 41.2581 10.196 41.3072C10.343 41.3725 10.5064 41.4379 10.6535 41.4869L10.964 41.5686C11.0457 41.6013 11.1927 41.6176 11.2908 41.634L11.6175 41.683C11.9443 41.732 12.4509 41.5523 12.6143 41.9281C13.6927 44.2157 15.8006 45.9477 18.4476 45.4412C18.611 45.4248 18.7744 45.4902 18.8398 45.6372C18.9868 45.866 19.1829 46.1111 19.3626 46.3235C20.294 47.4346 21.6992 48.2516 23.1862 47.9412C23.7744 47.8268 24.3463 47.5817 24.8692 47.2549C24.8855 47.2385 24.9019 47.2549 24.9019 47.2549C22.5979 49.1666 20.0162 48.1536 18.4476 45.866L18.4966 45.8823C17.843 45.9967 17.1731 46.0294 16.5032 45.8987C14.5424 45.5392 13.0391 43.8725 12.2548 42.0588L12.2875 42.0751C11.9443 42.0588 11.5685 42.0425 11.2254 41.9608C11.1274 41.9444 10.964 41.9117 10.8823 41.8791C10.6862 41.83 10.3921 41.7157 10.2123 41.6176L10.0489 41.5359L9.90186 41.4379C9.8365 41.3889 9.6731 41.3072 9.60774 41.2418C8.85611 40.6536 8.41493 39.7222 8.31689 38.7908C8.31689 38.7745 8.33323 38.7581 8.33323 38.7581C8.38225 38.7908 8.38225 38.7908 8.38225 38.8072Z" fill="white"/>
<path d="M30.6536 44.3627C32.6144 43.8399 33.5785 42.6961 33.2844 40.6373C33.268 40.5065 33.3007 40.3758 33.3824 40.2941C33.9216 39.6569 34.0687 38.7908 33.987 37.9739C33.9706 37.7124 33.8726 37.3366 33.8236 37.0752C33.8236 37.0588 33.8236 37.0425 33.8399 37.0425C33.8563 37.0425 33.8563 37.0425 33.8726 37.0588C34.0033 37.3366 34.134 37.6307 34.2157 37.9248C34.3791 38.5294 34.3791 39.183 34.183 39.7712C34.085 40.0654 33.9379 40.3595 33.7419 40.6046L33.7582 40.5719C34.036 42.0425 33.5458 43.5621 32.0589 44.134C31.6177 44.3137 31.1438 44.4118 30.67 44.4281C30.621 44.4118 30.621 44.3627 30.6536 44.3627Z" fill="white"/>
<path d="M12.1893 36.3235C11.9279 37.1732 12.222 38.1209 12.8593 38.7255L12.941 38.8235L13.039 38.9052C13.2351 39.0686 13.4638 39.2157 13.6763 39.3627L14.1338 39.6078C14.2318 39.6568 14.2972 39.7549 14.3135 39.8693C14.6403 41.0948 15.637 42.0588 16.7645 42.5817C17.4834 42.9575 18.2678 43.1372 19.0521 43.2843C19.2808 43.3333 19.3462 43.5457 19.5096 43.6928C19.6893 43.8725 19.8854 44.0523 20.0815 44.2157C21.2743 45.2287 22.8756 45.768 24.4442 45.5555L24.8527 45.5065C24.8691 45.5065 24.8854 45.5065 24.8854 45.5229C24.8854 45.5392 24.8854 45.5392 24.8691 45.5555C23.2841 46.0457 21.5357 45.7353 20.1632 44.7876C19.7547 44.5098 19.1828 44.0359 18.954 43.7255C17.8593 43.5457 16.7482 43.2189 15.8331 42.5817C14.9508 41.9934 14.0848 40.8823 13.9704 39.9183C13.6926 39.7549 13.2841 39.4934 13.039 39.2974C12.99 39.2647 12.7776 39.0523 12.7285 39.0032C12.6468 38.9052 12.5325 38.7908 12.4671 38.6764C11.9769 37.9902 11.8135 37.0588 12.1566 36.2745C12.1566 36.2581 12.173 36.2581 12.1893 36.2581C12.2057 36.2908 12.2057 36.3072 12.1893 36.3235Z" fill="white"/>
<path d="M15.049 35.098C15.0163 35.8497 15.2941 36.6013 15.7843 37.1569C15.8823 37.2876 16.0457 37.4346 16.1764 37.549C16.2254 37.5817 16.3888 37.7124 16.4379 37.7451C16.6013 37.8758 16.8954 37.9412 16.9117 38.1699C16.9607 38.5294 17.1405 38.9052 17.3529 39.1993C18.0228 40.1797 19.183 40.7026 20.3104 41.0294C20.4084 41.0621 20.4738 41.1111 20.5228 41.1928C21.5196 42.451 23.1699 43.1046 24.7548 42.9412C25.0326 42.9575 25.2777 43.1046 25.5718 43.1536C26.1928 43.317 26.879 43.3987 27.5163 43.3497C28.366 43.317 29.1503 42.9575 29.5751 42.2222C29.6568 42.1078 29.7712 42.0915 29.8692 42.0098C30.3267 41.6993 30.7026 41.2745 30.9313 40.768C31.2254 40.1634 31.1601 39.4771 30.9967 38.8562C31.0294 38.5948 31.0784 38.3007 31.062 38.0065C31.0457 37.1895 30.7189 36.3889 30.196 35.7516C30.1633 35.7353 30.2124 35.6863 30.2287 35.719C31.0457 36.5196 31.4215 37.7124 31.2581 38.8399C31.781 40.1961 31.1764 41.683 29.9019 42.4673C29.5098 43.2353 28.4803 43.7745 27.5653 43.8072C26.6666 43.8889 25.5882 43.6928 24.8202 43.4314C23.0718 43.6111 21.2418 42.8595 20.1797 41.4379L20.196 41.4542C19.8365 41.3399 19.3464 41.1601 19.0196 40.9967C18.9379 40.9477 18.6764 40.817 18.5947 40.768C18.4967 40.7026 18.2843 40.5719 18.2026 40.5065L17.9575 40.3105C17.3039 39.7712 16.781 39.0359 16.6666 38.1863L16.683 38.2189C16.5522 38.1209 16.4215 38.0392 16.3071 37.9412L16.1274 37.7941L16.0457 37.7124C15.964 37.6307 15.8823 37.5327 15.8006 37.4673C15.6535 37.2876 15.5065 37.0915 15.3921 36.8954C15.098 36.3562 14.9509 35.719 15.0326 35.098C15.0326 35.0817 15.049 35.0817 15.0653 35.0817C15.0326 35.0817 15.049 35.0817 15.049 35.098Z" fill="white"/>
<path d="M29.0411 45.4026C29.0466 44.9334 28.6779 44.5487 28.2177 44.5434C27.7576 44.538 27.3801 44.914 27.3746 45.3833C27.3692 45.8525 27.7378 46.2372 28.198 46.2425C28.6582 46.2479 29.0357 45.8719 29.0411 45.4026Z" fill="white"/>
<path d="M30 47.6143C30.1144 48.4803 29.5425 49.281 28.7255 49.379C27.9085 49.4771 27.1569 48.8725 27.0425 47.9901C26.9281 47.1241 27.451 45.9313 28.268 45.8169C29.085 45.7189 29.8856 46.732 30 47.6143Z" fill="white"/>
<path d="M27.8755 46.5686C27.4507 46.9117 26.3069 46.9444 25.8494 46.6176C25.2775 46.1764 25.8821 44.7222 26.2742 44.2646C26.2906 44.2483 26.3232 44.2483 26.3232 44.281L26.1762 45.2287C26.1435 45.5391 26.0781 45.8659 26.1108 46.1601C26.1108 46.2254 26.1762 46.2581 26.2415 46.2744C26.6827 46.4378 27.1566 46.4869 27.6304 46.5359C27.6958 46.5359 27.8102 46.5522 27.8592 46.5195C27.8592 46.5359 27.8755 46.5522 27.8755 46.5686Z" fill="white"/>
<path d="M27.745 47.5326C27.1241 47.9738 26.4378 48.1699 25.6698 48.0882C25.6208 48.0882 25.5228 48.0555 25.4737 48.0392C24.6894 47.7777 24.428 46.8137 24.5914 46.0784C24.5914 46.0457 24.6241 46.0294 24.6404 46.062C24.8201 46.6339 25.0652 47.4673 25.7352 47.5816C26.062 47.6307 26.4051 47.6143 26.7319 47.5816C27.0587 47.549 27.4018 47.5163 27.7286 47.4509C27.7613 47.4673 27.7777 47.4999 27.745 47.5326C27.7613 47.5163 27.745 47.5326 27.745 47.5326Z" fill="white"/>
<path d="M27.5161 48.3333C27.1566 48.4967 26.8298 48.6274 26.5684 48.7908C26.3723 48.9215 26.2416 49.0195 26.1599 49.2319C26.0618 49.4934 26.0782 49.8038 26.0945 50.1633C26.1272 50.4901 26.1762 50.8496 26.1926 51.2418C26.1926 51.2581 26.1599 51.2744 26.1435 51.2581C25.6207 50.4248 25.1468 48.8234 26.4213 48.4313C26.7645 48.3169 27.1403 48.2842 27.4998 48.3006C27.5488 48.2842 27.5488 48.3333 27.5161 48.3333Z" fill="white"/>
<path d="M27.9249 48.8561C27.8595 49.281 27.6961 49.5751 27.8268 49.9019C28.0556 50.3757 28.2517 50.8659 28.2517 51.4378C28.2517 51.4542 28.219 51.4705 28.219 51.4542C28.0719 51.2581 27.9249 51.0457 27.7778 50.8333C27.5981 50.5065 27.3203 50.1797 27.3203 49.7875C27.3367 49.3953 27.5981 49.0522 27.8759 48.8071C27.9249 48.7908 27.9412 48.8234 27.9249 48.8561Z" fill="white"/>
<path d="M28.8561 46.4052C28.9378 46.3235 29.1176 46.1764 29.2156 46.0947C29.477 45.8823 29.8365 45.6535 30.098 45.4411C30.1143 45.4248 30.1306 45.4084 30.1143 45.4411C30.098 45.4575 30.0816 45.4901 30.0653 45.5228C30.0489 45.5718 30.0326 45.6045 30.0489 45.6535C29.9019 45.0653 29.7221 44.4934 29.7548 43.8562V43.8398C29.7548 43.8235 29.7875 43.8071 29.8038 43.8235C30.0163 44.2483 30.2287 44.6895 30.3921 45.1307C30.4574 45.2941 30.5391 45.4738 30.5391 45.6699C30.5228 45.7516 30.4574 45.7843 30.4084 45.8333C30.2123 45.9803 29.9836 46.0784 29.7712 46.1764C29.6568 46.2254 28.8071 46.5849 28.8398 46.4215C28.8398 46.4052 28.8561 46.4052 28.8561 46.4052Z" fill="white"/>
<path d="M29.1994 47.2875C29.7877 46.9117 30.4739 46.7483 31.0622 46.5032C31.2256 46.4052 31.3073 46.2418 31.4053 46.0457C31.5524 45.7843 31.6668 45.4575 31.8302 45.1143C31.8302 45.098 31.8465 45.098 31.8628 45.098C31.9119 45.6045 31.8465 46.1601 31.5851 46.6176C31.3073 47.0915 30.6864 47.1241 30.1962 47.2222C29.853 47.2712 29.5262 47.3202 29.1831 47.3366C29.1668 47.3366 29.1668 47.3039 29.1994 47.2875Z" fill="white"/>
<path d="M29.6077 48.0065C30.8822 46.9444 32.4345 47.7777 32.1568 49.4444C32.0914 49.8365 31.9443 50.2124 31.6666 50.5228C31.6502 50.5392 31.6175 50.5228 31.6175 50.5065C31.6666 50.3267 31.6992 50.1633 31.7156 49.9836C31.879 48.7744 31.5685 47.745 30.1306 47.9575C29.9509 47.9738 29.7711 48.0065 29.6077 48.0555C29.5914 48.0718 29.5751 48.0228 29.6077 48.0065Z" fill="white"/>
<path d="M29.3789 48.6274C29.9508 48.562 30.5717 49.0032 30.588 49.6405C30.5554 50.294 30.2612 50.8823 29.722 51.2744C29.7057 51.2908 29.673 51.2908 29.673 51.2581C29.8364 50.7842 29.9998 50.3104 30.0815 49.8202C30.1469 49.5751 30.0815 49.3463 29.9181 49.1503C29.771 48.9705 29.575 48.8071 29.3625 48.6764C29.3299 48.6437 29.3462 48.611 29.3789 48.6274Z" fill="white"/>
<path d="M29.9016 40.1307C29.5584 41.8137 27.3362 42.8268 23.5944 41.3072C19.7055 39.7385 18.0225 35.9967 17.5977 34.8856C19.9016 30.5719 18.3003 27.5817 18.3003 27.5817C23.6107 27.1242 28.2512 33.3333 28.2512 33.3333L28.9702 36.4052C29.0356 36.6667 29.1663 36.8954 29.3624 37.0588C29.7055 37.6634 30.114 39.0523 29.9016 40.1307Z" fill="white"/>
<path d="M17.516 34.9346C17.8264 34.4608 18.0225 33.9052 18.1532 33.366C18.3983 32.2386 18.48 31.0948 18.4964 29.951V29.5261C18.4474 29.1013 18.3003 28.6601 18.1369 28.268C17.9245 27.7451 18.6924 27.4183 18.9375 27.9412C18.9702 28.0065 18.9702 28.1209 18.9702 28.1863C19.0192 30.4085 19.1173 33.268 17.7121 35.1144C17.614 35.2124 17.4179 35.0654 17.516 34.9346Z" fill="black"/>
<path d="M28.4308 33.3007C28.6759 33.4477 28.7576 33.6438 28.7903 33.8399C28.8883 34.232 28.8556 34.6569 28.9537 35.0654C29.0354 35.4575 29.2805 35.8333 29.3458 36.2418C29.4275 36.6667 29.6726 37.5654 29.7707 38.0066C29.8033 38.1046 29.738 38.219 29.6236 38.2353C29.5582 38.2516 29.5092 38.2353 29.4602 38.2026C29.2478 38.0229 29.1498 37.8432 29.019 37.6144C28.8066 37.2222 28.6596 36.8628 28.5288 36.4216C28.4145 36.0294 28.4635 35.6046 28.3654 35.1961C28.2837 34.8039 28.055 34.4281 27.9733 34.0196C27.9243 33.8235 27.9079 33.6111 28.055 33.366C28.153 33.268 28.3164 33.2353 28.4308 33.3007Z" fill="black"/>
<path d="M29.6077 37.6144C26.4868 37.451 23.9378 36.4706 21.4541 32.0425C23.5456 33.8889 26.0129 34.5915 28.611 34.9183L28.9541 36.4216C29.0195 36.683 29.4116 37.451 29.6077 37.6144Z" fill="black"/>
<path d="M29.4768 37.0098C30.0324 38.0555 30.3592 39.3627 30.016 40.5229C29.7546 41.3398 29.003 41.9444 28.186 42.1732C26.2906 42.6797 24.101 41.8791 22.418 40.9804C20.3428 39.8202 18.8069 37.8758 17.8265 35.7516C17.7611 35.5882 17.9899 35.4575 18.0879 35.6209C18.4311 36.3072 18.8232 36.9771 19.2644 37.5817C19.7056 38.2026 20.2121 38.7745 20.784 39.281C22.4507 40.7843 24.7056 41.7157 26.9605 41.7157C29.2808 41.6503 30.1631 40.4248 29.6239 38.1699C29.5422 37.8104 29.4115 37.4346 29.2317 37.1242C29.1337 36.9934 29.3788 36.8464 29.4768 37.0098Z" fill="black"/>
<path d="M35.8003 17.3856C36.0944 18.7582 36.2415 19.8693 35.4408 23.5294C34.6565 27.1732 36.5683 27.9248 32.0421 33.7582C30.1957 36.1438 25.7186 35.4739 22.0912 33.0065C20.8657 32.1732 20.3428 30.0327 19.4278 28.5131C18.7088 27.3203 18.382 28.5621 17.4343 27.5327C16.1434 26.1275 14.5912 23.3007 15.3591 18.3007C16.601 10.1961 23.0225 9.24836 27.7774 10.1471C32.565 11.0621 35.016 13.7745 35.8003 17.3856Z" fill="white"/>
<path d="M18.2515 28.9869C17.8756 28.3497 17.3854 27.7941 16.9279 27.2059C16.4868 26.6013 16.1273 25.9314 15.8332 25.2451C13.8887 20.4739 14.6403 13.7582 19.4116 10.9477C21.3887 9.80392 23.7743 9.52614 25.9966 9.70588C30.7515 10.049 35.1142 12.2386 36.1436 17.2712C36.6992 19.4935 35.9475 21.781 35.5227 23.9542C35.3266 25.0327 35.49 26.1438 35.4737 27.2549C35.4573 28.3824 35.1469 29.5098 34.722 30.5556C34.4606 31.2745 34.0031 31.9118 33.5292 32.5C32.7449 33.4477 31.9606 34.4118 30.9639 35.1471C30.7351 35.3105 30.3266 35.3922 30.0488 35.4248C29.2809 35.5392 28.5292 35.5719 27.7613 35.5229C24.7547 35.3922 21.5358 33.9379 20.3266 31.0294C20.2776 30.915 20.441 30.8333 20.5064 30.9314C22.075 33.415 24.9508 34.6405 27.8103 34.8039C28.6926 34.8529 29.5913 34.8366 30.4573 34.6569C30.8822 34.4444 31.258 34.0686 31.6175 33.7255C32.4998 32.8431 33.3985 31.8954 34.0358 30.817C34.8037 29.3627 35.2286 27.7778 35.0979 26.1274C35.0652 25.3922 35.0488 24.6242 35.1959 23.8889C35.3266 23.1536 35.49 22.451 35.5881 21.6993C35.6861 20.9804 35.7351 20.2451 35.7351 19.5261C35.6534 17.4183 34.9671 15.2451 33.6273 13.6111C30.6698 9.93464 23.6763 8.97059 19.7384 11.4869C17.2547 13.0229 16.0946 15.8987 15.7188 18.6928C15.1469 22.0425 15.3103 25.3431 17.9737 27.7778L18.758 28.5948C19.0685 28.9542 18.5129 29.3791 18.2515 28.9869Z" fill="black"/>
<path d="M20.1795 23.7908C20.1795 23.7908 19.673 21.3398 17.2873 21.634C15.2285 21.8954 14.5096 26.83 19.1828 28.2026" fill="white"/>
<path d="M18.9705 26.0621C18.5947 25.8497 18.3333 25.4902 18.3169 25.049C18.3333 24.7222 18.3823 24.3464 18.3006 24.0196C18.2516 23.7091 17.9248 23.6274 17.6797 23.6438C17.4182 23.6928 17.2548 24.0196 17.2058 24.281C17.2058 24.2974 17.1895 24.3464 17.1895 24.3627C17.1731 24.4444 17.0424 24.4444 17.0097 24.3627C16.7973 23.7255 17.2712 23.0229 17.9574 23.1046C18.9215 23.1699 19.0522 24.183 18.8725 24.951C18.7744 25.2778 18.9051 25.5719 19.0849 25.8497L19.1176 25.8987C19.1993 25.9967 19.0685 26.1274 18.9705 26.0621Z" fill="black"/>
<path d="M32.042 22.0588C32.2871 23.2189 32.7446 24.2974 33.3165 25.3104C33.8231 26.5523 32.5159 27.7287 31.3558 27.6797C31.225 27.6797 31.2087 27.5 31.3231 27.4673C32.0584 27.2385 32.7283 26.7483 32.8427 25.9967C32.8917 25.768 32.8263 25.5719 32.712 25.3758C32.1727 24.3627 31.8459 23.2026 31.9276 22.0588C31.9276 21.9771 32.042 21.9771 32.042 22.0588Z" fill="black"/>
<path d="M20.0981 23.8072C19.7223 22.8431 18.9053 21.9281 17.8105 21.9445C17.7125 21.9281 17.5491 21.9608 17.451 21.9608C17.1733 21.9771 16.9445 22.0752 16.7321 22.2713C15.6863 23.317 15.8661 25.1634 16.7157 26.3235C17.0099 26.732 17.3857 27.0915 17.8105 27.3856C18.2354 27.6798 18.7092 27.9085 19.2157 28.1046C19.3301 28.1373 19.2811 28.317 19.1667 28.3007C18.072 28.0719 17.0262 27.5327 16.3073 26.634C15.1961 25.2941 14.9674 23.0556 16.2909 21.7484C16.585 21.4869 16.9935 21.2909 17.402 21.2909C17.5327 21.2909 17.7288 21.2582 17.8595 21.2909C18.5458 21.3235 19.1994 21.6667 19.6242 22.2059C20.0001 22.6634 20.2125 23.219 20.2778 23.7745C20.2778 23.8726 20.1308 23.9052 20.0981 23.8072Z" fill="black"/>
<path d="M30.8009 29.3137C29.7551 30.3105 27.778 29.5098 27.2551 28.3007C27.1898 28.1536 27.3532 28.0229 27.4839 28.0882C27.7616 28.2353 28.0067 28.3824 28.2682 28.4967C29.0198 28.8399 29.8041 29.1177 30.6375 29.036C30.8009 29.0033 30.9152 29.1993 30.8009 29.3137Z" fill="black"/>
<path d="M25.9476 23.7255C25.5554 23.7092 25.2613 23.3824 25.294 22.9902L25.3103 22.5327C25.3267 22.1405 25.6535 21.8464 26.0456 21.8791C26.4378 21.8954 26.7319 22.2222 26.6992 22.6144L26.6829 23.0719C26.6665 23.4477 26.3397 23.7418 25.9476 23.7255Z" fill="black"/>
<path d="M32.8267 23.9706C32.4672 23.9543 32.1894 23.6438 32.2058 23.2843L32.2221 22.8595C32.2384 22.5 32.5489 22.2222 32.9084 22.2386C33.2679 22.2549 33.5456 22.5654 33.5293 22.9248L33.513 23.3497C33.4966 23.7092 33.1862 23.9869 32.8267 23.9706Z" fill="black"/>
<path d="M27.4185 22.8431C26.8792 22.4837 26.291 22.2386 25.6374 22.3693C25.425 22.402 25.2126 22.4673 25.0819 22.6144C25.0328 22.6797 24.9185 22.6634 24.9185 22.5654C24.9348 22.2386 25.2126 22.0261 25.474 21.8954C25.9805 21.634 26.6832 21.683 27.1407 22.0261C27.3041 22.1242 27.8596 22.7288 27.5655 22.8595C27.5002 22.8922 27.4675 22.8758 27.4185 22.8431Z" fill="black"/>
<path d="M32.0918 22.9248C32.0918 22.2386 32.9415 21.9935 33.4643 22.2386C33.7585 22.3693 33.9709 22.6307 34.0526 22.9412C34.0853 23.0392 33.9382 23.1209 33.8728 23.0392C33.5951 22.7124 33.1212 22.549 32.7454 22.7451C32.631 22.8105 32.6147 22.8595 32.582 22.9248C32.582 23.2516 32.1081 23.2353 32.0918 22.9248Z" fill="black"/>
<path d="M28.2027 20.1471C28.5458 20.2614 28.8889 19.951 28.8236 19.5752C28.7909 19.3791 28.7092 19.183 28.5458 19.036C28.0556 18.5948 26.0295 18.2026 24.804 18.7745C23.7255 19.2974 26.634 19.6242 28.2027 20.1471Z" fill="black"/>
<path d="M33.0883 20.4085C32.8105 20.5066 32.5164 20.2124 32.5654 19.8693C32.5818 19.6896 32.6471 19.5098 32.7779 19.3791C33.17 18.9869 34.5099 18.6765 35.3596 19.2811C36.0949 19.7876 34.3628 19.9347 33.0883 20.4085Z" fill="black"/>
<path d="M37.4021 13.9542C36.5524 6.69933 29.3465 4.24835 30.7354 9.08495C30.7354 9.08495 28.84 6.04573 24.5753 5.88234C20.9152 5.75162 23.1374 8.34966 23.1374 8.34966C23.1374 8.34966 20.2943 6.71567 15.474 9.16665C11.2747 11.3072 15.1635 13.1863 15.1635 13.1863C15.1635 13.1863 11.9936 14.8693 11.9446 18.4967C11.9282 19.4444 12.7126 20.8987 14.5753 20.4248C14.1014 24.0359 16.3073 26.9934 17.3204 28.2026C18.6276 29.7712 18.742 30.964 18.742 30.964C19.4119 30.5882 18.6276 28.9052 18.6439 28.0229C14.559 26.4542 15.2943 21.8954 17.2877 21.634C19.3792 21.3725 20.0328 23.2353 20.1472 23.6928C20.4903 23.2843 20.5884 21.6993 20.7845 20.0163C21.389 19.8202 21.9282 19.6078 22.3694 19.33C24.1014 18.3006 24.9184 16.5196 26.6831 15.4738C29.7714 13.6274 30.572 17.7941 32.2224 16.2582C34.1341 14.4934 35.523 15.8987 35.9479 18.0719C36.1113 18.8562 37.108 18.7908 37.255 18.0065C37.4838 16.8627 37.5818 15.4902 37.4021 13.9542Z" fill="black"/>
<path d="M47.0917 13.7745C57.01 32.8758 39.5753 54.4281 18.791 49.1667C9.46093 46.8464 1.96093 38.7582 0.408644 29.2647C-1.35606 19.8203 2.90864 9.67319 10.8825 4.33005C21.8139 -3.18629 36.9609 -0.686287 44.7877 10.0653C44.8368 10.1144 44.8204 10.1961 44.7551 10.2451C44.706 10.2941 44.6243 10.2778 44.5753 10.2124C43.4969 8.82352 42.2714 7.56535 40.9315 6.4379C38.7256 4.55881 36.1439 3.08822 33.4152 2.09149C19.5263 -2.94119 4.28119 5.42483 1.24198 19.951C-2.1894 36.2255 11.6505 51.2091 28.1537 48.9706C40.8825 47.3693 50.3433 35.6209 49.2975 22.8431C49.0688 19.7549 48.2518 16.6993 46.8956 13.8889C46.8629 13.8399 46.8956 13.7745 46.9446 13.7418C46.9936 13.7091 47.059 13.7255 47.0917 13.7745Z" fill="black"/>
</g>
</svg>
