<svg width="600" height="380" viewBox="0 0 600 380" fill="none" xmlns="http://www.w3.org/2000/svg">
<g clip-path="url(#clip0_276_1824)">
<path d="M528.342 346.77L528.927 333.631C535.018 330.375 541.813 328.655 548.72 328.621C539.214 336.393 540.402 351.375 533.957 361.827C529.834 368.399 522.946 372.739 515.239 373.622L507.284 378.493C505.074 366.177 508.369 353.512 516.299 343.833C518.524 341.172 521.075 338.802 523.892 336.778C525.797 341.802 528.342 346.77 528.342 346.77Z" fill="#47CBA3"/>
<path d="M126.192 332.372L106.994 326.56C104.477 316.331 104.494 305.642 107.045 295.421C114.95 312.397 137.539 316.284 150.558 329.746C158.717 338.314 162.538 350.127 160.94 361.851L165.142 375.442C146.109 374.068 128.632 364.429 117.315 349.065C114.221 344.774 111.678 340.111 109.749 335.186C117.891 334.262 126.192 332.372 126.192 332.372Z" fill="#47CBA3"/>
<path d="M461.822 376.344C461.819 376.742 461.661 377.123 461.381 377.406C461.101 377.685 460.722 377.841 460.327 377.839H454.317C453.494 377.842 452.824 377.177 452.822 376.355V194.583C452.822 190.576 451.476 187.324 449.824 187.316H75.6776C74.018 187.324 72.6799 190.576 72.6724 194.583V375.23C72.6698 376 72.0852 376.643 71.3193 376.718C70.1083 376.838 68.8972 376.942 67.6936 377.039C67.6637 377.039 67.6339 377.047 67.6039 377.047C66.9461 377.107 66.2882 377.152 65.6304 377.204H65.6229C65.279 376.583 64.9501 375.948 64.6137 375.313C64.5058 375.097 64.4496 374.859 64.4492 374.617V185.156C64.4492 184.049 64.4941 182.936 64.5688 181.837C64.6755 180.328 64.8627 178.825 65.1295 177.336C66.3929 170.391 69.2486 165.689 72.493 165.674H453.001C453.474 165.678 453.942 165.777 454.376 165.966C455.014 166.248 455.59 166.652 456.073 167.155C456.729 167.836 457.29 168.603 457.741 169.435C459.34 172.253 460.484 176.454 460.888 181.343C460.888 181.388 460.895 181.433 460.895 181.478C461 182.689 461.052 183.922 461.045 185.156L461.149 201.176L461.217 210.73L461.419 240.707L461.493 251.352L461.822 376.344Z" fill="#E6E6E6"/>
<path d="M322.964 110.255H284.834C283.711 110.257 282.801 111.168 282.802 112.292V172.525H325V112.292C325.001 111.167 324.09 110.256 322.966 110.255H322.964ZM304.027 144.479C301.545 144.468 299.536 142.458 299.525 139.977V133.029C299.525 130.543 301.54 128.527 304.027 128.527C306.514 128.527 308.53 130.543 308.53 133.029V139.977C308.518 142.458 306.509 144.468 304.027 144.479Z" fill="#CCCCCC"/>
<path d="M282.672 170.599V176.41C282.673 177.037 283.181 177.545 283.808 177.546H323.995C324.621 177.543 325.128 177.036 325.131 176.41V170.599H282.672Z" fill="#3F3D56"/>
<path d="M386.103 16.2534H223.113C220.198 16.258 217.835 18.6203 217.831 21.5359V131.522C217.833 134.438 220.197 136.802 223.113 136.805H386.103C389.019 136.802 391.383 134.438 391.385 131.522V21.5359C391.381 18.6204 389.018 16.258 386.103 16.2534Z" fill="#E6E6E6"/>
<path d="M384.743 20.0689H224.475C222.914 20.0723 221.65 21.3388 221.65 22.8999V130.16C221.653 131.719 222.916 132.982 224.475 132.985H384.743C386.302 132.982 387.565 131.719 387.568 130.16V22.8999C387.568 21.3387 386.304 20.0723 384.743 20.0689Z" fill="white"/>
<path d="M353.525 179.568H258.175C257.206 179.568 256.421 178.783 256.421 177.814C256.421 177.693 256.433 177.572 256.458 177.453L257.938 170.426C258.111 169.616 258.826 169.037 259.654 169.034H352.046C352.874 169.037 353.588 169.616 353.762 170.426L355.242 177.453C355.441 178.401 354.834 179.331 353.886 179.531C353.768 179.556 353.647 179.568 353.525 179.568Z" fill="#CCCCCC"/>
<path d="M262.903 170.299H260.696C260.494 170.299 260.331 170.462 260.331 170.664V171.696C260.331 171.897 260.494 172.061 260.696 172.061H262.903C263.104 172.061 263.268 171.897 263.268 171.696V170.664C263.268 170.462 263.104 170.299 262.903 170.299Z" fill="#E6E6E6"/>
<path d="M268.776 170.299H266.569C266.368 170.299 266.204 170.462 266.204 170.664V171.696C266.204 171.897 266.368 172.061 266.569 172.061H268.776C268.978 172.061 269.141 171.897 269.141 171.696V170.664C269.141 170.462 268.978 170.299 268.776 170.299Z" fill="#E6E6E6"/>
<path d="M274.649 170.299H272.443C272.241 170.299 272.078 170.462 272.078 170.664V171.696C272.078 171.897 272.241 172.061 272.443 172.061H274.649C274.851 172.061 275.014 171.897 275.014 171.696V170.664C275.014 170.462 274.851 170.299 274.649 170.299Z" fill="#E6E6E6"/>
<path d="M280.523 170.299H278.316C278.115 170.299 277.951 170.462 277.951 170.664V171.696C277.951 171.897 278.115 172.061 278.316 172.061H280.523C280.724 172.061 280.888 171.897 280.888 171.696V170.664C280.888 170.462 280.724 170.299 280.523 170.299Z" fill="#E6E6E6"/>
<path d="M286.396 170.299H284.189C283.988 170.299 283.824 170.462 283.824 170.664V171.696C283.824 171.897 283.988 172.061 284.189 172.061H286.396C286.598 172.061 286.761 171.897 286.761 171.696V170.664C286.761 170.462 286.598 170.299 286.396 170.299Z" fill="#E6E6E6"/>
<path d="M292.27 170.299H290.063C289.861 170.299 289.698 170.462 289.698 170.664V171.696C289.698 171.897 289.861 172.061 290.063 172.061H292.27C292.471 172.061 292.635 171.897 292.635 171.696V170.664C292.635 170.462 292.471 170.299 292.27 170.299Z" fill="#E6E6E6"/>
<path d="M298.143 170.299H295.936C295.735 170.299 295.571 170.462 295.571 170.664V171.696C295.571 171.897 295.735 172.061 295.936 172.061H298.143C298.345 172.061 298.508 171.897 298.508 171.696V170.664C298.508 170.462 298.345 170.299 298.143 170.299Z" fill="#E6E6E6"/>
<path d="M304.017 170.299H301.81C301.608 170.299 301.445 170.462 301.445 170.664V171.696C301.445 171.897 301.608 172.061 301.81 172.061H304.017C304.218 172.061 304.382 171.897 304.382 171.696V170.664C304.382 170.462 304.218 170.299 304.017 170.299Z" fill="#E6E6E6"/>
<path d="M309.89 170.299H307.683C307.482 170.299 307.318 170.462 307.318 170.664V171.696C307.318 171.897 307.482 172.061 307.683 172.061H309.89C310.091 172.061 310.255 171.897 310.255 171.696V170.664C310.255 170.462 310.091 170.299 309.89 170.299Z" fill="#E6E6E6"/>
<path d="M315.763 170.299H313.557C313.355 170.299 313.192 170.462 313.192 170.664V171.696C313.192 171.897 313.355 172.061 313.557 172.061H315.763C315.965 172.061 316.128 171.897 316.128 171.696V170.664C316.128 170.462 315.965 170.299 315.763 170.299Z" fill="#E6E6E6"/>
<path d="M321.637 170.299H319.43C319.228 170.299 319.065 170.462 319.065 170.664V171.696C319.065 171.897 319.228 172.061 319.43 172.061H321.637C321.838 172.061 322.002 171.897 322.002 171.696V170.664C322.002 170.462 321.838 170.299 321.637 170.299Z" fill="#E6E6E6"/>
<path d="M327.51 170.299H325.303C325.102 170.299 324.938 170.462 324.938 170.664V171.696C324.938 171.897 325.102 172.061 325.303 172.061H327.51C327.712 172.061 327.875 171.897 327.875 171.696V170.664C327.875 170.462 327.712 170.299 327.51 170.299Z" fill="#E6E6E6"/>
<path d="M333.384 170.299H331.177C330.975 170.299 330.812 170.462 330.812 170.664V171.696C330.812 171.897 330.975 172.061 331.177 172.061H333.384C333.585 172.061 333.748 171.897 333.748 171.696V170.664C333.748 170.462 333.585 170.299 333.384 170.299Z" fill="#E6E6E6"/>
<path d="M339.257 170.299H337.05C336.848 170.299 336.685 170.462 336.685 170.664V171.696C336.685 171.897 336.848 172.061 337.05 172.061H339.257C339.458 172.061 339.622 171.897 339.622 171.696V170.664C339.622 170.462 339.458 170.299 339.257 170.299Z" fill="#E6E6E6"/>
<path d="M345.13 170.299H342.924C342.722 170.299 342.559 170.462 342.559 170.664V171.696C342.559 171.897 342.722 172.061 342.924 172.061H345.13C345.332 172.061 345.495 171.897 345.495 171.696V170.664C345.495 170.462 345.332 170.299 345.13 170.299Z" fill="#E6E6E6"/>
<path d="M351.004 170.299H348.797C348.595 170.299 348.432 170.462 348.432 170.664V171.696C348.432 171.897 348.595 172.061 348.797 172.061H351.004C351.205 172.061 351.369 171.897 351.369 171.696V170.664C351.369 170.462 351.205 170.299 351.004 170.299Z" fill="#E6E6E6"/>
<path d="M262.833 173.235H260.626C260.425 173.235 260.261 173.399 260.261 173.6V174.633C260.261 174.834 260.425 174.997 260.626 174.997H262.833C263.035 174.997 263.198 174.834 263.198 174.633V173.6C263.198 173.399 263.035 173.235 262.833 173.235Z" fill="#E6E6E6"/>
<path d="M268.707 173.235H266.5C266.298 173.235 266.135 173.399 266.135 173.6V174.633C266.135 174.834 266.298 174.997 266.5 174.997H268.707C268.908 174.997 269.072 174.834 269.072 174.633V173.6C269.072 173.399 268.908 173.235 268.707 173.235Z" fill="#E6E6E6"/>
<path d="M274.58 173.235H272.373C272.172 173.235 272.008 173.399 272.008 173.6V174.633C272.008 174.834 272.172 174.997 272.373 174.997H274.58C274.782 174.997 274.945 174.834 274.945 174.633V173.6C274.945 173.399 274.782 173.235 274.58 173.235Z" fill="#E6E6E6"/>
<path d="M280.454 173.235H278.247C278.045 173.235 277.882 173.399 277.882 173.6V174.633C277.882 174.834 278.045 174.997 278.247 174.997H280.454C280.655 174.997 280.819 174.834 280.819 174.633V173.6C280.819 173.399 280.655 173.235 280.454 173.235Z" fill="#E6E6E6"/>
<path d="M286.327 173.235H284.12C283.919 173.235 283.755 173.399 283.755 173.6V174.633C283.755 174.834 283.919 174.997 284.12 174.997H286.327C286.528 174.997 286.692 174.834 286.692 174.633V173.6C286.692 173.399 286.528 173.235 286.327 173.235Z" fill="#E6E6E6"/>
<path d="M292.2 173.235H289.993C289.792 173.235 289.628 173.399 289.628 173.6V174.633C289.628 174.834 289.792 174.997 289.993 174.997H292.2C292.402 174.997 292.565 174.834 292.565 174.633V173.6C292.565 173.399 292.402 173.235 292.2 173.235Z" fill="#E6E6E6"/>
<path d="M298.074 173.235H295.867C295.665 173.235 295.502 173.399 295.502 173.6V174.633C295.502 174.834 295.665 174.997 295.867 174.997H298.074C298.275 174.997 298.439 174.834 298.439 174.633V173.6C298.439 173.399 298.275 173.235 298.074 173.235Z" fill="#E6E6E6"/>
<path d="M303.947 173.235H301.74C301.539 173.235 301.375 173.399 301.375 173.6V174.633C301.375 174.834 301.539 174.997 301.74 174.997H303.947C304.149 174.997 304.312 174.834 304.312 174.633V173.6C304.312 173.399 304.149 173.235 303.947 173.235Z" fill="#E6E6E6"/>
<path d="M309.821 173.235H307.614C307.412 173.235 307.249 173.399 307.249 173.6V174.633C307.249 174.834 307.412 174.997 307.614 174.997H309.821C310.022 174.997 310.185 174.834 310.185 174.633V173.6C310.185 173.399 310.022 173.235 309.821 173.235Z" fill="#E6E6E6"/>
<path d="M315.694 173.235H313.487C313.285 173.235 313.122 173.399 313.122 173.6V174.633C313.122 174.834 313.285 174.997 313.487 174.997H315.694C315.895 174.997 316.059 174.834 316.059 174.633V173.6C316.059 173.399 315.895 173.235 315.694 173.235Z" fill="#E6E6E6"/>
<path d="M321.567 173.235H319.361C319.159 173.235 318.996 173.399 318.996 173.6V174.633C318.996 174.834 319.159 174.997 319.361 174.997H321.567C321.769 174.997 321.932 174.834 321.932 174.633V173.6C321.932 173.399 321.769 173.235 321.567 173.235Z" fill="#E6E6E6"/>
<path d="M327.441 173.235H325.234C325.032 173.235 324.869 173.399 324.869 173.6V174.633C324.869 174.834 325.032 174.997 325.234 174.997H327.441C327.642 174.997 327.806 174.834 327.806 174.633V173.6C327.806 173.399 327.642 173.235 327.441 173.235Z" fill="#E6E6E6"/>
<path d="M333.314 173.235H331.107C330.906 173.235 330.742 173.399 330.742 173.6V174.633C330.742 174.834 330.906 174.997 331.107 174.997H333.314C333.516 174.997 333.679 174.834 333.679 174.633V173.6C333.679 173.399 333.516 173.235 333.314 173.235Z" fill="#E6E6E6"/>
<path d="M339.187 173.235H336.981C336.779 173.235 336.616 173.399 336.616 173.6V174.633C336.616 174.834 336.779 174.997 336.981 174.997H339.187C339.389 174.997 339.552 174.834 339.552 174.633V173.6C339.552 173.399 339.389 173.235 339.187 173.235Z" fill="#E6E6E6"/>
<path d="M345.061 173.235H342.854C342.653 173.235 342.489 173.399 342.489 173.6V174.633C342.489 174.834 342.653 174.997 342.854 174.997H345.061C345.263 174.997 345.426 174.834 345.426 174.633V173.6C345.426 173.399 345.263 173.235 345.061 173.235Z" fill="#E6E6E6"/>
<path d="M350.934 173.235H348.727C348.526 173.235 348.363 173.399 348.363 173.6V174.633C348.363 174.834 348.526 174.997 348.727 174.997H350.934C351.136 174.997 351.299 174.834 351.299 174.633V173.6C351.299 173.399 351.136 173.235 350.934 173.235Z" fill="#E6E6E6"/>
<path d="M311.582 176.76H288.819C288.617 176.76 288.454 176.923 288.454 177.124V178.157C288.454 178.358 288.617 178.522 288.819 178.522H311.582C311.784 178.522 311.947 178.358 311.947 178.157V177.124C311.947 176.923 311.784 176.76 311.582 176.76Z" fill="#E6E6E6"/>
<path d="M376.686 34.847H226.724C226.395 34.8397 226.134 34.5668 226.141 34.2375C226.148 33.9183 226.405 33.6613 226.724 33.6542H376.686C377.015 33.6615 377.277 33.9344 377.269 34.2637C377.262 34.5829 377.005 34.8399 376.686 34.847Z" fill="#CACACA"/>
<path d="M236.932 30.6094C238.863 30.6094 240.427 29.0098 240.427 27.0366C240.427 25.0633 238.863 23.4637 236.932 23.4637C235.002 23.4637 233.438 25.0633 233.438 27.0366C233.438 29.0098 235.002 30.6094 236.932 30.6094Z" fill="#CCCCCC"/>
<path d="M249.006 30.6094C250.936 30.6094 252.501 29.0098 252.501 27.0366C252.501 25.0633 250.936 23.4637 249.006 23.4637C247.076 23.4637 245.511 25.0633 245.511 27.0366C245.511 29.0098 247.076 30.6094 249.006 30.6094Z" fill="#CCCCCC"/>
<path d="M261.079 30.6094C263.009 30.6094 264.574 29.0098 264.574 27.0366C264.574 25.0633 263.009 23.4637 261.079 23.4637C259.149 23.4637 257.584 25.0633 257.584 27.0366C257.584 29.0098 259.149 30.6094 261.079 30.6094Z" fill="#CCCCCC"/>
<path d="M301.552 43.8892L301.067 42.4741L363.008 10.2902L363.492 11.7053L301.552 43.8892Z" fill="#3F3D56"/>
<path d="M488.441 103.501L487.957 102.086L525.229 70.0651L525.713 71.4794L488.441 103.501Z" fill="#3F3D56"/>
<path d="M416.833 110.955L354.892 78.7712L355.376 77.356L417.317 109.54L416.833 110.955Z" fill="#3F3D56"/>
<path d="M448.541 88.5597L412.228 28.9448L413.375 27.9857L449.687 87.6006L448.541 88.5597Z" fill="#3F3D56"/>
<path d="M476.879 10.88L441.514 10.717V9.22192L476.879 9.38489V10.88Z" fill="#3F3D56"/>
<path d="M540.943 20.1538H501.322C495.955 20.1538 491.604 15.8028 491.604 10.4356C491.604 5.06831 495.955 0.717285 501.322 0.717285H540.943C546.31 0.717285 550.661 5.06831 550.661 10.4356C550.661 15.8028 546.31 20.1538 540.943 20.1538Z" fill="#FC7A1E"/>
<path d="M590.282 76.9684H550.661C545.294 76.9684 540.943 72.6173 540.943 67.2501C540.943 61.8828 545.294 57.5318 550.661 57.5318H590.282C595.649 57.5318 600 61.8828 600 67.2501C600 72.6173 595.649 76.9684 590.282 76.9684Z" fill="#FC7A1E"/>
<path d="M526.218 117.033L490.853 116.871V115.375L526.218 115.538V117.033Z" fill="#3F3D56"/>
<path d="M590.282 126.307H550.661C545.294 126.307 540.943 121.956 540.943 116.589C540.943 111.222 545.294 106.871 550.661 106.871H590.282C595.649 106.871 600 111.222 600 116.589C600 121.956 595.649 126.307 590.282 126.307Z" fill="#FC7A1E"/>
<path d="M474.41 119.61H434.789C429.422 119.61 425.071 115.259 425.071 109.891C425.071 104.524 429.422 100.173 434.789 100.173H474.41C479.777 100.173 484.128 104.524 484.128 109.891C484.128 115.259 479.777 119.61 474.41 119.61Z" fill="#FC7A1E"/>
<path d="M420.586 19.4366H380.965C375.598 19.4366 371.247 15.0855 371.247 9.71828C371.247 4.35102 375.598 0 380.965 0H420.586C425.953 0 430.304 4.35102 430.304 9.71828C430.304 15.0855 425.953 19.4366 420.586 19.4366Z" fill="#FC7A1E"/>
<path d="M231.207 186.277H186.354C183.051 186.277 180.373 188.955 180.373 192.258C180.373 195.561 183.051 198.238 186.354 198.238H202.8V244.587H214.761V198.238H231.207C234.51 198.238 237.188 195.561 237.188 192.258C237.188 188.955 234.51 186.277 231.207 186.277Z" fill="#3F3D56"/>
<path d="M260.812 270.256H140.841C116.8 270.168 96.461 252.463 93.0595 228.665L88.8129 213.044C80.0232 180.674 66.6347 149.733 49.0567 121.166C41.0224 108.119 36.8872 95.4886 46.2796 83.3285C46.3595 83.225 46.4382 83.1229 46.5155 83.0223C54.0488 73.2171 91.5443 71.0945 103.768 70.6817C104.251 70.6652 104.735 70.6571 105.222 70.6572H179.843C180.329 70.6572 180.814 70.6654 181.296 70.6817C194.721 71.073 206.848 78.8023 212.871 90.8067C219.297 103.063 218.477 117.857 210.736 129.328C184.524 168.703 176.498 193.392 184.714 209.381C192.662 224.846 217.024 232.753 261.383 234.263C273.304 234.669 278.775 243.952 278.813 252.404C278.85 260.638 273.59 269.729 261.954 270.232C261.576 270.248 261.195 270.256 260.812 270.256Z" fill="#3F3D56"/>
<path d="M161.221 376.783H206.075C209.378 376.783 212.055 374.105 212.055 370.802C212.055 367.5 209.378 364.822 206.075 364.822H189.628V263.901H177.668V364.822H161.221C157.918 364.822 155.241 367.5 155.241 370.802C155.241 374.105 157.918 376.783 161.221 376.783Z" fill="#3F3D56"/>
<path d="M201.818 336.097L209.545 340.294L230 312.013L218.595 305.818L201.818 336.097Z" fill="#A0616A"/>
<path d="M205.538 326.019L219.565 330.412L217.332 336.288L226.951 350.249C228.181 352.034 227.732 354.479 225.946 355.71C224.883 356.442 223.529 356.606 222.323 356.148L205.993 349.944L205.387 343.061L202.08 348.457L195.923 346.118L205.538 326.019Z" fill="#2F2E41"/>
<path d="M221.341 50.8906C222.033 55.6356 218.748 60.0432 214.003 60.7353C213.497 60.8091 212.985 60.8381 212.474 60.8219L182.683 124.211L173.339 111.182L204.007 51.2415C204.478 46.4434 208.75 42.9357 213.548 43.4069C217.563 43.8012 220.785 46.8951 221.341 50.8906Z" fill="#A0616A"/>
<path d="M122.476 137.028C122.476 137.028 121.678 148.102 134.202 150.274C146.726 152.446 180.206 131.275 185.704 128.024C191.203 124.773 201.449 83.8728 201.449 83.8728L192.538 68.8007C181.536 82.7179 172.896 95.5513 172.372 104.661L122.476 137.028Z" fill="#FC7A1E"/>
<path d="M136.935 175.174L139.639 186.795C139.639 186.795 139.666 197.511 141.564 199.487C143.448 201.454 184.889 197.505 184.889 197.505C184.889 197.505 180.495 180.237 180.554 167.17L136.935 175.174Z" fill="#A0616A"/>
<path d="M224.479 323.828L209.528 315.605C209.244 296.15 220.946 269.822 234.825 242.245C203.784 247.584 174.5 249.294 149.17 242.836C140.518 240.551 135.303 231.742 137.462 223.057C137.56 222.647 137.674 222.242 137.804 221.841C140.835 212.592 134.038 206.794 140.29 196.621C156.733 191.005 172.354 189.419 186.638 194.378L195.589 214.167L239.951 208.427C248.921 207.354 257.062 213.757 258.135 222.727C258.14 222.768 258.144 222.809 258.149 222.85C258.209 223.331 258.247 223.815 258.266 224.3C249.296 266.353 239.238 304.191 224.479 323.828Z" fill="#2F2E41"/>
<path d="M130.913 101.597L148.003 100.587C149.48 100.5 150.85 101.36 151.414 102.728L156.244 114.436L176.316 131.026C176.316 131.026 184.263 141.139 184.282 154.2C184.3 167.26 187.101 197.491 187.101 197.491C187.101 197.491 175.503 181.165 168.344 185.507C167.126 186.246 166.698 187.756 165.422 188.52C164.786 188.901 163.316 188.53 162.673 188.912C152.808 194.768 142.52 200.489 141.559 199.486C139.672 197.516 137.382 187.452 137.382 187.452L121.739 129.974C120.021 123.851 121.132 117.28 124.766 112.061C125.859 110.523 127.004 109.378 128.068 109.189C130.457 108.68 129.186 103.325 130.913 101.597Z" fill="#FC7A1E"/>
<path d="M276.29 360.444L283.504 355.428L267.162 324.596L256.515 331.998L276.29 360.444Z" fill="#A0616A"/>
<path d="M277.38 339.756L266.075 349.861C248.097 329.83 234.507 301.737 222.99 269.833C192.814 260.995 170.058 246.742 150.191 229.819C143.452 224.116 138.4 216.79 144.148 209.843C144.416 209.518 144.697 209.204 144.989 208.901C151.776 201.926 168.987 203.255 179.067 196.866L201.584 220.934L200.168 227.387L242.463 241.714C250.977 244.698 255.46 254.019 252.476 262.533C252.462 262.575 252.447 262.617 252.432 262.658C252.273 263.117 252.096 263.568 251.898 264.012L277.38 339.756Z" fill="#2F2E41"/>
<path d="M272.084 358.41L283.632 349.316L287.22 354.478L304.173 354.427C306.342 354.42 308.106 356.172 308.112 358.341C308.116 359.631 307.486 360.841 306.427 361.578L292.083 371.548L286.062 368.161L288.646 373.938L283.238 377.697L272.084 358.41Z" fill="#2F2E41"/>
<path d="M156.149 246.45C151.735 244.577 149.676 239.48 151.549 235.066C151.749 234.595 151.99 234.143 152.269 233.715L113.58 175.329L129.567 174.114L164.854 231.457C168.709 234.352 169.487 239.824 166.592 243.679C164.17 246.905 159.852 248.05 156.149 246.45Z" fill="#A0616A"/>
<path d="M133.904 117.225C133.904 117.225 124.856 110.791 116.494 120.364C108.132 129.937 108.831 169.543 108.752 175.93C108.728 177.93 111.616 182.246 115.595 187.231C117.381 189.469 119.387 191.842 121.448 194.2C122.641 195.565 121.614 198.407 122.811 199.733C124.002 201.053 127.419 200.858 128.552 202.083C133.93 207.895 138.3 212.32 138.3 212.32L155.808 212.535C156.005 199.52 147.092 187.902 135.642 176.674L133.904 117.225Z" fill="#FC7A1E"/>
<path d="M116.256 60.5582C114.599 61.7546 112.855 62.9871 110.832 63.2836C108.81 63.58 106.442 62.6023 105.882 60.6362C105.197 58.2322 107.368 56.0434 109.319 54.481L115.506 49.5269C116.639 48.5222 117.918 47.6952 119.299 47.0744C120.705 46.4561 122.315 46.5099 123.676 47.2207C125.028 48.1337 125.81 49.6826 125.741 51.3126C125.653 52.9192 125.123 54.4703 124.209 55.7947C121.888 59.412 118.191 61.925 113.974 62.7521" fill="#2F2E41"/>
<path d="M163.179 189.267H118.326C115.023 189.267 112.345 191.945 112.345 195.248C112.345 198.551 115.023 201.228 118.326 201.228H134.772V247.577H146.733V201.228H163.179C166.482 201.228 169.16 198.551 169.16 195.248C169.16 191.945 166.482 189.267 163.179 189.267Z" fill="#3F3D56"/>
<path d="M119.004 48.0109C119.185 43.5269 114.406 39.9764 109.929 40.2571C105.451 40.5378 101.603 43.6872 99.0633 47.3871C96.5249 51.0839 95 55.3658 93.0002 59.3797C91.0005 63.3935 88.3374 67.3235 84.3635 69.4035C80.3904 71.4804 74.8599 71.1099 72.1137 67.5638C70.3819 70.1901 70.0053 73.4844 71.0996 76.4338C72.2238 79.3451 74.3205 81.7779 77.0339 83.3195C78.1139 83.96 79.2676 84.4673 80.4697 84.8303C80.9653 83.4925 81.6627 82.2383 82.5376 81.1113C82.1424 82.4455 81.9916 83.8401 82.0923 85.2279C83.9451 85.5831 85.8511 85.553 87.6918 85.1397C91.3567 84.3199 94.4209 81.8209 95.9611 78.3958C97.6404 74.4204 96.7851 69.8879 97.1442 65.5877C97.5003 61.2867 100.092 56.3767 104.408 56.3066C107.694 56.2526 107.259 56.5235 109.341 59.0664" fill="#2F2E41"/>
<path d="M148.847 71.5728C148.847 82.3074 140.145 91.0094 129.411 91.0094C118.676 91.0094 108.479 78.5696 108.479 67.835C108.479 57.1005 118.676 52.1363 129.411 52.1363C140.145 52.1363 148.847 60.8383 148.847 71.5728Z" fill="#2F2E41"/>
<path d="M138.989 94.8652C149.022 92.8122 155.491 83.0144 153.438 72.9811C151.385 62.9478 141.588 56.4785 131.554 58.5315C121.521 60.5845 115.052 70.3824 117.105 80.4157C119.158 90.4489 128.956 96.9182 138.989 94.8652Z" fill="#A0616A"/>
<path d="M158.566 73.8155C153.077 75.3144 147.534 76.8855 145.394 73.8155C144.978 71.7799 144.19 69.8386 143.069 68.0892C142.858 70.0484 142.399 71.9726 141.701 73.8155C134.766 75.323 128.284 75.6833 122.683 73.8155C121.913 75.2084 121.466 76.7567 121.375 78.3457C121.098 78.1718 120.808 78.0193 120.508 77.8897C120.148 77.6861 119.717 77.6479 119.327 77.7851C119.057 77.9481 118.877 78.2268 118.841 78.5401C118.803 78.8519 118.819 79.1677 118.886 79.4746C118.964 80.5438 119.283 81.5814 119.82 82.5096C120.249 83.1561 120.93 83.5927 121.696 83.7132C122.474 88.0864 128.664 93.9996 128.664 93.9996C109.975 94.7472 109.975 82.0686 109.975 70.0777L112.217 65.5924H119.693V55.8741H140.625C150.532 55.8767 158.563 63.9078 158.566 73.8155Z" fill="#2F2E41"/>
<path d="M328.887 378.947L0.894752 379.176C0.403164 379.179 0.0025765 378.782 1.23688e-05 378.291C-0.00255176 377.799 0.393879 377.399 0.885467 377.396H0.894752L328.887 377.166C329.378 377.168 329.775 377.568 329.774 378.059C329.772 378.549 329.376 378.945 328.887 378.947Z" fill="#CACACA"/>
<path d="M547.922 378.947L378.413 379.176C377.921 379.179 377.52 378.782 377.518 378.291C377.515 377.799 377.912 377.399 378.403 377.396H378.413L547.922 377.166C548.413 377.165 548.813 377.562 548.815 378.054C548.816 378.545 548.419 378.945 547.928 378.947H547.922Z" fill="#CACACA"/>
<path d="M336.383 110.639H272.128C266.547 110.633 262.024 106.11 262.018 100.529V57.9534C262.024 52.3726 266.547 47.85 272.128 47.8438H336.383C341.964 47.85 346.486 52.3726 346.492 57.9534V100.529C346.486 106.11 341.964 110.633 336.383 110.639ZM272.128 49.3389C267.372 49.3443 263.519 53.198 263.513 57.9534V100.529C263.519 105.285 267.372 109.138 272.128 109.144H336.383C341.138 109.138 344.992 105.285 344.997 100.529V57.9534C344.992 53.198 341.138 49.3443 336.383 49.3389L272.128 49.3389Z" fill="#E6E6E6"/>
<path d="M291.166 61.2999H273.979V62.795H291.166V61.2999Z" fill="#E6E6E6"/>
<path d="M312.105 67.2804H273.979V68.7755H312.105V67.2804Z" fill="#E6E6E6"/>
<path d="M312.105 72.5133H273.979V74.0084H312.105V72.5133Z" fill="#E6E6E6"/>
<path d="M322.57 77.7462H273.979V79.2413H322.57V77.7462Z" fill="#E6E6E6"/>
<path d="M299.396 82.9791H273.979V84.4742H299.396V82.9791Z" fill="#E6E6E6"/>
<path d="M320.328 88.212H273.979V89.7072H320.328V88.212Z" fill="#E6E6E6"/>
<path d="M282.202 93.445H273.979V94.9401H282.202V93.445Z" fill="#E6E6E6"/>
<path d="M273.419 29.1237C273.347 29.1237 273.274 29.0956 273.219 29.0396L271.624 27.409C271.518 27.3004 271.518 27.1268 271.624 27.0181L273.219 25.3877C273.328 25.2774 273.505 25.2757 273.615 25.3833C273.725 25.4913 273.727 25.6683 273.619 25.7786L272.215 27.2136L273.619 28.6487C273.727 28.759 273.725 28.936 273.615 29.044C273.56 29.0972 273.49 29.1237 273.419 29.1237Z" fill="#CCCCCC"/>
<path d="M276.1 29.1237C276.029 29.1237 275.958 29.0972 275.904 29.044C275.794 28.936 275.792 28.7591 275.9 28.6487L277.303 27.2136L275.9 25.7787C275.792 25.6684 275.794 25.4913 275.904 25.3834C276.014 25.2753 276.191 25.2773 276.299 25.3877L277.894 27.0182C278.001 27.1268 278.001 27.3004 277.894 27.4091L276.299 29.0396C276.245 29.0956 276.172 29.1237 276.1 29.1237Z" fill="#CCCCCC"/>
<path d="M359.545 25.0768H356.579C356.24 25.0768 355.967 25.3508 355.967 25.689V28.6577C355.967 28.996 356.24 29.2699 356.579 29.2699H359.545C359.883 29.2699 360.16 28.996 360.16 28.6577V25.689C360.16 25.3508 359.883 25.0768 359.545 25.0768Z" fill="#CCCCCC"/>
<path d="M352.277 25.0768H349.311C348.972 25.0768 348.698 25.3508 348.698 25.689V28.6577C348.698 28.996 348.972 29.2699 349.311 29.2699H352.277C352.615 29.2699 352.892 28.996 352.892 28.6577V25.689C352.892 25.3508 352.615 25.0768 352.277 25.0768Z" fill="#CCCCCC"/>
<path d="M366.393 25.2166H363.427C363.089 25.2166 362.815 25.4906 362.815 25.8288V28.7975C362.815 29.1358 363.089 29.4097 363.427 29.4097H366.393C366.732 29.4097 367.008 29.1358 367.008 28.7975V25.8288C367.008 25.4906 366.732 25.2166 366.393 25.2166Z" fill="#CCCCCC"/>
<path d="M321.689 26.3459H297.981C297.568 26.3459 297.235 26.6814 297.235 27.0923C297.235 27.5033 297.568 27.8387 297.981 27.8387H321.689C322.1 27.8387 322.435 27.5032 322.435 27.0923C322.435 26.6814 322.1 26.3459 321.689 26.3459Z" fill="#CCCCCC"/>
</g>
<defs>
<clipPath id="clip0_276_1824">
<rect width="600" height="379.176" fill="white"/>
</clipPath>
</defs>
</svg>
