<svg width="550" height="372" viewBox="0 0 550 372" fill="none" xmlns="http://www.w3.org/2000/svg">
<g clip-path="url(#clip0_276_1918)">
<path d="M37.0137 280.285C34.402 280.285 31.785 280.392 29.2292 280.609L28.8573 280.641C11.905 282.139 -0.494795 290.833 0.0151738 300.865L0.113763 302.679C0.178777 303.825 0.248047 305.058 0.305064 306.425C0.335945 307.1 1.25628 307.618 2.40146 307.618H419.386C448.786 307.439 478.079 307.214 506.446 306.95C511.767 306.961 517.084 306.685 522.374 306.125C530.258 305.191 535.73 303.342 539.104 300.47H539.105C543.301 296.909 543.433 292.425 543.179 287.359C542.663 277.128 542.15 266.381 541.638 255.667C541.186 246.224 540.737 236.806 540.287 227.79C540.009 222.439 539.391 217.716 534.625 214.106C529.461 210.202 520.041 208.224 506.629 208.224C506.467 208.224 506.306 208.224 506.142 208.224C464.107 208.374 422.458 222.827 402.503 244.19C400.205 246.65 398.064 249.283 395.993 251.831C392.933 255.594 389.77 259.484 385.995 262.963C383.951 264.872 381.741 266.595 379.391 268.111C379.229 268.223 379.043 268.343 378.847 268.457C378.398 268.75 377.929 269.031 377.472 269.283C374.795 270.829 371.974 272.111 369.049 273.112L368.754 273.211C368.532 273.29 368.291 273.37 368.05 273.442C366.361 273.985 364.606 274.454 362.848 274.833C355.242 276.509 346.592 276.911 337.142 276.026C328.462 275.192 319.895 273.446 311.582 270.818C302.83 268.052 294.638 264.603 286.716 261.269C283.237 259.803 279.638 258.289 276.043 256.853C275.367 256.583 274.703 256.319 274.028 256.055C269.638 254.344 265.658 252.931 261.861 251.735C252.453 248.761 242.714 246.957 232.865 246.365C222.411 245.792 213.198 246.872 205.49 249.566C203.364 250.306 201.295 251.197 199.298 252.234C190.167 256.975 184.538 263.973 179.095 270.741C172.324 279.158 165.323 287.863 151.497 292.376C135.544 297.587 112.258 295.422 95.7833 291.657C90.6036 290.473 85.4304 289.111 80.427 287.793C78.4063 287.261 76.3842 286.732 74.3607 286.207C70.3842 285.18 67.1299 284.394 64.1191 283.73L63.1668 283.518C62.6371 283.403 62.1069 283.288 61.567 283.178C57.9908 282.427 54.6608 281.837 51.3814 281.372L50.6055 281.259C49.05 281.054 47.5958 280.883 46.1687 280.74L45.599 280.683C42.804 280.417 39.9115 280.285 37.0137 280.285Z" fill="#FC7A1E"/>
<path d="M468.2 291.48C479.933 280.907 497.385 275.591 512.024 281.519C497.008 289.856 485.424 303.236 479.323 319.292C476.993 325.492 475.046 332.631 469.314 335.951C465.747 338.017 461.31 338.118 457.311 337.12C453.311 336.123 449.646 334.124 446.03 332.145L445.001 332.122C449.62 317.018 456.467 302.053 468.2 291.48Z" fill="#47CBA3"/>
<path d="M511.943 281.84C498.977 283.516 486.87 289.234 477.339 298.182C475.253 300.072 473.478 302.279 472.08 304.722C470.794 307.146 470.181 309.869 470.304 312.61C470.367 315.168 470.728 317.776 470.169 320.305C469.863 321.595 469.288 322.806 468.482 323.858C467.676 324.911 466.656 325.78 465.49 326.411C462.625 328.058 459.339 328.577 456.108 328.973C452.521 329.413 448.788 329.813 445.683 331.825C445.306 332.068 444.95 331.47 445.326 331.227C450.728 327.726 457.565 329 463.374 326.664C466.084 325.574 468.483 323.66 469.332 320.767C470.074 318.236 469.704 315.546 469.618 312.957C469.459 310.285 469.956 307.615 471.067 305.179C472.336 302.673 474.023 300.402 476.055 298.462C480.56 294.021 485.735 290.316 491.391 287.483C497.828 284.214 504.776 282.07 511.936 281.144C512.379 281.087 512.383 281.784 511.943 281.84Z" fill="white"/>
<path d="M480.238 295.12C478.954 293.318 478.352 291.117 478.541 288.912C478.729 286.706 479.695 284.639 481.267 283.081C481.586 282.766 482.089 283.247 481.77 283.562C480.304 285.011 479.404 286.936 479.233 288.99C479.061 291.044 479.63 293.092 480.836 294.764C481.098 295.127 480.498 295.482 480.238 295.12Z" fill="white"/>
<path d="M470.101 311.317C474.557 312.107 479.146 311.188 482.954 308.744C483.331 308.501 483.687 309.099 483.311 309.342C479.343 311.877 474.565 312.824 469.931 311.992C469.489 311.913 469.662 311.238 470.101 311.317Z" fill="white"/>
<path d="M497.884 285.135C498.236 285.937 498.781 286.638 499.47 287.176C500.16 287.715 500.972 288.073 501.835 288.22C502.277 288.294 502.104 288.968 501.664 288.895C500.712 288.728 499.815 288.331 499.052 287.738C498.289 287.145 497.683 286.374 497.286 285.492C497.242 285.412 497.23 285.318 497.252 285.23C497.275 285.141 497.33 285.064 497.407 285.015C497.486 284.968 497.581 284.955 497.67 284.977C497.76 285 497.836 285.057 497.884 285.135Z" fill="white"/>
<path d="M528.144 332.508C527.867 332.469 527.589 332.431 527.308 332.397C523.573 331.901 519.804 331.71 516.038 331.825C515.746 331.829 515.451 331.837 515.161 331.85C506.091 332.223 497.169 334.277 488.849 337.907C485.539 339.354 482.344 341.051 479.292 342.983C475.078 345.652 470.72 348.881 466.008 349.969C465.518 350.088 465.021 350.177 464.52 350.235L445.053 333.379C445.028 333.318 444.999 333.262 444.974 333.201L444.166 332.564C444.316 332.453 444.474 332.342 444.625 332.231C444.712 332.166 444.803 332.106 444.89 332.041C444.95 331.999 445.009 331.958 445.06 331.916C445.08 331.902 445.1 331.889 445.116 331.879C445.167 331.838 445.219 331.805 445.266 331.768C446.15 331.143 447.04 330.522 447.935 329.906C447.939 329.902 447.939 329.902 447.947 329.901C454.727 325.145 462.047 321.211 469.754 318.179C469.985 318.092 470.22 318 470.46 317.92C473.931 316.63 477.501 315.625 481.136 314.916C483.127 314.535 485.136 314.254 487.156 314.075C492.376 313.624 497.634 313.997 502.738 315.179C512.912 317.538 522.218 323.125 527.73 331.838C527.871 332.061 528.007 332.28 528.144 332.508Z" fill="#47CBA3"/>
<path d="M527.887 332.717C516.526 326.249 503.416 323.525 490.419 324.932C487.615 325.185 484.869 325.878 482.282 326.986C479.796 328.148 477.667 329.953 476.115 332.215C474.626 334.296 473.344 336.596 471.374 338.278C470.354 339.124 469.166 339.745 467.888 340.1C466.611 340.454 465.273 340.535 463.962 340.336C460.683 339.926 457.747 338.363 454.929 336.734C451.8 334.925 448.579 332.997 444.888 332.734C444.441 332.702 444.516 332.01 444.963 332.041C451.384 332.499 456.076 337.632 462.121 339.264C464.941 340.026 468.009 339.942 470.428 338.143C472.544 336.57 473.869 334.199 475.359 332.079C476.84 329.85 478.845 328.018 481.198 326.742C483.721 325.505 486.435 324.707 489.226 324.382C495.496 323.548 501.859 323.706 508.08 324.849C515.188 326.114 522.027 328.586 528.301 332.157C528.689 332.378 528.273 332.937 527.887 332.717Z" fill="white"/>
<path d="M494.577 324.232C494.637 322.019 495.482 319.9 496.96 318.253C498.438 316.605 500.454 315.537 502.647 315.238C503.091 315.18 503.204 315.867 502.759 315.926C500.716 316.2 498.839 317.195 497.465 318.732C496.092 320.269 495.313 322.246 495.269 324.307C495.259 324.755 494.567 324.677 494.577 324.232Z" fill="white"/>
<path d="M476.731 331.061C479.813 334.374 484.031 336.403 488.543 336.744C488.99 336.778 488.915 337.47 488.468 337.437C483.773 337.073 479.389 334.952 476.189 331.497C475.884 331.168 476.428 330.733 476.731 331.061Z" fill="white"/>
<path d="M514.678 326.884C514.477 327.735 514.489 328.623 514.716 329.468C514.942 330.313 515.375 331.089 515.975 331.725C516.284 332.051 515.74 332.485 515.433 332.162C514.773 331.455 514.296 330.598 514.044 329.665C513.792 328.732 513.772 327.751 513.986 326.809C513.999 326.718 514.046 326.636 514.117 326.579C514.188 326.521 514.278 326.493 514.37 326.5C514.461 326.511 514.545 326.557 514.603 326.628C514.66 326.7 514.688 326.792 514.678 326.884Z" fill="white"/>
<path d="M161.051 301.995C170.658 287.423 187.845 276.882 205.151 279.15C191.41 292.245 182.743 309.777 180.684 328.647C179.917 335.927 179.821 344.104 174.614 349.249C171.374 352.45 166.656 353.793 162.101 353.839C157.547 353.885 153.07 352.767 148.652 351.656L147.546 351.917C148.283 334.478 151.443 316.568 161.051 301.995Z" fill="#47CBA3"/>
<path d="M205.153 279.516C191.752 284.915 180.393 294.399 172.69 306.622C170.985 309.223 169.7 312.077 168.884 315.079C168.183 318.029 168.285 321.112 169.179 324.009C169.958 326.727 171.07 329.417 171.175 332.277C171.207 333.742 170.93 335.197 170.36 336.547C169.79 337.896 168.941 339.111 167.87 340.109C165.264 342.668 161.894 344.137 158.548 345.459C154.834 346.928 150.953 348.394 148.191 351.41C147.857 351.775 147.309 351.235 147.643 350.87C152.448 345.623 160.114 345.083 165.677 340.968C168.273 339.048 170.306 336.334 170.409 333.003C170.499 330.091 169.355 327.316 168.542 324.571C167.628 321.758 167.417 318.764 167.928 315.85C168.589 312.817 169.761 309.918 171.394 307.277C174.977 301.275 179.481 295.873 184.742 291.269C190.717 285.982 197.552 281.756 204.952 278.774C205.41 278.589 205.608 279.333 205.153 279.516Z" fill="white"/>
<path d="M174.938 302.54C173.063 300.969 171.808 298.783 171.396 296.372C170.984 293.96 171.442 291.481 172.689 289.377C172.943 288.952 173.615 289.326 173.361 289.752C172.196 291.709 171.769 294.019 172.158 296.263C172.546 298.508 173.724 300.54 175.478 301.992C175.859 302.308 175.317 302.854 174.938 302.54Z" fill="white"/>
<path d="M168.602 322.683C173.587 322.288 178.24 320.028 181.633 316.355C181.969 315.991 182.516 316.531 182.181 316.895C178.643 320.711 173.796 323.053 168.608 323.453C168.114 323.49 168.111 322.721 168.602 322.683Z" fill="white"/>
<path d="M191.034 286.952C191.632 287.711 192.41 288.309 193.298 288.693C194.185 289.077 195.154 289.235 196.117 289.152C196.611 289.108 196.613 289.877 196.123 289.921C195.058 290.008 193.988 289.832 193.007 289.41C192.026 288.988 191.163 288.332 190.494 287.5C190.424 287.426 190.385 287.329 190.384 287.228C190.383 287.127 190.421 287.03 190.49 286.956C190.561 286.883 190.659 286.842 190.761 286.842C190.863 286.841 190.961 286.88 191.034 286.952Z" fill="white"/>
<path d="M236.577 329.199C236.269 329.236 235.962 329.272 235.651 329.314C231.518 329.823 227.434 330.666 223.438 331.837C223.128 331.922 222.815 332.014 222.507 332.108C212.911 335.03 203.94 339.709 196.051 345.906C192.914 348.375 189.969 351.078 187.242 353.994C183.477 358.021 179.715 362.686 174.978 365.161C174.487 365.425 173.98 365.658 173.46 365.859L147.95 353.247C147.907 353.189 147.86 353.137 147.816 353.079L146.774 352.622C146.905 352.462 147.043 352.299 147.173 352.138C147.248 352.045 147.329 351.955 147.404 351.862C147.456 351.8 147.508 351.739 147.551 351.681C147.569 351.66 147.586 351.64 147.6 351.625C147.644 351.567 147.69 351.518 147.73 351.465C148.502 350.55 149.28 349.639 150.067 348.731C150.07 348.725 150.07 348.725 150.079 348.722C156.09 341.823 162.731 335.364 170.14 330.119C170.363 329.961 170.589 329.797 170.824 329.645C174.177 327.3 177.716 325.232 181.406 323.463C183.429 322.5 185.5 321.641 187.611 320.888C193.068 318.954 198.795 317.889 204.583 317.734C216.12 317.427 227.628 320.813 235.947 328.598C236.16 328.798 236.367 328.994 236.577 329.199Z" fill="#47CBA3"/>
<path d="M236.359 329.495C222.409 325.737 207.63 326.471 194.12 331.592C191.192 332.642 188.448 334.148 185.989 336.053C183.654 337.986 181.879 340.51 180.849 343.361C179.834 346 179.103 348.818 177.465 351.164C176.608 352.353 175.51 353.348 174.243 354.082C172.975 354.817 171.567 355.276 170.11 355.428C166.489 355.901 162.913 355.046 159.446 354.087C155.596 353.023 151.615 351.857 147.594 352.603C147.107 352.693 146.995 351.932 147.482 351.842C154.477 350.545 160.922 354.729 167.842 354.793C171.07 354.823 174.328 353.88 176.415 351.283C178.241 349.012 178.998 346.107 180.001 343.426C180.966 340.63 182.6 338.112 184.762 336.093C187.116 334.069 189.797 332.46 192.691 331.335C199.166 328.7 206.014 327.098 212.986 326.59C220.94 325.966 228.942 326.707 236.646 328.781C237.123 328.909 236.833 329.622 236.359 329.495Z" fill="white"/>
<path d="M198.373 329.687C197.822 327.304 198.136 324.802 199.258 322.629C200.381 320.455 202.24 318.752 204.503 317.823C204.961 317.636 205.272 318.34 204.813 318.526C202.705 319.388 200.973 320.975 199.932 323.001C198.891 325.027 198.608 327.358 199.134 329.574C199.248 330.056 198.487 330.166 198.373 329.687Z" fill="white"/>
<path d="M181.187 341.955C185.405 344.641 190.48 345.638 195.401 344.748C195.888 344.659 196 345.42 195.513 345.509C190.391 346.426 185.111 345.377 180.728 342.573C180.31 342.305 180.771 341.689 181.187 341.955Z" fill="white"/>
<path d="M220.61 326.931C220.631 327.897 220.892 328.843 221.369 329.684C221.846 330.525 222.525 331.234 223.344 331.748C223.765 332.01 223.303 332.626 222.885 332.365C221.983 331.794 221.234 331.01 220.705 330.082C220.176 329.154 219.882 328.111 219.849 327.043C219.837 326.943 219.864 326.842 219.924 326.76C219.985 326.679 220.073 326.624 220.173 326.606C220.274 326.592 220.376 326.618 220.458 326.679C220.54 326.739 220.594 326.83 220.61 326.931Z" fill="white"/>
<path d="M229.428 192.742C230.065 192.108 230.556 191.341 230.865 190.497C231.174 189.653 231.295 188.751 231.218 187.855C231.141 186.959 230.868 186.091 230.419 185.311C229.971 184.532 229.356 183.861 228.62 183.345L238.661 134.75L227.828 138.167L219.749 185.179C218.964 186.473 218.681 188.011 218.954 189.5C219.227 190.989 220.036 192.327 221.229 193.259C222.422 194.191 223.916 194.654 225.427 194.558C226.938 194.463 228.361 193.817 229.428 192.742Z" fill="#FFB6B6"/>
<path d="M252.636 62.846L245.926 57.7806C245.926 57.7806 240.006 57.3614 238.958 68.0368C237.909 78.7122 231.345 119.684 231.345 119.684L221.077 167.243L235.291 170.363L246.289 119.039L257.298 83.6298L252.636 62.846Z" fill="#E6E6E6"/>
<path d="M247.524 150.847L215.335 125.818C214.834 125.428 214.508 124.854 214.429 124.223C214.35 123.593 214.525 122.956 214.914 122.454L236.815 94.2872C237.206 93.7859 237.78 93.46 238.41 93.3811C239.041 93.3021 239.677 93.4766 240.18 93.8662L272.369 118.895C272.87 119.286 273.196 119.859 273.275 120.49C273.354 121.121 273.179 121.757 272.79 122.259L250.889 150.426C250.498 150.927 249.924 151.253 249.293 151.332C248.663 151.411 248.026 151.237 247.524 150.847Z" fill="#3F3D56"/>
<path d="M247.347 148.257L217.889 125.352C217.444 125.005 217.154 124.495 217.084 123.935C217.014 123.375 217.169 122.81 217.515 122.364L237.369 96.83C237.716 96.3848 238.226 96.0955 238.786 96.0254C239.346 95.9553 239.911 96.1102 240.357 96.4562L269.815 119.362C270.26 119.709 270.55 120.218 270.62 120.778C270.69 121.338 270.535 121.903 270.189 122.349L250.335 147.883C249.988 148.328 249.478 148.618 248.918 148.688C248.358 148.758 247.793 148.603 247.347 148.257Z" fill="white"/>
<path d="M221.751 124.702C221.64 124.615 221.567 124.488 221.55 124.348C221.532 124.208 221.571 124.067 221.657 123.955L231.673 111.074C231.76 110.963 231.887 110.89 232.027 110.873C232.097 110.864 232.167 110.869 232.235 110.888C232.302 110.906 232.365 110.938 232.42 110.981C232.475 111.023 232.521 111.077 232.556 111.138C232.591 111.198 232.613 111.265 232.622 111.335C232.63 111.404 232.625 111.474 232.607 111.542C232.588 111.609 232.556 111.672 232.514 111.727L222.498 124.609C222.411 124.72 222.284 124.792 222.144 124.81C222.004 124.827 221.862 124.789 221.751 124.702Z" fill="#E4E4E4"/>
<path d="M223.411 125.993C223.3 125.906 223.227 125.779 223.21 125.639C223.192 125.499 223.231 125.358 223.317 125.246L233.333 112.365C233.42 112.253 233.547 112.181 233.687 112.163C233.827 112.146 233.969 112.185 234.08 112.271C234.192 112.358 234.264 112.485 234.281 112.625C234.299 112.765 234.26 112.907 234.174 113.018L224.158 125.899C224.071 126.011 223.944 126.083 223.804 126.101C223.664 126.118 223.522 126.079 223.411 125.993Z" fill="#E4E4E4"/>
<path d="M230.745 119.986C230.634 119.899 230.562 119.772 230.544 119.632C230.527 119.492 230.565 119.351 230.652 119.239L234.994 113.655C235.036 113.6 235.09 113.554 235.15 113.519C235.211 113.485 235.278 113.462 235.348 113.453C235.417 113.445 235.488 113.45 235.555 113.468C235.622 113.487 235.686 113.518 235.741 113.561C235.796 113.604 235.842 113.658 235.877 113.719C235.911 113.779 235.934 113.846 235.942 113.916C235.951 113.985 235.946 114.056 235.927 114.123C235.909 114.191 235.877 114.254 235.834 114.309L231.492 119.893C231.405 120.004 231.278 120.076 231.138 120.094C230.998 120.111 230.857 120.073 230.745 119.986Z" fill="#E4E4E4"/>
<path d="M232.983 130.944C232.872 130.857 232.8 130.729 232.782 130.589C232.765 130.449 232.803 130.308 232.89 130.197L248.702 109.861C248.745 109.806 248.798 109.76 248.859 109.725C248.92 109.691 248.987 109.668 249.056 109.66C249.125 109.651 249.196 109.656 249.263 109.675C249.33 109.693 249.394 109.725 249.449 109.768C249.504 109.811 249.55 109.864 249.585 109.925C249.619 109.985 249.641 110.052 249.65 110.122C249.659 110.191 249.654 110.261 249.635 110.329C249.617 110.396 249.585 110.459 249.542 110.514L233.73 130.85C233.643 130.961 233.516 131.034 233.376 131.051C233.236 131.069 233.095 131.03 232.983 130.944Z" fill="#E4E4E4"/>
<path d="M234.644 132.234C234.532 132.148 234.46 132.02 234.442 131.88C234.425 131.74 234.464 131.599 234.55 131.488L250.362 111.152C250.405 111.097 250.458 111.05 250.519 111.016C250.58 110.981 250.647 110.959 250.716 110.95C250.785 110.942 250.856 110.947 250.923 110.965C250.991 110.984 251.054 111.015 251.109 111.058C251.164 111.101 251.21 111.155 251.245 111.215C251.279 111.276 251.302 111.343 251.31 111.412C251.319 111.482 251.314 111.552 251.295 111.62C251.277 111.687 251.245 111.75 251.202 111.805L235.39 132.141C235.304 132.252 235.176 132.324 235.036 132.342C234.896 132.36 234.755 132.321 234.644 132.234Z" fill="#E4E4E4"/>
<path d="M238.412 135.164C238.301 135.078 238.228 134.95 238.211 134.81C238.193 134.67 238.232 134.529 238.318 134.418L254.13 114.082C254.173 114.027 254.227 113.981 254.287 113.946C254.348 113.911 254.415 113.889 254.484 113.88C254.554 113.872 254.624 113.877 254.692 113.895C254.759 113.914 254.822 113.946 254.877 113.988C254.932 114.031 254.979 114.085 255.013 114.145C255.048 114.206 255.07 114.273 255.079 114.342C255.087 114.412 255.082 114.482 255.064 114.55C255.045 114.617 255.014 114.68 254.971 114.735L239.159 135.071C239.072 135.182 238.945 135.254 238.805 135.272C238.665 135.29 238.523 135.251 238.412 135.164Z" fill="#E4E4E4"/>
<path d="M240.072 136.455C239.96 136.368 239.888 136.241 239.871 136.101C239.853 135.961 239.892 135.82 239.978 135.708L255.79 115.373C255.833 115.317 255.887 115.271 255.947 115.237C256.008 115.202 256.075 115.18 256.144 115.171C256.214 115.163 256.284 115.168 256.351 115.186C256.419 115.205 256.482 115.236 256.537 115.279C256.592 115.322 256.638 115.375 256.673 115.436C256.708 115.497 256.73 115.564 256.739 115.633C256.747 115.703 256.742 115.773 256.724 115.84C256.705 115.908 256.673 115.971 256.631 116.026L240.819 136.362C240.732 136.473 240.604 136.545 240.464 136.563C240.324 136.58 240.183 136.542 240.072 136.455Z" fill="#E4E4E4"/>
<path d="M243.84 139.385C243.729 139.298 243.656 139.171 243.639 139.031C243.621 138.891 243.66 138.75 243.747 138.638L259.559 118.303C259.602 118.247 259.655 118.201 259.716 118.167C259.776 118.132 259.843 118.11 259.913 118.101C259.982 118.093 260.052 118.098 260.12 118.116C260.187 118.135 260.25 118.166 260.305 118.209C260.361 118.252 260.407 118.305 260.441 118.366C260.476 118.427 260.498 118.494 260.507 118.563C260.515 118.633 260.51 118.703 260.492 118.77C260.473 118.838 260.442 118.901 260.399 118.956L244.587 139.292C244.5 139.403 244.373 139.475 244.233 139.493C244.093 139.51 243.952 139.472 243.84 139.385Z" fill="#E4E4E4"/>
<path d="M245.5 140.676C245.389 140.589 245.316 140.462 245.299 140.322C245.281 140.182 245.32 140.04 245.407 139.929L261.219 119.593C261.305 119.482 261.433 119.41 261.572 119.393C261.712 119.376 261.853 119.415 261.964 119.501C262.075 119.588 262.148 119.715 262.166 119.854C262.183 119.994 262.145 120.135 262.059 120.247L246.247 140.582C246.16 140.694 246.033 140.766 245.893 140.783C245.753 140.801 245.611 140.762 245.5 140.676Z" fill="#E4E4E4"/>
<path d="M219.073 164.293C219.194 164.293 219.291 164.195 219.291 164.074C219.291 163.953 219.194 163.856 219.073 163.856C218.952 163.856 218.854 163.953 218.854 164.074C218.854 164.195 218.952 164.293 219.073 164.293Z" fill="white"/>
<path d="M250.912 13.7367C250.143 17.8658 248.883 21.888 247.158 25.7174C237.28 46.6137 265.41 39.8026 275.463 39.8026C286.454 39.8026 296.97 45.5823 295.364 19.9013C294.678 8.93155 286.454 0 275.463 0C266.075 0 252.875 4.17291 250.912 13.7367Z" fill="#2F2E41"/>
<path d="M285.708 320.21H276.344L271.887 284.09H285.708V320.21Z" fill="#FFB6B6"/>
<path d="M290.651 336.435H283.935L282.736 330.095L279.666 336.435H261.855C261.001 336.435 260.17 336.162 259.482 335.657C258.794 335.151 258.286 334.438 258.032 333.623C257.778 332.808 257.791 331.933 258.069 331.126C258.348 330.319 258.877 329.622 259.58 329.137L273.803 319.313V312.903L288.764 313.796L290.651 336.435Z" fill="#2F2E41"/>
<path d="M341.343 308.392L333.828 313.98L308.699 287.655L319.789 279.407L341.343 308.392Z" fill="#FFB6B6"/>
<path d="M354.991 318.463L349.602 322.47L344.857 318.097L346.176 325.017L331.883 335.646C331.198 336.155 330.368 336.432 329.515 336.437C328.661 336.441 327.828 336.172 327.138 335.67C326.447 335.167 325.936 334.458 325.678 333.644C325.42 332.83 325.428 331.955 325.703 331.146L331.255 314.776L327.43 309.632L339.968 301.422L354.991 318.463Z" fill="#2F2E41"/>
<path d="M255.038 153.973L299.491 147.049L290.651 120.455H255.038V153.973Z" fill="#FFB6B6"/>
<path d="M296.611 133.849C296.611 133.849 314.378 149.2 306.181 192.96L296.172 235.838L323.44 283.179L309.575 290.741L275.972 244.038L260.596 207.97L252.463 144.757L296.611 133.849Z" fill="#2F2E41"/>
<path d="M269.071 218.249L268.002 234.799L271.131 283.809L286.662 289.157L289.604 238.941L269.071 218.249Z" fill="#2F2E41"/>
<path d="M264.296 45.3108L281.479 45.9812L288.328 57.3489L303.952 60.3991L294.625 107.586L296.34 134.445L280.782 134.35C269.57 134.281 258.727 138.355 250.333 145.789L250.799 110.925L244.107 84.8987L245.611 57.6091L258.18 56.0379L264.296 45.3108Z" fill="#E6E6E6"/>
<path d="M273.816 39.7977C282.748 39.7977 289.988 32.5572 289.988 23.6256C289.988 14.6941 282.748 7.45358 273.816 7.45358C264.885 7.45358 257.644 14.6941 257.644 23.6256C257.644 32.5572 264.885 39.7977 273.816 39.7977Z" fill="#FFB6B6"/>
<path d="M262.834 7.14046C265.667 5.41284 268.913 4.4783 272.232 4.43455C275.551 4.3908 278.82 5.23945 281.699 6.89175C284.577 8.54406 286.959 10.9393 288.594 13.8271C290.23 16.7149 291.06 19.9892 290.997 23.3075C282.757 25.3765 274.1 26.9598 265.312 23.8024L263.237 18.7232L262.013 23.8062C259.337 24.9 256.654 25.8256 253.971 23.7956C253.861 20.4866 254.622 17.2068 256.177 14.2841C257.733 11.3614 260.028 8.89807 262.834 7.14046Z" fill="#2F2E41"/>
<path d="M300.961 167.049L303.141 186.834C303.293 187.328 303.599 187.76 304.015 188.066C304.43 188.373 304.933 188.539 305.449 188.539H315.499C316.015 188.539 316.518 188.373 316.933 188.066C317.349 187.76 317.655 187.328 317.807 186.834L319.613 171.67C320.134 171.926 320.708 172.054 321.289 172.044C321.869 172.034 322.439 171.887 322.951 171.614C323.463 171.341 323.904 170.951 324.236 170.475C324.568 169.998 324.782 169.45 324.861 168.875C324.939 168.3 324.881 167.714 324.689 167.166C324.497 166.619 324.179 166.124 323.759 165.723C323.338 165.323 322.829 165.027 322.273 164.862C321.717 164.696 321.129 164.665 320.558 164.771C320.333 164.505 320.052 164.291 319.736 164.145C319.419 163.999 319.075 163.923 318.726 163.924H303.27C302.892 163.924 302.519 164.013 302.182 164.183C301.844 164.353 301.551 164.6 301.327 164.904C301.102 165.208 300.952 165.561 300.889 165.933C300.825 166.306 300.85 166.688 300.961 167.049ZM319.928 170.645L321.034 167.049C321.162 166.635 321.175 166.193 321.071 165.771C321.118 165.769 321.163 165.757 321.21 165.757C321.905 165.757 322.571 166.033 323.062 166.524C323.553 167.015 323.829 167.681 323.829 168.376C323.829 169.07 323.553 169.736 323.062 170.227C322.571 170.718 321.905 170.994 321.21 170.994C320.76 170.991 320.318 170.871 319.928 170.645Z" fill="#007090"/>
<path d="M316.114 188.552C315.48 187.915 314.993 187.146 314.688 186.3C314.383 185.454 314.268 184.552 314.349 183.656C314.431 182.761 314.708 181.894 315.16 181.117C315.613 180.34 316.231 179.672 316.97 179.159L307.176 130.514L317.991 133.986L325.831 181.039C326.609 182.337 326.885 183.876 326.604 185.364C326.324 186.852 325.508 188.185 324.31 189.111C323.112 190.037 321.617 190.492 320.106 190.389C318.596 190.286 317.175 189.633 316.114 188.552Z" fill="#FFB6B6"/>
<path d="M297.242 65.4646L303.952 60.3992C303.952 60.3992 309.872 59.98 310.92 70.6554C311.969 81.3308 318.533 122.303 318.533 122.303L328.802 169.862L314.587 172.982L303.589 121.657L292.58 86.2484L297.242 65.4646Z" fill="#E6E6E6"/>
<path d="M239.326 109.746C241.424 109.746 243.125 108.046 243.125 105.948C243.125 103.85 241.424 102.149 239.326 102.149C237.228 102.149 235.528 103.85 235.528 105.948C235.528 108.046 237.228 109.746 239.326 109.746Z" fill="#47CBA3"/>
<path d="M118.196 364.276L126.113 364.276L129.879 333.742L118.195 333.742L118.196 364.276Z" fill="#FFB6B6"/>
<path d="M116.177 361.691L118.405 361.691L127.104 358.154L131.767 361.691C134.402 361.691 136.929 362.738 138.793 364.601C140.656 366.464 141.703 368.991 141.703 371.626V371.949L116.177 371.95L116.177 361.691Z" fill="#2F2E41"/>
<path d="M148.873 359.287L156.595 361.031L166.995 332.077L155.598 329.503L148.873 359.287Z" fill="#FFB6B6"/>
<path d="M147.473 356.322L149.647 356.812L158.911 355.278L162.68 359.755L162.681 359.755C165.251 360.336 167.485 361.913 168.892 364.141C170.299 366.369 170.764 369.064 170.184 371.635L170.112 371.95L145.214 366.328L147.473 356.322Z" fill="#2F2E41"/>
<path d="M103.704 207.213L110.863 287.416C110.863 287.416 108.18 335.566 116.835 352.51H129.387L135.602 283.019L136.383 236.376L163.293 275.727L146.153 351.374L161.602 352.755L189.415 270.66L158.858 193.593L103.704 207.213Z" fill="#2F2E41"/>
<path d="M111.201 79.4918C121.397 79.4918 129.663 71.2264 129.663 61.0305C129.663 50.8346 121.397 42.5692 111.201 42.5692C101.005 42.5692 92.74 50.8346 92.74 61.0305C92.74 71.2264 101.005 79.4918 111.201 79.4918Z" fill="#FFB8B8"/>
<path d="M143.655 97.0845L128.509 90.586L121.136 82.7658L102.718 85.7363L97.831 94.1154L82.0115 108.825L100.546 192.629L99.9848 210.932C99.9848 210.932 111.847 216.273 163.293 203.977C163.91 203.83 162.618 203.184 162.618 203.184L143.655 97.0845Z" fill="#3F3D56"/>
<path d="M92.0044 71.5058C91.8758 71.3303 91.7484 71.1533 91.6223 70.9748C91.5715 71.082 91.5312 71.1927 91.4731 71.2974L92.0044 71.5058Z" fill="#2F2E41"/>
<path d="M129.565 47.5268C128.331 44.8386 126.131 42.713 123.402 41.5724C120.697 40.4813 117.673 40.484 114.97 41.5798C112.529 40.0378 109.818 38.8154 106.962 38.6639C104.106 38.5125 101.086 39.572 99.3264 41.9043C98.9334 42.5199 98.487 43.0998 97.9925 43.6373C96.5778 44.9474 94.4278 44.7584 92.5475 44.4906C93.3909 45.2134 94.2345 45.9362 95.0783 46.6591C94.0574 46.9258 93.0364 47.1925 92.0153 47.4592C93.2067 48.1818 94.3981 48.9044 95.5894 49.627C92.1307 51.703 90.5586 56.234 90.9739 60.3492C91.3667 64.2454 93.2477 67.8081 95.4963 70.9748C96.3933 69.0819 96.2001 66.8169 96.1853 64.6849C96.1698 62.4323 96.5683 59.8744 98.3733 58.6155C99.591 57.7663 101.157 57.7283 102.625 57.7364C110.031 57.777 117.429 58.2389 124.783 59.1197C125.781 59.1629 126.754 59.4451 127.62 59.9426C129.247 61.052 129.563 63.3416 129.727 65.3502C130.586 62.0336 131.006 58.6187 130.977 55.1927C131.05 52.5666 130.569 49.9547 129.565 47.5268Z" fill="#2F2E41"/>
<path d="M135.313 263.436C151.361 263.436 164.37 250.427 164.37 234.379C164.37 218.331 151.361 205.322 135.313 205.322C119.265 205.322 106.256 218.331 106.256 234.379C106.256 250.427 119.265 263.436 135.313 263.436Z" fill="white"/>
<path d="M135.313 204.676C133.819 204.677 132.328 204.789 130.851 205.012C130.096 205.122 129.36 205.264 128.63 205.438C123.269 206.674 118.358 209.375 114.443 213.239C110.528 217.104 107.763 221.98 106.458 227.324C105.153 232.668 105.358 238.269 107.051 243.503C108.744 248.737 111.858 253.398 116.045 256.966C116.542 257.385 117.046 257.792 117.569 258.18C121.339 260.99 125.722 262.866 130.358 263.651C134.994 264.437 139.75 264.11 144.235 262.699C148.721 261.287 152.806 258.83 156.157 255.531C159.507 252.231 162.026 248.183 163.506 243.72C164.986 239.257 165.385 234.506 164.67 229.859C163.956 225.211 162.148 220.8 159.395 216.988C156.642 213.176 153.024 210.072 148.837 207.931C144.65 205.791 140.015 204.675 135.313 204.676ZM135.313 262.79C129.272 262.797 123.388 260.866 118.525 257.282C117.995 256.895 117.485 256.494 116.988 256.068C112.908 252.627 109.881 248.105 108.254 243.022C106.626 237.939 106.465 232.5 107.787 227.329C109.11 222.158 111.863 217.464 115.731 213.787C119.599 210.109 124.426 207.596 129.657 206.536C130.38 206.388 131.103 206.271 131.839 206.181C132.992 206.038 134.152 205.967 135.313 205.968C142.848 205.968 150.074 208.961 155.403 214.289C160.731 219.617 163.724 226.844 163.724 234.379C163.724 241.914 160.731 249.141 155.403 254.469C150.074 259.797 142.848 262.79 135.313 262.79Z" fill="#3F3D56"/>
<path d="M121.061 228.568H149.565C150.609 228.568 151.456 227.721 151.456 226.677V226.584C151.456 225.54 150.609 224.693 149.565 224.693H121.061C120.017 224.693 119.17 225.54 119.17 226.584V226.677C119.17 227.721 120.017 228.568 121.061 228.568Z" fill="#007090"/>
<path d="M121.061 236.316H149.565C150.609 236.316 151.456 235.47 151.456 234.425V234.333C151.456 233.288 150.609 232.442 149.565 232.442H121.061C120.017 232.442 119.17 233.288 119.17 234.333V234.425C119.17 235.47 120.017 236.316 121.061 236.316Z" fill="#007090"/>
<path d="M121.061 244.065H149.565C150.609 244.065 151.456 243.218 151.456 242.174V242.081C151.456 241.037 150.609 240.19 149.565 240.19H121.061C120.017 240.19 119.17 241.037 119.17 242.081V242.174C119.17 243.218 120.017 244.065 121.061 244.065Z" fill="#007090"/>
<path d="M460.395 363.291L452.094 363.29L448.145 331.273L460.396 331.274L460.395 363.291Z" fill="#9E616A"/>
<path d="M421.125 363.291L412.825 363.29L408.876 331.273L421.127 331.274L421.125 363.291Z" fill="#9E616A"/>
<path d="M421.417 371.95L395.892 371.949V371.626C395.892 368.991 396.939 366.464 398.802 364.601C400.665 362.738 403.192 361.691 405.827 361.691H405.828L410.49 358.154L419.19 361.691L421.418 361.691L421.417 371.95Z" fill="#2F2E41"/>
<path d="M461.752 371.95L436.227 371.949V371.626C436.227 368.991 437.274 366.464 439.137 364.601C441 362.738 443.527 361.691 446.162 361.691H446.162L450.825 358.154L459.524 361.691L461.752 361.691L461.752 371.95Z" fill="#2F2E41"/>
<path d="M412.983 173.804L400.368 250.619L403.801 262.065L399.296 270.172L405.911 341.37L403.226 347.282L410.729 351.909H425.997L426.807 287.454L430.579 277.991V272.775L438.256 233.472L439.67 288.514L441.903 297.992L440.027 304.74L442.478 309.468L448.989 353.314H466.11L464.786 343.113C466.277 342.358 467.475 341.129 468.192 339.619C468.908 338.109 469.102 336.403 468.744 334.771L467.762 330.3L469.996 317.08L474.065 243.328L472.918 183.82L452.89 168.505L412.983 173.804Z" fill="#2F2E41"/>
<path d="M441.903 75.1642C450.688 75.1642 457.81 68.0428 457.81 59.258C457.81 50.4732 450.688 43.3518 441.903 43.3518C433.119 43.3518 425.997 50.4732 425.997 59.258C425.997 68.0428 433.119 75.1642 441.903 75.1642Z" fill="#9E616A"/>
<path d="M407.15 204.286C407.842 203.571 408.369 202.713 408.694 201.772C409.019 200.831 409.133 199.83 409.029 198.84C408.925 197.85 408.605 196.895 408.092 196.042C407.579 195.189 406.886 194.459 406.06 193.903L412.245 170.513L400.328 174.521L396.282 196.119C395.44 197.568 395.159 199.275 395.492 200.918C395.825 202.56 396.748 204.023 398.088 205.03C399.428 206.037 401.09 206.517 402.76 206.38C404.431 206.243 405.993 205.498 407.15 204.286Z" fill="#9E616A"/>
<path d="M413.66 91.9826L411.102 91.4518L408.92 92.6597C408.92 92.6597 402.827 100.784 402.827 108.232C402.827 115.68 395.379 187.449 395.379 187.449L408.92 193.542L419.753 137.346L413.66 91.9826Z" fill="#E6E6E6"/>
<path d="M455.833 47.5958C455.833 47.5958 459.993 39.6427 450.841 38.9197C450.841 38.9197 443.038 31.8417 435.085 37.6257C435.085 37.6257 430.747 37.6257 428.374 42.5348C428.374 42.5348 424.963 41.2408 424.213 44.7038C424.213 44.7038 421.716 51.9339 424.213 58.441C426.709 64.9481 427.539 65.6711 427.539 65.6711C427.539 65.6711 423.436 52.0286 433.422 51.3056C443.407 50.5826 454.581 44.3423 455.414 52.2954C456.246 60.2485 457.498 62.2081 457.498 62.2081C457.498 62.2081 465.402 50.8494 455.833 47.5958Z" fill="#2F2E41"/>
<path d="M513.937 270.172C512.737 270.174 511.578 269.732 510.683 268.931L462.546 226.081C461.576 225.216 460.989 224.001 460.914 222.703C460.838 221.405 461.281 220.13 462.144 219.158L492.981 184.516C493.846 183.546 495.061 182.959 496.359 182.883C497.657 182.808 498.932 183.25 499.904 184.114L548.042 226.964C549.013 227.829 549.601 229.044 549.676 230.342C549.752 231.64 549.309 232.915 548.444 233.886L517.606 268.529C517.18 269.011 516.661 269.404 516.081 269.685C515.501 269.965 514.871 270.128 514.228 270.164C514.131 270.17 514.034 270.172 513.937 270.172Z" fill="white"/>
<path d="M513.937 270.488C512.659 270.489 511.426 270.019 510.474 269.167L462.337 226.317C461.304 225.396 460.679 224.102 460.599 222.721C460.519 221.34 460.99 219.983 461.908 218.948L492.746 184.306C493.667 183.274 494.96 182.649 496.341 182.569C497.722 182.489 499.079 182.959 500.114 183.878L548.251 226.728C549.285 227.649 549.911 228.942 549.991 230.324C550.071 231.705 549.599 233.062 548.679 234.096L517.842 268.738C517.387 269.252 516.836 269.67 516.219 269.969C515.601 270.267 514.931 270.441 514.247 270.479C514.143 270.484 514.04 270.488 513.937 270.488ZM496.646 183.82C496.087 183.819 495.534 183.936 495.024 184.164C494.514 184.393 494.059 184.727 493.687 185.144L462.85 219.787C462.153 220.571 461.796 221.6 461.857 222.648C461.918 223.696 462.392 224.676 463.175 225.375L511.312 268.225C511.7 268.571 512.153 268.837 512.644 269.007C513.135 269.178 513.655 269.25 514.174 269.22C514.692 269.19 515.2 269.058 515.668 268.831C516.136 268.605 516.555 268.289 516.9 267.9L547.738 233.258C548.436 232.474 548.794 231.445 548.733 230.397C548.672 229.349 548.197 228.368 547.413 227.67L499.275 184.819C498.552 184.174 497.616 183.818 496.646 183.82Z" fill="#3F3D56"/>
<path d="M531.393 237.364C530.873 237.365 530.372 237.174 529.984 236.828L492.198 203.192C491.988 203.007 491.818 202.783 491.696 202.532C491.573 202.281 491.502 202.008 491.485 201.729C491.469 201.451 491.507 201.171 491.599 200.907C491.69 200.644 491.833 200.401 492.018 200.192C492.204 199.983 492.429 199.814 492.68 199.692C492.932 199.571 493.205 199.5 493.484 199.484C493.762 199.469 494.042 199.508 494.305 199.6C494.569 199.693 494.811 199.836 495.019 200.023L532.806 233.659C533.127 233.945 533.354 234.321 533.456 234.739C533.558 235.157 533.531 235.596 533.378 235.998C533.224 236.4 532.953 236.746 532.598 236.99C532.244 237.234 531.824 237.365 531.393 237.364Z" fill="#007090"/>
<path d="M524.186 245.461C523.666 245.461 523.164 245.271 522.776 244.925L484.99 211.288C484.782 211.103 484.612 210.879 484.491 210.628C484.37 210.377 484.299 210.105 484.283 209.827C484.267 209.549 484.306 209.27 484.397 209.007C484.489 208.744 484.631 208.501 484.816 208.293C485.002 208.085 485.226 207.916 485.477 207.794C485.728 207.673 486 207.602 486.278 207.586C486.556 207.57 486.835 207.609 487.098 207.7C487.361 207.792 487.604 207.934 487.812 208.119L525.598 241.756C525.919 242.041 526.146 242.418 526.248 242.836C526.351 243.254 526.323 243.693 526.17 244.095C526.017 244.497 525.745 244.843 525.391 245.087C525.036 245.331 524.616 245.461 524.186 245.461Z" fill="#007090"/>
<path d="M516.978 253.558C516.458 253.559 515.956 253.368 515.568 253.021L477.782 219.386C477.574 219.201 477.404 218.976 477.282 218.725C477.16 218.475 477.089 218.202 477.073 217.924C477.057 217.645 477.095 217.367 477.187 217.103C477.278 216.84 477.421 216.597 477.606 216.389C477.792 216.181 478.016 216.011 478.268 215.889C478.519 215.768 478.791 215.697 479.069 215.681C479.348 215.665 479.627 215.704 479.89 215.796C480.153 215.888 480.396 216.031 480.604 216.216L518.39 249.852C518.711 250.138 518.938 250.515 519.041 250.933C519.143 251.351 519.115 251.79 518.962 252.192C518.809 252.594 518.537 252.94 518.183 253.184C517.829 253.428 517.409 253.559 516.978 253.558Z" fill="#007090"/>
<path d="M473.767 205.667C473.282 204.798 472.994 203.833 472.922 202.84C472.85 201.847 472.997 200.851 473.352 199.921C473.708 198.991 474.262 198.15 474.977 197.458C475.693 196.766 476.551 196.239 477.492 195.914L477.533 171.719L488.017 178.659L486.371 200.57C486.811 202.187 486.644 203.91 485.899 205.411C485.155 206.912 483.886 208.089 482.332 208.717C480.779 209.345 479.049 209.381 477.47 208.819C475.891 208.257 474.574 207.135 473.767 205.667Z" fill="#9E616A"/>
<path d="M474.736 98.6128L479.42 94.0981L482.861 96.5816C482.861 96.5816 486.246 100.644 488.954 112.831C491.663 125.018 488.954 192.048 488.954 192.048L474.059 190.017L476.09 154.809L469.997 125.018L474.736 98.6128Z" fill="#E6E6E6"/>
<path d="M481.652 95.1993L465.872 87.6614L455.158 77.7239L435.621 77.5777L429.318 85.7707L412.68 91.4225L415.453 148.794L413.563 153.205C413.563 153.205 414.88 154.395 415.482 155.061C416.083 155.726 414.65 161.298 414.65 161.298L413.842 167.359L416.084 168.961L413.169 172.403L412.446 177.829C412.446 177.829 463.315 165.186 472.927 186.131C473.434 187.238 472.184 176.422 472.184 176.422L470.933 168.505L472.174 161.398L474.065 159.508L470.894 156.337L472.927 141.29L481.652 95.1993Z" fill="#3F3D56"/>
<path d="M123.783 222.386C124.175 221.392 124.344 220.324 124.278 219.257C124.212 218.191 123.913 217.151 123.402 216.213C122.891 215.274 122.18 214.459 121.32 213.824C120.46 213.19 119.472 212.752 118.424 212.541L114.918 186.8L104.754 195.685L109.641 218.767C109.404 220.55 109.829 222.359 110.836 223.85C111.842 225.342 113.361 226.412 115.104 226.858C116.848 227.304 118.694 227.095 120.293 226.271C121.893 225.447 123.135 224.065 123.783 222.386Z" fill="#FFB8B8"/>
<path d="M83.962 108.354L81.207 108.882L79.5418 110.979C79.5418 110.979 76.8478 121.545 79.9167 128.93C82.9855 136.314 105.174 210.542 105.174 210.542L121.111 211.005L108.696 150.822L83.962 108.354Z" fill="#3F3D56"/>
<path d="M146.791 218.611C146.057 217.834 145.502 216.906 145.165 215.891C144.829 214.877 144.718 213.801 144.843 212.74C144.967 211.678 145.322 210.657 145.884 209.748C146.445 208.838 147.199 208.063 148.093 207.477L141.748 182.285L154.492 186.739L158.563 209.979C159.449 211.545 159.729 213.382 159.351 215.141C158.972 216.9 157.962 218.46 156.511 219.524C155.06 220.587 153.269 221.082 151.477 220.914C149.686 220.746 148.018 219.926 146.791 218.611Z" fill="#FFB8B8"/>
<path d="M141.223 97.9538L143.976 97.4163L146.303 98.7407C146.303 98.7407 152.742 107.541 152.648 115.537C152.554 123.533 159.642 200.682 159.642 200.682L145.027 207.053L134.107 146.581L141.223 97.9538Z" fill="#3F3D56"/>
</g>
<defs>
<clipPath id="clip0_276_1918">
<rect width="550" height="371.95" fill="white"/>
</clipPath>
</defs>
</svg>
