<svg width="188" height="188" viewBox="0 0 188 188" fill="none" xmlns="http://www.w3.org/2000/svg">
<g filter="url(#filter0_d_392_855)">
<circle cx="94" cy="90" r="90" fill="#007090"/>
<circle cx="94" cy="90" r="88" stroke="url(#paint0_linear_392_855)" stroke-width="4"/>
</g>
<path d="M118.234 108.75C116.852 108.75 120.367 111.868 75.9297 67.4302C75.6147 66.9729 75.4722 66.4188 75.5275 65.8664C75.5829 65.3137 75.8327 64.7991 76.2323 64.4135C76.6319 64.028 77.1553 63.7969 77.7093 63.7613C78.2636 63.7256 78.8123 63.888 79.2578 64.2192L119.898 104.743C120.229 105.071 120.454 105.489 120.546 105.946C120.638 106.402 120.591 106.875 120.413 107.306C120.234 107.735 119.932 108.102 119.544 108.36C119.156 108.617 118.7 108.753 118.234 108.75Z" fill="#F6B756"/>
<path d="M110.406 116.579C109.023 116.579 112.539 119.696 68.2187 75.2583C67.7774 74.817 67.5294 74.2184 67.5294 73.5942C67.5294 72.9701 67.7774 72.3715 68.2187 71.9302C68.66 71.4888 69.2586 71.2409 69.8828 71.2409C70.5069 71.2409 71.1055 71.4888 71.5468 71.9302L112.07 112.571C112.401 112.899 112.626 113.318 112.718 113.774C112.81 114.23 112.763 114.704 112.584 115.134C112.406 115.564 112.104 115.931 111.715 116.188C111.328 116.445 110.872 116.581 110.406 116.579Z" fill="#F6B756"/>
<path d="M97 118.782C95.5938 118.782 98.0313 120.797 65.8984 88.6645C65.4541 88.223 65.2031 87.6232 65.2009 86.997C65.1988 86.3707 65.4454 85.7691 65.8867 85.3247C66.328 84.8801 66.928 84.6293 67.5543 84.627C68.1805 84.6248 68.7822 84.8714 69.2266 85.313L98.6875 114.774C99.0196 115.103 99.2456 115.524 99.3365 115.983C99.4274 116.441 99.3789 116.917 99.1975 117.348C99.0161 117.779 98.7098 118.145 98.3184 118.401C97.9267 118.657 97.4676 118.789 97 118.782Z" fill="#F6B756"/>
<path d="M120.438 95.3442C119.031 95.3442 121.469 97.3598 89.3359 65.227C88.8916 64.7855 88.6406 64.1857 88.6384 63.5595C88.6363 62.9332 88.8829 62.3316 89.3242 61.8872C89.7655 61.4426 90.3655 61.1918 90.9918 61.1895C91.618 61.1873 92.2197 61.4339 92.6641 61.8755L122.125 91.3364C122.457 91.6655 122.683 92.0864 122.774 92.5451C122.865 93.0037 122.816 93.4793 122.635 93.9101C122.454 94.3411 122.147 94.7079 121.756 94.9634C121.364 95.2191 120.905 95.3515 120.438 95.3442Z" fill="#F6B756"/>
<path d="M66.836 156.961C65.4766 156.961 68.6641 159.773 27.8124 118.922C27.4556 118.607 27.203 118.191 27.0882 117.729C26.9734 117.268 27.0018 116.782 27.1697 116.337C27.3376 115.892 27.637 115.508 28.0281 115.237C28.4192 114.966 28.8835 114.821 29.3593 114.82C30.789 114.82 27.5546 112.031 68.5001 152.953C68.8305 153.281 69.056 153.699 69.1474 154.156C69.239 154.612 69.1926 155.086 69.014 155.516C68.8357 155.946 68.5331 156.313 68.1452 156.57C67.7571 156.827 67.3015 156.963 66.836 156.961Z" fill="#F6B756"/>
<path d="M70.9843 145.5C69.6015 145.5 72.0859 147.562 39.1797 114.68C38.8167 114.233 38.6308 113.669 38.6574 113.094C38.684 112.519 38.9212 111.974 39.3238 111.562C39.7264 111.151 40.2663 110.902 40.8405 110.863C41.4147 110.824 41.9832 110.998 42.4375 111.352L72.6484 141.563C72.9557 141.894 73.1607 142.306 73.2388 142.751C73.3171 143.196 73.2653 143.653 73.0895 144.069C72.9137 144.485 72.6214 144.842 72.2481 145.095C71.8747 145.349 71.4357 145.49 70.9843 145.5Z" fill="#F6B756"/>
<path d="M158.617 65.1795C157.187 65.1795 159.953 67.5232 119.5 27.0466C119.282 26.828 119.108 26.5686 118.99 26.2831C118.872 25.9976 118.811 25.6916 118.811 25.3825C118.811 25.0735 118.872 24.7675 118.99 24.4819C119.108 24.1964 119.282 23.937 119.5 23.7184C119.719 23.4999 119.978 23.3266 120.264 23.2083C120.549 23.09 120.855 23.0292 121.164 23.0292C121.473 23.0292 121.779 23.09 122.065 23.2083C122.35 23.3266 122.61 23.4999 122.828 23.7184L160.328 61.2185C160.646 61.5513 160.858 61.9704 160.939 62.4232C161.02 62.876 160.966 63.3427 160.783 63.765C160.601 64.1873 160.298 64.5466 159.913 64.7981C159.528 65.0496 159.077 65.1823 158.617 65.1795Z" fill="#F6B756"/>
<path d="M147.156 69.3281C145.773 69.3281 148.258 71.3906 115.352 38.5078C114.91 38.0665 114.662 37.4679 114.662 36.8438C114.662 36.2196 114.91 35.621 115.352 35.1797C115.793 34.7384 116.391 34.4904 117.016 34.4904C117.64 34.4904 118.238 34.7384 118.68 35.1797L148.82 65.3203C149.151 65.6482 149.376 66.067 149.468 66.5234C149.56 66.9799 149.513 67.4531 149.335 67.8832C149.156 68.313 148.853 68.6801 148.465 68.9374C148.078 69.1948 147.622 69.3309 147.156 69.3281Z" fill="#F6B756"/>
<path d="M66.1563 117.867C64.1406 117.867 41.5703 107.367 29.3828 117.164C28.8437 117.61 28.3047 118.078 27.7891 118.594L21.3438 112.172C32.4766 101.039 47.6641 102.961 62.8047 107.344L66.1563 117.867Z" fill="url(#paint1_linear_392_855)"/>
<path d="M121.328 117.328C109.398 129.211 92.8281 126.211 76.6562 121.195L73.375 110.625C81.0191 113.403 88.9394 115.351 96.9998 116.438C112.351 117.68 121.679 108.375 120.437 93C118.609 69.8203 96.0388 37.4766 116.172 17.3438L122.594 23.7656C101.734 44.625 147.367 91.2422 121.328 117.328Z" fill="url(#paint2_linear_392_855)"/>
<path d="M166.656 67.8277C155.523 78.9605 140.313 77.0386 125.195 72.6558L121.867 62.1558C135.016 66.2105 150.531 71.1089 160.234 61.4058L166.656 67.8277Z" fill="url(#paint3_linear_392_855)"/>
<path d="M62.8049 107.343L66.1565 117.867C60.0159 115.898 60.7893 116.507 60.5081 115.523C58.0002 107.625 58.5159 109.312 57.5081 105.937C59.2659 106.406 61.0237 106.828 62.8049 107.343Z" fill="#4DA67F"/>
<path d="M81.9297 122.812C80.1484 122.343 78.3906 121.828 76.6562 121.289L73.375 110.625C75.2031 111.21 77.0312 111.796 78.8359 112.335C80.6641 118.125 81.0625 119.578 81.9297 122.812Z" fill="#4DA67F"/>
<path d="M114.625 69.3752C100.562 64.8284 83.3359 58.8518 73.0937 69.094C52.1875 90.0002 97.9609 136.524 71.8281 162.656L65.4062 156.235C86.3359 135.305 40.6327 88.758 66.6718 62.6721C78.6484 50.719 95.2187 53.8596 111.344 58.8049L114.625 69.3752Z" fill="url(#paint4_linear_392_855)"/>
<path d="M111.344 58.8047L114.625 69.375C112.797 68.7891 110.969 68.2031 109.164 67.6641C108.063 64.2187 107.055 60.9375 106.047 57.1875C107.828 57.75 109.586 58.2656 111.344 58.8047Z" fill="#4DA67F"/>
<path d="M130.516 74.0627C128.734 73.6409 126.977 73.1721 125.195 72.6565L121.867 62.1565C128.055 64.0549 127.234 63.5393 127.516 64.5002C127.586 64.7346 129.508 70.6643 130.516 74.0627Z" fill="#4DA67F"/>
<defs>
<filter id="filter0_d_392_855" x="0" y="0" width="188" height="188" filterUnits="userSpaceOnUse" color-interpolation-filters="sRGB">
<feFlood flood-opacity="0" result="BackgroundImageFix"/>
<feColorMatrix in="SourceAlpha" type="matrix" values="0 0 0 0 0 0 0 0 0 0 0 0 0 0 0 0 0 0 127 0" result="hardAlpha"/>
<feOffset dy="4"/>
<feGaussianBlur stdDeviation="2"/>
<feComposite in2="hardAlpha" operator="out"/>
<feColorMatrix type="matrix" values="0 0 0 0 0 0 0 0 0 0 0 0 0 0 0 0 0 0 0.4 0"/>
<feBlend mode="normal" in2="BackgroundImageFix" result="effect1_dropShadow_392_855"/>
<feBlend mode="normal" in="SourceGraphic" in2="effect1_dropShadow_392_855" result="shape"/>
</filter>
<linearGradient id="paint0_linear_392_855" x1="94" y1="0" x2="94" y2="180" gradientUnits="userSpaceOnUse">
<stop stop-color="#05ACDC"/>
<stop offset="1" stop-opacity="0"/>
</linearGradient>
<linearGradient id="paint1_linear_392_855" x1="43.75" y1="118.594" x2="43.75" y2="103.875" gradientUnits="userSpaceOnUse">
<stop stop-color="#6AB891"/>
<stop offset="1" stop-color="#85CBA9"/>
</linearGradient>
<linearGradient id="paint2_linear_392_855" x1="101.5" y1="125.602" x2="101.5" y2="17.3438" gradientUnits="userSpaceOnUse">
<stop stop-color="#6AB891"/>
<stop offset="1" stop-color="#85CBA9"/>
</linearGradient>
<linearGradient id="paint3_linear_392_855" x1="144.273" y1="76.1011" x2="144.273" y2="61.4058" gradientUnits="userSpaceOnUse">
<stop stop-color="#6AB891"/>
<stop offset="1" stop-color="#85CBA9"/>
</linearGradient>
<linearGradient id="paint4_linear_392_855" x1="86.5234" y1="162.656" x2="86.5234" y2="54.3987" gradientUnits="userSpaceOnUse">
<stop stop-color="#6AB891"/>
<stop offset="1" stop-color="#85CBA9"/>
</linearGradient>
</defs>
</svg>
