<svg width="180" height="180" viewBox="0 0 180 180" fill="none" xmlns="http://www.w3.org/2000/svg">
<circle cx="90" cy="90" r="88" fill="#007090" stroke="url(#paint0_linear_433_903)" stroke-width="4"/>
<path d="M114.234 108.75C112.851 108.75 116.367 111.868 71.9295 67.4301C71.6145 66.9728 71.472 66.4188 71.5273 65.8663C71.5826 65.3137 71.8324 64.799 72.2321 64.4134C72.6317 64.0279 73.155 63.7968 73.7091 63.7612C74.2634 63.7256 74.8121 63.888 75.2576 64.2191L115.898 104.743C116.229 105.07 116.454 105.489 116.546 105.946C116.637 106.402 116.591 106.875 116.412 107.305C116.234 107.735 115.931 108.102 115.543 108.36C115.156 108.617 114.7 108.753 114.234 108.75Z" fill="#F6B756"/>
<path d="M106.406 116.579C105.023 116.579 108.539 119.696 64.2186 75.2584C63.7773 74.8171 63.5293 74.2185 63.5293 73.5943C63.5293 72.9702 63.7773 72.3716 64.2186 71.9303C64.6599 71.4889 65.2585 71.241 65.8827 71.241C66.5068 71.241 67.1054 71.4889 67.5467 71.9303L108.07 112.571C108.401 112.899 108.626 113.318 108.718 113.774C108.809 114.231 108.763 114.704 108.584 115.134C108.406 115.564 108.103 115.931 107.715 116.188C107.327 116.445 106.872 116.581 106.406 116.579Z" fill="#F6B756"/>
<path d="M92.9998 118.782C91.5935 118.782 94.031 120.797 61.8982 88.6645C61.4538 88.223 61.2028 87.6232 61.2007 86.997C61.1986 86.3707 61.4451 85.7691 61.8865 85.3247C62.3278 84.8801 62.9278 84.6293 63.5541 84.627C64.1803 84.6249 64.7819 84.8714 65.2263 85.313L94.6873 114.774C95.0194 115.103 95.2453 115.524 95.3362 115.983C95.4272 116.441 95.3787 116.917 95.1973 117.348C95.0159 117.779 94.7095 118.145 94.3181 118.401C93.9265 118.657 93.4673 118.789 92.9998 118.782Z" fill="#F6B756"/>
<path d="M116.438 95.3442C115.031 95.3442 117.469 97.3599 85.3362 65.227C84.8918 64.7855 84.6408 64.1857 84.6387 63.5595C84.6366 62.9332 84.8831 62.3316 85.3245 61.8872C85.7658 61.4426 86.3658 61.1918 86.992 61.1895C87.6183 61.1874 88.2199 61.4339 88.6643 61.8755L118.125 91.3364C118.457 91.6655 118.683 92.0864 118.774 92.5451C118.865 93.0038 118.817 93.4793 118.635 93.9101C118.454 94.3411 118.148 94.7079 117.756 94.9634C117.364 95.2191 116.905 95.3515 116.438 95.3442Z" fill="#F6B756"/>
<path d="M62.8361 156.961C61.4767 156.961 64.6642 159.773 23.8126 118.922C23.4557 118.607 23.2031 118.191 23.0883 117.729C22.9735 117.268 23.0019 116.782 23.1698 116.337C23.3377 115.892 23.6371 115.508 24.0282 115.237C24.4194 114.966 24.8836 114.821 25.3594 114.82C26.7891 114.82 23.5547 112.031 64.5002 152.953C64.8306 153.281 65.0561 153.699 65.1475 154.156C65.2392 154.612 65.1928 155.086 65.0142 155.516C64.8358 155.946 64.5332 156.313 64.1453 156.57C63.7572 156.827 63.3016 156.963 62.8361 156.961Z" fill="#F6B756"/>
<path d="M66.9842 145.5C65.6014 145.5 68.0858 147.562 35.1796 114.68C34.8166 114.233 34.6307 113.669 34.6573 113.094C34.6838 112.518 34.921 111.974 35.3236 111.562C35.7262 111.151 36.2661 110.902 36.8404 110.863C37.4146 110.824 37.9831 110.998 38.4373 111.351L68.6483 141.562C68.9555 141.894 69.1606 142.306 69.2387 142.751C69.3169 143.196 69.2651 143.653 69.0894 144.069C68.9136 144.485 68.6213 144.842 68.248 145.095C67.8746 145.349 67.4356 145.49 66.9842 145.5Z" fill="#F6B756"/>
<path d="M154.617 65.1793C153.187 65.1793 155.953 67.5231 115.5 27.0465C115.281 26.8279 115.108 26.5685 114.99 26.283C114.871 25.9975 114.811 25.6914 114.811 25.3824C114.811 25.0733 114.871 24.7673 114.99 24.4818C115.108 24.1963 115.281 23.9369 115.5 23.7183C115.719 23.4998 115.978 23.3265 116.263 23.2082C116.549 23.0899 116.855 23.0291 117.164 23.0291C117.473 23.0291 117.779 23.0899 118.065 23.2082C118.35 23.3265 118.61 23.4998 118.828 23.7183L156.328 61.2184C156.646 61.5512 156.858 61.9703 156.939 62.4231C157.02 62.8759 156.966 63.3425 156.783 63.7649C156.601 64.1872 156.298 64.5465 155.913 64.798C155.528 65.0495 155.077 65.1821 154.617 65.1793Z" fill="#F6B756"/>
<path d="M143.156 69.3282C141.773 69.3282 144.258 71.3907 111.351 38.5079C110.91 38.0665 110.662 37.468 110.662 36.8438C110.662 36.2197 110.91 35.6211 111.351 35.1798C111.793 34.7384 112.391 34.4905 113.015 34.4905C113.64 34.4905 114.238 34.7384 114.68 35.1798L144.82 65.3204C145.151 65.6482 145.376 66.0671 145.468 66.5234C145.559 66.98 145.513 67.4532 145.334 67.8832C145.156 68.3131 144.853 68.6801 144.465 68.9375C144.077 69.1948 143.622 69.331 143.156 69.3282Z" fill="#F6B756"/>
<path d="M62.1563 117.867C60.1406 117.867 37.5703 107.367 25.3828 117.164C24.8437 117.61 24.3047 118.078 23.7891 118.594L17.3438 112.172C28.4766 101.039 43.6641 102.961 58.8047 107.344L62.1563 117.867Z" fill="url(#paint1_linear_433_903)"/>
<path d="M117.328 117.328C105.398 129.211 88.8281 126.211 72.6562 121.195L69.375 110.625C77.0191 113.403 84.9394 115.351 92.9998 116.437C108.351 117.68 117.679 108.375 116.437 93C114.609 69.8203 92.0388 37.4766 112.172 17.3438L118.594 23.7656C97.7344 44.625 143.367 91.2422 117.328 117.328Z" fill="url(#paint2_linear_433_903)"/>
<path d="M162.656 67.8276C151.523 78.9604 136.313 77.0386 121.195 72.6558L117.867 62.1558C131.016 66.2104 146.531 71.1089 156.234 61.4058L162.656 67.8276Z" fill="url(#paint3_linear_433_903)"/>
<path d="M58.8047 107.343L62.1563 117.867C56.0156 115.898 56.7891 116.507 56.5078 115.523C54 107.625 54.5156 109.312 53.5078 105.937C55.2656 106.406 57.0234 106.828 58.8047 107.343Z" fill="#4DA67F"/>
<path d="M77.9297 122.812C76.1484 122.343 74.3906 121.828 72.6562 121.289L69.375 110.625C71.2031 111.21 73.0312 111.796 74.8359 112.335C76.6641 118.125 77.0625 119.578 77.9297 122.812Z" fill="#4DA67F"/>
<path d="M110.625 69.3753C96.5625 64.8284 79.3359 58.8518 69.0937 69.094C48.1875 90.0003 93.9609 136.524 67.8281 162.657L61.4062 156.235C82.3359 135.305 36.6327 88.7581 62.6718 62.6721C74.6484 50.719 91.2187 53.8596 107.344 58.8049L110.625 69.3753Z" fill="url(#paint4_linear_433_903)"/>
<path d="M107.344 58.8047L110.625 69.375C108.797 68.7891 106.969 68.2031 105.164 67.6641C104.063 64.2187 103.055 60.9375 102.047 57.1875C103.828 57.75 105.586 58.2656 107.344 58.8047Z" fill="#4DA67F"/>
<path d="M126.516 74.0627C124.734 73.6409 122.977 73.1721 121.195 72.6565L117.867 62.1565C124.055 64.0549 123.234 63.5393 123.516 64.5002C123.586 64.7346 125.508 70.6643 126.516 74.0627Z" fill="#4DA67F"/>
<defs>
<linearGradient id="paint0_linear_433_903" x1="90" y1="0" x2="90" y2="180" gradientUnits="userSpaceOnUse">
<stop stop-color="#05ACDC"/>
<stop offset="1" stop-opacity="0"/>
</linearGradient>
<linearGradient id="paint1_linear_433_903" x1="39.75" y1="118.594" x2="39.75" y2="103.875" gradientUnits="userSpaceOnUse">
<stop stop-color="#6AB891"/>
<stop offset="1" stop-color="#85CBA9"/>
</linearGradient>
<linearGradient id="paint2_linear_433_903" x1="97.4998" y1="125.602" x2="97.4998" y2="17.3438" gradientUnits="userSpaceOnUse">
<stop stop-color="#6AB891"/>
<stop offset="1" stop-color="#85CBA9"/>
</linearGradient>
<linearGradient id="paint3_linear_433_903" x1="140.273" y1="76.1011" x2="140.273" y2="61.4058" gradientUnits="userSpaceOnUse">
<stop stop-color="#6AB891"/>
<stop offset="1" stop-color="#85CBA9"/>
</linearGradient>
<linearGradient id="paint4_linear_433_903" x1="82.5234" y1="162.657" x2="82.5234" y2="54.3987" gradientUnits="userSpaceOnUse">
<stop stop-color="#6AB891"/>
<stop offset="1" stop-color="#85CBA9"/>
</linearGradient>
</defs>
</svg>
