<svg width="188" height="188" viewBox="0 0 188 188" fill="none" xmlns="http://www.w3.org/2000/svg">
<g filter="url(#filter0_d_392_854)">
<circle cx="94" cy="90" r="90" fill="#007090"/>
<circle cx="94" cy="90" r="88" stroke="url(#paint0_linear_392_854)" stroke-width="4"/>
</g>
<g clip-path="url(#clip0_392_854)">
<mask id="mask0_392_854" style="mask-type:luminance" maskUnits="userSpaceOnUse" x="19" y="15" width="150" height="150">
<path d="M169 15H19V165H169V15Z" fill="white"/>
</mask>
<g mask="url(#mask0_392_854)">
<path d="M94.0001 104.063C101.767 104.063 108.063 97.7665 108.063 90C108.063 82.2335 101.767 75.9375 94.0001 75.9375C86.2336 75.9375 79.9376 82.2335 79.9376 90C79.9376 97.7665 86.2336 104.063 94.0001 104.063Z" fill="url(#paint1_linear_392_854)"/>
<path d="M93.9999 165C84.1561 165 75.6483 150.375 71.2421 125.859C59.078 58.3826 84.3671 -11.3206 106.633 24.0231C106.962 24.5515 107.068 25.1891 106.928 25.7956C106.787 26.4022 106.411 26.928 105.883 27.2575C105.354 27.5869 104.717 27.693 104.11 27.5524C103.504 27.4117 102.978 27.0359 102.648 26.5075C84.6249 -2.20344 65.3827 66.8904 75.8358 125.015C79.6561 146.25 86.9686 160.312 93.9999 160.312C112 160.312 122.992 83.906 108.062 38.7654C107.896 38.1822 107.962 37.5572 108.247 37.0218C108.531 36.4864 109.013 36.0821 109.589 35.894C110.166 35.7059 110.793 35.7485 111.338 36.013C111.884 36.2774 112.306 36.7431 112.516 37.3122C127.398 82.3826 118.281 165 93.9999 165Z" fill="#DFE3EA"/>
<path d="M93.9999 165C84.1561 165 75.6483 150.375 71.2421 125.859C59.078 58.3826 84.3671 -11.3206 106.633 24.0231C106.962 24.5515 107.068 25.1891 106.928 25.7956C106.787 26.4022 106.411 26.928 105.883 27.2575C105.354 27.5869 104.717 27.693 104.11 27.5524C103.504 27.4117 102.978 27.0359 102.648 26.5075C84.6249 -2.20344 65.3827 66.8904 75.8358 125.015C79.6561 146.25 86.9686 160.312 93.9999 160.312C112 160.312 122.992 83.906 108.062 38.7654C107.896 38.1822 107.962 37.5572 108.247 37.0218C108.531 36.4864 109.013 36.0821 109.589 35.894C110.166 35.7059 110.793 35.7485 111.338 36.013C111.884 36.2774 112.306 36.7431 112.516 37.3122C127.398 82.3826 118.281 165 93.9999 165Z" fill="#DFE3EA"/>
<path d="M108.062 38.4375C111.946 38.4375 115.094 35.2895 115.094 31.4062C115.094 27.523 111.946 24.375 108.062 24.375C104.179 24.375 101.031 27.523 101.031 31.4062C101.031 35.2895 104.179 38.4375 108.062 38.4375Z" fill="url(#paint2_linear_392_854)"/>
<path d="M93.9999 165C84.1561 165 75.6483 150.375 71.2421 125.859C59.078 58.3826 84.3671 -11.3206 106.633 24.0231C106.962 24.5515 107.068 25.1891 106.928 25.7956C106.787 26.4022 106.411 26.928 105.883 27.2575C105.354 27.5869 104.717 27.693 104.11 27.5524C103.504 27.4117 102.978 27.0359 102.648 26.5075C84.6249 -2.20344 65.3827 66.8904 75.8358 125.015C79.6561 146.25 86.9686 160.312 93.9999 160.312C112 160.312 122.992 83.906 108.062 38.7654C107.896 38.1822 107.962 37.5572 108.247 37.0218C108.531 36.4864 109.013 36.0821 109.589 35.894C110.166 35.7059 110.793 35.7485 111.338 36.013C111.884 36.2774 112.306 36.7431 112.516 37.3122C127.398 82.3826 118.281 165 93.9999 165Z" fill="#DFE3EA"/>
<path d="M93.9999 165C84.1561 165 75.6483 150.375 71.2421 125.859C59.078 58.3826 84.3671 -11.3206 106.633 24.0231C106.962 24.5515 107.068 25.1891 106.928 25.7956C106.787 26.4022 106.411 26.928 105.883 27.2575C105.354 27.5869 104.717 27.693 104.11 27.5524C103.504 27.4117 102.978 27.0359 102.648 26.5075C84.6249 -2.20344 65.3827 66.8904 75.8358 125.015C79.6561 146.25 86.9686 160.312 93.9999 160.312C112 160.312 122.992 83.906 108.062 38.7654C107.896 38.1822 107.962 37.5572 108.247 37.0218C108.531 36.4864 109.013 36.0821 109.589 35.894C110.166 35.7059 110.793 35.7485 111.338 36.013C111.884 36.2774 112.306 36.7431 112.516 37.3122C127.398 82.3826 118.281 165 93.9999 165Z" fill="#DFE3EA"/>
<path d="M108.062 38.4375C111.946 38.4375 115.094 35.2895 115.094 31.4062C115.094 27.523 111.946 24.375 108.062 24.375C104.179 24.375 101.031 27.523 101.031 31.4062C101.031 35.2895 104.179 38.4375 108.062 38.4375Z" fill="url(#paint3_linear_392_854)"/>
<path d="M144.742 133.945C144.121 133.945 143.524 133.698 143.085 133.258C142.645 132.819 142.398 132.223 142.398 131.601C142.398 130.979 142.645 130.383 143.085 129.944C143.524 129.504 144.121 129.257 144.742 129.257C167.383 128.366 150.93 106.499 133.516 91.7571C96.9531 60.8431 40.7265 41.5775 33.0624 54.8431C23.6874 71.0852 86.5937 118.687 131.289 127.874C131.911 127.999 132.457 128.365 132.809 128.892C133.161 129.42 133.288 130.065 133.164 130.687C133.04 131.309 132.674 131.855 132.146 132.207C131.619 132.558 130.973 132.686 130.352 132.562C104.852 127.312 72.2968 109.476 51.5312 91.8743C-0.0313625 48.1165 37.4686 27.7495 106.891 67.7571C117.337 73.7229 127.235 80.6013 136.469 88.3118C155.453 104.39 163.867 119.062 158.969 127.593C156.273 132.187 149.781 133.945 144.742 133.945Z" fill="#DFE3EA"/>
<path d="M144.742 133.945C144.121 133.945 143.524 133.698 143.085 133.258C142.645 132.819 142.398 132.223 142.398 131.601C142.398 130.979 142.645 130.383 143.085 129.944C143.524 129.504 144.121 129.257 144.742 129.257C167.383 128.366 150.93 106.499 133.516 91.7571C96.9531 60.8431 40.7265 41.5775 33.0624 54.8431C23.6874 71.0852 86.5937 118.687 131.289 127.874C131.911 127.999 132.457 128.365 132.809 128.892C133.161 129.42 133.288 130.065 133.164 130.687C133.04 131.309 132.674 131.855 132.146 132.207C131.619 132.558 130.973 132.686 130.352 132.562C104.852 127.312 72.2968 109.476 51.5312 91.8743C-0.0313625 48.1165 37.4686 27.7495 106.891 67.7571C117.337 73.7229 127.235 80.6013 136.469 88.3118C155.453 104.39 163.867 119.062 158.969 127.593C156.273 132.187 149.781 133.945 144.742 133.945Z" fill="#DFE3EA"/>
<path d="M137.711 138.515C141.594 138.515 144.742 135.367 144.742 131.484C144.742 127.601 141.594 124.452 137.711 124.452C133.828 124.452 130.68 127.601 130.68 131.484C130.68 135.367 133.828 138.515 137.711 138.515Z" fill="url(#paint4_linear_392_854)"/>
<path d="M144.742 133.945C144.121 133.945 143.524 133.698 143.085 133.258C142.645 132.819 142.398 132.223 142.398 131.601C142.398 130.979 142.645 130.383 143.085 129.944C143.524 129.504 144.121 129.257 144.742 129.257C167.383 128.366 150.93 106.499 133.516 91.7571C96.9531 60.8431 40.7265 41.5775 33.0624 54.8431C23.6874 71.0852 86.5937 118.687 131.289 127.874C131.911 127.999 132.457 128.365 132.809 128.892C133.161 129.42 133.288 130.065 133.164 130.687C133.04 131.309 132.674 131.855 132.146 132.207C131.619 132.558 130.973 132.686 130.352 132.562C104.852 127.312 72.2968 109.476 51.5312 91.8743C-0.0313625 48.1165 37.4686 27.7495 106.891 67.7571C117.337 73.7229 127.235 80.6013 136.469 88.3118C155.453 104.39 163.867 119.062 158.969 127.593C156.273 132.187 149.781 133.945 144.742 133.945Z" fill="#DFE3EA"/>
<path d="M144.742 133.945C144.121 133.945 143.524 133.698 143.085 133.258C142.645 132.819 142.398 132.223 142.398 131.601C142.398 130.979 142.645 130.383 143.085 129.944C143.524 129.504 144.121 129.257 144.742 129.257C167.383 128.366 150.93 106.499 133.516 91.7571C96.9531 60.8431 40.7265 41.5775 33.0624 54.8431C23.6874 71.0852 86.5937 118.687 131.289 127.874C131.911 127.999 132.457 128.365 132.809 128.892C133.161 129.42 133.288 130.065 133.164 130.687C133.04 131.309 132.674 131.855 132.146 132.207C131.619 132.558 130.973 132.686 130.352 132.562C104.852 127.312 72.2968 109.476 51.5312 91.8743C-0.0313625 48.1165 37.4686 27.7495 106.891 67.7571C117.337 73.7229 127.235 80.6013 136.469 88.3118C155.453 104.39 163.867 119.062 158.969 127.593C156.273 132.187 149.781 133.945 144.742 133.945Z" fill="#DFE3EA"/>
<path d="M137.711 138.515C141.594 138.515 144.742 135.367 144.742 131.484C144.742 127.601 141.594 124.452 137.711 124.452C133.828 124.452 130.68 127.601 130.68 131.484C130.68 135.367 133.828 138.515 137.711 138.515Z" fill="url(#paint5_linear_392_854)"/>
<path d="M44.7812 133.945C28.9842 133.945 23.6873 125.039 30.4139 112.055C30.6999 111.501 31.1939 111.084 31.7872 110.895C32.3806 110.706 33.0247 110.761 33.578 111.047C34.1312 111.333 34.5482 111.827 34.7372 112.42C34.9262 113.014 34.8717 113.658 34.5858 114.211C18.7186 144.68 89.1953 125.648 133.328 88.2188C149.781 74.3672 158.406 60.9609 154.938 54.8438C151.469 48.7266 135.484 49.5 115.305 56.7656C90.7422 65.5313 59.8047 84.0703 42.4374 103.359C42.0209 103.823 41.4375 104.101 40.8156 104.134C40.1936 104.167 39.584 103.952 39.121 103.535C38.6579 103.119 38.3792 102.535 38.3462 101.913C38.3133 101.291 38.5287 100.682 38.9452 100.219C50.3593 87.6563 66.3906 76.1719 81.1094 67.6641C151.422 27.1406 187.492 48.5859 136.469 91.7813C114.344 110.531 71.9687 133.945 44.7812 133.945Z" fill="#DFE3EA"/>
<path d="M44.7812 133.945C28.9842 133.945 23.6873 125.039 30.4139 112.055C30.6999 111.501 31.1939 111.084 31.7872 110.895C32.3806 110.706 33.0247 110.761 33.578 111.047C34.1312 111.333 34.5482 111.827 34.7372 112.42C34.9262 113.014 34.8717 113.658 34.5858 114.211C18.7186 144.68 89.1953 125.648 133.328 88.2188C149.781 74.3672 158.406 60.9609 154.938 54.8438C151.469 48.7266 135.484 49.5 115.305 56.7656C90.7422 65.5313 59.8047 84.0703 42.4374 103.359C42.0209 103.823 41.4375 104.101 40.8156 104.134C40.1936 104.167 39.584 103.952 39.121 103.535C38.6579 103.119 38.3792 102.535 38.3462 101.913C38.3133 101.291 38.5287 100.682 38.9452 100.219C50.3593 87.6563 66.3906 76.1719 81.1094 67.6641C151.422 27.1406 187.492 48.5859 136.469 91.7813C114.344 110.531 71.9687 133.945 44.7812 133.945Z" fill="#DFE3EA"/>
<path d="M36.2264 114.14C40.1097 114.14 43.2577 110.992 43.2577 107.109C43.2577 103.226 40.1097 100.078 36.2264 100.078C32.3432 100.078 29.1952 103.226 29.1952 107.109C29.1952 110.992 32.3432 114.14 36.2264 114.14Z" fill="url(#paint6_linear_392_854)"/>
<path d="M44.7812 133.945C28.9842 133.945 23.6873 125.039 30.4139 112.055C30.6999 111.501 31.1939 111.084 31.7872 110.895C32.3806 110.706 33.0247 110.761 33.578 111.047C34.1312 111.333 34.5482 111.827 34.7372 112.42C34.9262 113.014 34.8717 113.658 34.5858 114.211C18.7186 144.68 89.1953 125.648 133.328 88.2188C149.781 74.3672 158.406 60.9609 154.938 54.8438C151.469 48.7266 135.484 49.5 115.305 56.7656C90.7422 65.5313 59.8047 84.0703 42.4374 103.359C42.0209 103.823 41.4375 104.101 40.8156 104.134C40.1936 104.167 39.584 103.952 39.121 103.535C38.6579 103.119 38.3792 102.535 38.3462 101.913C38.3133 101.291 38.5287 100.682 38.9452 100.219C50.3593 87.6563 66.3906 76.1719 81.1094 67.6641C151.422 27.1406 187.492 48.5859 136.469 91.7813C114.344 110.531 71.9687 133.945 44.7812 133.945Z" fill="#DFE3EA"/>
<path d="M44.7812 133.945C28.9842 133.945 23.6873 125.039 30.4139 112.055C30.6999 111.501 31.1939 111.084 31.7872 110.895C32.3806 110.706 33.0247 110.761 33.578 111.047C34.1312 111.333 34.5482 111.827 34.7372 112.42C34.9262 113.014 34.8717 113.658 34.5858 114.211C18.7186 144.68 89.1953 125.648 133.328 88.2188C149.781 74.3672 158.406 60.9609 154.938 54.8438C151.469 48.7266 135.484 49.5 115.305 56.7656C90.7422 65.5313 59.8047 84.0703 42.4374 103.359C42.0209 103.823 41.4375 104.101 40.8156 104.134C40.1936 104.167 39.584 103.952 39.121 103.535C38.6579 103.119 38.3792 102.535 38.3462 101.913C38.3133 101.291 38.5287 100.682 38.9452 100.219C50.3593 87.6563 66.3906 76.1719 81.1094 67.6641C151.422 27.1406 187.492 48.5859 136.469 91.7813C114.344 110.531 71.9687 133.945 44.7812 133.945Z" fill="#DFE3EA"/>
<path d="M36.2264 114.14C40.1097 114.14 43.2577 110.992 43.2577 107.109C43.2577 103.226 40.1097 100.078 36.2264 100.078C32.3432 100.078 29.1952 103.226 29.1952 107.109C29.1952 110.992 32.3432 114.14 36.2264 114.14Z" fill="url(#paint7_linear_392_854)"/>
<path d="M93.9998 104.063C91.9561 104.06 89.9372 103.613 88.084 102.751C86.2308 101.889 84.5876 100.634 83.2692 99.072C81.9506 97.5101 80.9883 95.6799 80.4495 93.7083C79.9104 91.7367 79.8078 89.6714 80.1483 87.6563C82.7264 103.219 105.273 103.195 107.851 87.6563C108.192 89.6714 108.089 91.7367 107.55 93.7083C107.011 95.6799 106.049 97.5101 104.731 99.072C103.412 100.634 101.769 101.889 99.9159 102.751C98.0625 103.613 96.0438 104.06 93.9998 104.063Z" fill="#CF4055"/>
<path d="M108.062 38.4375C106.939 38.4343 105.833 38.1622 104.837 37.6437C103.84 37.1253 102.983 36.3757 102.336 35.4577C101.688 34.5397 101.271 33.48 101.117 32.3674C100.963 31.2547 101.079 30.1215 101.453 29.0625C101.946 30.4199 102.844 31.5927 104.027 32.4215C105.209 33.2503 106.618 33.6949 108.062 33.6949C109.506 33.6949 110.916 33.2503 112.098 32.4215C113.281 31.5927 114.179 30.4199 114.672 29.0625C115.046 30.1215 115.161 31.2547 115.008 32.3674C114.854 33.48 114.437 34.5397 113.789 35.4577C113.142 36.3757 112.284 37.1253 111.288 37.6437C110.292 38.1622 109.186 38.4343 108.062 38.4375Z" fill="#7ECE67"/>
<path d="M143.804 135C142.922 136.511 141.508 137.638 139.839 138.162C138.17 138.686 136.366 138.569 134.778 137.834C133.191 137.099 131.934 135.798 131.254 134.187C130.575 132.575 130.52 130.767 131.101 129.117C131.594 130.475 132.492 131.647 133.675 132.476C134.858 133.305 136.267 133.749 137.711 133.749C139.155 133.749 140.564 133.305 141.746 132.476C142.929 131.647 143.827 130.475 144.32 129.117C144.666 130.076 144.799 131.099 144.71 132.115C144.621 133.131 144.312 134.115 143.804 135Z" fill="#5B8DC9"/>
<path d="M39.7422 113.203C38.4973 113.915 37.0643 114.23 35.6354 114.105C34.2064 113.979 32.85 113.42 31.7481 112.502C30.6462 111.584 29.8514 110.35 29.4706 108.967C29.0897 107.584 29.1409 106.118 29.6172 104.765C30.1099 106.123 31.0085 107.295 32.1911 108.124C33.3735 108.953 34.7826 109.398 36.2266 109.398C37.6706 109.398 39.0796 108.953 40.2621 108.124C41.4446 107.295 42.3433 106.123 42.8359 104.765C43.3862 106.312 43.378 108.002 42.8129 109.543C42.2479 111.084 41.1616 112.379 39.7422 113.203Z" fill="#F6B756"/>
</g>
</g>
<defs>
<filter id="filter0_d_392_854" x="0" y="0" width="188" height="188" filterUnits="userSpaceOnUse" color-interpolation-filters="sRGB">
<feFlood flood-opacity="0" result="BackgroundImageFix"/>
<feColorMatrix in="SourceAlpha" type="matrix" values="0 0 0 0 0 0 0 0 0 0 0 0 0 0 0 0 0 0 127 0" result="hardAlpha"/>
<feOffset dy="4"/>
<feGaussianBlur stdDeviation="2"/>
<feComposite in2="hardAlpha" operator="out"/>
<feColorMatrix type="matrix" values="0 0 0 0 0 0 0 0 0 0 0 0 0 0 0 0 0 0 0.4 0"/>
<feBlend mode="normal" in2="BackgroundImageFix" result="effect1_dropShadow_392_854"/>
<feBlend mode="normal" in="SourceGraphic" in2="effect1_dropShadow_392_854" result="shape"/>
</filter>
<linearGradient id="paint0_linear_392_854" x1="94" y1="0" x2="94" y2="180" gradientUnits="userSpaceOnUse">
<stop stop-color="#05ACDC"/>
<stop offset="1" stop-opacity="0"/>
</linearGradient>
<linearGradient id="paint1_linear_392_854" x1="94.0001" y1="104.063" x2="94.0001" y2="75.9375" gradientUnits="userSpaceOnUse">
<stop stop-color="#DA5466"/>
<stop offset="1" stop-color="#F4929C"/>
</linearGradient>
<linearGradient id="paint2_linear_392_854" x1="108.062" y1="38.4375" x2="108.062" y2="24.375" gradientUnits="userSpaceOnUse">
<stop stop-color="#DA5466"/>
<stop offset="1" stop-color="#F4929C"/>
</linearGradient>
<linearGradient id="paint3_linear_392_854" x1="108.062" y1="38.4375" x2="108.062" y2="24.375" gradientUnits="userSpaceOnUse">
<stop stop-color="#8CDD79"/>
<stop offset="1" stop-color="#D4E6B6"/>
</linearGradient>
<linearGradient id="paint4_linear_392_854" x1="137.711" y1="138.515" x2="137.711" y2="124.452" gradientUnits="userSpaceOnUse">
<stop stop-color="#DA5466"/>
<stop offset="1" stop-color="#F4929C"/>
</linearGradient>
<linearGradient id="paint5_linear_392_854" x1="137.711" y1="138.515" x2="137.711" y2="124.452" gradientUnits="userSpaceOnUse">
<stop stop-color="#7AA8D7"/>
<stop offset="1" stop-color="#C3D2E7"/>
</linearGradient>
<linearGradient id="paint6_linear_392_854" x1="36.2264" y1="114.14" x2="36.2264" y2="100.078" gradientUnits="userSpaceOnUse">
<stop stop-color="#DA5466"/>
<stop offset="1" stop-color="#F4929C"/>
</linearGradient>
<linearGradient id="paint7_linear_392_854" x1="36.2264" y1="114.14" x2="36.2264" y2="100.078" gradientUnits="userSpaceOnUse">
<stop stop-color="#FBCC88"/>
<stop offset="1" stop-color="#FFE5C3"/>
</linearGradient>
<clipPath id="clip0_392_854">
<rect width="150" height="150" fill="white" transform="translate(19 15)"/>
</clipPath>
</defs>
</svg>
