<svg width="180" height="180" viewBox="0 0 180 180" fill="none" xmlns="http://www.w3.org/2000/svg">
<circle cx="90" cy="90" r="88" fill="#007090" stroke="url(#paint0_linear_433_922)" stroke-width="4"/>
<g clip-path="url(#clip0_433_922)">
<mask id="mask0_433_922" style="mask-type:luminance" maskUnits="userSpaceOnUse" x="15" y="15" width="150" height="150">
<path d="M165 15H15V165H165V15Z" fill="white"/>
</mask>
<g mask="url(#mask0_433_922)">
<path d="M90 104.062C97.7665 104.062 104.062 97.7665 104.062 90C104.062 82.2335 97.7665 75.9375 90 75.9375C82.2335 75.9375 75.9375 82.2335 75.9375 90C75.9375 97.7665 82.2335 104.062 90 104.062Z" fill="url(#paint1_linear_433_922)"/>
<path d="M90.0001 165C80.1564 165 71.6486 150.375 67.2423 125.859C55.0783 58.3826 80.3673 -11.3205 102.633 24.0231C102.962 24.5515 103.068 25.1891 102.928 25.7956C102.787 26.4022 102.411 26.9281 101.883 27.2575C101.355 27.587 100.717 27.693 100.11 27.5524C99.5038 27.4117 98.9781 27.0359 98.6486 26.5075C80.6251 -2.20342 61.383 66.8904 71.8361 125.015C75.6564 146.25 82.9689 160.312 90.0001 160.312C108 160.312 118.992 83.906 104.063 38.7654C103.896 38.1822 103.962 37.5572 104.247 37.0218C104.532 36.4864 105.013 36.0821 105.589 35.894C106.166 35.7059 106.793 35.7485 107.338 36.013C107.884 36.2775 108.306 36.7431 108.516 37.3122C123.399 82.3826 114.281 165 90.0001 165Z" fill="#DFE3EA"/>
<path d="M90.0001 165C80.1564 165 71.6486 150.375 67.2423 125.859C55.0783 58.3826 80.3673 -11.3205 102.633 24.0231C102.962 24.5515 103.068 25.1891 102.928 25.7956C102.787 26.4022 102.411 26.9281 101.883 27.2575C101.355 27.587 100.717 27.693 100.11 27.5524C99.5038 27.4117 98.9781 27.0359 98.6486 26.5075C80.6251 -2.20342 61.383 66.8904 71.8361 125.015C75.6564 146.25 82.9689 160.312 90.0001 160.312C108 160.312 118.992 83.906 104.063 38.7654C103.896 38.1822 103.962 37.5572 104.247 37.0218C104.532 36.4864 105.013 36.0821 105.589 35.894C106.166 35.7059 106.793 35.7485 107.338 36.013C107.884 36.2775 108.306 36.7431 108.516 37.3122C123.399 82.3826 114.281 165 90.0001 165Z" fill="#DFE3EA"/>
<path d="M104.062 38.4375C107.946 38.4375 111.094 35.2895 111.094 31.4062C111.094 27.523 107.946 24.375 104.062 24.375C100.179 24.375 97.0312 27.523 97.0312 31.4062C97.0312 35.2895 100.179 38.4375 104.062 38.4375Z" fill="url(#paint2_linear_433_922)"/>
<path d="M90.0001 165C80.1564 165 71.6486 150.375 67.2423 125.859C55.0783 58.3826 80.3673 -11.3205 102.633 24.0231C102.962 24.5515 103.068 25.1891 102.928 25.7956C102.787 26.4022 102.411 26.9281 101.883 27.2575C101.355 27.587 100.717 27.693 100.11 27.5524C99.5038 27.4117 98.9781 27.0359 98.6486 26.5075C80.6251 -2.20342 61.383 66.8904 71.8361 125.015C75.6564 146.25 82.9689 160.312 90.0001 160.312C108 160.312 118.992 83.906 104.063 38.7654C103.896 38.1822 103.962 37.5572 104.247 37.0218C104.532 36.4864 105.013 36.0821 105.589 35.894C106.166 35.7059 106.793 35.7485 107.338 36.013C107.884 36.2775 108.306 36.7431 108.516 37.3122C123.399 82.3826 114.281 165 90.0001 165Z" fill="#DFE3EA"/>
<path d="M90.0001 165C80.1564 165 71.6486 150.375 67.2423 125.859C55.0783 58.3826 80.3673 -11.3205 102.633 24.0231C102.962 24.5515 103.068 25.1891 102.928 25.7956C102.787 26.4022 102.411 26.9281 101.883 27.2575C101.355 27.587 100.717 27.693 100.11 27.5524C99.5038 27.4117 98.9781 27.0359 98.6486 26.5075C80.6251 -2.20342 61.383 66.8904 71.8361 125.015C75.6564 146.25 82.9689 160.312 90.0001 160.312C108 160.312 118.992 83.906 104.063 38.7654C103.896 38.1822 103.962 37.5572 104.247 37.0218C104.532 36.4864 105.013 36.0821 105.589 35.894C106.166 35.7059 106.793 35.7485 107.338 36.013C107.884 36.2775 108.306 36.7431 108.516 37.3122C123.399 82.3826 114.281 165 90.0001 165Z" fill="#DFE3EA"/>
<path d="M104.062 38.4375C107.946 38.4375 111.094 35.2895 111.094 31.4062C111.094 27.523 107.946 24.375 104.062 24.375C100.179 24.375 97.0312 27.523 97.0312 31.4062C97.0312 35.2895 100.179 38.4375 104.062 38.4375Z" fill="url(#paint3_linear_433_922)"/>
<path d="M140.742 133.945C140.121 133.945 139.524 133.698 139.085 133.258C138.645 132.819 138.399 132.223 138.399 131.601C138.399 130.979 138.645 130.383 139.085 129.944C139.524 129.504 140.121 129.257 140.742 129.257C163.383 128.367 146.93 106.499 129.516 91.7572C92.9532 60.8432 36.7266 41.5776 29.0625 54.8432C19.6875 71.0854 82.5938 118.687 127.289 127.874C127.911 127.999 128.458 128.365 128.809 128.892C129.161 129.42 129.288 130.065 129.164 130.687C129.04 131.309 128.674 131.855 128.146 132.207C127.619 132.559 126.973 132.686 126.352 132.562C100.852 127.312 68.297 109.476 47.5313 91.8744C-4.03124 48.1167 33.4688 27.7496 102.891 67.7572C113.337 73.723 123.235 80.6014 132.469 88.3119C151.453 104.39 159.867 119.062 154.969 127.593C152.274 132.187 145.781 133.945 140.742 133.945Z" fill="#DFE3EA"/>
<path d="M140.742 133.945C140.121 133.945 139.524 133.698 139.085 133.258C138.645 132.819 138.399 132.223 138.399 131.601C138.399 130.979 138.645 130.383 139.085 129.944C139.524 129.504 140.121 129.257 140.742 129.257C163.383 128.367 146.93 106.499 129.516 91.7572C92.9532 60.8432 36.7266 41.5776 29.0625 54.8432C19.6875 71.0854 82.5938 118.687 127.289 127.874C127.911 127.999 128.458 128.365 128.809 128.892C129.161 129.42 129.288 130.065 129.164 130.687C129.04 131.309 128.674 131.855 128.146 132.207C127.619 132.559 126.973 132.686 126.352 132.562C100.852 127.312 68.297 109.476 47.5313 91.8744C-4.03124 48.1167 33.4688 27.7496 102.891 67.7572C113.337 73.723 123.235 80.6014 132.469 88.3119C151.453 104.39 159.867 119.062 154.969 127.593C152.274 132.187 145.781 133.945 140.742 133.945Z" fill="#DFE3EA"/>
<path d="M133.711 138.515C137.594 138.515 140.742 135.367 140.742 131.484C140.742 127.601 137.594 124.452 133.711 124.452C129.828 124.452 126.68 127.601 126.68 131.484C126.68 135.367 129.828 138.515 133.711 138.515Z" fill="url(#paint4_linear_433_922)"/>
<path d="M140.742 133.945C140.121 133.945 139.524 133.698 139.085 133.258C138.645 132.819 138.399 132.223 138.399 131.601C138.399 130.979 138.645 130.383 139.085 129.944C139.524 129.504 140.121 129.257 140.742 129.257C163.383 128.367 146.93 106.499 129.516 91.7572C92.9532 60.8432 36.7266 41.5776 29.0625 54.8432C19.6875 71.0854 82.5938 118.687 127.289 127.874C127.911 127.999 128.458 128.365 128.809 128.892C129.161 129.42 129.288 130.065 129.164 130.687C129.04 131.309 128.674 131.855 128.146 132.207C127.619 132.559 126.973 132.686 126.352 132.562C100.852 127.312 68.297 109.476 47.5313 91.8744C-4.03124 48.1167 33.4688 27.7496 102.891 67.7572C113.337 73.723 123.235 80.6014 132.469 88.3119C151.453 104.39 159.867 119.062 154.969 127.593C152.274 132.187 145.781 133.945 140.742 133.945Z" fill="#DFE3EA"/>
<path d="M140.742 133.945C140.121 133.945 139.524 133.698 139.085 133.258C138.645 132.819 138.399 132.223 138.399 131.601C138.399 130.979 138.645 130.383 139.085 129.944C139.524 129.504 140.121 129.257 140.742 129.257C163.383 128.367 146.93 106.499 129.516 91.7572C92.9532 60.8432 36.7266 41.5776 29.0625 54.8432C19.6875 71.0854 82.5938 118.687 127.289 127.874C127.911 127.999 128.458 128.365 128.809 128.892C129.161 129.42 129.288 130.065 129.164 130.687C129.04 131.309 128.674 131.855 128.146 132.207C127.619 132.559 126.973 132.686 126.352 132.562C100.852 127.312 68.297 109.476 47.5313 91.8744C-4.03124 48.1167 33.4688 27.7496 102.891 67.7572C113.337 73.723 123.235 80.6014 132.469 88.3119C151.453 104.39 159.867 119.062 154.969 127.593C152.274 132.187 145.781 133.945 140.742 133.945Z" fill="#DFE3EA"/>
<path d="M133.711 138.515C137.594 138.515 140.742 135.367 140.742 131.484C140.742 127.601 137.594 124.452 133.711 124.452C129.828 124.452 126.68 127.601 126.68 131.484C126.68 135.367 129.828 138.515 133.711 138.515Z" fill="url(#paint5_linear_433_922)"/>
<path d="M40.7816 133.945C24.9846 133.945 19.6877 125.039 26.4143 112.055C26.7002 111.501 27.1942 111.084 27.7876 110.896C28.381 110.706 29.0251 110.761 29.5784 111.047C30.1316 111.333 30.5486 111.827 30.7376 112.42C30.9266 113.014 30.8721 113.658 30.5862 114.211C14.719 144.68 85.1957 125.648 129.329 88.2188C145.782 74.3672 154.407 60.961 150.938 54.8438C147.469 48.7266 131.485 49.5 111.305 56.7657C86.7426 65.5313 55.805 84.0704 38.4377 103.359C38.0213 103.823 37.4379 104.101 36.8159 104.134C36.194 104.167 35.5844 103.952 35.1213 103.535C34.6582 103.119 34.3796 102.535 34.3466 101.913C34.3136 101.291 34.5291 100.682 34.9455 100.219C46.3597 87.6563 62.391 76.1719 77.1097 67.6641C147.422 27.1406 183.493 48.586 132.469 91.7813C110.344 110.531 67.9691 133.945 40.7816 133.945Z" fill="#DFE3EA"/>
<path d="M40.7816 133.945C24.9846 133.945 19.6877 125.039 26.4143 112.055C26.7002 111.501 27.1942 111.084 27.7876 110.896C28.381 110.706 29.0251 110.761 29.5784 111.047C30.1316 111.333 30.5486 111.827 30.7376 112.42C30.9266 113.014 30.8721 113.658 30.5862 114.211C14.719 144.68 85.1957 125.648 129.329 88.2188C145.782 74.3672 154.407 60.961 150.938 54.8438C147.469 48.7266 131.485 49.5 111.305 56.7657C86.7426 65.5313 55.805 84.0704 38.4377 103.359C38.0213 103.823 37.4379 104.101 36.8159 104.134C36.194 104.167 35.5844 103.952 35.1213 103.535C34.6582 103.119 34.3796 102.535 34.3466 101.913C34.3136 101.291 34.5291 100.682 34.9455 100.219C46.3597 87.6563 62.391 76.1719 77.1097 67.6641C147.422 27.1406 183.493 48.586 132.469 91.7813C110.344 110.531 67.9691 133.945 40.7816 133.945Z" fill="#DFE3EA"/>
<path d="M32.2266 114.14C36.1098 114.14 39.2578 110.992 39.2578 107.109C39.2578 103.226 36.1098 100.078 32.2266 100.078C28.3433 100.078 25.1953 103.226 25.1953 107.109C25.1953 110.992 28.3433 114.14 32.2266 114.14Z" fill="url(#paint6_linear_433_922)"/>
<path d="M40.7816 133.945C24.9846 133.945 19.6877 125.039 26.4143 112.055C26.7002 111.501 27.1942 111.084 27.7876 110.896C28.381 110.706 29.0251 110.761 29.5784 111.047C30.1316 111.333 30.5486 111.827 30.7376 112.42C30.9266 113.014 30.8721 113.658 30.5862 114.211C14.719 144.68 85.1957 125.648 129.329 88.2188C145.782 74.3672 154.407 60.961 150.938 54.8438C147.469 48.7266 131.485 49.5 111.305 56.7657C86.7426 65.5313 55.805 84.0704 38.4377 103.359C38.0213 103.823 37.4379 104.101 36.8159 104.134C36.194 104.167 35.5844 103.952 35.1213 103.535C34.6582 103.119 34.3796 102.535 34.3466 101.913C34.3136 101.291 34.5291 100.682 34.9455 100.219C46.3597 87.6563 62.391 76.1719 77.1097 67.6641C147.422 27.1406 183.493 48.586 132.469 91.7813C110.344 110.531 67.9691 133.945 40.7816 133.945Z" fill="#DFE3EA"/>
<path d="M40.7816 133.945C24.9846 133.945 19.6877 125.039 26.4143 112.055C26.7002 111.501 27.1942 111.084 27.7876 110.896C28.381 110.706 29.0251 110.761 29.5784 111.047C30.1316 111.333 30.5486 111.827 30.7376 112.42C30.9266 113.014 30.8721 113.658 30.5862 114.211C14.719 144.68 85.1957 125.648 129.329 88.2188C145.782 74.3672 154.407 60.961 150.938 54.8438C147.469 48.7266 131.485 49.5 111.305 56.7657C86.7426 65.5313 55.805 84.0704 38.4377 103.359C38.0213 103.823 37.4379 104.101 36.8159 104.134C36.194 104.167 35.5844 103.952 35.1213 103.535C34.6582 103.119 34.3796 102.535 34.3466 101.913C34.3136 101.291 34.5291 100.682 34.9455 100.219C46.3597 87.6563 62.391 76.1719 77.1097 67.6641C147.422 27.1406 183.493 48.586 132.469 91.7813C110.344 110.531 67.9691 133.945 40.7816 133.945Z" fill="#DFE3EA"/>
<path d="M32.2266 114.14C36.1098 114.14 39.2578 110.992 39.2578 107.109C39.2578 103.226 36.1098 100.078 32.2266 100.078C28.3433 100.078 25.1953 103.226 25.1953 107.109C25.1953 110.992 28.3433 114.14 32.2266 114.14Z" fill="url(#paint7_linear_433_922)"/>
<path d="M89.9998 104.062C87.9561 104.06 85.9372 103.613 84.084 102.751C82.2308 101.889 80.5876 100.634 79.2692 99.072C77.9506 97.5101 76.9883 95.6798 76.4495 93.7083C75.9104 91.7367 75.8078 89.6714 76.1483 87.6562C78.7264 103.219 101.273 103.195 103.851 87.6562C104.192 89.6714 104.089 91.7367 103.55 93.7083C103.011 95.6798 102.049 97.5101 100.731 99.072C99.4121 100.634 97.7691 101.889 95.9159 102.751C94.0625 103.613 92.0438 104.06 89.9998 104.062Z" fill="#CF4055"/>
<path d="M104.063 38.4375C102.94 38.4343 101.833 38.1622 100.837 37.6437C99.8407 37.1253 98.9829 36.3757 98.3358 35.4577C97.6887 34.5397 97.2708 33.48 97.1172 32.3674C96.9637 31.2547 97.0791 30.1215 97.4533 29.0625C97.946 30.4199 98.8446 31.5927 100.027 32.4215C101.21 33.2503 102.619 33.6949 104.063 33.6949C105.507 33.6949 106.916 33.2503 108.098 32.4215C109.281 31.5927 110.179 30.4199 110.672 29.0625C111.046 30.1215 111.162 31.2547 111.008 32.3674C110.855 33.48 110.437 34.5397 109.79 35.4577C109.143 36.3757 108.285 37.1253 107.288 37.6437C106.292 38.1622 105.186 38.4343 104.063 38.4375Z" fill="#7ECE67"/>
<path d="M139.804 135C138.922 136.511 137.508 137.638 135.839 138.162C134.17 138.686 132.366 138.569 130.778 137.834C129.191 137.099 127.934 135.798 127.254 134.186C126.575 132.574 126.52 130.767 127.101 129.117C127.594 130.474 128.492 131.647 129.675 132.476C130.858 133.305 132.267 133.749 133.711 133.749C135.155 133.749 136.564 133.305 137.746 132.476C138.929 131.647 139.827 130.474 140.32 129.117C140.666 130.076 140.799 131.099 140.71 132.115C140.621 133.131 140.312 134.115 139.804 135Z" fill="#5B8DC9"/>
<path d="M35.7423 113.203C34.4974 113.915 33.0644 114.23 31.6355 114.105C30.2066 113.979 28.8501 113.42 27.7482 112.502C26.6463 111.584 25.8516 110.35 25.4707 108.967C25.0898 107.584 25.141 106.118 25.6173 104.765C26.11 106.123 27.0087 107.295 28.1912 108.124C29.3737 108.953 30.7827 109.398 32.2267 109.398C33.6707 109.398 35.0797 108.953 36.2623 108.124C37.4448 107.295 38.3434 106.123 38.836 104.765C39.3863 106.312 39.3781 108.002 38.8131 109.543C38.2481 111.084 37.1617 112.379 35.7423 113.203Z" fill="#F6B756"/>
</g>
</g>
<defs>
<linearGradient id="paint0_linear_433_922" x1="90" y1="0" x2="90" y2="180" gradientUnits="userSpaceOnUse">
<stop stop-color="#05ACDC"/>
<stop offset="1" stop-opacity="0"/>
</linearGradient>
<linearGradient id="paint1_linear_433_922" x1="90" y1="104.062" x2="90" y2="75.9375" gradientUnits="userSpaceOnUse">
<stop stop-color="#DA5466"/>
<stop offset="1" stop-color="#F4929C"/>
</linearGradient>
<linearGradient id="paint2_linear_433_922" x1="104.062" y1="38.4375" x2="104.062" y2="24.375" gradientUnits="userSpaceOnUse">
<stop stop-color="#DA5466"/>
<stop offset="1" stop-color="#F4929C"/>
</linearGradient>
<linearGradient id="paint3_linear_433_922" x1="104.062" y1="38.4375" x2="104.062" y2="24.375" gradientUnits="userSpaceOnUse">
<stop stop-color="#8CDD79"/>
<stop offset="1" stop-color="#D4E6B6"/>
</linearGradient>
<linearGradient id="paint4_linear_433_922" x1="133.711" y1="138.515" x2="133.711" y2="124.452" gradientUnits="userSpaceOnUse">
<stop stop-color="#DA5466"/>
<stop offset="1" stop-color="#F4929C"/>
</linearGradient>
<linearGradient id="paint5_linear_433_922" x1="133.711" y1="138.515" x2="133.711" y2="124.452" gradientUnits="userSpaceOnUse">
<stop stop-color="#7AA8D7"/>
<stop offset="1" stop-color="#C3D2E7"/>
</linearGradient>
<linearGradient id="paint6_linear_433_922" x1="32.2266" y1="114.14" x2="32.2266" y2="100.078" gradientUnits="userSpaceOnUse">
<stop stop-color="#DA5466"/>
<stop offset="1" stop-color="#F4929C"/>
</linearGradient>
<linearGradient id="paint7_linear_433_922" x1="32.2266" y1="114.14" x2="32.2266" y2="100.078" gradientUnits="userSpaceOnUse">
<stop stop-color="#FBCC88"/>
<stop offset="1" stop-color="#FFE5C3"/>
</linearGradient>
<clipPath id="clip0_433_922">
<rect width="150" height="150" fill="white" transform="translate(15 15)"/>
</clipPath>
</defs>
</svg>
