<svg width="188" height="188" viewBox="0 0 188 188" fill="none" xmlns="http://www.w3.org/2000/svg">
<g filter="url(#filter0_d_392_856)">
<circle cx="94" cy="90" r="90" fill="#007090"/>
<circle cx="94" cy="90" r="88" stroke="url(#paint0_linear_392_856)" stroke-width="4"/>
</g>
<path d="M122.125 160.312V162.656H65.8747C65.7027 161.081 65.8461 159.488 66.2966 157.969C66.7804 156.601 67.675 155.416 68.8583 154.577C70.0414 153.738 71.4554 153.285 72.906 153.281H115.093C116.958 153.281 118.747 154.022 120.066 155.341C121.384 156.659 122.125 158.448 122.125 160.312Z" fill="url(#paint1_linear_392_856)"/>
<path d="M98.6875 130.664V153.281H89.3125V132" fill="url(#paint2_linear_392_856)"/>
<path d="M38.2188 112.969C50.5264 125.277 67.2193 132.191 84.6251 132.191C102.031 132.191 118.724 125.277 131.031 112.969C143.339 100.661 150.253 83.9686 150.253 66.563C150.253 49.1573 143.339 32.4644 131.031 20.1567L124.469 26.7192C135.036 37.2864 140.973 51.6188 140.973 66.563C140.973 81.5072 135.036 95.8395 124.469 106.407C113.902 116.974 99.5693 122.91 84.6251 122.91C69.6807 122.91 55.3484 116.974 44.7814 106.407L38.2188 112.969Z" fill="url(#paint3_linear_392_856)"/>
<path d="M37.75 115.782C37.2844 115.785 36.8286 115.649 36.4407 115.391C36.0528 115.134 35.7503 114.767 35.5718 114.337C35.3932 113.907 35.3468 113.434 35.4384 112.977C35.5299 112.521 35.7554 112.102 36.0859 111.774L49.8204 98.0398C50.2617 97.5984 50.8603 97.3505 51.4844 97.3505C52.1086 97.3505 52.7072 97.5984 53.1485 98.0398C53.5898 98.4811 53.8376 99.0797 53.8376 99.7038C53.8376 100.328 53.5898 100.927 53.1485 101.368C38.4062 116.087 39.1093 115.782 37.75 115.782Z" fill="#8288A1"/>
<path d="M117.766 35.7661C117.3 35.7688 116.844 35.6328 116.456 35.3754C116.068 35.1181 115.766 34.751 115.587 34.3211C115.409 33.8911 115.362 33.4178 115.454 32.9613C115.546 32.5049 115.771 32.0861 116.102 31.7583L129.836 18.0239C130.277 17.5825 130.876 17.3346 131.5 17.3346C132.124 17.3346 132.723 17.5825 133.164 18.0239C133.605 18.4652 133.853 19.0638 133.853 19.6879C133.853 20.3121 133.605 20.9107 133.164 21.352C118.422 36.0942 119.125 35.7661 117.766 35.7661Z" fill="#8288A1"/>
<path d="M122.125 162.656H65.8747C65.7027 161.081 65.8461 159.488 66.2966 157.969H121.703C122.147 159.489 122.291 161.081 122.125 162.656Z" fill="#8A6762"/>
<path d="M128.125 49.0791C131.815 58.2787 132.494 68.4115 130.064 78.0213C127.635 87.6312 122.221 96.2234 114.602 102.563C79.9375 131.579 27.4843 98.7197 39.3671 54.4228C51.0157 10.8993 111.461 7.5712 128.125 49.0791Z" fill="url(#paint4_linear_392_856)"/>
<path d="M72.5076 111.82C61.96 108.995 52.7296 102.577 46.4097 93.672C40.0895 84.7676 37.0765 73.9359 37.8905 63.0469C38.8041 74.8153 44.124 85.8061 52.7877 93.8231C61.4514 101.84 72.8209 106.294 84.6248 106.294C96.4288 106.294 107.798 101.84 116.462 93.8231C125.125 85.8061 130.446 74.8153 131.359 63.0469C131.916 70.5089 130.679 77.996 127.75 84.8817C124.821 91.7677 120.287 97.8525 114.525 102.627C108.764 107.402 101.943 110.728 94.633 112.328C87.3231 113.927 79.7366 113.753 72.5076 111.82Z" fill="#77CACB"/>
<path d="M70.0934 67.2195C71.7575 70.1023 74.6168 68.4382 79.1403 69.5632C83.6637 70.6882 93.7653 78.4226 92.57 82.9694C91.3747 87.5163 83.359 90.1882 77.5934 93.5163C71.8278 96.8445 69.4137 105.868 69.4137 105.868L66.109 100.149C64.445 97.2663 72.0153 87.1413 72.6247 84.8679C73.234 82.5945 67.6559 76.2663 70.5153 74.6257C73.3747 72.9851 71.7575 70.1023 70.0934 67.2195Z" fill="url(#paint5_linear_392_856)"/>
<path d="M86.9685 49.8757C84.9215 50.2198 82.9921 51.0684 81.3552 52.3451C79.7186 53.622 78.4255 55.2865 77.5935 57.1882C76.9841 59.532 70.7732 55.3601 67.9138 57.0241C65.0544 58.6882 68.3826 64.4304 70.0232 67.2898C68.3826 64.4304 62.1716 60.2585 58.3044 56.8601C54.4373 53.4616 56.8279 44.321 57.4138 42.071C57.8826 40.2663 54.4841 35.907 52.2107 32.696C55.6912 29.4116 59.6406 26.6628 63.9294 24.5398C85.9607 31.2195 78.5544 31.407 81.1794 35.9304C82.8435 38.7898 80.8513 36.1414 85.3748 37.3367C89.8982 38.532 92.0076 48.821 86.9685 49.8757Z" fill="url(#paint6_linear_392_856)"/>
<path d="M114.601 102.562C112.562 98.9062 115.328 88.5 116.429 84.4922C117.625 79.9688 104.054 76.3359 105.273 71.7891C106.492 67.2422 112.304 63.9375 112.304 63.9375C115.164 62.2969 121.375 66.2813 125.898 67.5938C130.422 68.9063 122.57 61.8516 116.992 55.5C111.414 49.1484 121.867 54.3047 128.218 49.0781C131.898 58.2874 132.563 68.4263 130.116 78.0368C127.669 87.6473 122.237 96.2344 114.601 102.562Z" fill="url(#paint7_linear_392_856)"/>
<path d="M115.937 31.6878C115.287 32.8763 114.994 34.2274 115.094 35.5785C115.539 42.9612 104.195 39.9377 98.4529 43.2424C92.7107 46.5471 94.5388 39.7737 96.9529 30.7035C99.3669 21.6331 89.7341 21.4925 89.7341 21.4925C89.8982 20.9066 90.0154 20.4378 90.1794 20.016C99.7651 21.1517 108.764 25.2293 115.937 31.6878Z" fill="url(#paint8_linear_392_856)"/>
<path d="M98.6875 146.25H89.3125V153.281H98.6875V146.25Z" fill="#8288A1"/>
<path d="M114.602 102.562C113.82 100.467 113.618 98.2003 114.016 96C119.019 91.9969 123.142 87.0037 126.126 81.3335C129.111 75.663 130.892 69.4376 131.359 63.0469C131.94 70.4946 130.721 77.9728 127.804 84.8503C124.888 91.7278 120.359 97.8028 114.602 102.562Z" fill="#4DA67F"/>
<defs>
<filter id="filter0_d_392_856" x="0" y="0" width="188" height="188" filterUnits="userSpaceOnUse" color-interpolation-filters="sRGB">
<feFlood flood-opacity="0" result="BackgroundImageFix"/>
<feColorMatrix in="SourceAlpha" type="matrix" values="0 0 0 0 0 0 0 0 0 0 0 0 0 0 0 0 0 0 127 0" result="hardAlpha"/>
<feOffset dy="4"/>
<feGaussianBlur stdDeviation="2"/>
<feComposite in2="hardAlpha" operator="out"/>
<feColorMatrix type="matrix" values="0 0 0 0 0 0 0 0 0 0 0 0 0 0 0 0 0 0 0.4 0"/>
<feBlend mode="normal" in2="BackgroundImageFix" result="effect1_dropShadow_392_856"/>
<feBlend mode="normal" in="SourceGraphic" in2="effect1_dropShadow_392_856" result="shape"/>
</filter>
<linearGradient id="paint0_linear_392_856" x1="94" y1="0" x2="94" y2="180" gradientUnits="userSpaceOnUse">
<stop stop-color="#05ACDC"/>
<stop offset="1" stop-opacity="0"/>
</linearGradient>
<linearGradient id="paint1_linear_392_856" x1="93.9997" y1="162.656" x2="93.9997" y2="153.281" gradientUnits="userSpaceOnUse">
<stop stop-color="#9B756D"/>
<stop offset="1" stop-color="#BC9388"/>
</linearGradient>
<linearGradient id="paint2_linear_392_856" x1="94" y1="153.281" x2="94" y2="130.664" gradientUnits="userSpaceOnUse">
<stop stop-color="#949AAF"/>
<stop offset="1" stop-color="#C6CCDA"/>
</linearGradient>
<linearGradient id="paint3_linear_392_856" x1="94.2343" y1="132.188" x2="94.2343" y2="20.1567" gradientUnits="userSpaceOnUse">
<stop stop-color="#949AAF"/>
<stop offset="1" stop-color="#C6CCDA"/>
</linearGradient>
<linearGradient id="paint4_linear_392_856" x1="84.5782" y1="113.532" x2="84.5782" y2="19.7821" gradientUnits="userSpaceOnUse">
<stop stop-color="#9DD5DF"/>
<stop offset="1" stop-color="#C3E1F5"/>
</linearGradient>
<linearGradient id="paint5_linear_392_856" x1="79.2809" y1="105.868" x2="79.2809" y2="67.2195" gradientUnits="userSpaceOnUse">
<stop stop-color="#6AB891"/>
<stop offset="1" stop-color="#85CBA9"/>
</linearGradient>
<linearGradient id="paint6_linear_392_856" x1="71.0544" y1="67.2195" x2="71.0544" y2="24.5164" gradientUnits="userSpaceOnUse">
<stop stop-color="#6AB891"/>
<stop offset="1" stop-color="#85CBA9"/>
</linearGradient>
<linearGradient id="paint7_linear_392_856" x1="118.351" y1="102.562" x2="118.351" y2="49.0781" gradientUnits="userSpaceOnUse">
<stop stop-color="#6AB891"/>
<stop offset="1" stop-color="#85CBA9"/>
</linearGradient>
<linearGradient id="paint8_linear_392_856" x1="102.789" y1="44.1096" x2="102.789" y2="20.016" gradientUnits="userSpaceOnUse">
<stop stop-color="#6AB891"/>
<stop offset="1" stop-color="#85CBA9"/>
</linearGradient>
</defs>
</svg>
