<svg width="188" height="188" viewBox="0 0 188 188" fill="none" xmlns="http://www.w3.org/2000/svg">
<g filter="url(#filter0_d_392_857)">
<circle cx="94" cy="90" r="90" fill="#007090"/>
<circle cx="94" cy="90" r="88" stroke="url(#paint0_linear_392_857)" stroke-width="4"/>
</g>
<path d="M166.656 26.7188V143.906L159.625 157.969L152.594 143.906V26.7188C152.594 25.4756 153.088 24.2833 153.967 23.4042C154.846 22.5251 156.038 22.0312 157.281 22.0312H161.969C163.212 22.0312 164.404 22.5251 165.283 23.4042C166.162 24.2833 166.656 25.4756 166.656 26.7188Z" fill="url(#paint1_linear_392_857)"/>
<path d="M166.656 143.156C166.656 144.211 167.617 141.961 159.625 157.969C151.586 141.867 152.593 144.211 152.593 143.156C154.788 142.103 157.191 141.556 159.625 141.556C162.059 141.556 164.462 142.103 166.656 143.156Z" fill="url(#paint2_linear_392_857)"/>
<path d="M162.976 151.266L159.625 157.969L156.273 151.266C158.487 150.832 160.763 150.832 162.976 151.266Z" fill="#42455E"/>
<path d="M157.281 22.0312H161.969C163.212 22.0312 164.404 22.5251 165.283 23.4042C166.162 24.2833 166.656 25.4756 166.656 26.7188V38.4375H152.594V26.7188C152.594 25.4756 153.088 24.2833 153.967 23.4042C154.846 22.5251 156.038 22.0312 157.281 22.0312Z" fill="url(#paint3_linear_392_857)"/>
<path d="M166.656 38.4375H152.594V47.8125H166.656V38.4375Z" fill="url(#paint4_linear_392_857)"/>
<path d="M166.656 47.8125H152.594V52.5H166.656V47.8125Z" fill="#F2A961"/>
<path d="M30.7188 45.4688C25.5391 45.4688 21.3438 39.1641 21.3438 31.4062C21.3438 23.6484 25.5391 17.3438 30.7188 17.3438H129.156V45.4688H30.7188Z" fill="url(#paint5_linear_392_857)"/>
<path d="M129.156 38.4375V45.4688H30.7187C23.8984 45.4688 20.2187 35.5312 21.6484 27.8906C22.6797 33.9375 26.3594 38.4375 30.7187 38.4375H129.156Z" fill="#C7CDD8"/>
<path d="M166.656 26.7188V143.906L159.625 157.969L152.594 143.906V26.7188C152.594 25.4756 153.088 24.2833 153.967 23.4042C154.846 22.5251 156.038 22.0312 157.281 22.0312H161.969C163.212 22.0312 164.404 22.5251 165.283 23.4042C166.162 24.2833 166.656 25.4756 166.656 26.7188Z" fill="url(#paint6_linear_392_857)"/>
<path d="M166.656 143.156C166.656 144.211 167.617 141.961 159.625 157.969C151.586 141.867 152.594 144.211 152.594 143.156C154.788 142.103 157.191 141.556 159.625 141.556C162.059 141.556 164.462 142.103 166.656 143.156Z" fill="url(#paint7_linear_392_857)"/>
<path d="M162.977 151.266L159.625 157.969L156.274 151.266C158.487 150.832 160.763 150.832 162.977 151.266Z" fill="#42455E"/>
<path d="M157.281 22.0312H161.969C163.212 22.0312 164.404 22.5251 165.283 23.4042C166.162 24.2833 166.656 25.4756 166.656 26.7188V38.4375H152.594V26.7188C152.594 25.4756 153.088 24.2833 153.967 23.4042C154.846 22.5251 156.038 22.0312 157.281 22.0312Z" fill="url(#paint8_linear_392_857)"/>
<path d="M166.656 38.4375H152.594V47.8125H166.656V38.4375Z" fill="url(#paint9_linear_392_857)"/>
<path d="M129.156 45.4688H30.7188V162.656H129.156V45.4688Z" fill="url(#paint10_linear_392_857)"/>
<path d="M129.156 155.625H30.7188V162.656H129.156V155.625Z" fill="#C7CDD8"/>
<path d="M138.531 31.4062V134.531H129.156V45.4688C123.977 45.4688 119.781 39.1641 119.781 31.4062C119.781 23.6484 123.977 17.3438 129.156 17.3438C134.336 17.3438 138.531 23.6484 138.531 31.4062Z" fill="url(#paint11_linear_392_857)"/>
<path d="M115.094 71.25H44.7812C44.1597 71.25 43.5634 71.003 43.124 70.5635C42.6845 70.1241 42.4375 69.5278 42.4375 68.9062C42.4375 68.2847 42.6845 67.6884 43.124 67.249C43.5634 66.8095 44.1597 66.5625 44.7812 66.5625H115.094C115.715 66.5625 116.312 66.8095 116.751 67.249C117.19 67.6884 117.438 68.2847 117.438 68.9062C117.438 69.5278 117.19 70.1241 116.751 70.5635C116.312 71.003 115.715 71.25 115.094 71.25Z" fill="#9CA0AD"/>
<path d="M115.094 85.3125H75.25C74.6284 85.3125 74.0322 85.0655 73.5927 84.626C73.1533 84.1866 72.9062 83.5903 72.9062 82.9688C72.9062 82.3472 73.1533 81.7509 73.5927 81.3115C74.0322 80.872 74.6284 80.625 75.25 80.625H115.094C115.715 80.625 116.312 80.872 116.751 81.3115C117.19 81.7509 117.438 82.3472 117.438 82.9688C117.438 83.5903 117.19 84.1866 116.751 84.626C116.312 85.0655 115.715 85.3125 115.094 85.3125Z" fill="#9CA0AD"/>
<path d="M65.875 85.3125H44.7812C44.1597 85.3125 43.5634 85.0655 43.124 84.626C42.6845 84.1866 42.4375 83.5903 42.4375 82.9688C42.4375 82.3472 42.6845 81.7509 43.124 81.3115C43.5634 80.872 44.1597 80.625 44.7812 80.625H65.875C66.4966 80.625 67.0928 80.872 67.5323 81.3115C67.9717 81.7509 68.2188 82.3472 68.2188 82.9688C68.2188 83.5903 67.9717 84.1866 67.5323 84.626C67.0928 85.0655 66.4966 85.3125 65.875 85.3125Z" fill="#9CA0AD"/>
<path d="M115.094 99.375H101.031C100.41 99.375 99.8134 99.128 99.374 98.6885C98.9345 98.2491 98.6875 97.6528 98.6875 97.0312C98.6875 96.4097 98.9345 95.8134 99.374 95.374C99.8134 94.9345 100.41 94.6875 101.031 94.6875H115.094C115.715 94.6875 116.312 94.9345 116.751 95.374C117.19 95.8134 117.438 96.4097 117.438 97.0312C117.438 97.6528 117.19 98.2491 116.751 98.6885C116.312 99.128 115.715 99.375 115.094 99.375Z" fill="#9CA0AD"/>
<path d="M91.6562 99.375H44.7812C44.1597 99.375 43.5634 99.128 43.124 98.6885C42.6845 98.2491 42.4375 97.6528 42.4375 97.0312C42.4375 96.4097 42.6845 95.8134 43.124 95.374C43.5634 94.9345 44.1597 94.6875 44.7812 94.6875H91.6562C92.2778 94.6875 92.8741 94.9345 93.3135 95.374C93.753 95.8134 94 96.4097 94 97.0312C94 97.6528 93.753 98.2491 93.3135 98.6885C92.8741 99.128 92.2778 99.375 91.6562 99.375Z" fill="#9CA0AD"/>
<path d="M115.094 113.438H65.875C65.2534 113.438 64.6572 113.19 64.2177 112.751C63.7783 112.312 63.5312 111.715 63.5312 111.094C63.5312 110.472 63.7783 109.876 64.2177 109.436C64.6572 108.997 65.2534 108.75 65.875 108.75H115.094C115.715 108.75 116.312 108.997 116.751 109.436C117.19 109.876 117.438 110.472 117.438 111.094C117.438 111.715 117.19 112.312 116.751 112.751C116.312 113.19 115.715 113.438 115.094 113.438Z" fill="#9CA0AD"/>
<path d="M56.5 113.438H44.7812C44.1597 113.438 43.5634 113.19 43.124 112.751C42.6845 112.312 42.4375 111.715 42.4375 111.094C42.4375 110.472 42.6845 109.876 43.124 109.436C43.5634 108.997 44.1597 108.75 44.7812 108.75H56.5C57.1216 108.75 57.7178 108.997 58.1573 109.436C58.5967 109.876 58.8438 110.472 58.8438 111.094C58.8438 111.715 58.5967 112.312 58.1573 112.751C57.7178 113.19 57.1216 113.438 56.5 113.438Z" fill="#9CA0AD"/>
<path d="M115.094 127.5H112.75C112.128 127.5 111.532 127.253 111.093 126.814C110.653 126.374 110.406 125.778 110.406 125.156C110.406 124.535 110.653 123.938 111.093 123.499C111.532 123.06 112.128 122.812 112.75 122.812H115.094C115.715 122.812 116.312 123.06 116.751 123.499C117.19 123.938 117.438 124.535 117.438 125.156C117.438 125.778 117.19 126.374 116.751 126.814C116.312 127.253 115.715 127.5 115.094 127.5Z" fill="#9CA0AD"/>
<path d="M103.375 127.5H44.7812C44.1597 127.5 43.5634 127.253 43.124 126.814C42.6845 126.374 42.4375 125.778 42.4375 125.156C42.4375 124.535 42.6845 123.938 43.124 123.499C43.5634 123.06 44.1597 122.812 44.7812 122.812H103.375C103.997 122.812 104.593 123.06 105.032 123.499C105.472 123.938 105.719 124.535 105.719 125.156C105.719 125.778 105.472 126.374 105.032 126.814C104.593 127.253 103.997 127.5 103.375 127.5Z" fill="#9CA0AD"/>
<path d="M115.094 141.562H84.625C84.0034 141.562 83.4072 141.315 82.9677 140.876C82.5283 140.437 82.2812 139.84 82.2812 139.219C82.2812 138.597 82.5283 138.001 82.9677 137.561C83.4072 137.122 84.0034 136.875 84.625 136.875H115.094C115.715 136.875 116.312 137.122 116.751 137.561C117.19 138.001 117.438 138.597 117.438 139.219C117.438 139.84 117.19 140.437 116.751 140.876C116.312 141.315 115.715 141.562 115.094 141.562Z" fill="#9CA0AD"/>
<path d="M75.25 141.562H44.7812C44.1597 141.562 43.5634 141.315 43.124 140.876C42.6845 140.437 42.4375 139.84 42.4375 139.219C42.4375 138.597 42.6845 138.001 43.124 137.561C43.5634 137.122 44.1597 136.875 44.7812 136.875H75.25C75.8716 136.875 76.4678 137.122 76.9073 137.561C77.3467 138.001 77.5938 138.597 77.5938 139.219C77.5938 139.84 77.3467 140.437 76.9073 140.876C76.4678 141.315 75.8716 141.562 75.25 141.562Z" fill="#9CA0AD"/>
<path d="M129.156 31.4062V45.4688C123.977 45.4688 119.781 39.1641 119.781 31.4062H129.156Z" fill="url(#paint12_linear_392_857)"/>
<path d="M166.656 47.8125H152.594V52.5H166.656V47.8125Z" fill="#F2A961"/>
<defs>
<filter id="filter0_d_392_857" x="0" y="0" width="188" height="188" filterUnits="userSpaceOnUse" color-interpolation-filters="sRGB">
<feFlood flood-opacity="0" result="BackgroundImageFix"/>
<feColorMatrix in="SourceAlpha" type="matrix" values="0 0 0 0 0 0 0 0 0 0 0 0 0 0 0 0 0 0 127 0" result="hardAlpha"/>
<feOffset dy="4"/>
<feGaussianBlur stdDeviation="2"/>
<feComposite in2="hardAlpha" operator="out"/>
<feColorMatrix type="matrix" values="0 0 0 0 0 0 0 0 0 0 0 0 0 0 0 0 0 0 0.4 0"/>
<feBlend mode="normal" in2="BackgroundImageFix" result="effect1_dropShadow_392_857"/>
<feBlend mode="normal" in="SourceGraphic" in2="effect1_dropShadow_392_857" result="shape"/>
</filter>
<linearGradient id="paint0_linear_392_857" x1="94" y1="0" x2="94" y2="180" gradientUnits="userSpaceOnUse">
<stop stop-color="#05ACDC"/>
<stop offset="1" stop-opacity="0"/>
</linearGradient>
<linearGradient id="paint1_linear_392_857" x1="159.625" y1="157.969" x2="159.625" y2="22.0312" gradientUnits="userSpaceOnUse">
<stop stop-color="#E9A254"/>
<stop offset="1" stop-color="#F4BB79"/>
</linearGradient>
<linearGradient id="paint2_linear_392_857" x1="152.547" y1="149.766" x2="166.703" y2="149.766" gradientUnits="userSpaceOnUse">
<stop stop-color="#D1A788"/>
<stop offset="1" stop-color="#F2D3B8"/>
</linearGradient>
<linearGradient id="paint3_linear_392_857" x1="159.625" y1="38.4375" x2="159.625" y2="22.0312" gradientUnits="userSpaceOnUse">
<stop stop-color="#D96BB0"/>
<stop offset="1" stop-color="#E49FC6"/>
</linearGradient>
<linearGradient id="paint4_linear_392_857" x1="152.594" y1="43.125" x2="166.656" y2="43.125" gradientUnits="userSpaceOnUse">
<stop stop-color="#949AAF"/>
<stop offset="1" stop-color="#C6CCDA"/>
</linearGradient>
<linearGradient id="paint5_linear_392_857" x1="75.25" y1="45.4688" x2="75.25" y2="17.3438" gradientUnits="userSpaceOnUse">
<stop stop-color="#D4D8E1"/>
<stop offset="1" stop-color="#F3F4F5"/>
</linearGradient>
<linearGradient id="paint6_linear_392_857" x1="159.625" y1="157.969" x2="159.625" y2="22.0312" gradientUnits="userSpaceOnUse">
<stop stop-color="#E9A254"/>
<stop offset="1" stop-color="#F4BB79"/>
</linearGradient>
<linearGradient id="paint7_linear_392_857" x1="152.547" y1="149.766" x2="166.703" y2="149.766" gradientUnits="userSpaceOnUse">
<stop stop-color="#D1A788"/>
<stop offset="1" stop-color="#F2D3B8"/>
</linearGradient>
<linearGradient id="paint8_linear_392_857" x1="159.625" y1="38.4375" x2="159.625" y2="22.0312" gradientUnits="userSpaceOnUse">
<stop stop-color="#D96BB0"/>
<stop offset="1" stop-color="#E49FC6"/>
</linearGradient>
<linearGradient id="paint9_linear_392_857" x1="152.594" y1="43.125" x2="166.656" y2="43.125" gradientUnits="userSpaceOnUse">
<stop stop-color="#949AAF"/>
<stop offset="1" stop-color="#C6CCDA"/>
</linearGradient>
<linearGradient id="paint10_linear_392_857" x1="79.9375" y1="162.656" x2="79.9375" y2="45.4688" gradientUnits="userSpaceOnUse">
<stop stop-color="#D4D8E1"/>
<stop offset="1" stop-color="#F3F4F5"/>
</linearGradient>
<linearGradient id="paint11_linear_392_857" x1="119.781" y1="75.9375" x2="138.531" y2="75.9375" gradientUnits="userSpaceOnUse">
<stop stop-color="#949AAF"/>
<stop offset="1" stop-color="#C6CCDA"/>
</linearGradient>
<linearGradient id="paint12_linear_392_857" x1="124.469" y1="45.4688" x2="124.469" y2="31.4062" gradientUnits="userSpaceOnUse">
<stop stop-color="#E9A254"/>
<stop offset="1" stop-color="#F4BB79"/>
</linearGradient>
</defs>
</svg>
