<svg width="180" height="180" viewBox="0 0 180 180" fill="none" xmlns="http://www.w3.org/2000/svg">
<circle cx="90" cy="90" r="88" fill="#007090" stroke="url(#paint0_linear_433_854)" stroke-width="4"/>
<path d="M162.656 26.7188V143.906L155.625 157.969L148.594 143.906V26.7188C148.594 25.4756 149.088 24.2833 149.967 23.4042C150.846 22.5251 152.038 22.0312 153.281 22.0312H157.969C159.212 22.0312 160.404 22.5251 161.283 23.4042C162.162 24.2833 162.656 25.4756 162.656 26.7188Z" fill="url(#paint1_linear_433_854)"/>
<path d="M162.656 143.156C162.656 144.211 163.617 141.961 155.625 157.969C147.586 141.867 148.594 144.211 148.594 143.156C150.788 142.103 153.191 141.556 155.625 141.556C158.059 141.556 160.462 142.103 162.656 143.156Z" fill="url(#paint2_linear_433_854)"/>
<path d="M158.977 151.266L155.625 157.969L152.273 151.266C154.487 150.833 156.763 150.833 158.977 151.266Z" fill="#42455E"/>
<path d="M153.281 22.0312H157.969C159.212 22.0312 160.404 22.5251 161.283 23.4042C162.162 24.2833 162.656 25.4756 162.656 26.7188V38.4375H148.594V26.7188C148.594 25.4756 149.088 24.2833 149.967 23.4042C150.846 22.5251 152.038 22.0312 153.281 22.0312Z" fill="url(#paint3_linear_433_854)"/>
<path d="M162.656 38.4375H148.594V47.8125H162.656V38.4375Z" fill="url(#paint4_linear_433_854)"/>
<path d="M162.656 47.8125H148.594V52.5H162.656V47.8125Z" fill="#F2A961"/>
<path d="M26.7188 45.4688C21.5391 45.4688 17.3438 39.1641 17.3438 31.4062C17.3438 23.6484 21.5391 17.3438 26.7188 17.3438H125.156V45.4688H26.7188Z" fill="url(#paint5_linear_433_854)"/>
<path d="M125.156 38.4375V45.4688H26.7187C19.8984 45.4688 16.2187 35.5312 17.6484 27.8906C18.6797 33.9375 22.3594 38.4375 26.7187 38.4375H125.156Z" fill="#C7CDD8"/>
<path d="M162.656 26.7188V143.906L155.625 157.969L148.594 143.906V26.7188C148.594 25.4756 149.088 24.2833 149.967 23.4042C150.846 22.5251 152.038 22.0312 153.281 22.0312H157.969C159.212 22.0312 160.404 22.5251 161.283 23.4042C162.162 24.2833 162.656 25.4756 162.656 26.7188Z" fill="url(#paint6_linear_433_854)"/>
<path d="M162.657 143.156C162.657 144.211 163.618 141.961 155.625 157.969C147.586 141.867 148.594 144.211 148.594 143.156C150.788 142.103 153.191 141.556 155.625 141.556C158.059 141.556 160.462 142.103 162.657 143.156Z" fill="url(#paint7_linear_433_854)"/>
<path d="M158.977 151.266L155.625 157.969L152.274 151.266C154.487 150.833 156.764 150.833 158.977 151.266Z" fill="#42455E"/>
<path d="M153.281 22.0312H157.969C159.212 22.0312 160.404 22.5251 161.283 23.4042C162.162 24.2833 162.656 25.4756 162.656 26.7188V38.4375H148.594V26.7188C148.594 25.4756 149.088 24.2833 149.967 23.4042C150.846 22.5251 152.038 22.0312 153.281 22.0312Z" fill="url(#paint8_linear_433_854)"/>
<path d="M162.656 38.4375H148.594V47.8125H162.656V38.4375Z" fill="url(#paint9_linear_433_854)"/>
<path d="M125.156 45.4688H26.7188V162.656H125.156V45.4688Z" fill="url(#paint10_linear_433_854)"/>
<path d="M125.156 155.625H26.7188V162.656H125.156V155.625Z" fill="#C7CDD8"/>
<path d="M134.531 31.4062V134.531H125.156V45.4688C119.977 45.4688 115.781 39.1641 115.781 31.4062C115.781 23.6484 119.977 17.3438 125.156 17.3438C130.336 17.3438 134.531 23.6484 134.531 31.4062Z" fill="url(#paint11_linear_433_854)"/>
<path d="M111.094 71.25H40.7812C40.1597 71.25 39.5634 71.003 39.124 70.5635C38.6845 70.1241 38.4375 69.5278 38.4375 68.9062C38.4375 68.2847 38.6845 67.6884 39.124 67.249C39.5634 66.8095 40.1597 66.5625 40.7812 66.5625H111.094C111.715 66.5625 112.312 66.8095 112.751 67.249C113.19 67.6884 113.438 68.2847 113.438 68.9062C113.438 69.5278 113.19 70.1241 112.751 70.5635C112.312 71.003 111.715 71.25 111.094 71.25Z" fill="#9CA0AD"/>
<path d="M111.094 85.3125H71.25C70.6284 85.3125 70.0322 85.0655 69.5927 84.626C69.1533 84.1866 68.9062 83.5903 68.9062 82.9688C68.9062 82.3472 69.1533 81.7509 69.5927 81.3115C70.0322 80.872 70.6284 80.625 71.25 80.625H111.094C111.715 80.625 112.312 80.872 112.751 81.3115C113.19 81.7509 113.438 82.3472 113.438 82.9688C113.438 83.5903 113.19 84.1866 112.751 84.626C112.312 85.0655 111.715 85.3125 111.094 85.3125Z" fill="#9CA0AD"/>
<path d="M61.875 85.3125H40.7812C40.1597 85.3125 39.5634 85.0655 39.124 84.626C38.6845 84.1866 38.4375 83.5903 38.4375 82.9688C38.4375 82.3472 38.6845 81.7509 39.124 81.3115C39.5634 80.872 40.1597 80.625 40.7812 80.625H61.875C62.4966 80.625 63.0928 80.872 63.5323 81.3115C63.9717 81.7509 64.2188 82.3472 64.2188 82.9688C64.2188 83.5903 63.9717 84.1866 63.5323 84.626C63.0928 85.0655 62.4966 85.3125 61.875 85.3125Z" fill="#9CA0AD"/>
<path d="M111.094 99.375H97.0312C96.4097 99.375 95.8134 99.128 95.374 98.6885C94.9345 98.2491 94.6875 97.6528 94.6875 97.0312C94.6875 96.4097 94.9345 95.8134 95.374 95.374C95.8134 94.9345 96.4097 94.6875 97.0312 94.6875H111.094C111.715 94.6875 112.312 94.9345 112.751 95.374C113.19 95.8134 113.438 96.4097 113.438 97.0312C113.438 97.6528 113.19 98.2491 112.751 98.6885C112.312 99.128 111.715 99.375 111.094 99.375Z" fill="#9CA0AD"/>
<path d="M87.6562 99.375H40.7812C40.1597 99.375 39.5634 99.128 39.124 98.6885C38.6845 98.2491 38.4375 97.6528 38.4375 97.0312C38.4375 96.4097 38.6845 95.8134 39.124 95.374C39.5634 94.9345 40.1597 94.6875 40.7812 94.6875H87.6562C88.2778 94.6875 88.8741 94.9345 89.3135 95.374C89.753 95.8134 90 96.4097 90 97.0312C90 97.6528 89.753 98.2491 89.3135 98.6885C88.8741 99.128 88.2778 99.375 87.6562 99.375Z" fill="#9CA0AD"/>
<path d="M111.094 113.438H61.875C61.2534 113.438 60.6572 113.19 60.2177 112.751C59.7783 112.312 59.5312 111.715 59.5312 111.094C59.5312 110.472 59.7783 109.876 60.2177 109.436C60.6572 108.997 61.2534 108.75 61.875 108.75H111.094C111.715 108.75 112.312 108.997 112.751 109.436C113.19 109.876 113.438 110.472 113.438 111.094C113.438 111.715 113.19 112.312 112.751 112.751C112.312 113.19 111.715 113.438 111.094 113.438Z" fill="#9CA0AD"/>
<path d="M52.5 113.438H40.7812C40.1597 113.438 39.5634 113.19 39.124 112.751C38.6845 112.312 38.4375 111.715 38.4375 111.094C38.4375 110.472 38.6845 109.876 39.124 109.436C39.5634 108.997 40.1597 108.75 40.7812 108.75H52.5C53.1216 108.75 53.7178 108.997 54.1573 109.436C54.5967 109.876 54.8438 110.472 54.8438 111.094C54.8438 111.715 54.5967 112.312 54.1573 112.751C53.7178 113.19 53.1216 113.438 52.5 113.438Z" fill="#9CA0AD"/>
<path d="M111.094 127.5H108.75C108.128 127.5 107.532 127.253 107.093 126.814C106.653 126.374 106.406 125.778 106.406 125.156C106.406 124.535 106.653 123.938 107.093 123.499C107.532 123.06 108.128 122.812 108.75 122.812H111.094C111.715 122.812 112.312 123.06 112.751 123.499C113.19 123.938 113.438 124.535 113.438 125.156C113.438 125.778 113.19 126.374 112.751 126.814C112.312 127.253 111.715 127.5 111.094 127.5Z" fill="#9CA0AD"/>
<path d="M99.375 127.5H40.7812C40.1597 127.5 39.5634 127.253 39.124 126.814C38.6845 126.374 38.4375 125.778 38.4375 125.156C38.4375 124.535 38.6845 123.938 39.124 123.499C39.5634 123.06 40.1597 122.812 40.7812 122.812H99.375C99.9966 122.812 100.593 123.06 101.032 123.499C101.472 123.938 101.719 124.535 101.719 125.156C101.719 125.778 101.472 126.374 101.032 126.814C100.593 127.253 99.9966 127.5 99.375 127.5Z" fill="#9CA0AD"/>
<path d="M111.094 141.562H80.625C80.0034 141.562 79.4072 141.315 78.9677 140.876C78.5283 140.437 78.2812 139.84 78.2812 139.219C78.2812 138.597 78.5283 138.001 78.9677 137.561C79.4072 137.122 80.0034 136.875 80.625 136.875H111.094C111.715 136.875 112.312 137.122 112.751 137.561C113.19 138.001 113.438 138.597 113.438 139.219C113.438 139.84 113.19 140.437 112.751 140.876C112.312 141.315 111.715 141.562 111.094 141.562Z" fill="#9CA0AD"/>
<path d="M71.25 141.562H40.7812C40.1597 141.562 39.5634 141.315 39.124 140.876C38.6845 140.437 38.4375 139.84 38.4375 139.219C38.4375 138.597 38.6845 138.001 39.124 137.561C39.5634 137.122 40.1597 136.875 40.7812 136.875H71.25C71.8716 136.875 72.4678 137.122 72.9073 137.561C73.3467 138.001 73.5938 138.597 73.5938 139.219C73.5938 139.84 73.3467 140.437 72.9073 140.876C72.4678 141.315 71.8716 141.562 71.25 141.562Z" fill="#9CA0AD"/>
<path d="M125.156 31.4062V45.4688C119.977 45.4688 115.781 39.1641 115.781 31.4062H125.156Z" fill="url(#paint12_linear_433_854)"/>
<path d="M162.656 47.8125H148.594V52.5H162.656V47.8125Z" fill="#F2A961"/>
<defs>
<linearGradient id="paint0_linear_433_854" x1="90" y1="0" x2="90" y2="180" gradientUnits="userSpaceOnUse">
<stop stop-color="#05ACDC"/>
<stop offset="1" stop-opacity="0"/>
</linearGradient>
<linearGradient id="paint1_linear_433_854" x1="155.625" y1="157.969" x2="155.625" y2="22.0312" gradientUnits="userSpaceOnUse">
<stop stop-color="#E9A254"/>
<stop offset="1" stop-color="#F4BB79"/>
</linearGradient>
<linearGradient id="paint2_linear_433_854" x1="148.547" y1="149.766" x2="162.703" y2="149.766" gradientUnits="userSpaceOnUse">
<stop stop-color="#D1A788"/>
<stop offset="1" stop-color="#F2D3B8"/>
</linearGradient>
<linearGradient id="paint3_linear_433_854" x1="155.625" y1="38.4375" x2="155.625" y2="22.0312" gradientUnits="userSpaceOnUse">
<stop stop-color="#D96BB0"/>
<stop offset="1" stop-color="#E49FC6"/>
</linearGradient>
<linearGradient id="paint4_linear_433_854" x1="148.594" y1="43.125" x2="162.656" y2="43.125" gradientUnits="userSpaceOnUse">
<stop stop-color="#949AAF"/>
<stop offset="1" stop-color="#C6CCDA"/>
</linearGradient>
<linearGradient id="paint5_linear_433_854" x1="71.25" y1="45.4688" x2="71.25" y2="17.3438" gradientUnits="userSpaceOnUse">
<stop stop-color="#D4D8E1"/>
<stop offset="1" stop-color="#F3F4F5"/>
</linearGradient>
<linearGradient id="paint6_linear_433_854" x1="155.625" y1="157.969" x2="155.625" y2="22.0312" gradientUnits="userSpaceOnUse">
<stop stop-color="#E9A254"/>
<stop offset="1" stop-color="#F4BB79"/>
</linearGradient>
<linearGradient id="paint7_linear_433_854" x1="148.547" y1="149.766" x2="162.704" y2="149.766" gradientUnits="userSpaceOnUse">
<stop stop-color="#D1A788"/>
<stop offset="1" stop-color="#F2D3B8"/>
</linearGradient>
<linearGradient id="paint8_linear_433_854" x1="155.625" y1="38.4375" x2="155.625" y2="22.0312" gradientUnits="userSpaceOnUse">
<stop stop-color="#D96BB0"/>
<stop offset="1" stop-color="#E49FC6"/>
</linearGradient>
<linearGradient id="paint9_linear_433_854" x1="148.594" y1="43.125" x2="162.656" y2="43.125" gradientUnits="userSpaceOnUse">
<stop stop-color="#949AAF"/>
<stop offset="1" stop-color="#C6CCDA"/>
</linearGradient>
<linearGradient id="paint10_linear_433_854" x1="75.9375" y1="162.656" x2="75.9375" y2="45.4688" gradientUnits="userSpaceOnUse">
<stop stop-color="#D4D8E1"/>
<stop offset="1" stop-color="#F3F4F5"/>
</linearGradient>
<linearGradient id="paint11_linear_433_854" x1="115.781" y1="75.9375" x2="134.531" y2="75.9375" gradientUnits="userSpaceOnUse">
<stop stop-color="#949AAF"/>
<stop offset="1" stop-color="#C6CCDA"/>
</linearGradient>
<linearGradient id="paint12_linear_433_854" x1="120.469" y1="45.4688" x2="120.469" y2="31.4062" gradientUnits="userSpaceOnUse">
<stop stop-color="#E9A254"/>
<stop offset="1" stop-color="#F4BB79"/>
</linearGradient>
</defs>
</svg>
