<svg width="550" height="534" viewBox="0 0 550 534" fill="none" xmlns="http://www.w3.org/2000/svg">
<path d="M236.658 382.333L277.439 358.756C281.641 356.329 283.742 353.154 283.742 349.967C283.742 346.781 283.742 344.295 283.742 344.295L241.444 320.438C240.262 319.674 239.278 318.641 238.572 317.424C237.866 316.207 237.458 314.84 237.382 313.435V263.141L166.184 304.296V354.566C166.266 355.97 166.676 357.335 167.381 358.551C168.087 359.767 169.068 360.801 170.245 361.569L206.241 382.298C214.622 387.189 228.254 387.189 236.658 382.333Z" fill="#006989"/>
<g opacity="0.6">
<path d="M236.658 382.333L277.439 358.756C281.641 356.329 283.742 353.154 283.742 349.967C283.742 346.781 283.742 344.295 283.742 344.295L241.444 320.438C240.262 319.674 239.278 318.641 238.572 317.424C237.866 316.207 237.458 314.84 237.382 313.435V263.141L166.184 304.296V354.566C166.266 355.97 166.676 357.335 167.381 358.551C168.087 359.767 169.068 360.801 170.245 361.569L206.241 382.298C214.622 387.189 228.254 387.189 236.658 382.333Z" fill="black"/>
</g>
<path opacity="0.3" d="M183.259 363.472V369.121L170.21 361.593C169.033 360.825 168.053 359.791 167.349 358.575C166.645 357.358 166.238 355.993 166.16 354.589V304.296L179.723 296.464C180.003 299.907 180.306 303.467 180.598 306.968L171.062 312.454V351.73C171.138 353.135 171.545 354.502 172.251 355.72C172.957 356.937 173.942 357.97 175.124 358.733L183.259 363.472Z" fill="black"/>
<path d="M171.062 351.742C171.143 353.146 171.552 354.511 172.258 355.728C172.963 356.944 173.945 357.978 175.124 358.745L206.195 376.649C214.598 381.493 228.231 381.505 236.647 376.649L277.498 353.072C285.913 348.217 285.913 340.35 277.498 335.494L246.404 317.59C245.228 316.821 244.249 315.787 243.545 314.57C242.842 313.354 242.434 311.99 242.354 310.587V271.299L171.156 312.454L171.062 351.742Z" fill="#006989"/>
<path opacity="0.3" d="M171.062 351.742C171.143 353.146 171.552 354.511 172.258 355.728C172.963 356.944 173.945 357.978 175.124 358.745L206.195 376.649C214.598 381.493 228.231 381.505 236.647 376.649L277.498 353.072C285.913 348.217 285.913 340.35 277.498 335.494L246.404 317.59C245.228 316.821 244.249 315.787 243.545 314.57C242.842 313.354 242.434 311.99 242.354 310.587V271.299L171.156 312.454L171.062 351.742Z" fill="black"/>
<path opacity="0.5" d="M254.633 322.387L246.357 317.613C245.181 316.844 244.202 315.81 243.498 314.594C242.795 313.377 242.387 312.013 242.307 310.61V271.299L171.109 312.454V351.742C171.189 353.146 171.599 354.511 172.304 355.728C173.01 356.944 173.992 357.978 175.171 358.745L183.341 363.413L254.633 322.387Z" fill="black"/>
<path d="M283.753 344.307V349.979C283.753 353.166 281.641 356.329 277.451 358.768L236.599 382.333C232.129 384.72 227.136 385.959 222.068 385.94V380.291C227.136 380.31 232.129 379.071 236.599 376.684L277.451 353.095C281.641 350.679 283.753 347.493 283.753 344.307Z" fill="#006989"/>
<path opacity="0.5" d="M283.753 344.307V349.979C283.753 353.166 281.641 356.329 277.451 358.768L236.599 382.333C232.129 384.72 227.136 385.959 222.068 385.94V380.291C227.136 380.31 232.129 379.071 236.599 376.684L277.451 353.095C281.641 350.679 283.753 347.493 283.753 344.307Z" fill="black"/>
<path d="M56.6785 400.565C58.2177 401.308 59.91 401.68 61.619 401.649C63.3281 401.619 65.0061 401.187 66.5179 400.39L341.973 241.361C343.45 240.398 344.679 239.1 345.561 237.573C346.444 236.046 346.954 234.333 347.05 232.572V9.73356C346.998 8.02057 346.541 6.34428 345.717 4.84129C344.894 3.33831 343.727 2.05116 342.312 1.08474C340.774 0.340488 339.083 -0.0304902 337.375 0.00195954C335.668 0.0344093 333.992 0.46937 332.484 1.27148L57.0287 160.347C55.5568 161.316 54.3349 162.62 53.4627 164.151C52.5905 165.683 52.0927 167.399 52.0098 169.159V391.963C52.0618 393.662 52.5113 395.325 53.322 396.818C54.1328 398.312 55.2824 399.595 56.6785 400.565Z" fill="#006989"/>
<path d="M66.5528 400.378L342.008 241.349C343.487 240.388 344.718 239.091 345.6 237.564C346.482 236.036 346.991 234.322 347.085 232.561V9.73356C347.085 6.50046 344.809 5.18155 342.008 6.80393L66.5528 165.833C65.0752 166.795 63.8454 168.093 62.9632 169.62C62.081 171.147 61.5714 172.861 61.4756 174.622V397.448C61.4756 400.682 63.7516 402 66.5528 400.378Z" fill="#006989"/>
<path opacity="0.5" d="M66.5528 400.378L342.008 241.349C343.487 240.388 344.718 239.091 345.6 237.564C346.482 236.036 346.991 234.322 347.085 232.561V9.73356C347.085 6.50046 344.809 5.18155 342.008 6.80393L66.5528 165.833C65.0752 166.795 63.8454 168.093 62.9632 169.62C62.081 171.147 61.5714 172.861 61.4756 174.622V397.448C61.4756 400.682 63.7516 402 66.5528 400.378Z" fill="black"/>
<path d="M65.8059 406.167C64.3614 406.798 62.7974 407.108 61.2217 407.075C59.646 407.043 58.0959 406.67 56.6785 405.981C55.2793 405.009 54.1278 403.722 53.3169 402.224C52.5059 400.726 52.0582 399.058 52.0098 397.355V377.069L61.5223 382.579V402.864C61.464 405.817 63.3431 407.159 65.8059 406.167Z" fill="#006989"/>
<path opacity="0.5" d="M65.8059 406.167C64.3614 406.798 62.7974 407.108 61.2217 407.075C59.646 407.043 58.0959 406.67 56.6785 405.981C55.2793 405.009 54.1278 403.722 53.3169 402.224C52.5059 400.726 52.0582 399.058 52.0098 397.355V377.069L61.5223 382.579V402.864C61.464 405.817 63.3431 407.159 65.8059 406.167Z" fill="black"/>
<path d="M61.4639 382.579V402.864C61.4639 406.097 63.7982 407.404 66.5411 405.794L341.996 246.765C343.467 245.806 344.693 244.516 345.574 242.998C346.456 241.479 346.97 239.776 347.074 238.023V217.644L61.4639 382.579Z" fill="#006989"/>
<path opacity="0.3" d="M61.4756 382.532V402.864C61.4756 406.097 63.81 407.404 66.5528 405.794L342.008 246.765C343.477 245.805 344.7 244.514 345.58 242.996C346.459 241.478 346.971 239.775 347.074 238.023V217.644L61.4756 382.532Z" fill="black"/>
<path d="M70.9883 357.076V177.785C71.0426 176.728 71.3458 175.7 71.8732 174.783C72.4006 173.866 73.1372 173.087 74.023 172.509L334.468 22.094C336.149 21.1253 337.515 21.9073 337.515 23.8448V203.229C337.458 204.286 337.153 205.315 336.623 206.232C336.094 207.149 335.355 207.927 334.468 208.505L74.0346 358.885C72.3539 359.853 70.9883 359.06 70.9883 357.076Z" fill="#006989"/>
<path d="M70.9883 357.076V177.785C71.0426 176.728 71.3458 175.7 71.8732 174.783C72.4006 173.866 73.1372 173.087 74.023 172.509L334.468 22.094C336.149 21.1253 337.515 21.9073 337.515 23.8448V203.229C337.458 204.286 337.153 205.315 336.623 206.232C336.094 207.149 335.355 207.927 334.468 208.505L74.0346 358.885C72.3539 359.853 70.9883 359.06 70.9883 357.076Z" fill="#263238"/>
<path d="M204.268 306.572C202.882 307.473 201.728 308.69 200.901 310.121C200.073 311.553 199.595 313.16 199.506 314.812C199.506 317.847 201.642 319.084 204.268 317.566C205.656 316.664 206.811 315.445 207.639 314.011C208.466 312.577 208.943 310.968 209.031 309.314C209.031 306.28 206.895 305.054 204.268 306.572Z" fill="#006989"/>
<path opacity="0.7" d="M62.9696 169.603C62.065 171.123 61.548 172.843 61.4639 174.61V382.579L52.0098 377.069V169.159C52.071 167.386 52.5853 165.658 53.5038 164.14L62.9696 169.603Z" fill="black"/>
<path opacity="0.3" d="M347.027 8.8932C346.665 6.27871 344.552 5.39165 341.996 6.80394L66.5411 165.833C65.0476 166.767 63.8149 168.064 62.9578 169.603L53.4336 164.105C54.2964 162.567 55.5327 161.27 57.0285 160.335L332.484 1.31818C333.994 0.515958 335.672 0.0809758 337.381 0.0485289C339.091 0.016082 340.784 0.387084 342.323 1.13143C343.617 2.01307 344.707 3.16228 345.518 4.50135C346.33 5.84042 346.844 7.33813 347.027 8.8932Z" fill="black"/>
<path d="M361.885 36.322C361.476 36.1167 361.018 36.0267 360.562 36.0616C360.105 36.0966 359.667 36.2552 359.294 36.5204L99.3854 186.667C98.3598 187.345 97.5084 188.256 96.9001 189.324C96.2918 190.393 95.9436 191.59 95.8838 192.818V371.012C95.8474 371.613 95.9669 372.214 96.2307 372.756C96.4944 373.298 96.8936 373.762 97.3895 374.105C97.9614 374.42 101.019 376.194 101.93 376.684C102.252 376.848 102.612 376.924 102.973 376.903C103.334 376.883 103.683 376.767 103.984 376.568L363.834 226.421C364.86 225.743 365.711 224.832 366.319 223.764C366.928 222.695 367.276 221.498 367.336 220.27V41.1541C367.388 40.7015 367.313 40.2433 367.119 39.831C366.925 39.4186 366.62 39.0684 366.238 38.8198C365.655 38.4346 362.538 36.7072 361.885 36.322Z" fill="#FC7A1E"/>
<path d="M103.926 189.188L363.846 39.0999C365.807 37.9327 367.347 38.8898 367.347 41.1541V220.27C367.288 221.498 366.939 222.695 366.331 223.764C365.723 224.832 364.871 225.743 363.846 226.421L103.926 376.568C101.965 377.735 100.424 375.856 100.424 373.591V195.339C100.486 194.111 100.835 192.915 101.443 191.847C102.051 190.778 102.902 189.868 103.926 189.188Z" fill="#FAFAFA"/>
<path d="M365.433 39.7769C366.122 39.7769 366.227 40.6406 366.227 41.1541V220.27C366.164 221.298 365.862 222.298 365.346 223.19C364.829 224.081 364.112 224.84 363.251 225.406L103.366 375.552C103.191 375.665 102.99 375.73 102.782 375.739C102.128 375.739 101.615 374.735 101.615 373.591V195.339C101.671 194.311 101.964 193.31 102.47 192.413C102.976 191.516 103.682 190.748 104.533 190.168L364.429 40.1037C364.73 39.9096 365.076 39.797 365.433 39.7769ZM365.433 38.6097C364.871 38.6336 364.324 38.8025 363.846 39.0999L103.926 189.188C102.902 189.868 102.051 190.778 101.443 191.847C100.835 192.915 100.486 194.111 100.424 195.339V373.591C100.424 375.389 101.428 376.906 102.759 376.906C103.171 376.898 103.574 376.781 103.926 376.568L363.834 226.421C364.86 225.743 365.711 224.832 366.319 223.764C366.928 222.695 367.276 221.498 367.336 220.27V41.1541C367.336 39.5434 366.542 38.6097 365.375 38.6097H365.433Z" fill="#E0E0E0"/>
<path d="M97.3197 374.105C97.7049 374.303 100.471 375.879 101.685 376.579C101.249 376.218 100.904 375.759 100.677 375.24C100.45 374.722 100.347 374.157 100.378 373.591V206.976L95.8257 204.315V371.012C95.788 371.612 95.9057 372.212 96.1674 372.754C96.4291 373.296 96.8259 373.761 97.3197 374.105Z" fill="#F0F0F0"/>
<path d="M367.394 41.1191C367.394 38.8781 365.795 37.9677 363.893 39.0999L103.926 189.188C102.902 189.868 102.051 190.778 101.443 191.847C100.835 192.915 100.486 194.111 100.424 195.339V207.011L367.394 52.7909V41.1191Z" fill="#FC7A1E"/>
<g opacity="0.4">
<path d="M363.846 39.0999L103.926 189.176C102.883 189.834 102.023 190.746 101.428 191.826L96.9111 189.2C97.5054 188.157 98.3574 187.285 99.3856 186.667L359.294 36.5204C359.666 36.2534 360.104 36.0927 360.56 36.0557C361.017 36.0187 361.475 36.1067 361.885 36.3104C362.515 36.7072 365.468 38.3763 366.227 38.7848C365.834 38.6392 365.412 38.5919 364.997 38.6468C364.582 38.7017 364.187 38.8573 363.846 39.0999Z" fill="white"/>
</g>
<path opacity="0.15" d="M95.8257 204.326V192.76C95.8736 191.499 96.2476 190.272 96.9112 189.2L101.44 191.814C100.786 192.868 100.42 194.076 100.378 195.316V206.988L95.8257 204.326Z" fill="black"/>
<path d="M312.584 175.485L156.916 265.358C156.159 265.85 155.529 266.513 155.077 267.293C154.624 268.074 154.363 268.951 154.313 269.852V314.485C154.363 315.386 154.624 316.263 155.077 317.044C155.529 317.825 156.159 318.488 156.916 318.979L161.457 321.593C162.264 322.001 163.155 322.214 164.059 322.214C164.964 322.214 165.855 322.001 166.662 321.593L322.306 231.72C323.063 231.226 323.694 230.561 324.146 229.778C324.598 228.996 324.859 228.117 324.909 227.215V182.57C324.86 181.669 324.598 180.792 324.146 180.011C323.693 179.231 323.063 178.568 322.306 178.076L317.754 175.462C316.951 175.06 316.064 174.853 315.166 174.857C314.268 174.861 313.383 175.076 312.584 175.485Z" fill="#FC7A1E"/>
<path opacity="0.5" d="M324.909 182.173C324.722 180.831 323.636 180.341 322.329 181.099L166.662 270.973C165.894 271.45 165.263 272.117 164.829 272.91L155.083 267.284C155.52 266.504 156.146 265.845 156.904 265.37L312.583 175.497C313.388 175.088 314.278 174.875 315.18 174.875C316.083 174.875 316.973 175.088 317.777 175.497L322.329 178.111C323.023 178.566 323.612 179.164 324.057 179.864C324.502 180.565 324.792 181.352 324.909 182.173Z" fill="white"/>
<path d="M166.219 321.815C165.457 322.115 164.64 322.252 163.821 322.216C163.003 322.179 162.201 321.971 161.468 321.605L156.916 318.99C156.161 318.498 155.531 317.834 155.079 317.054C154.627 316.273 154.365 315.397 154.313 314.497V269.864C154.349 268.953 154.614 268.065 155.084 267.284L164.83 272.91C164.356 273.681 164.091 274.562 164.059 275.466V320.111C164.059 321.593 164.993 322.282 166.219 321.815Z" fill="#263238"/>
<path d="M166.662 270.973L322.329 181.099C323.765 180.271 324.932 180.936 324.932 182.593V227.238C324.883 228.141 324.621 229.019 324.169 229.802C323.717 230.585 323.086 231.25 322.329 231.743L166.685 321.617C165.25 322.445 164.083 321.768 164.083 320.111V275.478C164.129 274.577 164.387 273.7 164.835 272.918C165.283 272.135 165.909 271.469 166.662 270.973Z" fill="#FC7A1E"/>
<path d="M271.312 199.319L156.928 265.37C156.17 265.845 155.544 266.504 155.107 267.284L164.853 272.91C165.286 272.117 165.918 271.449 166.685 270.972L281.069 204.933L271.312 199.319Z" fill="#455A64"/>
<path d="M281.046 204.933L166.662 270.972C165.905 271.466 165.274 272.131 164.822 272.914C164.37 273.697 164.109 274.575 164.059 275.478V320.099C164.059 321.757 165.226 322.434 166.662 321.605L281.046 255.566V204.933Z" fill="#37474F"/>
<path d="M193.04 265.533L252.065 231.463C254.504 230.051 256.488 231.055 256.488 233.704C256.379 235.192 255.921 236.634 255.15 237.911C254.379 239.189 253.318 240.267 252.053 241.058L193.04 275.139C190.601 276.552 188.605 275.548 188.605 272.898C188.715 271.409 189.174 269.966 189.944 268.687C190.715 267.408 191.775 266.327 193.04 265.533Z" fill="#FC7A1E"/>
<path d="M205.132 276.82C205.143 276.808 205.157 276.798 205.172 276.791C205.187 276.784 205.203 276.781 205.22 276.781C205.236 276.781 205.253 276.784 205.268 276.791C205.283 276.798 205.296 276.808 205.307 276.82C205.359 276.899 205.384 276.994 205.377 277.089V283.73C205.378 284.371 205.323 285.012 205.214 285.644C205.117 286.222 204.953 286.786 204.724 287.325C204.514 287.818 204.24 288.282 203.907 288.702C203.578 289.092 203.183 289.42 202.739 289.671C202.392 289.897 201.987 290.019 201.572 290.021C201.414 290.008 201.26 289.964 201.119 289.889C200.979 289.815 200.855 289.713 200.755 289.589C200.499 289.246 200.331 288.845 200.265 288.422C200.153 287.857 200.102 287.282 200.113 286.706V280.053C200.113 279.937 200.137 279.821 200.183 279.715C200.212 279.618 200.274 279.536 200.358 279.481L201.094 279.049C201.117 279.027 201.149 279.015 201.181 279.015C201.214 279.015 201.245 279.027 201.269 279.049C201.323 279.128 201.347 279.223 201.339 279.318V285.877C201.33 286.238 201.365 286.599 201.444 286.951C201.476 287.177 201.573 287.388 201.724 287.558C201.776 287.621 201.843 287.67 201.918 287.703C201.993 287.735 202.074 287.75 202.156 287.745C202.355 287.732 202.548 287.667 202.716 287.558C202.924 287.434 203.112 287.281 203.276 287.103C203.458 286.893 203.608 286.657 203.72 286.403C203.851 286.103 203.949 285.79 204.012 285.469C204.08 285.084 204.111 284.693 204.105 284.302V277.73C204.109 277.613 204.136 277.498 204.187 277.392C204.215 277.296 204.277 277.213 204.362 277.159L205.132 276.82Z" fill="#FAFAFA"/>
<path d="M209.708 283.1C209.714 283.014 209.693 282.928 209.649 282.854C209.621 282.824 209.587 282.801 209.548 282.787C209.51 282.772 209.468 282.768 209.427 282.773C209.284 282.753 209.139 282.753 208.996 282.773L208.319 282.901C208.1 282.955 207.872 282.955 207.653 282.901C207.482 282.846 207.334 282.735 207.233 282.586C207.119 282.396 207.044 282.186 207.011 281.967C206.897 281.342 206.897 280.702 207.011 280.077C207.099 279.718 207.224 279.37 207.385 279.038C207.545 278.706 207.74 278.393 207.968 278.104C208.189 277.828 208.458 277.595 208.762 277.415C209.008 277.266 209.282 277.17 209.567 277.135C209.775 277.114 209.983 277.159 210.163 277.264C210.334 277.368 210.469 277.523 210.548 277.707C210.642 277.925 210.694 278.159 210.7 278.396C210.712 278.513 210.687 278.631 210.63 278.734C210.601 278.831 210.539 278.913 210.455 278.968L209.754 279.376C209.722 279.395 209.686 279.404 209.649 279.404C209.612 279.404 209.576 279.395 209.544 279.376L209.392 279.259C209.332 279.212 209.259 279.183 209.182 279.178C209.032 279.195 208.888 279.247 208.762 279.33C208.579 279.44 208.417 279.582 208.284 279.75C208.142 279.933 208.068 280.16 208.074 280.392C208.057 280.48 208.057 280.571 208.074 280.66C208.096 280.693 208.125 280.721 208.16 280.741C208.194 280.761 208.232 280.773 208.272 280.777C208.399 280.798 208.53 280.798 208.657 280.777L209.311 280.66C209.859 280.555 210.233 280.66 210.478 280.964C210.735 281.396 210.854 281.897 210.816 282.399C210.813 282.746 210.766 283.091 210.676 283.426C210.584 283.79 210.451 284.143 210.279 284.477C210.108 284.822 209.892 285.144 209.638 285.434C209.396 285.718 209.108 285.958 208.785 286.146C208.529 286.31 208.237 286.41 207.933 286.438C207.714 286.445 207.498 286.384 207.315 286.263C207.135 286.139 206.996 285.964 206.918 285.761C206.824 285.539 206.776 285.301 206.778 285.06C206.767 284.939 206.791 284.818 206.848 284.71C206.877 284.614 206.939 284.531 207.023 284.477L207.723 284.068C207.817 284.068 207.887 284.01 207.933 284.068L208.085 284.232C208.116 284.266 208.154 284.295 208.196 284.315C208.238 284.335 208.284 284.346 208.33 284.348C208.495 284.349 208.655 284.296 208.785 284.197C208.996 284.077 209.186 283.923 209.346 283.741C209.425 283.645 209.492 283.539 209.544 283.426C209.627 283.334 209.683 283.221 209.708 283.1Z" fill="#FAFAFA"/>
<path d="M212.089 279.936C212.087 279.33 212.137 278.725 212.24 278.127C212.338 277.565 212.49 277.014 212.696 276.482C212.867 276.005 213.103 275.553 213.396 275.139C213.641 274.784 213.959 274.485 214.33 274.264C214.6 274.082 214.93 274.011 215.252 274.066C215.537 274.132 215.787 274.302 215.952 274.544C216.172 274.861 216.326 275.218 216.407 275.595C216.519 276.085 216.574 276.586 216.571 277.089V277.812C216.574 277.934 216.546 278.055 216.489 278.162C216.46 278.259 216.398 278.341 216.314 278.396L213.279 280.158C213.272 280.364 213.3 280.569 213.361 280.765C213.406 280.897 213.487 281.014 213.594 281.104C213.69 281.18 213.811 281.217 213.933 281.209C214.074 281.192 214.209 281.144 214.33 281.069C214.506 280.973 214.664 280.846 214.797 280.695C214.916 280.561 215.018 280.412 215.1 280.252C215.15 280.159 215.204 280.07 215.263 279.983C215.314 279.924 215.373 279.873 215.439 279.831L216.162 279.411C216.187 279.391 216.218 279.381 216.25 279.381C216.282 279.381 216.312 279.391 216.337 279.411C216.368 279.448 216.39 279.491 216.402 279.538C216.414 279.584 216.416 279.633 216.407 279.68C216.395 279.907 216.347 280.132 216.267 280.345C216.167 280.669 216.034 280.982 215.87 281.279C215.688 281.62 215.469 281.941 215.217 282.236C214.966 282.537 214.666 282.793 214.33 282.994C214.054 283.175 213.724 283.254 213.396 283.216C213.109 283.147 212.859 282.972 212.696 282.726C212.466 282.372 212.311 281.975 212.24 281.559C212.134 281.025 212.084 280.481 212.089 279.936ZM214.33 276.213C214.15 276.31 213.995 276.445 213.875 276.61C213.745 276.773 213.639 276.954 213.559 277.147C213.478 277.34 213.411 277.539 213.361 277.742C213.32 277.927 213.293 278.114 213.279 278.302L215.334 277.135C215.322 276.974 215.298 276.814 215.263 276.657C215.246 276.516 215.189 276.382 215.1 276.271C215.065 276.221 215.02 276.178 214.968 276.146C214.916 276.114 214.857 276.093 214.797 276.085C214.631 276.071 214.465 276.116 214.33 276.213Z" fill="#FAFAFA"/>
<path d="M220.236 272.957C219.882 273.159 219.604 273.47 219.442 273.844C219.261 274.336 219.177 274.86 219.197 275.384V279.598C219.199 279.718 219.175 279.838 219.127 279.948C219.098 280.044 219.036 280.127 218.952 280.182L218.263 280.578C218.252 280.591 218.239 280.601 218.224 280.608C218.209 280.614 218.192 280.618 218.176 280.618C218.159 280.618 218.143 280.614 218.128 280.608C218.113 280.601 218.099 280.591 218.088 280.578C218.036 280.499 218.011 280.405 218.018 280.31V272.758C218.019 272.638 218.043 272.519 218.088 272.408C218.121 272.314 218.182 272.232 218.263 272.175L218.952 271.778C218.976 271.756 219.007 271.743 219.039 271.743C219.072 271.743 219.103 271.756 219.127 271.778C219.181 271.852 219.206 271.943 219.197 272.035V272.408C219.336 272.095 219.508 271.798 219.711 271.521C219.895 271.265 220.134 271.054 220.411 270.902L220.831 270.657C220.853 270.636 220.882 270.624 220.913 270.624C220.943 270.624 220.973 270.636 220.995 270.657C221.051 270.735 221.08 270.83 221.076 270.926V271.988C221.074 272.109 221.046 272.229 220.995 272.338C220.965 272.431 220.908 272.512 220.831 272.572L220.236 272.957Z" fill="#FAFAFA"/>
<path d="M228.943 272.396C228.954 272.384 228.968 272.374 228.983 272.367C228.998 272.36 229.014 272.357 229.031 272.357C229.047 272.357 229.064 272.36 229.079 272.367C229.094 272.374 229.107 272.384 229.118 272.396C229.17 272.476 229.195 272.57 229.188 272.665V273.832C229.188 273.952 229.164 274.071 229.118 274.182C229.078 274.269 229.018 274.345 228.943 274.404L224.951 276.738C224.928 276.761 224.896 276.773 224.864 276.773C224.831 276.773 224.8 276.761 224.776 276.738C224.724 276.663 224.699 276.573 224.706 276.482V265.977C224.707 265.857 224.731 265.738 224.776 265.627C224.809 265.536 224.87 265.458 224.951 265.405L225.687 264.973C225.71 264.951 225.742 264.939 225.774 264.939C225.807 264.939 225.838 264.951 225.862 264.973C225.914 265.048 225.939 265.139 225.932 265.23V274.112L228.943 272.396Z" fill="#FAFAFA"/>
<path d="M232.526 263.759C232.789 263.577 233.106 263.491 233.425 263.514C233.698 263.536 233.953 263.661 234.137 263.864C234.354 264.114 234.514 264.409 234.604 264.728C234.728 265.141 234.799 265.569 234.814 266C234.814 266.094 234.814 266.222 234.814 266.374V267.273C234.814 267.413 234.814 267.541 234.814 267.646C234.791 268.153 234.72 268.657 234.604 269.152C234.496 269.633 234.339 270.102 234.137 270.552C233.952 270.971 233.712 271.363 233.425 271.72C233.179 272.042 232.874 272.315 232.526 272.525C232.256 272.7 231.937 272.786 231.616 272.77C231.346 272.747 231.096 272.621 230.915 272.42C230.691 272.179 230.531 271.886 230.448 271.568C230.324 271.155 230.253 270.727 230.238 270.296C230.238 270.202 230.238 270.085 230.238 269.934V269.035C230.238 268.883 230.238 268.755 230.238 268.661C230.252 268.15 230.318 267.642 230.437 267.144C230.55 266.659 230.711 266.186 230.915 265.732C231.101 265.316 231.336 264.924 231.616 264.565C231.863 264.239 232.172 263.965 232.526 263.759ZM233.623 266.771C233.623 266.512 233.579 266.256 233.495 266.012C233.451 265.863 233.361 265.732 233.238 265.638C233.138 265.572 233.018 265.543 232.899 265.557C232.766 265.582 232.639 265.633 232.526 265.709C232.389 265.784 232.263 265.878 232.152 265.989C232.019 266.128 231.905 266.285 231.814 266.455C231.697 266.668 231.61 266.896 231.557 267.132C231.481 267.431 231.434 267.736 231.417 268.043C231.417 268.136 231.417 268.241 231.417 268.37V269.198C231.417 269.327 231.417 269.432 231.417 269.502C231.428 269.76 231.475 270.015 231.557 270.261C231.6 270.41 231.69 270.541 231.814 270.634C231.863 270.668 231.918 270.692 231.976 270.704C232.034 270.716 232.094 270.716 232.152 270.704C232.285 270.682 232.412 270.634 232.526 270.564C232.661 270.486 232.787 270.392 232.899 270.284C233.03 270.142 233.143 269.985 233.238 269.817C233.35 269.602 233.436 269.375 233.495 269.14C233.571 268.842 233.614 268.537 233.623 268.23C233.63 268.121 233.63 268.012 233.623 267.903V267.086C233.63 266.981 233.63 266.876 233.623 266.771Z" fill="#FAFAFA"/>
<path d="M238.385 270.587C238.535 270.496 238.669 270.382 238.782 270.249C238.923 270.084 239.044 269.904 239.144 269.712C239.26 269.477 239.35 269.231 239.413 268.977C239.484 268.69 239.52 268.396 239.518 268.101V267.506C239.518 267.623 239.401 267.763 239.319 267.926C239.239 268.097 239.145 268.261 239.039 268.416C238.917 268.581 238.785 268.736 238.642 268.883C238.496 269.037 238.326 269.167 238.14 269.268C238.02 269.35 237.885 269.407 237.743 269.435C237.6 269.463 237.454 269.462 237.312 269.432C237.052 269.351 236.829 269.181 236.681 268.953C236.491 268.652 236.353 268.32 236.273 267.973C236.173 267.532 236.119 267.082 236.109 266.631C236.109 266.479 236.109 266.292 236.109 266.07C236.109 265.849 236.109 265.662 236.109 265.498C236.124 264.985 236.179 264.474 236.273 263.969C236.369 263.473 236.505 262.985 236.681 262.51C236.846 262.099 237.058 261.707 237.312 261.343C237.527 261.022 237.81 260.751 238.14 260.55C238.296 260.456 238.465 260.389 238.642 260.351C238.773 260.327 238.908 260.327 239.039 260.351C239.143 260.38 239.238 260.432 239.319 260.503C239.394 260.56 239.46 260.627 239.518 260.701V260.328C239.518 260.208 239.542 260.089 239.588 259.978C239.62 259.887 239.682 259.809 239.763 259.756L240.451 259.347C240.475 259.325 240.506 259.313 240.539 259.313C240.571 259.313 240.603 259.325 240.626 259.347C240.683 259.425 240.711 259.52 240.708 259.616V267.202C240.74 268.339 240.529 269.469 240.089 270.517C239.745 271.342 239.148 272.036 238.385 272.502C238.125 272.663 237.828 272.756 237.522 272.77C237.28 272.785 237.039 272.723 236.833 272.595C236.636 272.447 236.476 272.255 236.366 272.035C236.252 271.769 236.189 271.484 236.179 271.194C236.169 271.073 236.193 270.952 236.249 270.844C236.278 270.748 236.34 270.665 236.425 270.611L237.043 270.26C237.057 270.245 237.074 270.233 237.094 270.225C237.113 270.217 237.133 270.212 237.154 270.212C237.175 270.212 237.195 270.217 237.214 270.225C237.234 270.233 237.251 270.245 237.265 270.26C237.322 270.321 237.373 270.388 237.417 270.459C237.488 270.584 237.605 270.676 237.743 270.716C237.884 270.821 238.094 270.704 238.385 270.587ZM237.288 264.926C237.288 265.238 237.288 265.541 237.288 265.837C237.255 266.303 237.387 266.766 237.662 267.144C237.766 267.234 237.898 267.283 238.035 267.283C238.172 267.283 238.305 267.234 238.409 267.144C238.747 266.924 239.012 266.607 239.167 266.234C239.38 265.747 239.499 265.224 239.518 264.693C239.518 264.518 239.518 264.308 239.518 264.063C239.518 263.818 239.518 263.608 239.518 263.456C239.541 263.038 239.417 262.625 239.167 262.289C239.064 262.193 238.929 262.141 238.788 262.141C238.648 262.141 238.512 262.193 238.409 262.289C238.077 262.508 237.817 262.821 237.662 263.187C237.422 263.736 237.295 264.328 237.288 264.926Z" fill="#FAFAFA"/>
<path d="M243.428 254.562C243.451 254.543 243.48 254.533 243.509 254.533C243.539 254.533 243.568 254.543 243.591 254.562C243.652 254.637 243.682 254.734 243.673 254.83V256.103C243.674 256.224 243.646 256.344 243.591 256.453C243.558 256.54 243.502 256.617 243.428 256.674L242.646 257.13C242.635 257.142 242.621 257.152 242.606 257.159C242.591 257.166 242.575 257.169 242.558 257.169C242.542 257.169 242.525 257.166 242.51 257.159C242.495 257.152 242.482 257.142 242.471 257.13C242.44 257.095 242.417 257.054 242.403 257.01C242.389 256.966 242.384 256.919 242.389 256.873V255.601C242.388 255.479 242.416 255.359 242.471 255.251C242.503 255.159 242.565 255.082 242.646 255.029L243.428 254.562ZM243.626 265.522C243.627 265.638 243.603 265.753 243.556 265.86C243.519 265.952 243.459 266.032 243.381 266.094L242.681 266.491C242.671 266.503 242.658 266.513 242.644 266.519C242.63 266.526 242.615 266.53 242.599 266.53C242.583 266.53 242.568 266.526 242.554 266.519C242.54 266.513 242.527 266.503 242.517 266.491C242.456 266.415 242.427 266.319 242.436 266.222V258.67C242.435 258.549 242.463 258.429 242.517 258.32C242.55 258.229 242.607 258.149 242.681 258.087L243.381 257.69C243.405 257.668 243.436 257.655 243.469 257.655C243.501 257.655 243.532 257.668 243.556 257.69C243.608 257.765 243.633 257.856 243.626 257.947V265.522Z" fill="#FAFAFA"/>
<path d="M249.766 261.962C249.765 262.082 249.741 262.201 249.696 262.312C249.663 262.403 249.602 262.481 249.521 262.534L248.82 262.942C248.798 262.964 248.769 262.976 248.739 262.976C248.708 262.976 248.679 262.964 248.657 262.942C248.596 262.867 248.566 262.77 248.575 262.674V258.565C248.611 258.08 248.523 257.594 248.318 257.153C248.155 256.861 247.898 256.815 247.536 257.025C247.175 257.267 246.908 257.625 246.778 258.04C246.583 258.591 246.488 259.172 246.498 259.756V263.876C246.497 263.996 246.473 264.115 246.428 264.226C246.399 264.322 246.337 264.405 246.252 264.46L245.564 264.856C245.553 264.869 245.539 264.879 245.524 264.886C245.509 264.892 245.493 264.896 245.476 264.896C245.46 264.896 245.443 264.892 245.428 264.886C245.413 264.879 245.4 264.869 245.389 264.856C245.335 264.782 245.31 264.691 245.319 264.6V257.048C245.317 256.928 245.341 256.808 245.389 256.698C245.417 256.602 245.479 256.519 245.564 256.464L246.252 256.068C246.263 256.055 246.277 256.045 246.292 256.038C246.307 256.032 246.323 256.028 246.34 256.028C246.357 256.028 246.373 256.032 246.388 256.038C246.403 256.045 246.417 256.055 246.428 256.068C246.48 256.147 246.504 256.241 246.498 256.336V256.698C246.651 256.342 246.839 256.002 247.058 255.682C247.25 255.388 247.51 255.143 247.816 254.97C248.082 254.776 248.413 254.693 248.739 254.737C248.868 254.769 248.989 254.829 249.093 254.911C249.198 254.994 249.284 255.097 249.345 255.215C249.515 255.531 249.626 255.875 249.672 256.231C249.735 256.695 249.766 257.163 249.766 257.632V261.962Z" fill="#FAFAFA"/>
<path d="M308.638 227.985L297.305 234.521L299.067 218.624C297.702 217.901 296.838 216.138 296.838 213.605C296.838 209.088 299.592 203.848 302.977 201.934C306.362 200.019 309.105 202.05 309.105 206.602C309.035 209.281 308.271 211.895 306.887 214.189L308.638 227.985Z" fill="#455A64"/>
<path d="M308.65 227.985L298.67 222.231L297.305 234.533L308.65 227.985Z" fill="#37474F"/>
<path d="M302.954 201.899C300.486 203.566 298.645 206.01 297.725 208.843L306.864 214.119C308.248 211.825 309.012 209.211 309.082 206.532C309.105 202.015 306.362 199.949 302.954 201.899Z" fill="#37474F"/>
<path d="M247.863 148.967C243.976 146.726 238.619 147.041 232.689 150.461C220.854 157.3 211.26 173.91 211.26 187.577C211.26 194.44 213.688 199.249 217.586 201.467L225.138 205.855C229.013 208.096 234.37 207.769 240.311 204.35C252.146 197.522 261.74 180.901 261.74 167.233C261.74 160.405 259.336 155.561 255.461 153.379" fill="#FC7A1E"/>
<path d="M240.3 154.861C228.464 161.701 218.87 178.321 218.87 191.978C218.87 205.634 228.464 211.189 240.3 204.35C252.135 197.51 261.741 180.901 261.729 167.233C261.717 153.566 252.123 148.033 240.3 154.861Z" fill="#FC7A1E"/>
<path d="M252.123 185.185V186.749C249.288 191.81 245.221 196.073 240.3 199.144C235.689 201.794 231.522 202.085 228.464 200.393V197.172C228.621 193.82 229.578 190.555 231.255 187.649C232.932 184.743 235.281 182.281 238.105 180.469L241.222 178.672C243.976 177.084 246.661 176.874 248.762 178.1C250.863 179.325 252.123 181.905 252.123 185.185Z" fill="#FC7A1E"/>
<path opacity="0.4" d="M247.863 148.967L255.45 153.379C251.575 151.126 246.217 151.441 240.276 154.861C232.526 159.343 225.733 168.015 221.975 177.306L214.376 172.906C218.146 163.568 224.881 154.943 232.678 150.461C238.631 147.053 243.988 146.726 247.863 148.967Z" fill="white"/>
<path opacity="0.2" d="M224.869 205.68L217.598 201.467C213.699 199.249 211.271 194.464 211.271 187.577L218.87 191.989C218.917 198.642 221.158 203.381 224.869 205.68Z" fill="black"/>
<path opacity="0.1" d="M214.4 172.906L221.998 177.306C220.051 181.957 219.005 186.936 218.917 191.978L211.318 187.566C211.412 182.528 212.457 177.554 214.4 172.906Z" fill="black"/>
<path d="M237.591 177.936C236.867 177.944 236.154 177.759 235.526 177.399C234.768 176.894 234.161 176.194 233.768 175.372C233.376 174.55 233.213 173.638 233.296 172.731C233.395 170.604 234.002 168.532 235.066 166.688C236.13 164.845 237.621 163.282 239.412 162.133C240.132 161.558 241.008 161.214 241.927 161.146C242.845 161.077 243.763 161.287 244.56 161.749C245.357 162.211 245.996 162.902 246.393 163.732C246.791 164.563 246.929 165.494 246.789 166.405C246.688 168.531 246.08 170.602 245.016 172.445C243.952 174.289 242.463 175.851 240.673 177.003C239.746 177.581 238.683 177.903 237.591 177.936Z" fill="white"/>
<path d="M248.762 178.088C246.661 176.863 243.976 177.073 241.222 178.66L238.105 180.457C235.28 182.27 232.93 184.734 231.253 187.642C229.575 190.55 228.619 193.818 228.464 197.172V200.405C231.522 202.097 235.689 201.805 240.3 199.156C245.221 196.085 249.288 191.821 252.123 186.76V185.196C252.123 181.905 250.909 179.325 248.762 178.088Z" fill="white"/>
<path d="M488.711 380.011C488.711 380.011 490.264 366.378 497.045 355.792C503.826 345.205 513.141 338.611 521.836 337.922C530.532 337.233 537.558 345.24 528.256 350.761C518.953 356.282 502.426 361.861 494.816 382.403L488.711 380.011Z" fill="#47CBA3"/>
<path opacity="0.1" d="M488.711 380.011C488.711 380.011 490.264 366.378 497.045 355.792C503.826 345.205 513.141 338.611 521.836 337.922C530.532 337.233 537.558 345.24 528.256 350.761C518.953 356.282 502.426 361.861 494.816 382.403L488.711 380.011Z" fill="black"/>
<path d="M491.267 376.462H491.174C491.06 376.416 490.968 376.326 490.92 376.212C490.872 376.098 490.871 375.97 490.917 375.856C500.091 353.271 517.552 343.828 525.512 342.007C525.572 341.993 525.634 341.992 525.695 342.002C525.755 342.012 525.813 342.034 525.865 342.066C525.917 342.099 525.962 342.141 525.998 342.191C526.034 342.241 526.059 342.298 526.073 342.357C526.087 342.417 526.088 342.479 526.078 342.54C526.068 342.6 526.046 342.658 526.014 342.71C525.981 342.762 525.939 342.807 525.889 342.843C525.839 342.878 525.782 342.904 525.723 342.918C517.926 344.715 500.803 353.983 491.781 376.217C491.736 376.311 491.66 376.386 491.567 376.43C491.474 376.475 491.368 376.486 491.267 376.462Z" fill="white"/>
<path d="M537.698 376.731C536.916 378.505 534.979 379.439 533.181 380.162C531.384 380.886 529.423 381.668 528.442 383.349C526.482 386.734 529.703 391.519 527.602 394.799C527.107 395.459 526.484 396.013 525.77 396.426C525.056 396.839 524.266 397.104 523.447 397.203C522.105 397.448 520.739 397.448 519.385 397.565C518.737 397.557 518.089 397.506 517.448 397.413C515.561 396.993 513.589 397.202 511.833 398.009C509.137 399.526 508.332 402.923 506.675 405.549C505.662 407.095 504.327 408.404 502.762 409.387C501.197 410.37 499.438 411.004 497.605 411.245C496.438 411.396 494.104 411.618 492.937 410.929C492.845 410.885 492.759 410.83 492.68 410.766C492.505 410.579 492.295 410.334 492.201 410.206C492.195 410.179 492.195 410.151 492.201 410.124C491.723 408.362 492.505 406.541 492.54 404.72V404.393C492.458 402.281 492.4 400.18 492.353 398.079C492.252 394.188 492.213 390.298 492.236 386.407C492.236 383.886 491.956 381.131 493.03 378.762C494.197 376.147 497.139 376.089 498.247 373.533C498.691 372.506 498.924 371.42 499.356 370.381C500.024 368.871 501.093 367.573 502.447 366.628C503.801 365.684 505.389 365.129 507.036 365.024C512.16 364.767 516.747 368.911 521.871 368.526C523.19 368.421 524.486 368.012 525.793 367.779C529.937 366.997 534.734 368.175 537.068 371.689C537.58 372.412 537.906 373.251 538.016 374.131C538.126 375.01 538.017 375.904 537.698 376.731Z" fill="#47CBA3"/>
<path d="M491.688 402.035C491.578 402.003 491.484 401.929 491.428 401.828C491.371 401.728 491.355 401.61 491.384 401.499C498.458 374.957 526.4 371.152 532.971 371.595C533.029 371.598 533.086 371.613 533.138 371.638C533.19 371.663 533.236 371.699 533.274 371.742C533.312 371.786 533.341 371.837 533.359 371.892C533.378 371.947 533.384 372.005 533.38 372.062C533.368 372.176 533.313 372.28 533.226 372.354C533.139 372.428 533.027 372.466 532.913 372.459C526.505 372.004 499.146 375.751 492.225 401.732C492.192 401.842 492.118 401.936 492.018 401.992C491.917 402.049 491.799 402.064 491.688 402.035Z" fill="white"/>
<path d="M522.77 388.59C522.681 388.577 522.599 388.536 522.536 388.473C519.953 386.234 516.907 384.593 513.616 383.667C510.326 382.741 506.871 382.553 503.499 383.115C503.386 383.126 503.272 383.093 503.181 383.024C503.091 382.955 503.029 382.854 503.009 382.742C502.992 382.628 503.021 382.511 503.088 382.418C503.156 382.324 503.257 382.26 503.371 382.24C506.888 381.655 510.49 381.855 513.921 382.825C517.351 383.796 520.524 385.513 523.213 387.854C523.254 387.894 523.287 387.943 523.31 387.996C523.332 388.049 523.344 388.106 523.344 388.164C523.344 388.221 523.332 388.278 523.31 388.331C523.287 388.385 523.254 388.433 523.213 388.473C523.16 388.536 523.089 388.581 523.01 388.602C522.931 388.623 522.847 388.618 522.77 388.59Z" fill="white"/>
<path d="M424.481 59.4439L428.193 60.8679V52.6976C428.193 46.208 433.363 44.6557 438.978 47.9005C444.603 51.1452 449.155 59.0237 449.155 65.5132V66.6804C449.938 66.4414 450.764 66.3823 451.573 66.5076C452.381 66.6329 453.151 66.9394 453.824 67.4041C455.956 68.7941 457.73 70.6675 459.001 72.8721C460.273 75.0766 461.007 77.55 461.142 80.0914V80.6283L466.325 83.6163C467.727 84.5314 468.894 85.7638 469.731 87.2136C470.568 88.6633 471.053 90.2899 471.145 91.9616C471.145 95.043 468.986 96.2919 466.325 94.7512L424.481 70.5788C423.078 69.6658 421.911 68.4337 421.075 66.9833C420.239 65.5328 419.759 63.9052 419.672 62.2335C419.672 59.1638 421.808 57.9149 424.481 59.4439Z" fill="#E6E6E6"/>
<path d="M474.191 52.9777L480.926 56.8644C480.889 56.5702 480.87 56.274 480.868 55.9774V54.0282C480.868 50.5266 483.295 49.1494 486.307 50.8885C487.601 51.6807 488.708 52.7439 489.552 54.0048C490.042 49.6396 493.473 48.0172 497.629 50.4099C500.003 51.9549 501.98 54.0377 503.4 56.4893C504.819 58.941 505.641 61.6926 505.799 64.5212V67.4391C505.829 68.605 505.593 69.7625 505.11 70.8239L510.713 74.0454C511.586 74.6244 512.311 75.4002 512.83 76.3104C513.349 77.2205 513.647 78.2397 513.701 79.286C513.701 81.2119 512.347 81.9939 510.678 81.0368L474.191 60.0275C473.309 59.4525 472.575 58.6769 472.05 57.7641C471.524 56.8513 471.222 55.827 471.168 54.7752C471.168 52.8026 472.522 52.0206 474.191 52.9777Z" fill="#E6E6E6"/>
<path d="M448.117 230.121C443.215 238.408 438.499 245.61 435.185 249.064C428.893 251.982 414.117 256.488 408.339 257.235C407.325 257.364 406.297 257.124 405.445 256.558C403.169 255.064 401.406 254.819 399.014 253.99C397.134 253.348 396.341 252.449 395.991 252.823C395.629 253.247 395.447 253.795 395.484 254.351C395.521 254.907 395.774 255.427 396.189 255.799C397.087 256.652 398.082 257.396 399.154 258.017C396.591 258.653 393.917 258.7 391.333 258.157C386.326 256.838 383.969 259.242 387.353 264.681C388.521 266.619 393.329 269.735 402.994 268.895C406.441 268.709 409.875 268.319 413.277 267.728C422.544 265.744 432.85 263.829 439.188 261.892C441.546 260.965 443.655 259.502 445.351 257.62C456.007 245.47 459.544 236.809 464.212 228.942L463.816 216.103C456.252 215.846 452.214 223.188 448.117 230.121Z" fill="#FFA8A7"/>
<path d="M465.111 215.846C462.918 215.538 460.682 215.835 458.646 216.705C456.609 217.575 454.849 218.986 453.556 220.784C448.374 227.425 439.2 243.369 439.2 243.369C439.2 243.369 442.199 251.364 450.3 252.706L463.314 235.128C463.314 235.128 469.476 222.92 465.111 215.846Z" fill="#455A64"/>
<path d="M493.252 395.056H484.766V410.182H493.252V395.056Z" fill="#FFA8A7"/>
<path d="M463.839 394.25L455.365 394.554L454.933 378.54L463.839 378.237V394.25Z" fill="#FFA8A7"/>
<path d="M494.442 264.109C494.442 272.537 493.205 340.432 493.205 340.432C493.392 342.859 495.539 347.341 495.107 356.667C494.465 369.331 493.613 402.619 493.613 402.619C492.157 403.364 490.55 403.769 488.914 403.801C487.278 403.833 485.656 403.493 484.171 402.806C484.171 402.806 477.284 356.119 475.767 343.618C474.436 332.658 471.028 296.382 471.028 296.382L466.441 339.264C467.414 343.865 467.767 348.576 467.492 353.271C467.095 359.106 464.364 389.313 464.364 389.313C462.898 390.178 461.254 390.698 459.557 390.833C457.861 390.969 456.156 390.716 454.571 390.095C454.571 390.095 449.739 344.575 449.645 339.229C449.529 333.16 452.47 264.039 452.47 264.039L494.442 264.109Z" fill="#37474F"/>
<path d="M484.766 405.817V404.557C483.949 404.918 482.07 412.412 478.697 415.61C476.024 418.154 472.382 421.084 471.449 423.92C470.515 426.756 476.526 428.495 479.035 428.04C481.93 427.503 486.972 425.367 488.233 423.372C489.493 421.376 490.089 418.481 491.116 417.034C492.143 415.586 494.512 413.976 495.061 412.295C495.232 410.722 495.069 409.131 494.582 407.626C494.185 406.062 493.765 404.346 493.252 404.498V405.455C492.055 406.437 490.551 406.966 489.003 406.949C487.766 407.054 484.755 406.798 484.766 405.817Z" fill="#263238"/>
<path d="M455.272 391.823C454.828 391.823 454.466 392.488 453.498 393.585C452.057 395.1 450.372 396.363 448.514 397.32C445.339 398.977 439.176 401.522 436.363 402.841C434.613 403.658 434.694 405.852 436.503 407.101C438.313 408.35 442.666 409.249 447.895 408.035C450.743 407.369 454.455 404.627 456.812 404.778C459.17 404.93 463.547 404.883 465.286 403.611C467.025 402.339 466.325 399.701 465.835 397.425C465.298 394.927 464.668 391.041 463.839 391.216V392.091C462.823 393.702 457.559 394.355 455.318 393.177L455.272 391.823Z" fill="#263238"/>
<path d="M471.028 296.382C466.614 294.937 462.579 292.525 459.216 289.321C459.216 289.321 461.551 293.768 468.274 297.911L466.826 336.206L471.028 296.382Z" fill="#263238"/>
<path d="M489.703 217.084C489.703 217.084 496.706 218.694 496.205 231.347L494.746 251.481V281.711C488.513 288.784 460.897 288.27 451.385 281.15C451.385 281.15 452.459 245.376 453.101 231.603C453.556 221.822 455.808 216.897 465.426 215.823L477.25 216.337L489.703 217.084Z" fill="#FC7A1E"/>
<path d="M480.786 190.799C480.826 192.493 480.531 194.178 479.917 195.757C479.303 197.336 478.382 198.778 477.208 200C476.034 201.221 474.63 202.199 473.077 202.875C471.523 203.552 469.851 203.914 468.157 203.941C461.154 203.941 457.045 197.895 455.528 190.799C452.727 177.808 461.177 177.645 468.157 177.645C471.576 177.715 474.827 179.14 477.195 181.607C479.563 184.074 480.855 187.38 480.786 190.799Z" fill="#263238"/>
<path d="M487.229 196.109C487.229 196.109 485.291 205.587 484.509 207.151C484.017 208.092 483.181 208.807 482.175 209.147L482.315 202.482L487.229 196.109Z" fill="#263238"/>
<path d="M484.79 182.535C484.79 182.535 486.179 182.185 487.661 184.496C488.921 186.468 489.213 190.904 487.229 196.168L483.576 196.611L484.79 182.535Z" fill="#263238"/>
<path d="M486.132 184.461L490.614 184.543C490.645 184.253 490.615 183.96 490.527 183.682C490.439 183.405 490.295 183.148 490.103 182.929C489.911 182.71 489.676 182.532 489.412 182.408C489.149 182.284 488.862 182.216 488.571 182.208C487.958 182.217 487.371 182.452 486.92 182.868C486.47 183.283 486.189 183.851 486.132 184.461Z" fill="#263238"/>
<path d="M486.68 183.399L489.995 180.212C489.804 179.987 489.568 179.804 489.303 179.674C489.038 179.545 488.748 179.472 488.453 179.46C488.158 179.448 487.864 179.497 487.589 179.604C487.314 179.712 487.064 179.875 486.855 180.084C486.416 180.514 486.154 181.093 486.121 181.707C486.089 182.321 486.288 182.925 486.68 183.399Z" fill="#263238"/>
<path d="M482.479 196.553C483.214 197.008 484.253 195.549 485.163 194.557C486.074 193.565 488.898 192.655 490.369 195.876C491.84 199.097 489.33 202.284 487.229 203.334C483.459 205.202 482.269 202.482 482.269 202.482L481.953 217.492C476.654 225.662 464.633 225.406 468.963 217.095V212.532C467.182 212.828 465.373 212.922 463.57 212.812C460.629 212.345 458.785 209.929 457.886 206.614C456.462 201.292 455.914 196.996 457.127 186.527C458.458 175.065 471.274 174.937 478.137 179.524C485 184.111 482.479 196.553 482.479 196.553Z" fill="#FFA8A7"/>
<path d="M466.511 184.741C469.569 184.438 472.592 183.807 475.662 183.574C476.324 183.494 476.995 183.525 477.646 183.667C479.981 184.309 479.701 187.04 480.074 188.943C480.716 192.234 481.241 197.802 482.478 197.825C482.852 197.825 484.253 195.409 485.163 194.545C485.663 193.801 485.946 192.932 485.98 192.036C486.213 190.682 486.33 189.293 486.435 187.916C486.529 186.749 486.645 185.581 486.645 184.414C486.699 183.095 486.593 181.774 486.33 180.481C486.038 179.38 485.476 178.369 484.696 177.539L484.463 177.283C482.924 175.674 481.057 174.416 478.989 173.594C476.013 172.479 472.891 171.799 469.721 171.575C466.555 171.351 463.404 170.961 460.279 170.408C460.1 170.356 459.909 170.356 459.73 170.408C459.603 170.478 459.496 170.579 459.419 170.701C459.341 170.824 459.296 170.964 459.287 171.108C459.159 171.834 459.239 172.58 459.517 173.262C459.796 173.944 460.263 174.532 460.862 174.96C458.75 175.123 456.322 174.026 454.291 173.466C454.127 173.396 453.95 173.36 453.772 173.36C453.593 173.36 453.416 173.396 453.252 173.466C453.048 173.608 452.903 173.82 452.844 174.061C452.696 174.61 452.676 175.185 452.785 175.742C452.971 177.431 453.599 179.042 454.606 180.411C456.179 182.459 458.402 183.912 460.909 184.531C462.755 184.887 464.644 184.958 466.511 184.741Z" fill="#263238"/>
<path d="M468.974 212.532C468.974 212.532 475.534 211.154 477.821 209.882C479.184 209.137 480.29 207.998 480.996 206.614C480.652 208.004 480.037 209.313 479.187 210.466C477.518 212.707 468.974 214.341 468.974 214.341V212.532Z" fill="#F28F8F"/>
<path d="M470.55 194.837C470.537 195.197 470.667 195.548 470.912 195.813C471.157 196.077 471.497 196.234 471.857 196.249C472.143 196.273 472.429 196.21 472.679 196.068C472.928 195.926 473.128 195.711 473.254 195.454C473.38 195.196 473.424 194.906 473.382 194.622C473.34 194.338 473.214 194.074 473.019 193.863C472.824 193.652 472.57 193.506 472.29 193.442C472.01 193.378 471.718 193.4 471.451 193.506C471.184 193.611 470.955 193.794 470.794 194.032C470.634 194.27 470.548 194.55 470.55 194.837Z" fill="#263238"/>
<path d="M472.651 189.176L475.464 190.799C475.668 190.399 475.715 189.936 475.594 189.504C475.473 189.071 475.193 188.7 474.81 188.464C474.624 188.36 474.417 188.295 474.204 188.274C473.992 188.254 473.777 188.278 473.574 188.345C473.371 188.412 473.184 188.52 473.025 188.663C472.866 188.807 472.739 188.981 472.651 189.176Z" fill="#263238"/>
<path d="M469.558 204.303L466.558 205.47C466.618 205.676 466.72 205.867 466.858 206.032C466.995 206.196 467.165 206.331 467.356 206.427C467.548 206.524 467.757 206.58 467.971 206.592C468.185 206.604 468.4 206.572 468.601 206.497C469.009 206.321 469.335 205.997 469.513 205.589C469.691 205.182 469.707 204.722 469.558 204.303Z" fill="#F28F8F"/>
<path d="M458.481 190.378L461.049 188.324C460.934 188.145 460.783 187.992 460.604 187.875C460.426 187.758 460.226 187.68 460.015 187.646C459.805 187.612 459.59 187.622 459.384 187.677C459.178 187.731 458.986 187.829 458.82 187.962C458.477 188.253 458.253 188.66 458.19 189.106C458.128 189.551 458.231 190.004 458.481 190.378Z" fill="#263238"/>
<path d="M459.614 194.452C459.634 194.707 459.728 194.951 459.885 195.154C460.042 195.357 460.254 195.509 460.496 195.593C460.738 195.677 461 195.689 461.248 195.626C461.497 195.564 461.722 195.431 461.896 195.243C462.07 195.055 462.186 194.821 462.229 194.568C462.272 194.315 462.24 194.056 462.138 193.821C462.036 193.586 461.867 193.386 461.653 193.245C461.439 193.104 461.189 193.029 460.933 193.028C460.752 193.034 460.575 193.076 460.411 193.151C460.246 193.226 460.099 193.332 459.976 193.465C459.853 193.597 459.758 193.753 459.696 193.922C459.634 194.092 459.606 194.272 459.614 194.452Z" fill="#263238"/>
<path d="M466.651 193.355L466.5 201.653L461.784 200.58L466.651 193.355Z" fill="#F28F8F"/>
<path d="M354.672 262.861L361.99 258.635L364.885 255.122L357.578 259.347L354.672 262.861Z" fill="#FC7A1E"/>
<path opacity="0.4" d="M354.672 262.861L361.99 258.635L364.885 255.122L357.578 259.347L354.672 262.861Z" fill="black"/>
<path d="M374.572 274.346L381.891 270.12L387.995 264.716L380.688 268.93L374.572 274.346Z" fill="#FC7A1E"/>
<path opacity="0.4" d="M374.572 274.346L381.891 270.12L387.995 264.716L380.688 268.93L374.572 274.346Z" fill="black"/>
<path d="M436.737 288.924C438.467 291.243 439.514 294.001 439.76 296.884C438.037 294.56 436.991 291.805 436.737 288.924ZM453.743 289.146C451.28 272.396 442.281 255.834 431.566 249.636C426.419 246.66 421.657 246.555 417.84 248.784L410.954 252.753L410.568 252.986C410.262 253.155 409.966 253.342 409.681 253.546C409.116 253.936 408.585 254.373 408.094 254.854L407.861 255.075C407.651 255.286 407.429 255.531 407.23 255.764C407.032 255.998 406.728 256.359 406.495 256.674C406 257.327 405.551 258.013 405.153 258.729C404.943 259.091 404.744 259.476 404.557 259.896L344.412 225.184L337.106 229.397V234.066L337.725 234.416L338.308 234.755V235.689L337.141 236.377V239.085L345.977 257.76L354.707 262.814L357.613 259.312L365.317 263.923L369.74 271.498L374.619 274.311L380.724 268.895L388.217 273.225L390.738 283.625L403.332 290.908C403.954 293.555 404.734 296.162 405.666 298.716C405.748 298.973 405.853 299.242 405.958 299.533C410.137 310.505 416.778 319.901 424.271 324.231C425.169 324.764 426.11 325.22 427.084 325.597C427.599 325.801 428.125 325.977 428.66 326.122C429.127 326.246 429.594 326.351 430.06 326.437C431.534 326.706 433.045 326.706 434.519 326.437L435.126 326.285C435.416 326.227 435.701 326.145 435.978 326.04L436.632 325.783C436.863 325.7 437.086 325.594 437.297 325.468C437.513 325.375 437.723 325.27 437.927 325.153L438.231 324.966C438.286 324.948 438.337 324.921 438.382 324.885C440.051 323.928 444.16 321.547 445.28 320.916C450.836 317.695 454.431 309.548 454.431 298.028C454.422 295.054 454.192 292.085 453.743 289.146Z" fill="#FC7A1E"/>
<path d="M434.601 303.058C431.706 301.389 429.372 296.44 429.372 292.005C429.372 287.57 431.706 285.317 434.601 286.975C437.495 288.632 439.818 293.592 439.818 298.039C439.818 302.486 437.484 304.727 434.601 303.058ZM446.424 293.359C443.973 276.622 434.974 260.048 424.248 253.862C419.276 250.99 414.677 250.78 410.942 252.753L410.557 252.986C410.25 253.155 409.954 253.342 409.67 253.546C409.104 253.936 408.573 254.373 408.082 254.854L407.849 255.075C407.639 255.286 407.417 255.531 407.219 255.764C407.02 255.997 406.717 256.359 406.483 256.674C405.988 257.327 405.539 258.013 405.141 258.729C404.931 259.091 404.733 259.476 404.546 259.896C403.458 262.152 402.673 264.542 402.211 267.004L337.094 229.397V234.066L337.713 234.416L338.296 234.755V235.689L337.129 236.377V239.085L345.965 257.76L354.695 262.814L357.602 259.312L365.305 263.923L369.729 271.498L374.608 274.311L380.712 268.895L388.205 273.225L390.726 283.625L403.332 290.908C403.954 293.555 404.734 296.162 405.666 298.716C405.748 298.973 405.853 299.242 405.958 299.533C410.137 310.505 416.778 319.901 424.271 324.231C425.169 324.764 426.11 325.22 427.084 325.597C427.599 325.801 428.125 325.977 428.66 326.122C429.127 326.246 429.593 326.351 430.06 326.437C431.534 326.706 433.045 326.706 434.519 326.437L435.126 326.285C435.416 326.227 435.701 326.145 435.978 326.04L436.632 325.783C436.863 325.7 437.086 325.594 437.297 325.468C437.513 325.375 437.723 325.27 437.927 325.153L438.231 324.966C438.286 324.948 438.337 324.921 438.382 324.885C443.705 321.523 447.125 313.493 447.125 302.253C447.105 299.275 446.871 296.303 446.424 293.359Z" fill="#FC7A1E"/>
<path opacity="0.4" d="M439.818 298.028C439.818 302.475 437.484 304.727 434.601 303.058C431.718 301.389 429.372 296.452 429.372 292.005C429.372 287.558 431.706 285.305 434.601 286.975C435.434 287.482 436.16 288.148 436.737 288.935C436.987 291.818 438.034 294.573 439.76 296.896C439.802 297.271 439.822 297.65 439.818 298.028Z" fill="black"/>
<path opacity="0.4" d="M454.408 298.016C454.408 309.536 450.813 317.683 445.257 320.905C444.09 321.535 440.028 323.916 438.359 324.873C443.681 321.512 447.101 313.481 447.101 302.241C447.089 299.268 446.863 296.3 446.424 293.359C443.973 276.622 434.974 260.048 424.248 253.862C419.276 250.99 414.677 250.78 410.942 252.753L417.828 248.784C421.645 246.555 426.407 246.66 431.554 249.636C442.281 255.834 451.28 272.396 453.731 289.146C454.175 292.082 454.402 295.047 454.408 298.016Z" fill="white"/>
<path d="M447.101 302.218C447.101 313.458 443.681 321.488 438.359 324.85C440.028 323.893 444.136 321.511 445.257 320.881C450.813 317.66 454.408 309.513 454.408 297.993C454.408 297.573 454.408 297.141 454.408 296.709L447.101 300.934C447.089 301.389 447.101 301.809 447.101 302.218Z" fill="#FC7A1E"/>
<path opacity="0.1" d="M447.101 302.218C447.101 313.458 443.681 321.488 438.359 324.85C440.028 323.893 444.136 321.511 445.257 320.881C450.813 317.66 454.408 309.513 454.408 297.993C454.408 297.573 454.408 297.141 454.408 296.709L447.101 300.934C447.089 301.389 447.101 301.809 447.101 302.218Z" fill="black"/>
<path opacity="0.15" d="M402.492 271.778V274.147L337.106 236.401L338.308 235.7V234.72L402.492 271.778Z" fill="black"/>
<path opacity="0.15" d="M402.492 272.758V274.147L337.106 236.401L338.308 235.7V235.689L402.492 272.758Z" fill="black"/>
<path opacity="0.15" d="M430.924 320.893C428.446 320.828 426.029 320.108 423.921 318.804C413.264 312.653 404.592 294.351 404.592 278.011C404.592 268.475 407.475 261.355 412.506 258.449C416.007 256.418 420.151 256.674 424.504 259.184C435.149 265.335 443.821 283.695 443.821 300.035C443.821 309.56 440.938 316.691 435.908 319.586C434.39 320.452 432.671 320.903 430.924 320.893ZM417.56 258.274C416.004 258.265 414.474 258.668 413.124 259.441C408.537 262.09 405.794 269.035 405.794 277.999C405.794 293.966 414.198 311.847 424.539 317.777C428.496 320.111 432.243 320.321 435.359 318.524C439.946 315.874 442.689 308.941 442.689 299.977C442.689 283.998 434.285 266.129 423.956 260.188C422.025 259.013 419.819 258.369 417.56 258.32V258.274Z" fill="black"/>
<path opacity="0.4" d="M404.499 259.873C403.411 262.129 402.626 264.519 402.165 266.981L337.047 229.374L344.354 225.161L404.499 259.873Z" fill="white"/>
<path d="M489.132 263.526C492.54 257.071 496.438 242.575 498.376 235.257C501.13 224.869 496.672 218.333 491.606 218.064C488.443 218.554 478.02 256.453 478.02 256.453C476.853 257.375 461.014 265.417 455.925 267.436C455.015 267.78 454.011 267.78 453.101 267.436C450.661 266.549 448.992 266.712 446.599 266.479C444.72 266.292 443.775 265.627 443.53 266.024C443.307 266.516 443.278 267.074 443.449 267.587C443.62 268.1 443.978 268.529 444.452 268.79C445.482 269.39 446.579 269.868 447.72 270.214C445.674 270.834 443.542 271.122 441.405 271.066C436.503 270.961 434.741 273.085 438.546 278.069C440.88 281.174 444.744 282.154 453.369 279.178C455.844 278.314 459.205 276.645 462.345 275.513C468.811 273.178 470.515 272.898 475.441 271.229C482.619 268.802 487.614 266.397 489.132 263.526Z" fill="#FFA8A7"/>
<path d="M489.703 217.084C492.68 217.492 495.539 218.157 497.302 220.585C499.064 223.013 500.476 226.421 498.749 235.7C497.426 242.226 495.655 248.653 493.45 254.935C493.45 254.935 486.517 257.9 479.152 250.383L484.217 230.798C484.217 230.798 485.034 218.064 489.703 217.084Z" fill="#455A64"/>
</svg>
