<svg width="220" height="51" viewBox="0 0 220 51" fill="none" xmlns="http://www.w3.org/2000/svg">
<g clip-path="url(#clip0_271_1029)">
<path d="M117.387 31.1095V17.9337H120.315V30.5928C120.315 33.1476 120.746 35.0565 121.607 36.3195C122.497 37.5826 123.803 38.2141 125.525 38.2141C126.674 38.2141 127.778 37.9701 128.841 37.4821C129.931 36.9654 130.893 36.2478 131.726 35.3292C132.558 34.3819 133.19 33.2911 133.62 32.0568V17.9337H136.548V36.8362C136.548 37.2381 136.634 37.5395 136.806 37.7405C136.979 37.9127 137.237 38.0131 137.581 38.0419V40.367C137.237 40.3957 136.965 40.4101 136.763 40.4101C136.562 40.4388 136.376 40.4531 136.204 40.4531C135.63 40.3957 135.127 40.166 134.697 39.7642C134.295 39.3623 134.08 38.8743 134.051 38.3002L133.965 35.2861C132.988 37.0085 131.654 38.3576 129.96 39.3336C128.295 40.3096 126.487 40.7976 124.535 40.7976C122.181 40.7976 120.401 39.9795 119.196 38.3433C117.99 36.7071 117.387 34.2958 117.387 31.1095ZM176.538 40.367H173.61V27.8371C173.61 25.2249 173.194 23.3017 172.362 22.0673C171.529 20.833 170.295 20.2158 168.659 20.2158C166.965 20.2158 165.443 20.8186 164.094 22.0242C162.774 23.2299 161.841 24.78 161.296 26.6745V40.367H158.368V27.8371C158.368 25.1962 157.966 23.2729 157.162 22.0673C156.358 20.833 155.124 20.2158 153.459 20.2158C151.794 20.2158 150.287 20.8043 148.938 21.9812C147.589 23.1581 146.642 24.7082 146.096 26.6315V40.367H143.168V17.9337H145.838V23.0146C146.785 21.2635 147.991 19.9144 149.455 18.9671C150.948 18.0198 152.598 17.5462 154.406 17.5462C156.272 17.5462 157.779 18.0772 158.928 19.1394C160.076 20.2015 160.779 21.5937 161.037 23.316C162.071 21.4214 163.305 19.9862 164.74 19.0102C166.204 18.0342 167.855 17.5462 169.692 17.5462C170.955 17.5462 172.017 17.7758 172.878 18.2351C173.768 18.6944 174.472 19.3546 174.988 20.2158C175.534 21.0482 175.921 22.0673 176.151 23.2729C176.409 24.4498 176.538 25.7703 176.538 27.2343V40.367Z" fill="#0E63C2"/>
<path d="M21.3234 15.5879C20.8928 15.0999 20.3905 14.6693 19.8164 14.2961C19.2423 13.8943 18.5964 13.5498 17.8788 13.2628C17.1611 12.9757 16.3861 12.7461 15.5536 12.5738C14.7499 12.4016 13.8887 12.3155 12.9702 12.3155C10.3005 12.3155 8.33421 12.8322 7.07119 13.8656C5.83686 14.8702 5.21969 16.2481 5.21969 17.9991C5.21969 19.2048 5.50675 20.152 6.08086 20.841C6.68367 21.5299 7.61662 22.0897 8.87963 22.5202C10.1426 22.9508 11.7502 23.3957 13.7021 23.855C15.8838 24.3144 17.7639 24.8597 19.3428 25.4913C20.9216 26.1228 22.1415 26.984 23.0027 28.0747C23.8639 29.1369 24.2944 30.5864 24.2944 32.4236C24.2944 33.8302 24.0218 35.0502 23.4763 36.0836C22.9309 37.1169 22.1703 37.9781 21.1942 38.667C20.2182 39.356 19.0557 39.8727 17.7065 40.2171C16.3574 40.5329 14.879 40.6908 13.2716 40.6908C11.6927 40.6908 10.1714 40.5329 8.7074 40.2171C7.27215 39.8727 5.90862 39.3847 4.61688 38.7532C3.32514 38.093 2.11951 37.2605 1 36.2558L2.50703 33.8015C3.05244 34.3756 3.69831 34.921 4.44465 35.4377C5.21969 35.9256 6.06651 36.3706 6.98508 36.7725C7.93235 37.1743 8.93702 37.4901 9.99914 37.7198C11.0899 37.9207 12.2094 38.0212 13.3577 38.0212C15.7977 38.0212 17.6922 37.5763 19.0413 36.6864C20.4192 35.7965 21.1081 34.4761 21.1081 32.725C21.1081 31.462 20.7637 30.4573 20.0747 29.711C19.3858 28.9359 18.3524 28.3044 16.9746 27.8164C15.5967 27.3284 13.9031 26.8548 11.8937 26.3955C9.76952 25.9075 7.97541 25.3621 6.51144 24.7593C5.04746 24.1565 3.9423 23.3671 3.19596 22.3911C2.47833 21.3864 2.11951 20.0659 2.11951 18.4297C2.11951 16.5352 2.5788 14.942 3.49737 13.6503C4.44465 12.3298 5.73639 11.3395 7.3726 10.6793C9.00881 9.99034 10.889 9.64587 13.0132 9.64587C14.3623 9.64587 15.611 9.78938 16.7593 10.0765C17.9362 10.3348 19.0126 10.7223 19.9886 11.239C20.9933 11.7557 21.9262 12.4016 22.7874 13.1766L21.3234 15.5879ZM39.392 39.356C39.1624 39.4421 38.8035 39.6 38.3156 39.8296C37.8276 40.0592 37.2391 40.2602 36.5502 40.4324C35.8613 40.6047 35.1149 40.6908 34.3112 40.6908C33.4787 40.6908 32.6893 40.5329 31.943 40.2171C31.2253 39.9014 30.6512 39.4278 30.2206 38.7962C29.7901 38.136 29.5748 37.3322 29.5748 36.385V20.3243H26.4746V17.9991H29.5748V10.4209H32.5027V17.9991H37.6697V20.3243H32.5027V35.5669C32.5601 36.3706 32.8472 36.9734 33.3639 37.3753C33.9093 37.7771 34.5265 37.9781 35.2154 37.9781C36.0192 37.9781 36.7511 37.8489 37.4113 37.5906C38.0715 37.3035 38.4735 37.1026 38.617 36.9878L39.392 39.356ZM42.835 31.1749V17.9991H45.7629V30.6582C45.7629 33.213 46.1935 35.1219 47.0547 36.385C47.9446 37.648 49.2506 38.2795 50.973 38.2795C52.1212 38.2795 53.2263 38.0355 54.2884 37.5475C55.3792 37.0308 56.3409 36.3132 57.1733 35.3946C58.0058 34.4473 58.6373 33.3566 59.0679 32.1222V17.9991H61.9958V36.9017C61.9958 37.3035 62.082 37.6049 62.2542 37.8059C62.4264 37.9781 62.6848 38.0786 63.0292 38.1073V40.4324C62.6848 40.4611 62.4121 40.4755 62.2111 40.4755C62.0102 40.5042 61.8236 40.5185 61.6514 40.5185C61.0773 40.4611 60.5749 40.2315 60.1443 39.8296C59.7425 39.4278 59.5272 38.9397 59.4985 38.3656L59.4124 35.3516C58.4363 37.0739 57.1015 38.423 55.408 39.399C53.743 40.375 51.9346 40.863 49.9826 40.863C47.6288 40.863 45.8491 40.0449 44.6434 38.4087C43.4378 36.7725 42.835 34.3612 42.835 31.1749ZM67.109 29.2804C67.109 27.1562 67.5396 25.2186 68.4007 23.4675C69.2908 21.6878 70.5106 20.2669 72.0607 19.2048C73.6108 18.1426 75.3761 17.6116 77.3568 17.6116C79.2224 17.6116 80.8876 18.114 82.3516 19.1187C83.8445 20.0947 85.007 21.2859 85.8393 22.6925V9H88.7672V36.9017C88.7672 37.3035 88.8533 37.6049 89.0256 37.8059C89.1978 37.9781 89.4561 38.0786 89.8006 38.1073V40.4324C89.2267 40.5185 88.7813 40.5473 88.4658 40.5185C87.863 40.4898 87.3322 40.2459 86.8727 39.7866C86.4131 39.3272 86.1837 38.8249 86.1837 38.2795V36.0836C85.2936 37.5475 84.088 38.7101 82.5668 39.5713C81.0457 40.4324 79.4667 40.863 77.8305 40.863C76.2804 40.863 74.8453 40.5473 73.5247 39.9157C72.2329 39.2842 71.0993 38.423 70.1231 37.3322C69.1758 36.2415 68.4297 35.0071 67.884 33.6292C67.3673 32.2227 67.109 30.7731 67.109 29.2804ZM85.8393 32.725V25.7927C85.4659 24.7593 84.8631 23.8263 84.0308 22.9939C83.1986 22.1327 82.2513 21.4581 81.189 20.9702C80.1556 20.4535 79.1222 20.1951 78.0888 20.1951C76.8832 20.1951 75.7926 20.4535 74.8164 20.9702C73.8402 21.4581 72.9938 22.1327 72.276 22.9939C71.587 23.8551 71.0562 24.8311 70.6828 25.9218C70.3094 27.0126 70.1231 28.1321 70.1231 29.2804C70.1231 30.486 70.3242 31.6342 70.7259 32.725C71.1564 33.8158 71.7593 34.7918 72.5343 35.653C73.3094 36.4854 74.1994 37.1313 75.2039 37.5906C76.2084 38.0499 77.2996 38.2795 78.4763 38.2795C79.2224 38.2795 79.9975 38.136 80.8015 37.8489C81.6054 37.5619 82.3657 37.1743 83.0835 36.6864C83.8297 36.1697 84.4473 35.5669 84.935 34.8779C85.4228 34.189 85.7242 33.4713 85.8393 32.725ZM96.6933 47.3217C97.0949 47.3504 97.4824 47.3648 97.8552 47.3648C98.2286 47.3935 98.5017 47.3791 98.6739 47.3217C99.0184 47.2643 99.3481 47.0634 99.6643 46.7189C99.9798 46.3744 100.353 45.7142 100.784 44.7382C101.214 43.7622 101.817 42.327 102.592 40.4324L92.818 17.9991H95.9182L104.142 37.4184L111.721 17.9991H114.648L103.023 46.9342C102.822 47.4796 102.52 47.9819 102.119 48.4412C101.716 48.9292 101.214 49.3024 100.612 49.5607C100.037 49.8478 99.3198 50.0057 98.4586 50.0344C98.2003 50.0631 97.9271 50.0631 97.6405 50.0344C97.3822 50.0344 97.066 50.0056 96.6933 49.9483V47.3217Z" fill="#2CD5E2"/>
</g>
<defs>
<clipPath id="clip0_271_1029">
<rect width="220" height="50.4587" fill="white"/>
</clipPath>
</defs>
</svg>
