<svg width="180" height="180" viewBox="0 0 180 180" fill="none" xmlns="http://www.w3.org/2000/svg">
<circle cx="90" cy="90" r="88" fill="#007090" stroke="url(#paint0_linear_433_886)" stroke-width="4"/>
<path d="M118.125 160.312V162.656H61.8747C61.7027 161.081 61.8461 159.488 62.2966 157.969C62.7804 156.601 63.675 155.416 64.8583 154.577C66.0414 153.738 67.4554 153.285 68.906 153.281H111.093C112.958 153.281 114.747 154.022 116.066 155.341C117.384 156.659 118.125 158.448 118.125 160.312Z" fill="url(#paint1_linear_433_886)"/>
<path d="M94.6875 130.664V153.281H85.3125V132" fill="url(#paint2_linear_433_886)"/>
<path d="M34.2188 112.969C46.5264 125.277 63.2193 132.191 80.6251 132.191C98.0307 132.191 114.724 125.277 127.031 112.969C139.339 100.662 146.253 83.9686 146.253 66.563C146.253 49.1574 139.339 32.4644 127.031 20.1567L120.469 26.7192C131.036 37.2865 136.973 51.6188 136.973 66.563C136.973 81.5072 131.036 95.8395 120.469 106.407C109.902 116.974 95.5693 122.91 80.6251 122.91C65.6807 122.91 51.3484 116.974 40.7814 106.407L34.2188 112.969Z" fill="url(#paint3_linear_433_886)"/>
<path d="M33.75 115.782C33.2844 115.785 32.8286 115.649 32.4407 115.392C32.0528 115.134 31.7503 114.767 31.5718 114.337C31.3932 113.907 31.3468 113.434 31.4384 112.977C31.5299 112.521 31.7554 112.102 32.0859 111.774L45.8204 98.0399C46.2617 97.5986 46.8603 97.3506 47.4844 97.3506C48.1086 97.3506 48.7072 97.5986 49.1485 98.0399C49.5898 98.4812 49.8376 99.0798 49.8376 99.7039C49.8376 100.328 49.5898 100.927 49.1485 101.368C34.4062 116.087 35.1093 115.782 33.75 115.782Z" fill="#8288A1"/>
<path d="M113.766 35.7662C113.3 35.7689 112.844 35.6329 112.456 35.3756C112.068 35.1182 111.766 34.7512 111.587 34.3212C111.409 33.8913 111.362 33.4179 111.454 32.9614C111.546 32.505 111.771 32.0862 112.102 31.7584L125.836 18.024C126.277 17.5827 126.876 17.3347 127.5 17.3347C128.124 17.3347 128.723 17.5827 129.164 18.024C129.605 18.4653 129.853 19.0639 129.853 19.6881C129.853 20.3122 129.605 20.9108 129.164 21.3521C114.422 36.0943 115.125 35.7662 113.766 35.7662Z" fill="#8288A1"/>
<path d="M118.125 162.656H61.8747C61.7027 161.081 61.8461 159.488 62.2966 157.969H117.703C118.147 159.489 118.291 161.081 118.125 162.656Z" fill="#8A6762"/>
<path d="M124.125 49.079C127.815 58.2787 128.494 68.4114 126.064 78.0212C123.635 87.6311 118.221 96.2233 110.602 102.563C75.9375 131.579 23.4843 98.7196 35.3671 54.4227C47.0157 10.8992 107.461 7.5711 124.125 49.079Z" fill="url(#paint4_linear_433_886)"/>
<path d="M68.5078 111.82C57.9602 108.995 48.7298 102.577 42.4099 93.672C36.0898 84.7676 33.0767 73.9359 33.8907 63.0469C34.8044 74.8153 40.1243 85.8061 48.788 93.8231C57.4516 101.84 68.8212 106.294 80.625 106.294C92.4291 106.294 103.799 101.84 112.462 93.8231C121.126 85.8061 126.446 74.8153 127.359 63.0469C127.916 70.5089 126.679 77.996 123.75 84.8817C120.821 91.7677 116.287 97.8525 110.525 102.627C104.764 107.402 97.9432 110.728 90.6333 112.328C83.3234 113.927 75.7369 113.753 68.5078 111.82Z" fill="#77CACB"/>
<path d="M66.0934 67.2195C67.7575 70.1023 70.6168 68.4382 75.1403 69.5632C79.6637 70.6882 89.7653 78.4226 88.57 82.9695C87.3747 87.5164 79.359 90.1882 73.5934 93.5164C67.8278 96.8445 65.4137 105.868 65.4137 105.868L62.109 100.149C60.445 97.2664 68.0153 87.1414 68.6247 84.8679C69.234 82.5945 63.6559 76.2664 66.5153 74.6257C69.3747 72.9851 67.7575 70.1023 66.0934 67.2195Z" fill="url(#paint5_linear_433_886)"/>
<path d="M82.9688 49.8757C80.9217 50.2198 78.9923 51.0684 77.3555 52.3451C75.7188 53.622 74.4258 55.2865 73.5938 57.1882C72.9844 59.532 66.7734 55.3601 63.9141 57.0241C61.0547 58.6882 64.3828 64.4304 66.0234 67.2898C64.3828 64.4304 58.1719 60.2585 54.3047 56.8601C50.4375 53.4616 52.8281 44.321 53.4141 42.071C53.8828 40.2663 50.4844 35.907 48.2109 32.696C51.6914 29.4116 55.6409 26.6628 59.9297 24.5398C81.9609 31.2195 74.5547 31.407 77.1797 35.9304C78.8437 38.7898 76.8516 36.1414 81.375 37.3367C85.8984 38.532 88.0078 48.821 82.9688 49.8757Z" fill="url(#paint6_linear_433_886)"/>
<path d="M110.601 102.562C108.562 98.9062 111.328 88.5 112.43 84.4922C113.625 79.9687 100.055 76.3359 101.273 71.7891C102.492 67.2422 108.305 63.9375 108.305 63.9375C111.164 62.2969 117.375 66.2813 121.898 67.5938C126.422 68.9063 118.57 61.8516 112.992 55.5C107.414 49.1484 117.867 54.3047 124.219 49.0781C127.899 58.2874 128.563 68.4263 126.116 78.0368C123.669 87.6473 118.237 96.2344 110.601 102.562Z" fill="url(#paint7_linear_433_886)"/>
<path d="M111.938 31.6877C111.287 32.8762 110.994 34.2273 111.094 35.5784C111.539 42.9611 100.195 39.9376 94.4531 43.2423C88.7109 46.547 90.5391 39.7736 92.9531 30.7034C95.3672 21.6331 85.7344 21.4924 85.7344 21.4924C85.8984 20.9065 86.0156 20.4377 86.1797 20.0159C95.7654 21.1516 104.764 25.2292 111.938 31.6877Z" fill="url(#paint8_linear_433_886)"/>
<path d="M94.6875 146.25H85.3125V153.281H94.6875V146.25Z" fill="#8288A1"/>
<path d="M110.602 102.563C109.821 100.467 109.618 98.2003 110.016 96C115.019 91.9969 119.142 87.0037 122.127 81.3335C125.111 75.663 126.893 69.4376 127.36 63.0469C127.941 70.4946 126.721 77.9728 123.805 84.8503C120.888 91.7278 116.36 97.8028 110.602 102.563Z" fill="#4DA67F"/>
<defs>
<linearGradient id="paint0_linear_433_886" x1="90" y1="0" x2="90" y2="180" gradientUnits="userSpaceOnUse">
<stop stop-color="#05ACDC"/>
<stop offset="1" stop-opacity="0"/>
</linearGradient>
<linearGradient id="paint1_linear_433_886" x1="89.9997" y1="162.656" x2="89.9997" y2="153.281" gradientUnits="userSpaceOnUse">
<stop stop-color="#9B756D"/>
<stop offset="1" stop-color="#BC9388"/>
</linearGradient>
<linearGradient id="paint2_linear_433_886" x1="90" y1="153.281" x2="90" y2="130.664" gradientUnits="userSpaceOnUse">
<stop stop-color="#949AAF"/>
<stop offset="1" stop-color="#C6CCDA"/>
</linearGradient>
<linearGradient id="paint3_linear_433_886" x1="90.2343" y1="132.188" x2="90.2343" y2="20.1567" gradientUnits="userSpaceOnUse">
<stop stop-color="#949AAF"/>
<stop offset="1" stop-color="#C6CCDA"/>
</linearGradient>
<linearGradient id="paint4_linear_433_886" x1="80.5782" y1="113.532" x2="80.5782" y2="19.782" gradientUnits="userSpaceOnUse">
<stop stop-color="#9DD5DF"/>
<stop offset="1" stop-color="#C3E1F5"/>
</linearGradient>
<linearGradient id="paint5_linear_433_886" x1="75.2809" y1="105.868" x2="75.2809" y2="67.2195" gradientUnits="userSpaceOnUse">
<stop stop-color="#6AB891"/>
<stop offset="1" stop-color="#85CBA9"/>
</linearGradient>
<linearGradient id="paint6_linear_433_886" x1="67.0547" y1="67.2195" x2="67.0547" y2="24.5164" gradientUnits="userSpaceOnUse">
<stop stop-color="#6AB891"/>
<stop offset="1" stop-color="#85CBA9"/>
</linearGradient>
<linearGradient id="paint7_linear_433_886" x1="114.351" y1="102.562" x2="114.351" y2="49.0781" gradientUnits="userSpaceOnUse">
<stop stop-color="#6AB891"/>
<stop offset="1" stop-color="#85CBA9"/>
</linearGradient>
<linearGradient id="paint8_linear_433_886" x1="98.7891" y1="44.1095" x2="98.7891" y2="20.0159" gradientUnits="userSpaceOnUse">
<stop stop-color="#6AB891"/>
<stop offset="1" stop-color="#85CBA9"/>
</linearGradient>
</defs>
</svg>
