<svg width="450" height="451" viewBox="0 0 450 451" fill="none" xmlns="http://www.w3.org/2000/svg">
<path d="M225 450.17C349.264 450.17 450 392.011 450 320.269C450 248.526 349.264 190.368 225 190.368C100.736 190.368 0 248.526 0 320.269C0 392.011 100.736 450.17 225 450.17Z" fill="#F5F5F5"/>
<path d="M263.511 391.693C286.36 391.693 304.882 380.999 304.882 367.808C304.882 354.617 286.36 343.924 263.511 343.924C240.663 343.924 222.141 354.617 222.141 367.808C222.141 380.999 240.663 391.693 263.511 391.693Z" fill="#E0E0E0"/>
<path d="M371.138 377.546C393.986 377.546 412.508 366.852 412.508 353.661C412.508 340.47 393.986 329.777 371.138 329.777C348.289 329.777 329.767 340.47 329.767 353.661C329.767 366.852 348.289 377.546 371.138 377.546Z" fill="#E0E0E0"/>
<path d="M144.848 427.505C167.696 427.505 186.219 416.811 186.219 403.62C186.219 390.429 167.696 379.736 144.848 379.736C121.999 379.736 103.477 390.429 103.477 403.62C103.477 416.811 121.999 427.505 144.848 427.505Z" fill="#E0E0E0"/>
<path d="M77.0427 325.078C77.0427 325.078 75.963 299.823 65.3753 285.766C54.7877 271.71 41.8106 269.69 35.382 273.649C30.683 276.528 31.3129 285.087 39.4411 290.645C47.5693 296.204 63.2358 310.451 65.6852 319.739L77.0427 325.078Z" fill="#7EDBBF"/>
<path d="M70.0444 321.399C69.8729 321.386 69.7132 321.306 69.5993 321.178C69.4854 321.049 69.4263 320.88 69.4346 320.709C70.5243 297.794 50.4388 283.507 44.97 280.938C44.8131 280.864 44.6915 280.731 44.6316 280.568C44.5718 280.405 44.5784 280.226 44.6501 280.068C44.7259 279.91 44.8604 279.788 45.0248 279.729C45.1892 279.669 45.3705 279.676 45.5299 279.748C51.1386 282.407 71.864 297.134 70.7443 320.739C70.7339 320.912 70.6557 321.074 70.5266 321.19C70.3975 321.306 70.2278 321.367 70.0544 321.359L70.0444 321.399Z" fill="white"/>
<path d="M72.0439 317.099C70.6005 317.08 69.2125 316.54 68.1348 315.58C66.9051 314.23 67.0051 312.161 66.4352 310.421C65.5054 307.562 62.686 305.622 59.7467 305.012C56.7663 304.547 53.7199 304.752 50.8287 305.612C44.93 307.062 39.2612 303.433 33.3525 303.862C31.2206 303.931 29.1472 304.577 27.3539 305.732C26.4693 306.317 25.7446 307.114 25.2454 308.049C24.7461 308.985 24.488 310.03 24.4945 311.091C24.6972 312.846 25.5714 314.455 26.934 315.58C28.3002 316.702 29.8057 317.643 31.413 318.379L36.6018 321.029C37.4988 321.427 38.3259 321.967 39.0513 322.628C39.7368 323.363 40.2538 324.238 40.5664 325.193C40.8789 326.148 40.9794 327.159 40.8609 328.157C40.461 330.157 38.8613 331.676 38.3514 333.636C37.7216 336.205 39.2912 338.955 41.5507 340.344C43.8976 341.615 46.5766 342.138 49.229 341.844C51.8784 341.694 54.4978 341.164 57.1472 341.114C58.9398 340.986 60.7312 341.378 62.3061 342.244C64.0846 343.532 65.366 345.392 65.9353 347.513C66.2787 348.873 66.8247 350.174 67.5549 351.372C68.4553 352.51 69.6678 353.361 71.0442 353.821C73.7062 354.801 76.6303 354.801 79.2923 353.821C81.4818 352.982 82.5516 350.512 83.3714 348.373C84.1906 346.133 84.5807 343.758 84.5212 341.374C84.3952 335.246 83.0102 329.209 80.4521 323.638C79.2223 321.079 77.4527 318.519 74.7333 317.639C73.8526 317.388 72.9533 317.208 72.0439 317.099Z" fill="#BFEDDF"/>
<path d="M77.7227 344.573C77.6018 344.574 77.4838 344.536 77.3852 344.467C77.2867 344.397 77.2124 344.298 77.1728 344.183C71.0042 326.497 41.8206 311.111 31.183 309.341C31.1075 309.329 31.0352 309.302 30.9702 309.261C30.9053 309.221 30.8489 309.168 30.8043 309.106C30.7598 309.043 30.7279 308.973 30.7105 308.899C30.6932 308.824 30.6906 308.747 30.7031 308.671C30.7156 308.596 30.7428 308.524 30.7832 308.459C30.8236 308.394 30.8764 308.337 30.9386 308.293C31.0008 308.248 31.0712 308.216 31.1457 308.199C31.2203 308.181 31.2975 308.179 31.373 308.191C42.2505 309.991 72.0139 325.718 78.3625 343.794C78.3893 343.866 78.4012 343.944 78.3975 344.021C78.3938 344.099 78.3746 344.175 78.341 344.245C78.3075 344.314 78.2602 344.377 78.2021 344.428C78.144 344.48 78.0761 344.519 78.0026 344.543C77.9127 344.574 77.817 344.585 77.7227 344.573Z" fill="white"/>
<path d="M51.4885 334.876C51.3768 334.866 51.2703 334.825 51.1816 334.756C51.093 334.688 51.0261 334.595 50.9891 334.489C50.9521 334.383 50.9465 334.269 50.973 334.16C50.9996 334.051 51.0571 333.953 51.1386 333.876C55.9104 330.575 61.5535 328.762 67.355 328.667C67.4969 328.686 67.6273 328.755 67.7217 328.863C67.8162 328.97 67.8682 329.109 67.8682 329.252C67.8682 329.395 67.8162 329.533 67.7217 329.641C67.6273 329.748 67.4969 329.818 67.355 329.837C61.8057 329.971 56.4137 331.707 51.8284 334.836C51.7214 334.882 51.6033 334.895 51.4885 334.876Z" fill="white"/>
<path d="M78.0426 358.25C77.4139 357.823 76.8945 357.254 76.5263 356.589C76.1581 355.923 75.9515 355.181 75.9231 354.421V146.077C75.9666 145.294 76.1938 144.532 76.5863 143.853C76.9789 143.174 77.5257 142.597 78.1826 142.168L323.288 0.649803C323.939 0.239894 324.69 0.0154906 325.46 0.000773553C326.229 -0.0139435 326.988 0.181583 327.655 0.566285C328.321 0.950988 328.87 1.51028 329.242 2.1839C329.614 2.85752 329.796 3.61993 329.767 4.38897V212.743C329.723 213.526 329.496 214.288 329.103 214.967C328.711 215.646 328.164 216.223 327.507 216.652L82.4017 358.17C81.7318 358.523 80.9886 358.714 80.2316 358.728C79.4747 358.742 78.725 358.578 78.0426 358.25Z" fill="#455A64"/>
<path d="M81.9718 358.36H81.8818C81.8134 358.401 81.7393 358.432 81.6618 358.45H81.4919C81.3915 358.485 81.2875 358.509 81.1819 358.52C81.1149 358.547 81.0441 358.564 80.972 358.57L80.632 358.62C79.7399 358.741 78.8323 358.584 78.0326 358.17C77.4048 357.745 76.8864 357.178 76.5198 356.514C76.1532 355.85 75.9487 355.109 75.9231 354.351V172.782L80.1622 175.231V356.861C80.1622 357.86 80.672 358.48 81.4119 358.48C81.5113 358.495 81.6124 358.495 81.7118 358.48C81.8041 358.454 81.8917 358.413 81.9718 358.36Z" fill="#FC7A1E"/>
<path opacity="0.81" d="M81.9718 358.36H81.8818C81.8134 358.401 81.7393 358.432 81.6618 358.45H81.4919C81.3915 358.485 81.2875 358.509 81.1819 358.52C81.1149 358.547 81.0441 358.564 80.972 358.57L80.632 358.62C79.7399 358.741 78.8323 358.584 78.0326 358.17C77.4048 357.745 76.8864 357.178 76.5198 356.514C76.1532 355.85 75.9487 355.109 75.9231 354.351V172.782L80.1622 175.231V356.861C80.1622 357.86 80.672 358.48 81.4119 358.48C81.5113 358.495 81.6124 358.495 81.7118 358.48C81.8041 358.454 81.8917 358.413 81.9718 358.36Z" fill="#E0E0E0"/>
<path d="M80.1521 175.231L75.9131 172.782V213.123L80.1521 215.592V175.231Z" fill="#FC7A1E"/>
<path opacity="0.15" d="M80.1521 175.231L75.9131 172.782V213.123L80.1521 215.592V175.231Z" fill="black"/>
<path d="M80.8021 146.297C80.402 146.971 80.1784 147.734 80.1522 148.517V175.231L75.9132 172.782V146.077C75.9082 145.988 75.9082 145.897 75.9132 145.808C75.9325 145.619 75.9626 145.432 76.0031 145.248C76.1277 144.759 76.316 144.288 76.563 143.848L80.8021 146.297Z" fill="#263238"/>
<path d="M329.767 4.39895V16.4563L150.097 120.183C148.857 120.903 147.847 120.313 147.847 118.884V114.315C147.847 112.885 146.847 112.315 145.588 113.015L90.8697 144.618C90.2128 145.046 89.666 145.624 89.2735 146.303C88.8809 146.982 88.6537 147.744 88.6102 148.527V153.086C88.5678 153.868 88.3421 154.63 87.9514 155.309C87.5606 155.988 87.0158 156.565 86.3607 156.995L80.1521 160.614V148.617C80.1945 147.835 80.4202 147.073 80.8109 146.394C81.2017 145.715 81.7466 145.138 82.4016 144.708L327.517 3.09924C328.757 2.3794 329.767 2.95927 329.767 4.39895Z" fill="#37474F"/>
<path d="M329.777 212.753C329.732 213.534 329.504 214.294 329.111 214.971C328.719 215.649 328.173 216.224 327.517 216.652L82.4016 358.17C81.1619 358.88 80.1521 358.3 80.1521 356.861V160.614L86.3607 157.035C87.6004 156.315 89.62 145.378 90.8697 144.658L144.668 113.595C145.917 112.875 148.857 120.953 150.097 120.233L329.767 16.4563V212.753H329.777Z" fill="#FC7A1E"/>
<path opacity="0.9" d="M329.777 212.753C329.732 213.534 329.504 214.294 329.111 214.971C328.719 215.649 328.173 216.224 327.517 216.652L82.4016 358.17C81.1619 358.88 80.1521 358.3 80.1521 356.861V160.614L86.3607 157.035C87.6004 156.315 89.62 145.378 90.8697 144.658L144.668 113.595C145.917 112.875 148.857 120.953 150.097 120.233L329.767 16.4563V212.753H329.777Z" fill="white"/>
<g opacity="0.4">
<path d="M328.767 18.1859V212.753C328.718 213.353 328.535 213.934 328.23 214.454C327.925 214.973 327.507 215.417 327.007 215.752L81.9017 357.301C81.7504 357.403 81.5741 357.461 81.3918 357.47C81.1619 357.47 81.1519 356.971 81.1519 356.861V161.144L86.8606 157.845C87.7404 157.335 88.3003 155.585 89.56 151.086C90.0174 149.148 90.6464 147.254 91.4396 145.428L144.798 114.624C145.436 115.495 146.011 116.41 146.517 117.364C147.967 119.903 148.767 121.223 149.927 121.223C150.16 121.222 150.391 121.164 150.596 121.053L328.767 18.1859ZM329.767 16.4563L150.097 120.183C150.041 120.197 149.982 120.197 149.927 120.183C148.667 120.183 146.107 113.455 144.838 113.455C144.782 113.44 144.724 113.44 144.668 113.455L90.8697 144.618C89.62 145.338 87.6004 156.275 86.3607 156.995L80.1521 160.614V356.861C80.1521 357.86 80.662 358.47 81.3918 358.47C81.7449 358.456 82.0887 358.353 82.3916 358.17L327.517 216.652C328.173 216.224 328.719 215.649 329.111 214.971C329.504 214.294 329.732 213.534 329.777 212.753V16.4563H329.767Z" fill="#FC7A1E"/>
</g>
<path d="M80.1521 175.231V215.592L329.767 71.4941V31.123L80.1521 175.231Z" fill="#FC7A1E"/>
<path d="M329.767 16.4563V31.123L80.1521 175.231V160.614L84.7811 157.935C86.0208 157.215 86.4407 156.115 87.0306 154.026L88.6102 148.567C89.1001 146.667 89.61 145.378 90.8697 144.658L144.668 113.595C145.917 112.875 146.897 112.795 147.847 114.365L149.777 117.864C150.476 119.093 150.836 119.813 152.076 119.093L329.767 16.4563Z" fill="#F0F0F0"/>
<path d="M319.189 11.9573C320.759 11.0575 322.029 11.7873 322.029 13.5969C321.975 14.5823 321.69 15.5411 321.197 16.3958C320.704 17.2504 320.016 17.9767 319.189 18.5158C317.63 19.4156 316.36 18.6858 316.36 16.8762C316.414 15.8921 316.698 14.9344 317.189 14.0801C317.681 13.2257 318.366 12.4987 319.189 11.9573Z" fill="#FC7A1E"/>
<path d="M308.991 17.846C310.551 16.9462 311.821 17.6761 311.821 19.4857C311.767 20.4697 311.483 21.4275 310.991 22.2818C310.5 23.1361 309.815 23.8632 308.991 24.4046C307.422 25.3044 306.152 24.5745 306.152 22.7649C306.206 21.7796 306.49 20.8207 306.984 19.9661C307.477 19.1114 308.165 18.3851 308.991 17.846Z" fill="#FC7A1E"/>
<path d="M298.764 23.7347C300.323 22.8349 301.603 23.5647 301.603 25.3743C301.547 26.3591 301.261 27.3171 300.768 28.1714C300.275 29.0256 299.589 29.7524 298.764 30.2932C297.194 31.203 295.924 30.4632 295.924 28.6536C295.978 27.6682 296.263 26.7094 296.756 25.8547C297.249 25.0001 297.937 24.2738 298.764 23.7347Z" fill="#FC7A1E"/>
<path opacity="0.5" d="M90.4899 161.614L86.9507 163.614L88.3004 161.024C88.3538 160.926 88.3817 160.816 88.3817 160.704C88.3817 160.592 88.3538 160.483 88.3004 160.384C88.2004 160.264 88.0204 160.384 87.9005 160.574L85.9809 164.273C85.9767 164.32 85.9767 164.367 85.9809 164.413C85.9765 164.477 85.9765 164.54 85.9809 164.603C85.9748 164.66 85.9748 164.717 85.9809 164.773C85.976 164.8 85.976 164.827 85.9809 164.853L87.9005 166.333C87.929 166.351 87.9619 166.36 87.9955 166.36C88.029 166.36 88.0619 166.351 88.0904 166.333C88.1821 166.258 88.2541 166.162 88.3004 166.053C88.4004 165.813 88.3904 165.543 88.3004 165.453L86.9507 164.453L90.4899 162.454C90.5826 162.382 90.6571 162.289 90.7074 162.183C90.7578 162.077 90.7826 161.961 90.7798 161.844C90.7798 161.614 90.6499 161.534 90.4899 161.614Z" fill="#455A64"/>
<path opacity="0.5" d="M93.4492 159.914L96.9884 157.915L95.6387 156.915C95.5187 156.825 95.5087 156.555 95.6387 156.315C95.7687 156.075 95.9187 155.945 96.0386 156.035L97.9582 157.515C97.9834 157.533 98.0039 157.557 98.0182 157.585C98.0287 157.638 98.0287 157.692 98.0182 157.745C98.0286 157.808 98.0286 157.872 98.0182 157.935C98.0182 157.935 98.0182 157.935 98.0182 157.985C98.0025 158.033 97.9824 158.08 97.9582 158.125L96.0386 161.784C95.9971 161.874 95.9313 161.95 95.8487 162.004C95.8206 162.031 95.783 162.047 95.7437 162.047C95.7044 162.047 95.6668 162.031 95.6387 162.004C95.5826 161.907 95.553 161.796 95.553 161.684C95.553 161.572 95.5826 161.461 95.6387 161.364L96.9884 158.765L93.4492 160.814C93.2892 160.904 93.1693 160.814 93.1693 160.534C93.1629 160.416 93.1851 160.298 93.2338 160.19C93.2825 160.082 93.3564 159.988 93.4492 159.914Z" fill="#455A64"/>
<path opacity="0.5" d="M105.037 149.717C105.037 149.507 104.827 149.537 104.737 149.767L104.247 150.956C103.417 150.866 102.417 151.666 101.737 153.106C100.868 154.955 100.868 157.105 101.737 157.995C101.951 158.195 102.227 158.314 102.519 158.332C102.811 158.35 103.1 158.266 103.337 158.095C104.044 157.621 104.596 156.95 104.927 156.165C104.982 156.071 105.011 155.964 105.011 155.855C105.011 155.746 104.982 155.639 104.927 155.545C104.807 155.435 104.627 155.545 104.517 155.775C103.867 157.155 102.797 157.775 102.147 157.145C101.497 156.515 101.487 154.875 102.147 153.486C102.607 152.486 103.277 151.916 103.867 151.886L103.497 152.776C103.407 153.006 103.497 153.226 103.637 153.126L105.087 152.186C105.142 152.136 105.185 152.074 105.213 152.005C105.241 151.935 105.252 151.861 105.247 151.786L105.037 149.717Z" fill="#455A64"/>
<path opacity="0.5" d="M143.118 120.243L144.408 117.504C144.483 117.375 144.523 117.228 144.523 117.079C144.523 116.93 144.483 116.783 144.408 116.654C144.258 116.514 144.008 116.654 143.858 116.974L142.568 119.703L141.269 118.464C141.119 118.314 140.869 118.464 140.719 118.784C140.643 118.912 140.603 119.059 140.603 119.208C140.603 119.358 140.643 119.505 140.719 119.633L142.008 120.873L140.719 123.622C140.643 123.751 140.603 123.898 140.603 124.047C140.603 124.197 140.643 124.343 140.719 124.472C140.758 124.505 140.808 124.523 140.859 124.523C140.91 124.523 140.959 124.505 140.999 124.472C141.123 124.395 141.218 124.279 141.269 124.142L142.568 121.403L143.858 122.653C143.896 122.684 143.944 122.702 143.993 122.702C144.042 122.702 144.09 122.684 144.128 122.653C144.252 122.574 144.35 122.458 144.408 122.323C144.483 122.194 144.523 122.047 144.523 121.898C144.523 121.748 144.483 121.602 144.408 121.473L143.118 120.243Z" fill="#455A64"/>
<path d="M109.766 153.076V148.517C109.812 147.735 110.041 146.974 110.435 146.297C110.83 145.619 111.378 145.044 112.035 144.618L314.84 27.6438C316.09 26.924 317.1 27.5038 317.1 28.9435V33.4425C317.056 34.2257 316.829 34.9876 316.436 35.6667C316.044 36.3458 315.497 36.923 314.84 37.3516L112.035 154.386C110.775 155.105 109.766 154.516 109.766 153.076Z" fill="white"/>
<path d="M311.751 37.6416C311.698 37.6521 311.644 37.6521 311.591 37.6416C311.485 37.5886 311.4 37.5018 311.349 37.3949C311.298 37.288 311.285 37.1672 311.311 37.0517L311.531 35.1621L310.611 34.5023C310.545 34.4543 310.493 34.3908 310.458 34.3175C310.423 34.2443 310.407 34.1634 310.411 34.0824C310.412 33.9448 310.442 33.809 310.501 33.6847C310.56 33.5603 310.645 33.4503 310.751 33.3625L312.071 32.3627C312.115 32.3228 312.146 32.2706 312.161 32.2128L312.75 30.2732C312.784 30.1317 312.857 30.0029 312.962 29.9018C313.066 29.8008 313.198 29.7319 313.34 29.7033C313.43 29.7003 313.518 29.7233 313.594 29.7694C313.67 29.8156 313.732 29.8829 313.77 29.9633L314.3 31.103L315.5 30.6431C315.584 30.607 315.678 30.5982 315.767 30.6179C315.857 30.6376 315.938 30.6849 316 30.7531C316.078 30.8735 316.12 31.0142 316.12 31.158C316.12 31.3018 316.078 31.4425 316 31.5629L315 33.3625C314.989 33.4153 314.989 33.4697 315 33.5225L315.23 35.1521C315.244 35.2855 315.228 35.4202 315.183 35.5464C315.138 35.6727 315.065 35.7873 314.97 35.882C314.917 35.9454 314.849 35.995 314.772 36.0263C314.696 36.0577 314.613 36.0699 314.53 36.0619L313.34 35.9119L312.191 37.4516C312.135 37.5128 312.067 37.5614 311.991 37.5942C311.915 37.6269 311.833 37.6431 311.751 37.6416ZM310.991 33.9724L311.911 34.6322C311.988 34.6968 312.046 34.781 312.08 34.8761C312.113 34.9711 312.12 35.0734 312.101 35.1721L311.991 36.7318L312.99 35.472C313.048 35.3908 313.124 35.3254 313.213 35.2817C313.302 35.238 313.401 35.2175 313.5 35.2221L314.69 35.3721C314.69 35.3721 314.74 35.2121 314.69 35.1321L314.46 33.5025C314.444 33.3221 314.482 33.1411 314.57 32.9826L315.57 31.183L314.47 31.6029C314.418 31.6259 314.361 31.6381 314.304 31.639C314.247 31.6398 314.19 31.6292 314.137 31.6078C314.084 31.5863 314.035 31.5545 313.995 31.5142C313.954 31.4739 313.922 31.4259 313.9 31.373L313.41 30.3732L312.82 32.3127C312.771 32.4911 312.666 32.6488 312.521 32.7626L311.201 33.7624C311.108 33.8045 311.033 33.8792 310.991 33.9724Z" fill="#E0E0E0"/>
<g opacity="0.5">
<path d="M319.739 27.024C319.566 27.0257 319.397 26.9698 319.259 26.8651C319.121 26.7603 319.022 26.6127 318.978 26.4454C318.933 26.2782 318.945 26.1008 319.012 25.9412C319.08 25.7817 319.198 25.6491 319.349 25.5643L325.688 21.9051C325.776 21.8532 325.874 21.8193 325.976 21.8053C326.078 21.7913 326.181 21.7975 326.281 21.8235C326.38 21.8495 326.473 21.8948 326.555 21.9568C326.637 22.0189 326.706 22.0964 326.757 22.185C326.809 22.2737 326.843 22.3716 326.857 22.4733C326.871 22.5751 326.865 22.6786 326.839 22.7779C326.813 22.8772 326.768 22.9705 326.706 23.0523C326.644 23.1341 326.566 23.2029 326.477 23.2548L320.129 26.924C320.01 26.9908 319.875 27.0253 319.739 27.024Z" fill="#455A64"/>
<path d="M319.739 30.6931C319.602 30.6929 319.467 30.6568 319.347 30.5884C319.228 30.5201 319.129 30.4217 319.059 30.3032C319.007 30.2141 318.974 30.1156 318.96 30.0134C318.947 29.9112 318.954 29.8073 318.981 29.7079C319.008 29.6084 319.054 29.5152 319.118 29.4338C319.181 29.3524 319.259 29.2843 319.349 29.2335L325.688 25.5643C325.866 25.4822 326.069 25.4697 326.256 25.529C326.443 25.5884 326.602 25.7154 326.7 25.8852C326.799 26.0551 326.831 26.2556 326.79 26.4477C326.749 26.6397 326.637 26.8096 326.478 26.924L320.129 30.5832C320.011 30.6531 319.876 30.691 319.739 30.6931Z" fill="#455A64"/>
<path d="M319.739 34.3523C319.601 34.3521 319.466 34.316 319.347 34.2476C319.228 34.1793 319.129 34.0809 319.059 33.9624C319.008 33.874 318.974 33.7763 318.961 33.6748C318.948 33.5734 318.955 33.4704 318.982 33.3717C319.009 33.273 319.055 33.1807 319.118 33.1002C319.181 33.0197 319.26 32.9525 319.349 32.9026L325.688 29.2335C325.776 29.1816 325.874 29.1477 325.976 29.1337C326.078 29.1197 326.181 29.1259 326.28 29.1519C326.38 29.1779 326.473 29.2232 326.555 29.2852C326.637 29.3472 326.705 29.4248 326.757 29.5134C326.809 29.602 326.843 29.7 326.857 29.8017C326.871 29.9034 326.865 30.0069 326.839 30.1063C326.813 30.2056 326.768 30.2988 326.706 30.3807C326.644 30.4625 326.566 30.5313 326.477 30.5832L320.129 34.2523C320.01 34.3192 319.875 34.3537 319.739 34.3523Z" fill="#455A64"/>
</g>
<path d="M80.1521 160.564V175.231L75.9131 172.782V158.125L80.1521 160.564Z" fill="#E0E0E0"/>
<path d="M252.99 101.751L251.31 102.733L256.17 84.5588L257.825 83.5915L262.685 96.0828L261.004 97.0652L257.049 86.4706L256.946 86.5311L252.99 101.751ZM253.611 95.3985L260.384 91.4386V93.0857L253.611 97.0456V95.3985ZM264.747 94.8775V79.5447L266.272 78.653V84.3129L266.401 84.2374C266.513 83.9722 266.668 83.627 266.867 83.2017C267.069 82.7688 267.358 82.3205 267.733 81.8568C268.112 81.3856 268.625 80.9611 269.271 80.5832C270.107 80.0945 270.844 79.9058 271.481 80.0172C272.119 80.1285 272.617 80.5238 272.974 81.2032C273.332 81.8825 273.511 82.8261 273.511 84.034C273.511 85.2518 273.332 86.412 272.974 87.5145C272.617 88.612 272.121 89.5904 271.488 90.4498C270.854 91.3043 270.124 91.9733 269.297 92.457C268.659 92.8298 268.149 93.006 267.765 92.9856C267.382 92.9603 267.086 92.8508 266.88 92.6573C266.673 92.4588 266.513 92.2874 266.401 92.1433L266.22 92.2491V94.016L264.747 94.8775ZM266.246 88.2511C266.246 89.1195 266.356 89.8214 266.576 90.3568C266.796 90.8871 267.117 91.2161 267.539 91.3435C267.961 91.466 268.478 91.3484 269.09 90.9907C269.728 90.6179 270.26 90.1121 270.686 89.4735C271.117 88.8272 271.44 88.1093 271.656 87.3195C271.876 86.5222 271.986 85.7143 271.986 84.8957C271.986 84.0872 271.878 83.4215 271.662 82.8986C271.451 82.3681 271.13 82.0392 270.699 81.9118C270.273 81.7769 269.736 81.8983 269.09 82.2762C268.47 82.6389 267.948 83.1259 267.526 83.7371C267.104 84.3433 266.785 85.0338 266.569 85.8086C266.354 86.5785 266.246 87.3926 266.246 88.2511ZM279.877 86.2715C278.981 86.7955 278.195 87.0082 277.518 86.9095C276.846 86.8084 276.32 86.4244 275.941 85.7577C275.566 85.0884 275.379 84.1598 275.379 82.9719C275.379 81.774 275.566 80.6188 275.941 79.5063C276.32 78.3912 276.846 77.3901 277.518 76.503C278.195 75.6134 278.981 74.9066 279.877 74.3827C280.773 73.8587 281.558 73.6473 282.23 73.7485C282.906 73.8471 283.432 74.2335 283.807 74.9078C284.186 75.5795 284.376 76.5144 284.376 77.7122C284.376 78.9001 284.186 80.0491 283.807 81.1592C283.432 82.2668 282.906 83.2654 282.23 84.155C281.558 85.0421 280.773 85.7476 279.877 86.2715ZM279.877 84.6844C280.558 84.2864 281.118 83.7567 281.558 83.0955C281.997 82.4343 282.322 81.7126 282.534 80.9303C282.745 80.148 282.85 79.3726 282.85 78.604C282.85 77.8353 282.745 77.1808 282.534 76.6404C282.322 76.1 281.997 75.7537 281.558 75.6013C281.118 75.449 280.558 75.5718 279.877 75.9698C279.196 76.3678 278.636 76.8999 278.197 77.5662C277.757 78.2324 277.432 78.9591 277.221 79.7464C277.01 80.5336 276.904 81.3116 276.904 82.0802C276.904 82.8488 277.01 83.5008 277.221 84.0362C277.432 84.5716 277.757 84.913 278.197 85.0604C278.636 85.2077 279.196 85.0824 279.877 84.6844ZM292.96 73.6817V66.8837L294.486 65.992V77.4916L292.96 78.3833V76.4368L292.857 76.4972C292.624 77.2172 292.262 77.9254 291.771 78.6219C291.28 79.3133 290.659 79.8782 289.91 80.3165C289.289 80.6792 288.738 80.8445 288.255 80.8121C287.773 80.7748 287.393 80.5174 287.118 80.0397C286.842 79.5571 286.704 78.8266 286.704 77.8484V70.5413L288.229 69.6496V76.8368C288.229 77.6754 288.432 78.2258 288.837 78.4881C289.246 78.7479 289.768 78.6927 290.401 78.3224C290.78 78.1007 291.166 77.7629 291.558 77.3091C291.954 76.8528 292.286 76.3144 292.553 75.6941C292.825 75.0712 292.96 74.4004 292.96 73.6817ZM301.597 61.8347V63.332L296.452 66.3397V64.8424L301.597 61.8347ZM297.952 61.2107L299.477 60.3189V71.2795C299.477 71.7786 299.539 72.1164 299.664 72.2929C299.794 72.4619 299.957 72.5309 300.156 72.4999C300.358 72.4613 300.571 72.3766 300.795 72.2456C300.964 72.1473 301.101 72.0567 301.209 71.9738C301.317 71.8859 301.403 71.8155 301.468 71.7628L301.778 73.1686C301.674 73.274 301.53 73.4033 301.345 73.5565C301.16 73.7147 300.925 73.877 300.64 74.0432C300.209 74.2951 299.787 74.4347 299.374 74.4619C298.964 74.4866 298.624 74.3587 298.352 74.0781C298.085 73.7951 297.952 73.3192 297.952 72.6503V61.2107ZM315.267 60.6411V53.8431L316.792 52.9514V64.451L315.267 65.3427V63.3962L315.163 63.4566C314.931 64.1766 314.569 64.8848 314.077 65.5813C313.586 66.2727 312.966 66.8376 312.216 67.2759C311.596 67.6386 311.044 67.8039 310.561 67.7715C310.079 67.7342 309.7 67.4768 309.424 66.9991C309.148 66.5165 309.01 65.786 309.01 64.8078V57.5007L310.536 56.609V63.7962C310.536 64.6347 310.738 65.1852 311.143 65.4475C311.552 65.7073 312.074 65.6521 312.707 65.2818C313.086 65.0601 313.472 64.7223 313.864 64.2685C314.261 63.8122 314.592 63.2738 314.86 62.6535C315.131 62.0306 315.267 61.3598 315.267 60.6411ZM326.618 49.7825L325.248 51.0328C325.161 50.8186 325.034 50.6359 324.866 50.4846C324.702 50.3258 324.478 50.2471 324.194 50.2487C323.91 50.2502 323.546 50.3807 323.102 50.6402C322.494 50.9954 321.988 51.4535 321.583 52.0148C321.182 52.5685 320.982 53.0924 320.982 53.5865C320.982 54.0257 321.12 54.292 321.395 54.3853C321.671 54.4787 322.102 54.4389 322.688 54.266L324.162 53.8237C325.049 53.5544 325.711 53.5495 326.146 53.8092C326.581 54.0639 326.799 54.593 326.799 55.3966C326.799 56.0554 326.635 56.7401 326.308 57.4506C325.984 58.1586 325.532 58.8324 324.95 59.4719C324.369 60.1115 323.692 60.6567 322.921 61.1076C321.908 61.6995 321.07 61.9349 320.407 61.8138C319.743 61.6926 319.323 61.1945 319.146 60.3195L320.594 59.0539C320.732 59.5922 320.993 59.904 321.376 59.9892C321.764 60.072 322.27 59.9307 322.895 59.5655C323.606 59.1498 324.17 58.6451 324.588 58.0514C325.011 57.4502 325.222 56.9025 325.222 56.4084C325.222 56.0091 325.101 55.7452 324.86 55.6168C324.618 55.4833 324.248 55.4953 323.748 55.6528L322.093 56.1708C321.184 56.4528 320.516 56.4564 320.09 56.1817C319.668 55.8996 319.456 55.3617 319.456 54.5681C319.456 53.9192 319.614 53.2533 319.928 52.5703C320.247 51.8848 320.68 51.2398 321.227 50.6354C321.779 50.0285 322.404 49.521 323.102 49.1129C324.084 48.5386 324.855 48.3372 325.416 48.5088C325.98 48.678 326.381 49.1025 326.618 49.7825Z" fill="#455A64"/>
<path opacity="0.1" d="M90.9797 225.11L160.014 185.249V297.794L90.7798 337.545L90.9797 225.11Z" fill="#FC7A1E"/>
<path opacity="0.15" d="M175.231 178.54L258.513 130.461C260.192 129.461 261.512 130.221 261.512 132.091C261.449 133.125 261.145 134.13 260.625 135.026C260.104 135.922 259.38 136.683 258.513 137.249L175.221 185.869C173.551 186.868 172.222 186.069 172.222 184.139V183.789C172.278 182.74 172.579 181.718 173.102 180.807C173.625 179.895 174.354 179.119 175.231 178.54Z" fill="#FC7A1E"/>
<path opacity="0.1" d="M174.361 193.107L312.171 113.545C313.37 112.855 314.34 113.345 314.34 114.634C314.287 115.363 314.063 116.068 313.686 116.694C313.309 117.319 312.79 117.847 312.171 118.234L174.361 197.796C173.171 198.486 172.202 197.996 172.202 196.706C172.254 195.979 172.477 195.274 172.852 194.649C173.227 194.024 173.744 193.496 174.361 193.107Z" fill="#FC7A1E"/>
<path opacity="0.1" d="M174.361 202.525L312.171 122.963C313.37 122.273 314.34 122.763 314.34 124.052C314.287 124.781 314.063 125.486 313.686 126.112C313.309 126.737 312.79 127.265 312.171 127.652L174.361 207.214C173.171 207.904 172.202 207.414 172.202 206.114C172.256 205.389 172.479 204.686 172.854 204.063C173.229 203.439 173.745 202.913 174.361 202.525Z" fill="#FC7A1E"/>
<path opacity="0.1" d="M174.361 211.933L312.171 132.371C313.37 131.681 314.34 132.171 314.34 133.47C314.286 134.197 314.061 134.901 313.684 135.524C313.307 136.148 312.789 136.674 312.171 137.06L174.361 216.602C173.171 217.292 172.202 216.802 172.202 215.502C172.26 214.78 172.486 214.082 172.861 213.463C173.235 212.843 173.749 212.32 174.361 211.933Z" fill="#FC7A1E"/>
<path opacity="0.1" d="M174.361 221.351L312.171 141.788C313.37 141.099 314.34 141.588 314.34 142.878C314.287 143.607 314.063 144.312 313.686 144.938C313.309 145.563 312.79 146.091 312.171 146.477L174.361 226.04C173.171 226.73 172.202 226.24 172.202 224.95C172.254 224.223 172.477 223.518 172.852 222.893C173.227 222.268 173.744 221.739 174.361 221.351Z" fill="#FC7A1E"/>
<path opacity="0.1" d="M174.361 230.769L270.52 174.781C271.71 174.091 272.679 174.581 272.679 175.881C272.625 176.606 272.402 177.309 272.027 177.932C271.652 178.556 271.135 179.083 270.52 179.47L174.361 235.458C173.171 236.147 172.202 235.658 172.202 234.358C172.256 233.632 172.479 232.93 172.854 232.306C173.229 231.683 173.745 231.156 174.361 230.769Z" fill="#FC7A1E"/>
<path opacity="0.1" d="M174.361 249.594L312.171 170.032C313.37 169.342 314.34 169.832 314.34 171.122C314.287 171.85 314.063 172.556 313.686 173.181C313.309 173.807 312.79 174.334 312.171 174.721L174.361 254.283C173.171 254.973 172.202 254.483 172.202 253.194C172.254 252.466 172.477 251.762 172.852 251.136C173.227 250.511 173.744 249.983 174.361 249.594Z" fill="#FC7A1E"/>
<path opacity="0.1" d="M174.361 259.012L312.171 179.45C313.37 178.76 314.34 179.25 314.34 180.54C314.287 181.268 314.063 181.974 313.686 182.599C313.309 183.225 312.79 183.752 312.171 184.139L174.361 263.701C173.171 264.391 172.202 263.901 172.202 262.602C172.256 261.876 172.479 261.173 172.854 260.55C173.229 259.927 173.745 259.4 174.361 259.012Z" fill="#FC7A1E"/>
<path opacity="0.1" d="M174.361 268.42L312.171 188.858C313.37 188.168 314.34 188.658 314.34 189.958C314.286 190.684 314.061 191.388 313.684 192.012C313.307 192.635 312.789 193.161 312.171 193.547L174.361 273.119C173.171 273.809 172.202 273.319 172.202 272.02C172.256 271.293 172.479 270.589 172.854 269.964C173.229 269.339 173.745 268.81 174.361 268.42Z" fill="#FC7A1E"/>
<path opacity="0.1" d="M174.361 277.838L225.01 248.285C226.2 247.595 227.169 248.085 227.169 249.385C227.115 250.11 226.892 250.813 226.517 251.436C226.142 252.059 225.626 252.586 225.01 252.974L174.371 282.527C173.181 283.217 172.212 282.727 172.212 281.437C172.263 280.711 172.484 280.007 172.858 279.382C173.231 278.757 173.746 278.228 174.361 277.838Z" fill="#FC7A1E"/>
<path d="M358.52 223.8C365.849 200.026 372.977 184.359 365.709 179.51C358.95 180.77 355.921 184.119 354.481 193.037C352.971 202.385 349.832 215.422 348.003 222.94C346.421 229.223 344.158 235.315 341.254 241.106C340.816 241.908 340.108 242.529 339.255 242.856C336.995 243.746 335.915 244.856 334.076 246.215C332.626 247.215 331.566 247.355 331.636 247.785C331.755 248.267 332.058 248.684 332.48 248.946C332.903 249.207 333.411 249.293 333.896 249.185C334.982 248.979 336.039 248.644 337.045 248.185C336.18 250.375 334.834 252.344 333.106 253.944C329.557 256.943 330.107 259.872 335.795 260.212C337.795 260.332 342.564 258.473 346.953 251.004C348.437 248.221 349.743 245.345 350.862 242.396C353.921 234.738 357.051 228.599 358.52 223.8Z" fill="#FFA8A7"/>
<path d="M366.978 179.23C366.978 179.23 361.34 178.94 357.92 182.709C354.501 186.479 350.522 208.994 350.522 208.994C350.522 208.994 354.261 214.132 364.119 211.993L366.978 179.23Z" fill="#FC7A1E"/>
<path opacity="0.3" d="M366.978 179.23C366.978 179.23 361.34 178.94 357.92 182.709C354.501 186.479 350.522 208.994 350.522 208.994C350.522 208.994 354.261 214.132 364.119 211.993L366.978 179.23Z" fill="black"/>
<path d="M393.383 338.955H385.814V352.452H393.383V338.955Z" fill="#FFA8A7"/>
<path d="M367.138 338.235L359.57 338.515L359.19 324.228L367.138 323.958V338.235Z" fill="#FFA8A7"/>
<path d="M394.452 222.101C394.452 229.629 393.342 290.215 393.342 290.215C393.512 292.385 395.462 296.384 395.042 304.702C394.472 316 393.702 345.693 393.702 345.693C392.404 346.362 390.97 346.726 389.509 346.757C388.049 346.788 386.6 346.486 385.274 345.873C385.274 345.873 378.116 304.732 376.766 293.525C375.576 283.757 373.567 250.844 373.567 250.844L369.468 289.106C370.341 293.224 370.657 297.441 370.408 301.643C370.048 306.822 367.618 333.806 367.618 333.806C366.31 334.577 364.843 335.04 363.329 335.159C361.815 335.279 360.293 335.052 358.88 334.496C358.88 334.496 354.571 293.865 354.481 289.106C354.381 283.687 357 222.011 357 222.011L394.452 222.101Z" fill="#37474F"/>
<path d="M385.814 348.572V347.443C385.084 347.773 383.405 354.441 380.405 357.321C378.016 359.58 374.757 362.199 373.927 364.729C373.097 367.258 378.466 368.818 380.695 368.408C383.285 367.928 387.784 366.029 388.904 364.259C390.023 362.489 390.563 359.9 391.483 358.61C392.403 357.321 394.482 355.881 395.002 354.381C395.282 353.561 395.002 351.762 394.572 350.242C394.142 348.722 393.842 347.313 393.383 347.443V348.303C392.321 349.183 390.982 349.658 389.603 349.642C388.494 349.672 385.804 349.442 385.814 348.572Z" fill="#263238"/>
<path d="M359.49 336.075C359.1 336.075 358.78 336.665 357.91 337.645C356.626 339 355.122 340.129 353.461 340.984C350.622 342.464 345.113 344.733 342.614 345.903C341.064 346.633 341.134 348.593 342.744 349.712C344.353 350.832 348.243 351.632 352.912 350.542C355.451 349.952 358.77 347.543 360.86 347.633C362.949 347.723 366.858 347.743 368.428 346.633C369.998 345.523 369.358 343.154 368.918 341.114C368.438 338.895 367.848 335.425 367.138 335.575V336.345C366.229 337.775 361.53 338.345 359.53 337.345L359.49 336.075Z" fill="#263238"/>
<path d="M373.567 250.854C369.628 249.568 366.027 247.416 363.029 244.556C363.029 244.556 365.029 248.555 371.108 252.214L369.818 286.386L373.567 250.854Z" fill="#263238"/>
<path d="M390.513 181.03C390.513 181.03 396.432 181.58 396.012 192.857L394.702 210.853V237.847C389.133 244.156 364.459 243.686 356.011 237.337C356.011 237.337 356.961 205.414 357.53 193.127C357.94 184.399 359.95 180 368.528 179.04L379.076 179.5L390.513 181.03Z" fill="#FC7A1E"/>
<path opacity="0.3" d="M373.687 186.948L372.327 196.426L369.168 196.366L372.737 196.936L373.687 186.948Z" fill="black"/>
<path d="M381.585 155.615C381.647 158.667 380.495 161.618 378.382 163.821C376.27 166.023 373.369 167.297 370.318 167.363C364.089 167.363 359.32 162.094 359.04 155.625C358.55 144.158 364.089 143.878 370.318 143.878C373.367 143.944 376.266 145.216 378.379 147.417C380.491 149.617 381.644 152.566 381.585 155.615Z" fill="#263238"/>
<path d="M387.974 161.424C387.974 161.424 386.244 169.882 385.554 171.272C385.108 172.12 384.347 172.759 383.435 173.051L383.555 167.103L387.974 161.424Z" fill="#263238"/>
<path d="M385.834 149.307C385.834 149.307 387.074 148.997 388.394 151.056C389.523 152.816 389.783 156.775 388.004 161.424L384.754 161.814L385.834 149.307Z" fill="#263238"/>
<path d="M383.775 161.814C384.425 162.224 385.354 160.914 386.164 160.034C386.974 159.155 389.593 157.965 390.913 160.834C392.233 163.704 389.753 167.643 387.684 168.323C384.115 169.492 383.585 167.103 383.585 167.103L383.305 180.5C378.576 187.828 367.848 187.558 371.707 180.15V176.071C370.119 176.335 368.506 176.422 366.898 176.331C364.279 175.901 362.629 173.751 361.83 170.792C360.55 166.043 360.07 162.214 361.15 152.866C362.349 142.618 373.787 142.528 379.976 146.617C386.164 150.706 383.775 161.814 383.775 161.814Z" fill="#FFA8A7"/>
<path d="M383.365 177.5C382.265 179.752 380.685 181.734 378.736 183.309C377.08 184.533 375.158 185.348 373.127 185.689C374.802 186.824 376.175 188.351 377.126 190.138C378.316 192.737 386.644 185.569 386.564 180.48C386.564 180.48 385.264 175.371 383.465 175.051L383.365 177.5Z" fill="#263238"/>
<path d="M373.127 185.689C373.127 185.689 370.558 184.419 371.707 180.15V176.071L370.578 176.221C369.261 177.504 368.327 179.127 367.878 180.91C367.618 182.079 366.978 187.998 368.108 189.168C369.238 190.338 370.818 186.009 373.127 185.689Z" fill="#263238"/>
<path d="M379.396 150.616C379.688 150.553 379.992 150.57 380.275 150.666C381.275 151.106 381.455 154.126 381.625 154.996C382.195 157.925 382.675 162.894 383.775 162.914C384.104 162.914 385.354 160.764 386.164 159.994C387.294 158.925 385.834 149.267 385.834 149.267C386.132 148.433 386.189 147.532 385.998 146.667C385.807 145.802 385.376 145.009 384.754 144.378C382.755 142.058 379.535 141.538 376.626 141.379C373.197 141.189 369.718 141.449 366.338 140.699C365.277 140.404 364.199 140.173 363.109 140.009C363.063 139.989 363.014 139.979 362.964 139.979C362.914 139.979 362.865 139.989 362.819 140.009C362.709 140.099 362.729 140.269 362.759 140.409C362.971 141.421 363.328 142.398 363.819 143.308C361.807 143.149 359.821 142.757 357.9 142.138C357.79 142.104 357.671 142.104 357.56 142.138C357.33 142.208 357.29 142.508 357.31 142.748C357.44 145.168 358.59 148.827 360.56 150.247C362.306 151.39 364.333 152.03 366.418 152.096C371.717 152.296 374.977 151.176 379.396 150.616Z" fill="#263238"/>
<path d="M385.834 149.817L389.783 147.607C389.663 147.335 389.487 147.091 389.266 146.891C389.046 146.691 388.787 146.539 388.504 146.445C388.222 146.351 387.923 146.317 387.627 146.345C387.331 146.373 387.044 146.462 386.784 146.607C386.259 146.932 385.871 147.438 385.696 148.031C385.521 148.623 385.57 149.259 385.834 149.817Z" fill="#263238"/>
<path d="M371.717 176.071C371.717 176.071 377.566 174.841 379.616 173.711C380.83 173.044 381.815 172.027 382.445 170.792C382.14 172.033 381.593 173.202 380.835 174.231C379.346 176.231 371.717 177.69 371.717 177.69V176.071Z" fill="#F28F8F"/>
<path d="M373.127 160.294C373.148 160.52 373.235 160.734 373.375 160.912C373.516 161.089 373.705 161.222 373.92 161.293C374.135 161.365 374.366 161.373 374.585 161.317C374.804 161.26 375.002 161.141 375.155 160.974C375.308 160.806 375.409 160.598 375.446 160.375C375.483 160.152 375.454 159.922 375.363 159.715C375.272 159.508 375.123 159.331 374.934 159.207C374.745 159.082 374.523 159.016 374.297 159.015C374.135 159.02 373.976 159.057 373.83 159.125C373.683 159.192 373.551 159.288 373.442 159.408C373.333 159.527 373.249 159.667 373.195 159.819C373.141 159.971 373.118 160.133 373.127 160.294Z" fill="#263238"/>
<path d="M374.977 155.235L377.486 156.675C377.667 156.329 377.716 155.928 377.622 155.549C377.528 155.169 377.298 154.837 376.976 154.616C376.808 154.508 376.619 154.439 376.421 154.412C376.224 154.385 376.023 154.402 375.832 154.461C375.642 154.52 375.467 154.62 375.319 154.754C375.171 154.887 375.054 155.052 374.977 155.235Z" fill="#263238"/>
<path d="M372.247 168.732L369.568 169.732C369.621 169.916 369.711 170.088 369.833 170.235C369.955 170.383 370.106 170.504 370.276 170.592C370.447 170.679 370.633 170.73 370.824 170.742C371.016 170.754 371.207 170.727 371.387 170.662C371.744 170.503 372.029 170.218 372.187 169.862C372.346 169.506 372.367 169.104 372.247 168.732Z" fill="#F28F8F"/>
<path d="M362.359 156.305L364.649 154.466C364.546 154.305 364.409 154.167 364.249 154.063C364.089 153.958 363.908 153.889 363.719 153.86C363.53 153.83 363.337 153.842 363.152 153.893C362.968 153.944 362.796 154.033 362.649 154.156C362.344 154.415 362.145 154.778 362.091 155.175C362.038 155.572 362.133 155.975 362.359 156.305Z" fill="#263238"/>
<path d="M363.369 159.944C363.363 160.104 363.388 160.264 363.443 160.414C363.498 160.563 363.583 160.701 363.691 160.818C363.8 160.935 363.931 161.03 364.077 161.096C364.222 161.162 364.379 161.199 364.539 161.204C364.876 161.204 365.199 161.07 365.437 160.832C365.675 160.594 365.809 160.271 365.809 159.934C365.809 159.598 365.675 159.275 365.437 159.037C365.199 158.798 364.876 158.665 364.539 158.665C364.215 158.683 363.912 158.827 363.693 159.066C363.475 159.305 363.358 159.621 363.369 159.944Z" fill="#263238"/>
<path d="M369.648 158.965L369.508 166.373L365.299 165.403L369.648 158.965Z" fill="#F28F8F"/>
<path d="M402.031 166.413C403.72 164.173 407.14 169.142 408.719 172.572C410.299 176.001 410.329 177.94 409.029 179.3C407.729 180.66 405.28 179.84 402.83 176.591C400.381 173.341 401.061 168.063 402.031 166.413Z" fill="#FC7A1E"/>
<path opacity="0.5" d="M402.031 166.413C403.72 164.173 407.14 169.142 408.719 172.572C410.299 176.001 410.329 177.94 409.029 179.3C407.729 180.66 405.28 179.84 402.83 176.591C400.381 173.341 401.061 168.063 402.031 166.413Z" fill="black"/>
<path d="M413.968 167.073C407.969 181.07 399.621 188.958 395.872 197.966C390.963 197.636 387.134 185.769 390.793 180.7C390.793 180.7 405.17 165.133 406.47 159.015C407.629 153.586 409.179 144.628 409.049 140.019C408.998 139.268 408.682 138.56 408.159 138.019C406.65 136.39 406.65 135.09 405.68 133.3C404.93 131.901 404.1 131.381 404.34 131.061C404.651 130.728 405.076 130.525 405.53 130.492C405.984 130.458 406.433 130.597 406.79 130.881C407.483 131.388 408.105 131.987 408.639 132.66C408.824 130.863 408.531 129.049 407.789 127.402C406.12 123.622 406.53 121.703 411.618 123.043C414.818 123.892 416.817 126.552 417.297 134.22C417.519 137.412 417.539 140.614 417.357 143.808C416.797 149.717 416.447 155.875 415.718 160.804C415.403 162.96 414.815 165.066 413.968 167.073Z" fill="#FFA8A7"/>
<path d="M389.293 180.87L401.971 166.373C401.971 166.373 400.461 169.902 403.76 175.051C407.059 180.2 409.019 179.3 409.019 179.3C409.019 179.3 401.531 190.228 399.531 193.887C397.532 197.546 395.442 200.635 395.442 200.635C395.221 201.062 394.877 201.413 394.455 201.643C394.032 201.873 393.551 201.971 393.073 201.925C391.213 201.925 386.284 193.667 389.293 180.87Z" fill="#FC7A1E"/>
<path opacity="0.3" d="M389.293 180.87L401.971 166.373C401.971 166.373 400.461 169.902 403.76 175.051C407.059 180.2 409.019 179.3 409.019 179.3C409.019 179.3 401.531 190.228 399.531 193.887C397.532 197.546 395.442 200.635 395.442 200.635C395.221 201.062 394.877 201.413 394.455 201.643C394.032 201.873 393.551 201.971 393.073 201.925C391.213 201.925 386.284 193.667 389.293 180.87Z" fill="black"/>
<path d="M286.416 213.453L292.385 221.401L285.966 228.749L277.698 219.081L286.416 213.453Z" fill="#F28F8F"/>
<path d="M266.871 195.377C272.08 195.616 274.559 196.376 277.289 199.636C280.018 202.895 293.655 222.6 293.655 222.6C293.655 222.6 291.245 229.359 285.967 228.779L276.379 218.891L266.871 195.377Z" fill="#455A64"/>
<path d="M241.317 360.46C240.946 362.533 240.745 364.633 240.717 366.738C240.647 370.538 239.947 371.897 239.857 375.017C239.747 378.586 240.367 379.925 241.856 381.925C243.346 383.925 247.105 385.754 248.715 382.365C250.325 378.976 250.115 376.756 249.595 373.247C249.075 369.738 248.995 367.628 248.695 364.869C248.415 362.429 248.095 360.58 248.095 360.58L241.317 360.46Z" fill="#263238"/>
<path d="M252.124 330.576L239.577 330.346C239.767 338.725 241.097 352.662 241.317 360.51C241.317 361.989 241.316 371.997 241.836 375.047C242.676 379.616 248.095 378.996 248.385 376.266C248.675 373.537 248.035 361.84 248.055 360.63C248.005 355.631 250.365 342.454 251.604 333.406C251.664 332.916 252.064 330.956 252.124 330.576Z" fill="#FFBDA7"/>
<path d="M270.55 353.951C270.55 353.951 269.91 353.951 269.8 354.511C269.69 355.071 269.65 356.131 269.39 357.171C268.964 358.8 268.815 360.49 268.95 362.169C269.16 363.339 271.83 365.079 273.659 365.389C275.489 365.699 278.058 367.498 279.488 368.848C281.784 370.743 284.624 371.857 287.596 372.027C290.595 372.027 292.765 371.028 293.765 369.388C294.764 367.748 292.855 367.558 289.376 365.299L286.666 363.539C281.158 359.94 279.138 358.01 277.578 354.411L270.55 353.951Z" fill="#263238"/>
<path d="M277.618 351.992C277.528 349.392 278.848 330.297 278.848 330.297L268.061 331.516C270.62 346.733 270.82 351.922 270.53 354.141C270.476 354.347 270.452 354.559 270.46 354.771C270.46 357.77 273.809 359.33 276.459 361.3C277.458 362.079 280.128 364.479 283.227 365.529C285.227 366.219 288.936 366.528 289.406 365.259C286.247 362.839 281.927 359.68 279.408 356.911C278.168 355.571 277.708 354.571 277.618 351.992Z" fill="#FFBDA7"/>
<path d="M242.486 243.956C236.607 256.813 242.706 302.083 242.706 302.083C242.526 304.172 240.137 308.271 239.257 317.459C238.207 328.297 241.186 357.341 241.186 357.341C242.237 357.978 243.437 358.327 244.666 358.353C245.894 358.38 247.108 358.082 248.185 357.491C248.185 357.491 255.773 314.82 257.183 304.042C258.373 294.624 260.652 273.929 260.652 273.929L267.131 303.982C266.181 307.017 265.492 310.128 265.071 313.28C264.461 319.619 270.64 351.462 270.64 351.462C271.753 351.922 272.949 352.146 274.154 352.122C275.358 352.098 276.544 351.826 277.638 351.322C277.638 351.322 280.368 310.191 280.948 302.553C281.947 289.716 278.498 249.674 276.149 242.076L242.486 243.956Z" fill="#FC7A1E"/>
<path opacity="0.5" d="M242.486 243.956C236.607 256.813 242.706 302.083 242.706 302.083C242.526 304.172 240.137 308.271 239.257 317.459C238.207 328.297 241.186 357.341 241.186 357.341C242.237 357.978 243.437 358.327 244.666 358.353C245.894 358.38 247.108 358.082 248.185 357.491C248.185 357.491 255.773 314.82 257.183 304.042C258.373 294.624 260.652 273.929 260.652 273.929L267.131 303.982C266.181 307.017 265.492 310.128 265.071 313.28C264.461 319.619 270.64 351.462 270.64 351.462C271.753 351.922 272.949 352.146 274.154 352.122C275.358 352.098 276.544 351.826 277.638 351.322C277.638 351.322 280.368 310.191 280.948 302.553C281.947 289.716 278.498 249.674 276.149 242.076L242.486 243.956Z" fill="black"/>
<path opacity="0.2" d="M260.632 273.929L262.542 261.992C262.542 261.992 270.62 260.322 274.289 256.873C271.759 259.84 268.448 262.04 264.731 263.221L262.582 272.419L266.341 300.243L260.632 273.929Z" fill="black"/>
<path d="M245.505 204.035L253.504 206.114V189.188C249.085 188.038 245.505 190.588 245.505 194.887V204.035Z" fill="#FC7A1E"/>
<path opacity="0.6" d="M245.505 204.035L253.504 206.114V189.188C249.085 188.038 245.505 190.588 245.505 194.887V204.035Z" fill="black"/>
<path d="M261.342 191.607L258.473 191.547C249.714 191.337 242.776 183.789 242.966 174.671C242.966 164.733 250.664 156.675 260.202 156.585C269.74 156.535 277.518 164.583 277.568 174.481V175.481C277.328 184.609 270.08 191.797 261.342 191.607Z" fill="#FC7A1E"/>
<path opacity="0.6" d="M261.342 191.607L258.473 191.547C249.714 191.337 242.776 183.789 242.966 174.671C242.966 164.733 250.664 156.675 260.202 156.585C269.74 156.535 277.518 164.583 277.568 174.481V175.481C277.328 184.609 270.08 191.797 261.342 191.607Z" fill="black"/>
<path d="M247.935 160.734C247.865 160.444 247.736 160.172 247.557 159.934C247.377 159.696 247.15 159.497 246.89 159.351C246.63 159.205 246.343 159.113 246.046 159.083C245.75 159.053 245.45 159.084 245.166 159.175L245.935 162.174C245.776 161.971 245.579 161.802 245.356 161.674C245.096 161.527 244.809 161.437 244.512 161.408C244.216 161.379 243.916 161.413 243.634 161.507C243.351 161.602 243.091 161.754 242.871 161.955C242.651 162.156 242.476 162.401 242.356 162.674L246.255 164.963C246.458 164.572 246.548 164.133 246.515 163.694C247.073 163.46 247.526 163.029 247.788 162.484C248.05 161.938 248.102 161.316 247.935 160.734Z" fill="#FC7A1E"/>
<path opacity="0.6" d="M247.935 160.734C247.865 160.444 247.736 160.172 247.557 159.934C247.377 159.696 247.15 159.497 246.89 159.351C246.63 159.205 246.343 159.113 246.046 159.083C245.75 159.053 245.45 159.084 245.166 159.175L245.935 162.174C245.776 161.971 245.579 161.802 245.356 161.674C245.096 161.527 244.809 161.437 244.512 161.408C244.216 161.379 243.916 161.413 243.634 161.507C243.351 161.602 243.091 161.754 242.871 161.955C242.651 162.156 242.476 162.401 242.356 162.674L246.255 164.963C246.458 164.572 246.548 164.133 246.515 163.694C247.073 163.46 247.526 163.029 247.788 162.484C248.05 161.938 248.102 161.316 247.935 160.734Z" fill="black"/>
<path d="M252.664 196.066C249.971 196.432 247.301 196.946 244.666 197.606C247.765 205.204 242.906 216.942 242.906 216.942L247.495 231.069C244.326 237.557 241.716 240.776 240.636 246.065C243.556 251.764 264.161 257.203 277.578 246.815C277.578 246.815 277.148 232.388 275.439 223.98C279.828 215.412 279.118 212.893 278.218 209.903C276.129 202.955 271.91 200.285 266.881 195.387L263.881 195.067L252.664 196.066Z" fill="#37474F"/>
<path d="M248.005 236.727C250.494 234.178 255.773 233.448 255.773 233.448L250.924 230.689L245.505 217.602C247.779 213.147 248.903 208.195 248.775 203.195L245.655 202.445C246.035 209.373 242.896 216.952 242.896 216.952L247.485 231.079C244.316 237.567 241.706 240.786 240.626 246.075C242.626 249.974 252.914 253.754 263.511 252.414C249.315 251.454 245.615 239.197 248.005 236.727Z" fill="#263238"/>
<path d="M262.352 252.524L262.932 252.464C262.737 252.467 262.543 252.487 262.352 252.524Z" fill="#E6E6E6"/>
<path d="M271.13 165.443C272.849 167.023 274.999 170.442 274.829 180.44C274.679 188.938 272.05 191.047 270.72 191.657C269.39 192.267 266.841 191.917 264.351 191.497V195.017C264.351 195.017 267.631 198.656 267.431 201.015C267.231 203.375 262.752 204.325 259.522 202.015C257.247 200.292 255.228 198.256 253.524 195.966V185.279C253.524 185.279 252.064 186.768 249.525 184.529C247.525 182.669 246.765 179.53 248.355 177.83C248.763 177.428 249.264 177.132 249.813 176.968C250.362 176.805 250.943 176.779 251.505 176.892C252.067 177.006 252.592 177.255 253.035 177.62C253.477 177.984 253.824 178.451 254.044 178.98C257.854 178.582 261.564 177.512 265.001 175.821C266.934 174.891 268.548 173.409 269.639 171.561C270.73 169.714 271.249 167.585 271.13 165.443Z" fill="#FFBDA7"/>
<path d="M264.341 178.53C264.341 178.724 264.284 178.914 264.177 179.077C264.07 179.239 263.918 179.366 263.74 179.444C263.562 179.521 263.366 179.545 263.174 179.513C262.983 179.48 262.805 179.393 262.662 179.261C262.52 179.129 262.419 178.958 262.372 178.77C262.325 178.581 262.333 178.383 262.397 178.2C262.46 178.016 262.576 177.855 262.73 177.736C262.883 177.618 263.068 177.546 263.262 177.53C263.536 177.525 263.802 177.626 264.003 177.812C264.205 177.999 264.326 178.256 264.341 178.53Z" fill="#263238"/>
<path d="M264.731 185.609L267.401 186.479C267.358 186.661 267.279 186.832 267.167 186.983C267.055 187.133 266.914 187.259 266.752 187.353C266.59 187.447 266.411 187.506 266.225 187.528C266.039 187.549 265.85 187.532 265.671 187.478C265.308 187.342 265.009 187.074 264.835 186.728C264.66 186.381 264.623 185.981 264.731 185.609Z" fill="#F79776"/>
<path d="M273.999 174.701L271.57 173.871C271.608 173.709 271.68 173.557 271.781 173.424C271.882 173.292 272.01 173.182 272.156 173.102C272.302 173.022 272.463 172.973 272.629 172.959C272.795 172.945 272.962 172.967 273.119 173.021C273.447 173.144 273.719 173.383 273.881 173.693C274.043 174.003 274.085 174.362 273.999 174.701Z" fill="#263238"/>
<path d="M254.053 178.03V181.62C254.284 181.629 254.513 181.592 254.729 181.509C254.944 181.427 255.14 181.301 255.305 181.14C255.469 180.979 255.6 180.786 255.687 180.572C255.774 180.359 255.817 180.13 255.813 179.9C255.816 179.422 255.635 178.961 255.308 178.613C254.98 178.265 254.531 178.056 254.053 178.03Z" fill="#FC7A1E"/>
<path opacity="0.6" d="M254.053 178.03V181.62C254.284 181.629 254.513 181.592 254.729 181.509C254.944 181.427 255.14 181.301 255.305 181.14C255.469 180.979 255.6 180.786 255.687 180.572C255.774 180.359 255.817 180.13 255.813 179.9C255.816 179.422 255.635 178.961 255.308 178.613C254.98 178.265 254.531 178.056 254.053 178.03Z" fill="black"/>
<path d="M273.119 178.18C273.142 178.468 273.049 178.753 272.861 178.972C272.674 179.191 272.407 179.327 272.12 179.35C271.899 179.372 271.678 179.327 271.483 179.221C271.289 179.116 271.13 178.955 271.028 178.759C270.925 178.562 270.884 178.34 270.909 178.12C270.934 177.9 271.024 177.693 271.168 177.525C271.312 177.356 271.503 177.235 271.716 177.176C271.929 177.117 272.155 177.123 272.365 177.194C272.575 177.264 272.759 177.396 272.893 177.572C273.028 177.747 273.106 177.959 273.119 178.18Z" fill="#263238"/>
<path d="M267.421 176.731L267.401 183.689L270.64 182.619L267.421 176.731Z" fill="#F79776"/>
<path d="M264.351 191.537C261.722 191.197 256.353 189.608 255.463 187.388C255.802 188.502 256.467 189.488 257.373 190.218C258.993 191.647 264.371 193.217 264.371 193.217L264.351 191.537Z" fill="#F79776"/>
<path d="M232.358 231.598C232.358 231.598 238.777 240.716 239.877 241.906C240.976 243.096 241.736 242.696 242.926 242.166C244.377 241.58 245.867 241.096 247.385 240.716C249.385 240.227 249.764 242.036 247.825 243.326C246.425 244.266 244.826 244.666 245.485 245.435C246.853 246.674 248.44 247.647 250.164 248.305C254.903 250.174 254.533 251.114 253.664 252.644C252.904 253.983 250.664 256.863 242.226 253.464C238.727 252.054 233.808 248.065 231.488 245.465C228.139 241.756 222.91 235.108 222.91 235.108L232.358 231.598Z" fill="#FFBDA7"/>
<path d="M245.895 197.276C243.576 197.426 239.207 197.986 233.728 207.084C228.919 215.082 221.471 225.89 220.091 229.759C219.531 231.329 221.711 234.578 224.52 237.907C228.349 237.737 231.839 235.088 233.648 232.968C233.173 231.841 232.584 230.765 231.889 229.759L243.126 216.942C243.126 216.942 247.395 213.033 248.285 207.944C249.245 202.425 248.945 198.086 245.895 197.276Z" fill="#455A64"/>
<path d="M308.811 214.532L281.108 221.831L273.479 253.174L299.823 245.525L308.811 214.532Z" fill="#FC7A1E"/>
<path opacity="0.25" d="M308.811 214.532L281.108 221.831L273.479 253.174L299.823 245.525L308.811 214.532Z" fill="black"/>
<g opacity="0.1">
<path d="M296.294 236.727C296.758 237.695 297.496 238.505 298.417 239.056C299.338 239.607 300.401 239.875 301.473 239.827L301.673 239.137L296.294 236.727Z" fill="black"/>
</g>
<g opacity="0.1">
<path d="M300.463 219.511L300.693 218.451C300.823 217.872 299.194 217.842 297.064 218.451L292.975 219.451C290.846 220.011 288.976 220.931 288.886 221.511L288.666 222.57L300.463 219.511Z" fill="black"/>
</g>
<path d="M302.593 215.542C302.673 215.172 302.013 215.072 301.123 215.322L299.503 215.772C299.503 215.772 299.983 213.482 296.404 214.282C295.443 214.424 294.535 214.811 293.768 215.407C293.001 216.002 292.401 216.786 292.025 217.682L290.306 218.171C289.306 218.441 288.486 218.951 288.376 219.311L288.166 219.971L302.443 216.212L302.593 215.542Z" fill="#37474F"/>
<path d="M300.623 216.662C299.323 216.982 298.774 217.152 298.624 218.051C298.474 218.951 298.304 219.831 298.304 219.831L291.995 221.501C291.995 221.501 292.305 220.201 292.405 219.701C292.505 219.201 292.285 218.881 291.275 219.151L291.195 218.751L301.093 216.222L300.623 216.662Z" fill="#37474F"/>
<path d="M300.843 219.601L301.073 218.541C301.203 217.962 299.574 217.932 297.444 218.541L293.355 219.541C291.225 220.101 289.356 221.021 289.266 221.601L289.046 222.66L300.843 219.601Z" fill="#37474F"/>
<path d="M305.892 224.6C305.892 224.6 304.892 228.149 304.622 228.989C304.352 229.829 301.273 231.359 299.243 231.918C297.214 232.478 294.974 233.138 295.944 235.988C296.824 238.617 300.183 239.217 301.883 239.137C303.583 239.057 305.932 237.437 306.882 234.808C308.052 231.448 307.422 227.869 307.882 225.91C308.341 223.95 306.912 223.43 305.892 224.6Z" fill="#FFBDA7"/>
<path d="M200.946 225.43C197.146 221.601 195.787 223.09 195.307 227.289C195.129 229.051 194.702 230.778 194.037 232.418C193.919 231.546 193.68 230.695 193.327 229.889C193.16 229.453 192.834 229.096 192.415 228.89C191.996 228.684 191.515 228.645 191.068 228.779C190.698 228.929 191.158 229.779 191.068 231.449C190.998 233.528 190.318 234.678 190.808 236.887C190.978 237.719 190.847 238.583 190.438 239.327C188.438 243.126 181.85 250.144 177.231 255.203L159.685 239.357C153.686 233.958 151.746 231.528 145.958 231.918C147.769 232.605 149.437 233.622 150.877 234.918C153.566 237.187 152.926 250.174 152.926 250.174C152.926 250.174 172.842 264.451 174.921 265.811C175.221 266.011 175.531 266.191 175.831 266.361C176.814 266.873 177.942 267.038 179.031 266.83C180.119 266.621 181.106 266.051 181.83 265.211C186.079 260.352 192.277 250.784 195.827 245.815C197.449 243.41 198.896 240.891 200.156 238.277C203.715 231.209 203.325 227.829 200.946 225.43Z" fill="#914F4E"/>
<path d="M146.578 231.598C147.976 231.344 149.413 231.391 150.792 231.735C152.172 232.08 153.461 232.715 154.576 233.598C157.995 236.197 172.572 249.594 172.572 249.594C172.572 249.594 172.972 256.683 165.573 260.902L147.707 248.305L146.578 231.598Z" fill="#FC7A1E"/>
<path opacity="0.3" d="M146.578 231.598C147.976 231.344 149.413 231.391 150.792 231.735C152.172 232.08 153.461 232.715 154.576 233.598C157.995 236.197 172.572 249.594 172.572 249.594C172.572 249.594 172.972 256.683 165.573 260.902L147.707 248.305L146.578 231.598Z" fill="black"/>
<path d="M129.332 391.523H121.763V405.02H129.332V391.523Z" fill="#914F4E"/>
<path d="M148.007 390.803L155.576 391.073L155.956 376.786L148.007 376.516V390.803Z" fill="#914F4E"/>
<path d="M120.693 274.659C120.693 282.187 121.803 342.784 121.803 342.784C121.633 344.943 119.684 348.942 120.104 357.261C120.673 368.568 121.443 398.251 121.443 398.251C122.743 398.917 124.178 399.278 125.638 399.308C127.098 399.337 128.546 399.034 129.871 398.421C129.871 398.421 137.03 357.281 138.389 346.083C139.569 336.305 141.579 303.393 141.579 303.393L145.678 341.664C144.804 345.779 144.488 349.992 144.738 354.191C145.098 359.37 147.527 386.354 147.527 386.354C148.836 387.128 150.305 387.594 151.821 387.715C153.336 387.836 154.86 387.61 156.275 387.054C156.275 387.054 160.575 346.413 160.665 341.664C160.764 336.245 158.145 274.559 158.145 274.559L120.693 274.659Z" fill="#37474F"/>
<path d="M129.331 401.121V400.001C130.061 400.331 131.741 406.999 134.74 409.869C137.13 412.138 140.389 414.758 141.219 417.287C142.049 419.817 136.68 421.366 134.45 420.956C131.861 420.476 127.362 418.577 126.242 416.817C125.122 415.058 124.582 412.448 123.663 411.159C122.743 409.869 120.663 408.429 120.143 406.929C119.995 405.535 120.141 404.125 120.573 402.79C120.923 401.401 121.303 399.871 121.763 400.001V400.861C122.831 401.735 124.172 402.206 125.552 402.191C126.652 402.231 129.341 402.001 129.331 401.121Z" fill="#263238"/>
<path d="M155.656 388.644C156.045 388.644 156.365 389.233 157.235 390.213C158.521 391.565 160.025 392.691 161.684 393.542C164.524 395.022 170.032 397.302 172.532 398.471C174.091 399.201 174.011 401.161 172.402 402.271C170.792 403.38 166.903 404.19 162.234 403.11C159.695 402.51 156.375 400.111 154.236 400.201C152.096 400.291 148.237 400.301 146.668 399.201C145.098 398.101 145.738 395.712 146.178 393.682C146.658 391.453 147.257 387.984 147.957 388.134V388.903C148.867 390.343 153.566 390.903 155.566 389.903L155.656 388.644Z" fill="#263238"/>
<path d="M141.579 303.412C145.517 302.126 149.118 299.974 152.116 297.114C152.116 297.114 150.117 301.113 144.038 304.772L145.328 338.955L141.579 303.412Z" fill="#263238"/>
<path d="M124.632 233.598C124.632 233.598 118.714 234.138 119.134 245.425L120.443 263.421L120.323 290.415C125.882 296.724 150.567 296.264 159.015 289.906C159.015 289.906 158.145 257.983 157.575 245.695C157.165 236.967 155.156 232.568 146.578 231.608L136.02 232.068L124.632 233.598Z" fill="#FC7A1E"/>
<path opacity="0.3" d="M141.459 239.517L142.818 248.995L145.988 248.935L142.409 249.494L141.459 239.517Z" fill="black"/>
<path d="M105.847 272.349C108.916 247.655 115.984 235.358 124.592 233.938L123.983 249.734C120.398 258.159 117.652 266.916 115.784 275.879C114.655 281.957 113.345 292.525 113.685 297.714C113.753 298.628 114.142 299.489 114.785 300.143C116.484 301.873 116.994 303.372 118.134 305.322C119.034 306.852 119.953 307.392 119.714 307.762C119.404 308.15 118.956 308.404 118.463 308.467C117.97 308.53 117.472 308.399 117.074 308.101C116.172 307.462 115.347 306.721 114.615 305.892C114.505 308.246 114.929 310.594 115.854 312.76C117.854 316.919 117.534 319.109 111.955 317.879C108.456 317.119 105.957 313.43 104.957 304.822C104.694 301.61 104.637 298.384 104.787 295.164C105.167 286.936 105.237 277.288 105.847 272.349Z" fill="#914F4E"/>
<path d="M125.082 233.528C120.613 233.528 116.534 234.298 113.285 240.526C110.176 246.525 107.786 259.212 106.576 263.361C106.576 263.361 113.105 267.221 119.114 267.121L123.343 252.444C123.343 252.444 126.202 245.595 125.082 233.528Z" fill="#FC7A1E"/>
<path opacity="0.3" d="M125.082 233.528C120.613 233.528 116.534 234.298 113.285 240.526C110.176 246.525 107.786 259.212 106.576 263.361C106.576 263.361 113.105 267.221 119.114 267.121L123.343 252.444C123.343 252.444 126.202 245.595 125.082 233.528Z" fill="black"/>
<path d="M134.31 208.114C134.4 210.323 135.138 212.457 136.431 214.25C137.724 216.043 139.516 217.417 141.584 218.2C143.651 218.983 145.903 219.141 148.06 218.655C150.217 218.168 152.183 217.059 153.714 215.464C155.245 213.869 156.274 211.859 156.672 209.684C157.07 207.509 156.82 205.265 155.953 203.232C155.086 201.198 153.64 199.464 151.795 198.245C149.951 197.026 147.789 196.376 145.578 196.376C142.528 196.442 139.629 197.715 137.517 199.915C135.405 202.115 134.251 205.064 134.31 208.114Z" fill="#263238"/>
<path d="M127.142 213.982C127.142 213.982 128.871 222.441 129.561 223.83C130.011 224.681 130.775 225.323 131.691 225.62L131.561 219.621L127.142 213.982Z" fill="#263238"/>
<path d="M129.311 201.865C129.311 201.865 128.032 201.605 126.752 203.605C125.622 205.364 125.372 209.323 127.142 213.972L130.391 214.362L129.311 201.865Z" fill="#263238"/>
<path d="M131.371 214.372C130.721 214.782 129.791 213.472 128.981 212.603C128.172 211.733 125.552 210.523 124.243 213.402C122.933 216.282 125.392 220.211 127.462 220.881C131.031 222.051 131.561 219.661 131.561 219.661L131.841 233.068C136.57 240.386 147.297 240.127 143.438 232.708V228.599C145.027 228.863 146.64 228.95 148.247 228.859C150.867 228.439 152.516 226.28 153.316 223.32C154.596 218.571 155.076 214.742 153.996 205.404C152.806 195.167 141.379 195.057 135.2 199.106C129.021 203.155 131.371 214.372 131.371 214.372Z" fill="#914F4E"/>
<path d="M131.781 230.059C132.881 232.31 134.461 234.293 136.41 235.868C138.068 237.09 139.989 237.908 142.019 238.257C140.345 239.39 138.973 240.914 138.02 242.696C136.84 245.305 128.502 238.137 128.582 233.048C128.582 233.048 129.891 227.939 131.681 227.609L131.781 230.059Z" fill="#263238"/>
<path d="M142.029 238.257C142.029 238.257 144.598 236.977 143.448 232.708V228.599L144.578 228.749C145.895 230.032 146.829 231.655 147.277 233.438C147.537 234.608 148.177 240.526 147.047 241.696C145.918 242.866 144.328 238.597 142.029 238.257Z" fill="#263238"/>
<path d="M131.371 215.522C131.041 215.522 129.791 213.372 128.982 212.603C127.852 211.533 129.312 201.865 129.312 201.865C129.017 201.031 128.962 200.13 129.153 199.266C129.344 198.402 129.773 197.609 130.391 196.976C131.941 195.207 134.52 194.977 138.919 194.297C140.676 194.081 142.418 193.764 144.138 193.347C145.954 192.667 147.702 191.817 149.357 190.808C149.878 190.47 150.501 190.328 151.117 190.408C151.401 190.503 151.654 190.672 151.853 190.896C152.051 191.121 152.187 191.394 152.246 191.687C152.347 192.273 152.347 192.871 152.246 193.457C152.802 192.94 153.541 192.664 154.3 192.69C155.059 192.716 155.777 193.042 156.296 193.597C156.787 194.182 157.106 194.891 157.219 195.646C157.332 196.401 157.234 197.173 156.935 197.876C156.297 199.275 155.251 200.449 153.936 201.245C148.407 204.984 141.879 203.945 135.68 203.245C135.387 203.179 135.082 203.2 134.8 203.305C133.801 203.745 133.621 206.754 133.451 207.624C132.951 210.523 132.471 215.502 131.371 215.522Z" fill="#263238"/>
<path d="M129.311 202.375L125.372 200.165C125.492 199.892 125.667 199.648 125.887 199.447C126.107 199.246 126.367 199.093 126.65 198.999C126.932 198.905 127.232 198.871 127.528 198.9C127.825 198.928 128.112 199.019 128.372 199.166C128.895 199.492 129.281 199.999 129.454 200.591C129.627 201.183 129.577 201.818 129.311 202.375Z" fill="#263238"/>
<path d="M143.428 228.599C143.428 228.599 137.58 227.369 135.53 226.24C134.314 225.575 133.327 224.557 132.701 223.32C133.006 224.562 133.553 225.73 134.31 226.76C135.8 228.759 143.428 230.229 143.428 230.229V228.599Z" fill="#783736"/>
<path d="M141.309 212.503C141.315 212.663 141.29 212.823 141.235 212.973C141.18 213.124 141.096 213.262 140.987 213.38C140.878 213.498 140.748 213.593 140.602 213.661C140.457 213.728 140.299 213.766 140.139 213.772C139.815 213.754 139.512 213.61 139.293 213.371C139.075 213.132 138.958 212.817 138.969 212.493C138.969 212.183 139.092 211.885 139.312 211.666C139.531 211.446 139.829 211.323 140.139 211.323C140.449 211.323 140.747 211.446 140.966 211.666C141.185 211.885 141.309 212.183 141.309 212.493V212.503Z" fill="#263238"/>
<path d="M139.299 207.424L136.79 208.864C136.609 208.507 136.569 208.096 136.676 207.711C136.783 207.326 137.031 206.996 137.37 206.784C137.537 206.691 137.721 206.634 137.911 206.616C138.102 206.598 138.294 206.62 138.475 206.68C138.656 206.74 138.823 206.837 138.965 206.965C139.107 207.093 139.221 207.25 139.299 207.424Z" fill="#263238"/>
<path d="M142.898 221.291L145.578 222.341C145.525 222.525 145.435 222.696 145.313 222.843C145.191 222.991 145.04 223.111 144.869 223.198C144.698 223.284 144.511 223.334 144.32 223.345C144.129 223.356 143.938 223.327 143.758 223.26C143.393 223.101 143.101 222.81 142.942 222.444C142.782 222.079 142.767 221.667 142.898 221.291Z" fill="#783736"/>
<path d="M153.026 208.824L150.387 207.544C150.451 207.365 150.553 207.202 150.685 207.065C150.817 206.928 150.977 206.821 151.154 206.75C151.33 206.679 151.52 206.647 151.71 206.654C151.9 206.662 152.086 206.709 152.256 206.794C152.613 206.977 152.889 207.286 153.032 207.661C153.174 208.036 153.172 208.45 153.026 208.824Z" fill="#263238"/>
<path d="M151.297 212.503C151.312 212.666 151.293 212.831 151.24 212.986C151.188 213.142 151.104 213.285 150.994 213.406C150.883 213.527 150.748 213.624 150.598 213.69C150.448 213.757 150.286 213.791 150.122 213.791C149.958 213.791 149.796 213.757 149.645 213.69C149.495 213.624 149.361 213.527 149.25 213.406C149.14 213.285 149.056 213.142 149.003 212.986C148.951 212.831 148.932 212.666 148.947 212.503C148.94 212.343 148.965 212.184 149.021 212.034C149.076 211.884 149.161 211.746 149.269 211.629C149.378 211.512 149.509 211.417 149.654 211.351C149.8 211.285 149.957 211.248 150.117 211.243C150.44 211.256 150.744 211.395 150.965 211.631C151.186 211.867 151.305 212.18 151.297 212.503Z" fill="#263238"/>
<path d="M144.648 211.593L144.778 219.001L148.987 218.041L144.648 211.593Z" fill="#783736"/>
<path d="M139.499 209.443C138.722 209.443 137.977 209.752 137.428 210.301C136.878 210.851 136.57 211.596 136.57 212.373C136.57 213.15 136.878 213.895 137.428 214.444C137.977 214.993 138.722 215.302 139.499 215.302H140.029C140.806 215.302 141.551 214.993 142.1 214.444C142.65 213.895 142.958 213.15 142.958 212.373C142.958 211.596 142.65 210.851 142.1 210.301C141.551 209.752 140.806 209.443 140.029 209.443H139.499ZM136.03 212.373C136.022 211.446 136.382 210.555 137.03 209.893C137.678 209.232 138.563 208.854 139.489 208.844H140.029C140.878 208.955 141.658 209.371 142.223 210.015C142.788 210.659 143.099 211.486 143.099 212.343C143.099 213.199 142.788 214.026 142.223 214.67C141.658 215.314 140.878 215.731 140.029 215.842H139.499C138.581 215.837 137.701 215.47 137.052 214.82C136.402 214.171 136.035 213.291 136.03 212.373Z" fill="#263238"/>
<path d="M150.027 209.443C149.25 209.443 148.505 209.752 147.955 210.301C147.406 210.851 147.097 211.596 147.097 212.373C147.097 213.15 147.406 213.895 147.955 214.444C148.505 214.993 149.25 215.302 150.027 215.302H150.557C151.334 215.302 152.079 214.993 152.628 214.444C153.177 213.895 153.486 213.15 153.486 212.373C153.486 211.596 153.177 210.851 152.628 210.301C152.079 209.752 151.334 209.443 150.557 209.443H150.027ZM146.568 212.373C146.56 211.446 146.919 210.555 147.568 209.893C148.216 209.232 149.1 208.854 150.027 208.844H150.557C151.406 208.955 152.186 209.371 152.75 210.015C153.315 210.659 153.627 211.486 153.627 212.343C153.627 213.199 153.315 214.026 152.75 214.67C152.186 215.314 151.406 215.731 150.557 215.842H150.027C149.113 215.829 148.242 215.458 147.599 214.81C146.956 214.161 146.593 213.286 146.588 212.373H146.568Z" fill="#263238"/>
<path d="M143.448 211.673C143.658 211.383 143.932 211.145 144.25 210.98C144.568 210.815 144.92 210.727 145.278 210.723C145.573 210.691 145.872 210.731 146.149 210.839C146.425 210.947 146.672 211.12 146.868 211.343L147.338 210.983C147.088 210.678 146.766 210.441 146.401 210.292C146.036 210.144 145.64 210.089 145.248 210.133C144.794 210.138 144.348 210.252 143.948 210.466C143.547 210.68 143.204 210.988 142.948 211.363L143.448 211.673Z" fill="#263238"/>
<path d="M136.35 211.643H130.391V212.233H136.35V211.643Z" fill="#263238"/>
</svg>
