<svg width="30" height="30" viewBox="0 0 30 30" fill="none" xmlns="http://www.w3.org/2000/svg">
<g clip-path="url(#clip0_276_1553)">
<path d="M15.0024 0C10.9277 0 10.415 0.0170898 8.81592 0.090332C7.57179 0.115619 6.34096 0.351713 5.17578 0.788574C4.17433 1.16299 3.26748 1.75311 2.51953 2.51709C1.75623 3.26657 1.16481 4.17287 0.786133 5.17334C0.349102 6.33923 0.113805 7.57103 0.090332 8.81592C0.0195313 10.415 0 10.9253 0 15C0 19.0747 0.0170898 19.5825 0.090332 21.1841C0.115619 22.4282 0.351713 23.659 0.788574 24.8242C1.16484 25.8247 1.75471 26.7312 2.51709 27.4805C3.26592 28.2446 4.17241 28.8361 5.17334 29.2139C6.33955 29.6498 7.57115 29.885 8.81592 29.9097C10.415 29.9829 10.9253 30 15 30C19.0747 30 19.5825 29.9829 21.1841 29.9097C22.4288 29.885 23.6605 29.6498 24.8267 29.2139C25.8243 28.8269 26.7303 28.2363 27.487 27.4796C28.2436 26.723 28.8342 25.817 29.2212 24.8193C29.6557 23.6535 29.8917 22.4231 29.9194 21.1792C29.9902 19.5801 30.0098 19.0698 30.0098 14.9951C30.0098 10.9204 29.9902 10.4102 29.9194 8.81104C29.8917 7.56637 29.6557 6.33514 29.2212 5.16846C28.8444 4.16764 28.2536 3.26113 27.4902 2.51221C26.7427 1.74766 25.8358 1.15746 24.834 0.783691C23.6646 0.347415 22.4296 0.11296 21.1816 0.090332C19.5801 0.0170898 19.0723 0 14.9976 0H15.0024ZM13.6548 2.70264H15.0024C19.0063 2.70264 19.48 2.71729 21.062 2.79053C22.0132 2.80135 22.9555 2.9756 23.8477 3.30566C24.499 3.54629 25.088 3.93007 25.5713 4.42871C26.0689 4.9128 26.4525 5.50158 26.6943 6.15234C27.0244 7.04452 27.1986 7.98678 27.2095 8.93799C27.2827 10.5176 27.2974 10.9937 27.2974 14.9976C27.2974 19.0015 27.2827 19.4751 27.2095 21.0571C27.1989 22.0076 27.0246 22.9491 26.6943 23.8403C26.4445 24.4867 26.0621 25.0737 25.5718 25.5636C25.0816 26.0534 24.4943 26.4352 23.8477 26.6846C22.9561 27.0172 22.0135 27.1923 21.062 27.2021C19.4824 27.2754 19.0063 27.29 15.0024 27.29C10.9985 27.29 10.5225 27.2754 8.94043 27.2021C7.98908 27.1905 7.04681 27.0155 6.15478 26.6846C5.50278 26.445 4.91291 26.062 4.42871 25.564C3.93095 25.0805 3.54802 24.4915 3.30811 23.8403C2.97721 22.9483 2.80214 22.006 2.79053 21.0547C2.71973 19.4727 2.70508 18.999 2.70508 14.9927C2.70508 10.9863 2.71973 10.5151 2.79053 8.93311C2.80067 7.98161 2.97579 7.03909 3.30811 6.14746C3.54802 5.49633 3.93095 4.90732 4.42871 4.42383C4.91329 3.92566 5.503 3.54197 6.15478 3.30078C7.04709 2.97091 7.98919 2.79587 8.94043 2.7832C10.3247 2.72217 10.8594 2.70264 13.6548 2.7002V2.70264ZM23.0078 5.19287C22.6514 5.19287 22.3029 5.2986 22.0066 5.49669C21.7102 5.69478 21.4793 5.97632 21.343 6.30569C21.2067 6.63506 21.1711 6.99746 21.2409 7.34703C21.3106 7.69661 21.4824 8.01765 21.7346 8.26953C21.9869 8.52141 22.3081 8.69282 22.6578 8.76206C23.0075 8.83131 23.3698 8.79528 23.699 8.65853C24.0282 8.52179 24.3094 8.29047 24.5071 7.99385C24.7048 7.69724 24.8101 7.34864 24.8096 6.99219C24.8096 6.75569 24.7629 6.52152 24.6724 6.30305C24.5818 6.08459 24.449 5.88613 24.2817 5.71901C24.1144 5.5519 23.9157 5.41941 23.6971 5.32913C23.4785 5.23885 23.2443 5.19255 23.0078 5.19287ZM15.0024 7.29736C13.479 7.29736 11.9898 7.74912 10.7231 8.59549C9.45639 9.44187 8.46913 10.6449 7.88613 12.0523C7.30314 13.4598 7.1506 15.0085 7.44781 16.5027C7.74502 17.9969 8.47862 19.3694 9.55585 20.4466C10.6331 21.5238 12.0056 22.2574 13.4997 22.5546C14.9939 22.8518 16.5426 22.6993 17.9501 22.1163C19.3576 21.5333 20.5606 20.546 21.407 19.2794C22.2533 18.0127 22.7051 16.5234 22.7051 15C22.7044 12.9573 21.8927 10.9985 20.4483 9.55413C19.0039 8.10974 17.0451 7.29801 15.0024 7.29736ZM15.0024 10C15.9917 9.99855 16.9591 10.2906 17.7823 10.8391C18.6055 11.3876 19.2475 12.168 19.6271 13.0815C20.0066 13.995 20.1067 15.0006 19.9146 15.971C19.7225 16.9413 19.2469 17.8329 18.5479 18.5329C17.8489 19.2329 16.958 19.7099 15.9879 19.9034C15.0178 20.0969 14.0121 19.9983 13.098 19.6201C12.184 19.2419 11.4027 18.601 10.8529 17.7786C10.3032 16.9562 10.0098 15.9892 10.0098 15C10.0123 13.6769 10.5393 12.4087 11.4751 11.4734C12.4109 10.538 13.6793 10.0117 15.0024 10.0098V10Z" fill="black"/>
</g>
<defs>
<clipPath id="clip0_276_1553">
<rect width="30" height="30" fill="white"/>
</clipPath>
</defs>
</svg>
