<svg width="40" height="40" viewBox="0 0 40 40" fill="none" xmlns="http://www.w3.org/2000/svg">
<path d="M18.8747 28.3333H21.3747V21.4166H28.333V18.9166H21.3747V11.6666H18.8747V18.9166H11.6663V21.4166H18.8747V28.3333ZM19.9997 36.6666C17.7219 36.6666 15.5691 36.2291 13.5413 35.3541C11.5136 34.4791 9.74273 33.2847 8.22884 31.7708C6.71495 30.2569 5.52051 28.4861 4.64551 26.4583C3.77051 24.4305 3.33301 22.2639 3.33301 19.9583C3.33301 17.6805 3.77051 15.5278 4.64551 13.5C5.52051 11.4722 6.71495 9.70831 8.22884 8.20831C9.74273 6.70831 11.5136 5.52081 13.5413 4.64581C15.5691 3.77081 17.7358 3.33331 20.0413 3.33331C22.3191 3.33331 24.4719 3.77081 26.4997 4.64581C28.5275 5.52081 30.2913 6.70831 31.7913 8.20831C33.2913 9.70831 34.4788 11.4722 35.3538 13.5C36.2288 15.5278 36.6663 17.6944 36.6663 20C36.6663 22.2778 36.2288 24.4305 35.3538 26.4583C34.4788 28.4861 33.2913 30.2569 31.7913 31.7708C30.2913 33.2847 28.5275 34.4791 26.4997 35.3541C24.4719 36.2291 22.3052 36.6666 19.9997 36.6666ZM20.0413 34.1666C23.958 34.1666 27.2913 32.7847 30.0413 30.0208C32.7913 27.2569 34.1663 23.9028 34.1663 19.9583C34.1663 16.0416 32.7913 12.7083 30.0413 9.95831C27.2913 7.20831 23.9441 5.83331 19.9997 5.83331C16.083 5.83331 12.7427 7.20831 9.97884 9.95831C7.21495 12.7083 5.83301 16.0555 5.83301 20C5.83301 23.9166 7.21495 27.2569 9.97884 30.0208C12.7427 32.7847 16.0969 34.1666 20.0413 34.1666Z" fill="#006989"/>
</svg>
