<svg width="30" height="30" viewBox="0 0 30 30" fill="none" xmlns="http://www.w3.org/2000/svg">
<path d="M15 27.5C13.2292 27.5 11.5833 27.1823 10.0625 26.5469C8.54167 25.9115 7.21875 25.0312 6.09375 23.9062C4.96875 22.7812 4.08854 21.4583 3.45313 19.9375C2.81771 18.4167 2.5 16.7708 2.5 15C2.5 13.25 2.81771 11.6146 3.45313 10.0938C4.08854 8.57292 4.96875 7.25 6.09375 6.125C7.21875 5 8.54167 4.11458 10.0625 3.46875C11.5833 2.82292 13.2292 2.5 15 2.5C16.5625 2.5 18.0208 2.75 19.375 3.25C20.7292 3.75 21.9479 4.4375 23.0312 5.3125L21.6875 6.65625C20.7708 5.92708 19.75 5.36458 18.625 4.96875C17.5 4.57292 16.2917 4.375 15 4.375C11.9792 4.375 9.45312 5.39062 7.42188 7.42188C5.39062 9.45312 4.375 11.9792 4.375 15C4.375 18.0208 5.39062 20.5469 7.42188 22.5781C9.45312 24.6094 11.9792 25.625 15 25.625C15.7708 25.625 16.5156 25.5521 17.2344 25.4062C17.9531 25.2604 18.6458 25.0417 19.3125 24.75L20.7188 26.1875C19.8646 26.6042 18.9583 26.9271 18 27.1562C17.0417 27.3854 16.0417 27.5 15 27.5ZM24.0625 24.6875V20.9375H20.3125V19.0625H24.0625V15.3125H25.9375V19.0625H29.6875V20.9375H25.9375V24.6875H24.0625ZM13.1562 20.6875L8 15.5L9.40625 14.0938L13.1562 17.8438L26.0938 4.90625L27.5312 6.3125L13.1562 20.6875Z" fill="#006989"/>
</svg>
